<svg width="23" height="19" viewBox="0 0 23 19" fill="none" xmlns="http://www.w3.org/2000/svg">
<path d="M15.6338 17.4318V15.6338C15.6338 14.6801 15.255 13.7655 14.5806 13.0911C13.9062 12.4167 12.9916 12.0379 12.0379 12.0379H4.84596C3.89225 12.0379 2.97761 12.4167 2.30323 13.0911C1.62886 13.7655 1.25 14.6801 1.25 15.6338V17.4318M21.0278 17.4318V15.6338C21.0272 14.8371 20.762 14.0631 20.2739 13.4334C19.7857 12.8037 19.1023 12.3539 18.3308 12.1547M14.7348 1.36687C15.5084 1.56492 16.1939 2.01477 16.6835 2.64551C17.1731 3.27625 17.4389 4.052 17.4389 4.85045C17.4389 5.64891 17.1731 6.42466 16.6835 7.0554C16.1939 7.68614 15.5084 8.13599 14.7348 8.33404M12.0379 4.84596C12.0379 6.83195 10.4279 8.44192 8.44192 8.44192C6.45593 8.44192 4.84596 6.83195 4.84596 4.84596C4.84596 2.85997 6.45593 1.25 8.44192 1.25C10.4279 1.25 12.0379 2.85997 12.0379 4.84596Z" stroke="#0E412E" stroke-width="2.5" stroke-linecap="round" stroke-linejoin="round"/>
</svg>
