<svg width="22" height="22" viewBox="0 0 22 22" fill="none" xmlns="http://www.w3.org/2000/svg">
<path d="M14.5 10.5002C14.5 12.4332 12.933 14.0002 11 14.0002C9.067 14.0002 7.5 12.4332 7.5 10.5002C7.5 8.56725 9.067 7.00024 11 7.00024C12.933 7.00024 14.5 8.56725 14.5 10.5002Z" stroke="white" stroke-width="2"/>
<path d="M20 12.5998C20.3155 12.5136 20.6503 12.4671 21 12.4671V8.53348C18.1433 8.53348 16.2857 5.43065 17.732 2.96715L14.2679 1.00034C12.8038 3.49429 9.19781 3.4942 7.73363 1.00024L4.26953 2.96706C5.71586 5.4306 3.85673 8.53348 1 8.53348V12.4671C3.85668 12.4671 5.71425 15.5699 4.26795 18.0334L7.73205 20.0002C8.46434 18.7529 9.73212 18.1291 11 18.1288" stroke="white" stroke-width="2" stroke-linecap="round" stroke-linejoin="round"/>
<path d="M17.5 14.0002L17.7579 14.6973C18.0961 15.6113 18.2652 16.0683 18.5986 16.4016C18.932 16.735 19.389 16.9041 20.303 17.2423L21 17.5002L20.303 17.7582C19.389 18.0964 18.932 18.2655 18.5986 18.5989C18.2652 18.9322 18.0961 19.3892 17.7579 20.3032L17.5 21.0002L17.2421 20.3032C16.9039 19.3892 16.7348 18.9322 16.4014 18.5989C16.068 18.2655 15.611 18.0964 14.697 17.7582L14 17.5002L14.697 17.2423C15.611 16.9041 16.068 16.735 16.4014 16.4016C16.7348 16.0683 16.9039 15.6113 17.2421 14.6973L17.5 14.0002Z" stroke="white" stroke-width="2" stroke-linejoin="round"/>
</svg>
