<svg width="27" height="26" viewBox="0 0 27 26" fill="none" xmlns="http://www.w3.org/2000/svg">
<path d="M21.0131 0.780074C21.0213 0.739975 21.0786 0.739975 21.0868 0.780074C21.5122 2.86131 23.1387 4.48777 25.2199 4.91316C25.26 4.92135 25.26 4.97865 25.2199 4.98684C23.1387 5.41223 21.5122 7.03869 21.0868 9.11993C21.0786 9.16002 21.0213 9.16002 21.0131 9.11993C20.5877 7.03869 18.9613 5.41223 16.88 4.98684C16.84 4.97865 16.84 4.92135 16.8801 4.91316C18.9613 4.48777 20.5877 2.86131 21.0131 0.780074Z" stroke="white" stroke-width="1.5" stroke-linecap="round" stroke-linejoin="round"/>
<path d="M13.2399 11.55H13.2507M8.44531 11.55H8.45608" stroke="white" stroke-width="2" stroke-linecap="round" stroke-linejoin="round"/>
<path d="M14.45 1.95568C14.0536 1.95191 13.6535 1.95 13.25 1.95C11.4751 1.95 9.7642 1.98708 8.15744 2.05582C5.22884 2.18112 3.76454 2.24377 2.60608 3.41094C1.44763 4.57811 1.39739 6.00219 1.29691 8.85036C1.26616 9.72214 1.25 10.6251 1.25 11.55C1.25 12.4749 1.26616 13.3778 1.29691 14.2496C1.39739 17.0978 1.44763 18.5219 2.60608 19.6891C3.76454 20.8562 5.22883 20.9189 8.15743 21.0442C8.25458 21.0483 8.3521 21.0524 8.45 21.0563V23.8741C8.45 24.3578 8.84215 24.75 9.32589 24.75C9.53503 24.75 9.73727 24.6752 9.89604 24.539L12.5114 22.2964C13.1689 21.7326 13.4977 21.4507 13.8884 21.3019C14.2791 21.1531 14.7238 21.1446 15.6132 21.1278C16.5498 21.11 17.4618 21.0819 18.3424 21.0442C21.2711 20.9189 22.7355 20.8562 23.8939 19.6891C25.0524 18.5219 25.1026 17.0978 25.2031 14.2496C25.2338 13.3778 25.25 12.4749 25.25 11.55C25.25 10.9395 25.243 10.3387 25.2293 9.75" stroke="white" stroke-width="2.5" stroke-linecap="round" stroke-linejoin="round"/>
</svg>
