<svg width="374" height="65" viewBox="0 0 374 65" fill="none" xmlns="http://www.w3.org/2000/svg">
<mask id="path-1-outside-1_11402_32045" maskUnits="userSpaceOnUse" x="-0.243744" y="-0.137512" width="375" height="66" fill="black">
<rect fill="white" x="-0.243744" y="-0.137512" width="375" height="66"/>
<path d="M26.0188 5.89374L21.7844 23.8625H16.0344L23.05 1.11249H26.6438L26.0188 5.89374ZM29.3313 23.8625L25.0969 5.89374L24.3938 1.11249H28.05L35.0813 23.8625H29.3313ZM29.5031 15.3781V19.6125H19.6438V15.3781H29.5031ZM53.0313 19.6437V23.8625H43.4688V19.6437H53.0313ZM45.3438 1.11249V23.8625H40V1.11249H45.3438ZM71.575 19.6437V23.8625H62.0125V19.6437H71.575ZM63.8875 1.11249V23.8625H58.5438V1.11249H63.8875ZM93.2563 1.11249V23.8625H87.9281V1.11249H93.2563ZM116.206 1.11249V23.8625H110.878L105.175 9.70624V23.8625H99.8313V1.11249H105.175L110.878 15.2687V1.11249H116.206ZM128.891 23.8625H124.719L124.75 19.6437H128.891C129.672 19.6437 130.307 19.4719 130.797 19.1281C131.297 18.7844 131.667 18.2167 131.906 17.425C132.146 16.6229 132.266 15.5552 132.266 14.2219V10.7375C132.266 9.73749 132.198 8.89374 132.062 8.20624C131.938 7.51874 131.74 6.96665 131.469 6.54999C131.198 6.13332 130.839 5.83124 130.391 5.64374C129.943 5.44582 129.411 5.34686 128.797 5.34686H124.641V1.11249H128.797C130.13 1.11249 131.339 1.33124 132.422 1.76874C133.516 2.19582 134.458 2.83124 135.25 3.67499C136.042 4.50832 136.651 5.51874 137.078 6.70624C137.505 7.89374 137.719 9.2479 137.719 10.7687V14.2219C137.719 15.7323 137.505 17.0864 137.078 18.2844C136.651 19.4719 136.042 20.4823 135.25 21.3156C134.469 22.1489 133.536 22.7844 132.453 23.2219C131.38 23.6489 130.193 23.8625 128.891 23.8625ZM127.844 1.11249V23.8625H122.5V1.11249H127.844ZM149.263 1.11249V23.8625H143.934V1.11249H149.263ZM164.713 5.89374L160.478 23.8625H154.728L161.744 1.11249H165.338L164.713 5.89374ZM168.025 23.8625L163.791 5.89374L163.088 1.11249H166.744L173.775 23.8625H168.025ZM168.197 15.3781V19.6125H158.338V15.3781H168.197ZM191.941 1.11249H196.269L199.847 16.9406L203.425 1.11249H207.738L201.613 23.8625H198.081L191.941 1.11249ZM189.269 1.11249H193.753L194.613 18.55V23.8625H189.269V1.11249ZM205.925 1.11249H210.425V23.8625H205.066V18.55L205.925 1.11249ZM225.625 5.89374L221.391 23.8625H215.641L222.656 1.11249H226.25L225.625 5.89374ZM228.938 23.8625L224.703 5.89374L224 1.11249H227.656L234.688 23.8625H228.938ZM229.109 15.3781V19.6125H219.25V15.3781H229.109ZM246.966 16.7219V1.11249H252.294V16.7219C252.294 18.2427 251.992 19.5604 251.387 20.675C250.794 21.7896 249.981 22.6542 248.95 23.2687C247.929 23.8729 246.783 24.175 245.512 24.175C244.21 24.175 243.044 23.9198 242.012 23.4094C240.992 22.8989 240.19 22.1125 239.606 21.05C239.023 19.9875 238.731 18.6333 238.731 16.9875H244.091C244.091 17.7583 244.143 18.3625 244.247 18.8C244.361 19.2271 244.523 19.5292 244.731 19.7062C244.94 19.8729 245.2 19.9562 245.512 19.9562C245.846 19.9562 246.117 19.8312 246.325 19.5812C246.533 19.3208 246.69 18.951 246.794 18.4719C246.908 17.9823 246.966 17.3989 246.966 16.7219ZM271.65 19.6437V23.8625H262.087V19.6437H271.65ZM263.962 1.11249V23.8625H258.619V1.11249H263.962ZM282.756 1.11249V23.8625H277.428V1.11249H282.756ZM298.878 17.8156C298.878 17.4614 298.842 17.1437 298.769 16.8625C298.706 16.5708 298.576 16.3 298.378 16.05C298.191 15.8 297.904 15.55 297.519 15.3C297.133 15.0396 296.618 14.7687 295.972 14.4875C295.159 14.1542 294.363 13.7792 293.581 13.3625C292.8 12.9354 292.097 12.4406 291.472 11.8781C290.857 11.3052 290.363 10.6385 289.988 9.87811C289.613 9.10728 289.425 8.21145 289.425 7.19061C289.425 6.21145 289.613 5.33124 289.988 4.54999C290.373 3.75832 290.899 3.08645 291.566 2.53436C292.243 1.97186 293.04 1.54478 293.956 1.25311C294.873 0.951029 295.873 0.799988 296.956 0.799988C298.394 0.799988 299.659 1.09165 300.753 1.67499C301.857 2.2479 302.717 3.06561 303.331 4.12811C303.956 5.1802 304.269 6.42499 304.269 7.86249H298.941C298.941 7.28957 298.868 6.78436 298.722 6.34686C298.576 5.90936 298.347 5.56561 298.034 5.31561C297.732 5.06561 297.331 4.94061 296.831 4.94061C296.383 4.94061 296.003 5.04478 295.691 5.25311C295.389 5.46145 295.159 5.7427 295.003 6.09686C294.847 6.44061 294.769 6.82082 294.769 7.23749C294.769 7.58124 294.847 7.89374 295.003 8.17499C295.159 8.44582 295.373 8.70103 295.644 8.94061C295.925 9.1802 296.248 9.40936 296.613 9.62811C296.988 9.84686 297.389 10.0604 297.816 10.2687C298.847 10.6542 299.758 11.0864 300.55 11.5656C301.352 12.0344 302.024 12.5708 302.566 13.175C303.107 13.7687 303.514 14.4458 303.784 15.2062C304.066 15.9667 304.206 16.826 304.206 17.7844C304.206 18.8052 304.04 19.7114 303.706 20.5031C303.383 21.2948 302.909 21.9667 302.284 22.5187C301.659 23.0604 300.904 23.4719 300.019 23.7531C299.144 24.0344 298.154 24.175 297.05 24.175C296.04 24.175 295.045 24.0292 294.066 23.7375C293.097 23.4354 292.217 22.9771 291.425 22.3625C290.644 21.7375 290.019 20.9406 289.55 19.9719C289.081 18.9927 288.847 17.8312 288.847 16.4875H294.222C294.222 17.1542 294.274 17.7167 294.378 18.175C294.482 18.6333 294.644 19.0031 294.863 19.2844C295.092 19.5552 295.383 19.7531 295.738 19.8781C296.092 19.9927 296.529 20.05 297.05 20.05C297.529 20.05 297.899 19.951 298.159 19.7531C298.43 19.5448 298.618 19.2739 298.722 18.9406C298.826 18.5969 298.878 18.2219 298.878 17.8156ZM319.359 12.0187V16.0969H311.141V12.0187H319.359ZM340.294 19.6437V23.8625H330.341V19.6437H340.294ZM332.2 1.11249V23.8625H326.856V1.11249H332.2ZM338.997 10.1437V14.2219H330.341V10.1437H338.997ZM340.341 1.11249V5.34686H330.341V1.11249H340.341ZM354.884 12.0187V16.0969H346.666V12.0187H354.884ZM6.12813 41.1125V63.8625H0.800003V41.1125H6.12813ZM22.1563 41.1125V63.8625H16.7969V41.1125H22.1563ZM27.6719 41.1125V45.3469H11.4375V41.1125H27.6719ZM43.3563 41.1125V63.8625H37.9969V41.1125H43.3563ZM48.8719 41.1125V45.3469H32.6375V41.1125H48.8719ZM67.8219 59.6437V63.8625H57.8688V59.6437H67.8219ZM59.7281 41.1125V63.8625H54.3844V41.1125H59.7281ZM66.525 50.1437V54.2219H57.8688V50.1437H66.525ZM67.8688 41.1125V45.3469H57.8688V41.1125H67.8688ZM86.0219 50.1437V54.3625H76.8031V50.1437H86.0219ZM78.5531 41.1125V63.8625H73.2094V41.1125H78.5531ZM89.6313 41.1125V63.8625H84.2875V41.1125H89.6313ZM104.784 45.8937L100.55 63.8625H94.8L101.816 41.1125H105.409L104.784 45.8937ZM108.097 63.8625L103.863 45.8937L103.159 41.1125H106.816L113.847 63.8625H108.097ZM108.269 55.3781V59.6125H98.4094V55.3781H108.269ZM125.156 63.8625H120.984L121.016 59.6437H125.156C125.938 59.6437 126.573 59.4719 127.062 59.1281C127.562 58.7844 127.932 58.2167 128.172 57.425C128.411 56.6229 128.531 55.5552 128.531 54.2219V50.7375C128.531 49.7375 128.464 48.8937 128.328 48.2062C128.203 47.5187 128.005 46.9667 127.734 46.55C127.464 46.1333 127.104 45.8312 126.656 45.6437C126.208 45.4458 125.677 45.3469 125.062 45.3469H120.906V41.1125H125.062C126.396 41.1125 127.604 41.3312 128.688 41.7687C129.781 42.1958 130.724 42.8312 131.516 43.675C132.307 44.5083 132.917 45.5187 133.344 46.7062C133.771 47.8937 133.984 49.2479 133.984 50.7687V54.2219C133.984 55.7323 133.771 57.0864 133.344 58.2844C132.917 59.4719 132.307 60.4823 131.516 61.3156C130.734 62.1489 129.802 62.7844 128.719 63.2219C127.646 63.6489 126.458 63.8625 125.156 63.8625ZM124.109 41.1125V63.8625H118.766V41.1125H124.109ZM149.966 41.1125H155.325V56.5969C155.325 58.3677 155.007 59.8156 154.372 60.9406C153.736 62.0552 152.846 62.8729 151.7 63.3937C150.554 63.9146 149.2 64.175 147.637 64.175C146.085 64.175 144.731 63.9146 143.575 63.3937C142.419 62.8729 141.512 62.0552 140.856 60.9406C140.21 59.8156 139.887 58.3677 139.887 56.5969V41.1125H145.262V56.5969C145.262 57.5344 145.346 58.2479 145.512 58.7375C145.69 59.2167 145.955 59.5396 146.309 59.7062C146.664 59.8729 147.106 59.9562 147.637 59.9562C148.179 59.9562 148.622 59.8729 148.966 59.7062C149.309 59.5396 149.559 59.2167 149.716 58.7375C149.882 58.2479 149.966 57.5344 149.966 56.5969V41.1125ZM174.666 59.6437V63.8625H165.103V59.6437H174.666ZM166.978 41.1125V63.8625H161.634V41.1125H166.978ZM193.425 41.1125H197.753L201.331 56.9406L204.909 41.1125H209.222L203.097 63.8625H199.566L193.425 41.1125ZM190.753 41.1125H195.238L196.097 58.55V63.8625H190.753V41.1125ZM207.409 41.1125H211.909V63.8625H206.55V58.55L207.409 41.1125ZM228.266 41.1125H233.625V56.5969C233.625 58.3677 233.307 59.8156 232.672 60.9406C232.036 62.0552 231.146 62.8729 230 63.3937C228.854 63.9146 227.5 64.175 225.938 64.175C224.385 64.175 223.031 63.9146 221.875 63.3937C220.719 62.8729 219.812 62.0552 219.156 60.9406C218.51 59.8156 218.188 58.3677 218.188 56.5969V41.1125H223.562V56.5969C223.562 57.5344 223.646 58.2479 223.812 58.7375C223.99 59.2167 224.255 59.5396 224.609 59.7062C224.964 59.8729 225.406 59.9562 225.938 59.9562C226.479 59.9562 226.922 59.8729 227.266 59.7062C227.609 59.5396 227.859 59.2167 228.016 58.7375C228.182 58.2479 228.266 57.5344 228.266 56.5969V41.1125ZM249.481 57.8156C249.481 57.4614 249.445 57.1437 249.372 56.8625C249.309 56.5708 249.179 56.3 248.981 56.05C248.794 55.8 248.507 55.55 248.122 55.3C247.736 55.0396 247.221 54.7687 246.575 54.4875C245.762 54.1542 244.966 53.7792 244.184 53.3625C243.403 52.9354 242.7 52.4406 242.075 51.8781C241.46 51.3052 240.966 50.6385 240.591 49.8781C240.216 49.1073 240.028 48.2114 240.028 47.1906C240.028 46.2114 240.216 45.3312 240.591 44.55C240.976 43.7583 241.502 43.0864 242.169 42.5344C242.846 41.9719 243.643 41.5448 244.559 41.2531C245.476 40.951 246.476 40.8 247.559 40.8C248.997 40.8 250.262 41.0917 251.356 41.675C252.46 42.2479 253.32 43.0656 253.934 44.1281C254.559 45.1802 254.872 46.425 254.872 47.8625H249.544C249.544 47.2896 249.471 46.7844 249.325 46.3469C249.179 45.9094 248.95 45.5656 248.637 45.3156C248.335 45.0656 247.934 44.9406 247.434 44.9406C246.986 44.9406 246.606 45.0448 246.294 45.2531C245.992 45.4614 245.762 45.7427 245.606 46.0969C245.45 46.4406 245.372 46.8208 245.372 47.2375C245.372 47.5812 245.45 47.8937 245.606 48.175C245.762 48.4458 245.976 48.701 246.247 48.9406C246.528 49.1802 246.851 49.4094 247.216 49.6281C247.591 49.8469 247.992 50.0604 248.419 50.2687C249.45 50.6542 250.361 51.0864 251.153 51.5656C251.955 52.0344 252.627 52.5708 253.169 53.175C253.71 53.7687 254.117 54.4458 254.387 55.2062C254.669 55.9667 254.809 56.826 254.809 57.7844C254.809 58.8052 254.643 59.7114 254.309 60.5031C253.986 61.2948 253.512 61.9667 252.887 62.5187C252.262 63.0604 251.507 63.4719 250.622 63.7531C249.747 64.0344 248.757 64.175 247.653 64.175C246.643 64.175 245.648 64.0292 244.669 63.7375C243.7 63.4354 242.82 62.9771 242.028 62.3625C241.247 61.7375 240.622 60.9406 240.153 59.9719C239.684 58.9927 239.45 57.8312 239.45 56.4875H244.825C244.825 57.1542 244.877 57.7167 244.981 58.175C245.085 58.6333 245.247 59.0031 245.466 59.2844C245.695 59.5552 245.986 59.7531 246.341 59.8781C246.695 59.9927 247.132 60.05 247.653 60.05C248.132 60.05 248.502 59.951 248.762 59.7531C249.033 59.5448 249.221 59.2739 249.325 58.9406C249.429 58.5969 249.481 58.2219 249.481 57.8156ZM273.791 59.6437V63.8625H264.228V59.6437H273.791ZM266.103 41.1125V63.8625H260.759V41.1125H266.103ZM284.897 41.1125V63.8625H279.569V41.1125H284.897ZM294.144 41.1125H298.472L302.05 56.9406L305.628 41.1125H309.941L303.816 63.8625H300.284L294.144 41.1125ZM291.472 41.1125H295.956L296.816 58.55V63.8625H291.472V41.1125ZM308.128 41.1125H312.628V63.8625H307.269V58.55L308.128 41.1125ZM332.391 59.6437V63.8625H322.438V59.6437H332.391ZM324.297 41.1125V63.8625H318.953V41.1125H324.297ZM331.094 50.1437V54.2219H322.438V50.1437H331.094ZM332.438 41.1125V45.3469H322.438V41.1125H332.438ZM351.216 59.6437V63.8625H341.262V59.6437H351.216ZM343.122 41.1125V63.8625H337.778V41.1125H343.122ZM349.919 50.1437V54.2219H341.262V50.1437H349.919ZM351.262 41.1125V45.3469H341.262V41.1125H351.262ZM372.978 41.1125V63.8625H367.65L361.947 49.7062V63.8625H356.603V41.1125H361.947L367.65 55.2687V41.1125H372.978Z"/>
</mask>
<path d="M26.0188 5.89374L21.7844 23.8625H16.0344L23.05 1.11249H26.6438L26.0188 5.89374ZM29.3313 23.8625L25.0969 5.89374L24.3938 1.11249H28.05L35.0813 23.8625H29.3313ZM29.5031 15.3781V19.6125H19.6438V15.3781H29.5031ZM53.0313 19.6437V23.8625H43.4688V19.6437H53.0313ZM45.3438 1.11249V23.8625H40V1.11249H45.3438ZM71.575 19.6437V23.8625H62.0125V19.6437H71.575ZM63.8875 1.11249V23.8625H58.5438V1.11249H63.8875ZM93.2563 1.11249V23.8625H87.9281V1.11249H93.2563ZM116.206 1.11249V23.8625H110.878L105.175 9.70624V23.8625H99.8313V1.11249H105.175L110.878 15.2687V1.11249H116.206ZM128.891 23.8625H124.719L124.75 19.6437H128.891C129.672 19.6437 130.307 19.4719 130.797 19.1281C131.297 18.7844 131.667 18.2167 131.906 17.425C132.146 16.6229 132.266 15.5552 132.266 14.2219V10.7375C132.266 9.73749 132.198 8.89374 132.062 8.20624C131.938 7.51874 131.74 6.96665 131.469 6.54999C131.198 6.13332 130.839 5.83124 130.391 5.64374C129.943 5.44582 129.411 5.34686 128.797 5.34686H124.641V1.11249H128.797C130.13 1.11249 131.339 1.33124 132.422 1.76874C133.516 2.19582 134.458 2.83124 135.25 3.67499C136.042 4.50832 136.651 5.51874 137.078 6.70624C137.505 7.89374 137.719 9.2479 137.719 10.7687V14.2219C137.719 15.7323 137.505 17.0864 137.078 18.2844C136.651 19.4719 136.042 20.4823 135.25 21.3156C134.469 22.1489 133.536 22.7844 132.453 23.2219C131.38 23.6489 130.193 23.8625 128.891 23.8625ZM127.844 1.11249V23.8625H122.5V1.11249H127.844ZM149.263 1.11249V23.8625H143.934V1.11249H149.263ZM164.713 5.89374L160.478 23.8625H154.728L161.744 1.11249H165.338L164.713 5.89374ZM168.025 23.8625L163.791 5.89374L163.088 1.11249H166.744L173.775 23.8625H168.025ZM168.197 15.3781V19.6125H158.338V15.3781H168.197ZM191.941 1.11249H196.269L199.847 16.9406L203.425 1.11249H207.738L201.613 23.8625H198.081L191.941 1.11249ZM189.269 1.11249H193.753L194.613 18.55V23.8625H189.269V1.11249ZM205.925 1.11249H210.425V23.8625H205.066V18.55L205.925 1.11249ZM225.625 5.89374L221.391 23.8625H215.641L222.656 1.11249H226.25L225.625 5.89374ZM228.938 23.8625L224.703 5.89374L224 1.11249H227.656L234.688 23.8625H228.938ZM229.109 15.3781V19.6125H219.25V15.3781H229.109ZM246.966 16.7219V1.11249H252.294V16.7219C252.294 18.2427 251.992 19.5604 251.387 20.675C250.794 21.7896 249.981 22.6542 248.95 23.2687C247.929 23.8729 246.783 24.175 245.512 24.175C244.21 24.175 243.044 23.9198 242.012 23.4094C240.992 22.8989 240.19 22.1125 239.606 21.05C239.023 19.9875 238.731 18.6333 238.731 16.9875H244.091C244.091 17.7583 244.143 18.3625 244.247 18.8C244.361 19.2271 244.523 19.5292 244.731 19.7062C244.94 19.8729 245.2 19.9562 245.512 19.9562C245.846 19.9562 246.117 19.8312 246.325 19.5812C246.533 19.3208 246.69 18.951 246.794 18.4719C246.908 17.9823 246.966 17.3989 246.966 16.7219ZM271.65 19.6437V23.8625H262.087V19.6437H271.65ZM263.962 1.11249V23.8625H258.619V1.11249H263.962ZM282.756 1.11249V23.8625H277.428V1.11249H282.756ZM298.878 17.8156C298.878 17.4614 298.842 17.1437 298.769 16.8625C298.706 16.5708 298.576 16.3 298.378 16.05C298.191 15.8 297.904 15.55 297.519 15.3C297.133 15.0396 296.618 14.7687 295.972 14.4875C295.159 14.1542 294.363 13.7792 293.581 13.3625C292.8 12.9354 292.097 12.4406 291.472 11.8781C290.857 11.3052 290.363 10.6385 289.988 9.87811C289.613 9.10728 289.425 8.21145 289.425 7.19061C289.425 6.21145 289.613 5.33124 289.988 4.54999C290.373 3.75832 290.899 3.08645 291.566 2.53436C292.243 1.97186 293.04 1.54478 293.956 1.25311C294.873 0.951029 295.873 0.799988 296.956 0.799988C298.394 0.799988 299.659 1.09165 300.753 1.67499C301.857 2.2479 302.717 3.06561 303.331 4.12811C303.956 5.1802 304.269 6.42499 304.269 7.86249H298.941C298.941 7.28957 298.868 6.78436 298.722 6.34686C298.576 5.90936 298.347 5.56561 298.034 5.31561C297.732 5.06561 297.331 4.94061 296.831 4.94061C296.383 4.94061 296.003 5.04478 295.691 5.25311C295.389 5.46145 295.159 5.7427 295.003 6.09686C294.847 6.44061 294.769 6.82082 294.769 7.23749C294.769 7.58124 294.847 7.89374 295.003 8.17499C295.159 8.44582 295.373 8.70103 295.644 8.94061C295.925 9.1802 296.248 9.40936 296.613 9.62811C296.988 9.84686 297.389 10.0604 297.816 10.2687C298.847 10.6542 299.758 11.0864 300.55 11.5656C301.352 12.0344 302.024 12.5708 302.566 13.175C303.107 13.7687 303.514 14.4458 303.784 15.2062C304.066 15.9667 304.206 16.826 304.206 17.7844C304.206 18.8052 304.04 19.7114 303.706 20.5031C303.383 21.2948 302.909 21.9667 302.284 22.5187C301.659 23.0604 300.904 23.4719 300.019 23.7531C299.144 24.0344 298.154 24.175 297.05 24.175C296.04 24.175 295.045 24.0292 294.066 23.7375C293.097 23.4354 292.217 22.9771 291.425 22.3625C290.644 21.7375 290.019 20.9406 289.55 19.9719C289.081 18.9927 288.847 17.8312 288.847 16.4875H294.222C294.222 17.1542 294.274 17.7167 294.378 18.175C294.482 18.6333 294.644 19.0031 294.863 19.2844C295.092 19.5552 295.383 19.7531 295.738 19.8781C296.092 19.9927 296.529 20.05 297.05 20.05C297.529 20.05 297.899 19.951 298.159 19.7531C298.43 19.5448 298.618 19.2739 298.722 18.9406C298.826 18.5969 298.878 18.2219 298.878 17.8156ZM319.359 12.0187V16.0969H311.141V12.0187H319.359ZM340.294 19.6437V23.8625H330.341V19.6437H340.294ZM332.2 1.11249V23.8625H326.856V1.11249H332.2ZM338.997 10.1437V14.2219H330.341V10.1437H338.997ZM340.341 1.11249V5.34686H330.341V1.11249H340.341ZM354.884 12.0187V16.0969H346.666V12.0187H354.884ZM6.12813 41.1125V63.8625H0.800003V41.1125H6.12813ZM22.1563 41.1125V63.8625H16.7969V41.1125H22.1563ZM27.6719 41.1125V45.3469H11.4375V41.1125H27.6719ZM43.3563 41.1125V63.8625H37.9969V41.1125H43.3563ZM48.8719 41.1125V45.3469H32.6375V41.1125H48.8719ZM67.8219 59.6437V63.8625H57.8688V59.6437H67.8219ZM59.7281 41.1125V63.8625H54.3844V41.1125H59.7281ZM66.525 50.1437V54.2219H57.8688V50.1437H66.525ZM67.8688 41.1125V45.3469H57.8688V41.1125H67.8688ZM86.0219 50.1437V54.3625H76.8031V50.1437H86.0219ZM78.5531 41.1125V63.8625H73.2094V41.1125H78.5531ZM89.6313 41.1125V63.8625H84.2875V41.1125H89.6313ZM104.784 45.8937L100.55 63.8625H94.8L101.816 41.1125H105.409L104.784 45.8937ZM108.097 63.8625L103.863 45.8937L103.159 41.1125H106.816L113.847 63.8625H108.097ZM108.269 55.3781V59.6125H98.4094V55.3781H108.269ZM125.156 63.8625H120.984L121.016 59.6437H125.156C125.938 59.6437 126.573 59.4719 127.062 59.1281C127.562 58.7844 127.932 58.2167 128.172 57.425C128.411 56.6229 128.531 55.5552 128.531 54.2219V50.7375C128.531 49.7375 128.464 48.8937 128.328 48.2062C128.203 47.5187 128.005 46.9667 127.734 46.55C127.464 46.1333 127.104 45.8312 126.656 45.6437C126.208 45.4458 125.677 45.3469 125.062 45.3469H120.906V41.1125H125.062C126.396 41.1125 127.604 41.3312 128.688 41.7687C129.781 42.1958 130.724 42.8312 131.516 43.675C132.307 44.5083 132.917 45.5187 133.344 46.7062C133.771 47.8937 133.984 49.2479 133.984 50.7687V54.2219C133.984 55.7323 133.771 57.0864 133.344 58.2844C132.917 59.4719 132.307 60.4823 131.516 61.3156C130.734 62.1489 129.802 62.7844 128.719 63.2219C127.646 63.6489 126.458 63.8625 125.156 63.8625ZM124.109 41.1125V63.8625H118.766V41.1125H124.109ZM149.966 41.1125H155.325V56.5969C155.325 58.3677 155.007 59.8156 154.372 60.9406C153.736 62.0552 152.846 62.8729 151.7 63.3937C150.554 63.9146 149.2 64.175 147.637 64.175C146.085 64.175 144.731 63.9146 143.575 63.3937C142.419 62.8729 141.512 62.0552 140.856 60.9406C140.21 59.8156 139.887 58.3677 139.887 56.5969V41.1125H145.262V56.5969C145.262 57.5344 145.346 58.2479 145.512 58.7375C145.69 59.2167 145.955 59.5396 146.309 59.7062C146.664 59.8729 147.106 59.9562 147.637 59.9562C148.179 59.9562 148.622 59.8729 148.966 59.7062C149.309 59.5396 149.559 59.2167 149.716 58.7375C149.882 58.2479 149.966 57.5344 149.966 56.5969V41.1125ZM174.666 59.6437V63.8625H165.103V59.6437H174.666ZM166.978 41.1125V63.8625H161.634V41.1125H166.978ZM193.425 41.1125H197.753L201.331 56.9406L204.909 41.1125H209.222L203.097 63.8625H199.566L193.425 41.1125ZM190.753 41.1125H195.238L196.097 58.55V63.8625H190.753V41.1125ZM207.409 41.1125H211.909V63.8625H206.55V58.55L207.409 41.1125ZM228.266 41.1125H233.625V56.5969C233.625 58.3677 233.307 59.8156 232.672 60.9406C232.036 62.0552 231.146 62.8729 230 63.3937C228.854 63.9146 227.5 64.175 225.938 64.175C224.385 64.175 223.031 63.9146 221.875 63.3937C220.719 62.8729 219.812 62.0552 219.156 60.9406C218.51 59.8156 218.188 58.3677 218.188 56.5969V41.1125H223.562V56.5969C223.562 57.5344 223.646 58.2479 223.812 58.7375C223.99 59.2167 224.255 59.5396 224.609 59.7062C224.964 59.8729 225.406 59.9562 225.938 59.9562C226.479 59.9562 226.922 59.8729 227.266 59.7062C227.609 59.5396 227.859 59.2167 228.016 58.7375C228.182 58.2479 228.266 57.5344 228.266 56.5969V41.1125ZM249.481 57.8156C249.481 57.4614 249.445 57.1437 249.372 56.8625C249.309 56.5708 249.179 56.3 248.981 56.05C248.794 55.8 248.507 55.55 248.122 55.3C247.736 55.0396 247.221 54.7687 246.575 54.4875C245.762 54.1542 244.966 53.7792 244.184 53.3625C243.403 52.9354 242.7 52.4406 242.075 51.8781C241.46 51.3052 240.966 50.6385 240.591 49.8781C240.216 49.1073 240.028 48.2114 240.028 47.1906C240.028 46.2114 240.216 45.3312 240.591 44.55C240.976 43.7583 241.502 43.0864 242.169 42.5344C242.846 41.9719 243.643 41.5448 244.559 41.2531C245.476 40.951 246.476 40.8 247.559 40.8C248.997 40.8 250.262 41.0917 251.356 41.675C252.46 42.2479 253.32 43.0656 253.934 44.1281C254.559 45.1802 254.872 46.425 254.872 47.8625H249.544C249.544 47.2896 249.471 46.7844 249.325 46.3469C249.179 45.9094 248.95 45.5656 248.637 45.3156C248.335 45.0656 247.934 44.9406 247.434 44.9406C246.986 44.9406 246.606 45.0448 246.294 45.2531C245.992 45.4614 245.762 45.7427 245.606 46.0969C245.45 46.4406 245.372 46.8208 245.372 47.2375C245.372 47.5812 245.45 47.8937 245.606 48.175C245.762 48.4458 245.976 48.701 246.247 48.9406C246.528 49.1802 246.851 49.4094 247.216 49.6281C247.591 49.8469 247.992 50.0604 248.419 50.2687C249.45 50.6542 250.361 51.0864 251.153 51.5656C251.955 52.0344 252.627 52.5708 253.169 53.175C253.71 53.7687 254.117 54.4458 254.387 55.2062C254.669 55.9667 254.809 56.826 254.809 57.7844C254.809 58.8052 254.643 59.7114 254.309 60.5031C253.986 61.2948 253.512 61.9667 252.887 62.5187C252.262 63.0604 251.507 63.4719 250.622 63.7531C249.747 64.0344 248.757 64.175 247.653 64.175C246.643 64.175 245.648 64.0292 244.669 63.7375C243.7 63.4354 242.82 62.9771 242.028 62.3625C241.247 61.7375 240.622 60.9406 240.153 59.9719C239.684 58.9927 239.45 57.8312 239.45 56.4875H244.825C244.825 57.1542 244.877 57.7167 244.981 58.175C245.085 58.6333 245.247 59.0031 245.466 59.2844C245.695 59.5552 245.986 59.7531 246.341 59.8781C246.695 59.9927 247.132 60.05 247.653 60.05C248.132 60.05 248.502 59.951 248.762 59.7531C249.033 59.5448 249.221 59.2739 249.325 58.9406C249.429 58.5969 249.481 58.2219 249.481 57.8156ZM273.791 59.6437V63.8625H264.228V59.6437H273.791ZM266.103 41.1125V63.8625H260.759V41.1125H266.103ZM284.897 41.1125V63.8625H279.569V41.1125H284.897ZM294.144 41.1125H298.472L302.05 56.9406L305.628 41.1125H309.941L303.816 63.8625H300.284L294.144 41.1125ZM291.472 41.1125H295.956L296.816 58.55V63.8625H291.472V41.1125ZM308.128 41.1125H312.628V63.8625H307.269V58.55L308.128 41.1125ZM332.391 59.6437V63.8625H322.438V59.6437H332.391ZM324.297 41.1125V63.8625H318.953V41.1125H324.297ZM331.094 50.1437V54.2219H322.438V50.1437H331.094ZM332.438 41.1125V45.3469H322.438V41.1125H332.438ZM351.216 59.6437V63.8625H341.262V59.6437H351.216ZM343.122 41.1125V63.8625H337.778V41.1125H343.122ZM349.919 50.1437V54.2219H341.262V50.1437H349.919ZM351.262 41.1125V45.3469H341.262V41.1125H351.262ZM372.978 41.1125V63.8625H367.65L361.947 49.7062V63.8625H356.603V41.1125H361.947L367.65 55.2687V41.1125H372.978Z" fill="#0D5337"/>
<path d="M26.0188 5.89374L26.7974 6.07723L26.8067 6.0377L26.812 5.99743L26.0188 5.89374ZM21.7844 23.8625V24.6625H22.4178L22.563 24.046L21.7844 23.8625ZM16.0344 23.8625L15.2699 23.6267L14.9505 24.6625H16.0344V23.8625ZM23.05 1.11249V0.312489H22.4595L22.2855 0.87674L23.05 1.11249ZM26.6438 1.11249L27.437 1.21618L27.5551 0.312489H26.6438V1.11249ZM29.3313 23.8625L28.5526 24.046L28.6979 24.6625H29.3313V23.8625ZM25.0969 5.89374L24.3054 6.01013L24.3104 6.04396L24.3182 6.07723L25.0969 5.89374ZM24.3938 1.11249V0.312489H23.4675L23.6023 1.22888L24.3938 1.11249ZM28.05 1.11249L28.8143 0.876261L28.6401 0.312489H28.05V1.11249ZM35.0813 23.8625V24.6625H36.1658L35.8456 23.6263L35.0813 23.8625ZM29.5031 15.3781H30.3031V14.5781H29.5031V15.3781ZM29.5031 19.6125V20.4125H30.3031V19.6125H29.5031ZM19.6438 19.6125H18.8438V20.4125H19.6438V19.6125ZM19.6438 15.3781V14.5781H18.8438V15.3781H19.6438ZM26.0188 5.89374L25.2401 5.71024L21.0057 23.679L21.7844 23.8625L22.563 24.046L26.7974 6.07723L26.0188 5.89374ZM21.7844 23.8625V23.0625H16.0344V23.8625V24.6625H21.7844V23.8625ZM16.0344 23.8625L16.7989 24.0982L23.8145 1.34824L23.05 1.11249L22.2855 0.87674L15.2699 23.6267L16.0344 23.8625ZM23.05 1.11249V1.91249H26.6438V1.11249V0.312489H23.05V1.11249ZM26.6438 1.11249L25.8505 1.00879L25.2255 5.79004L26.0188 5.89374L26.812 5.99743L27.437 1.21618L26.6438 1.11249ZM29.3313 23.8625L30.1099 23.679L25.8755 5.71024L25.0969 5.89374L24.3182 6.07723L28.5526 24.046L29.3313 23.8625ZM25.0969 5.89374L25.8884 5.77734L25.1852 0.996092L24.3938 1.11249L23.6023 1.22888L24.3054 6.01013L25.0969 5.89374ZM24.3938 1.11249V1.91249H28.05V1.11249V0.312489H24.3938V1.11249ZM28.05 1.11249L27.2857 1.34871L34.3169 24.0987L35.0813 23.8625L35.8456 23.6263L28.8143 0.876261L28.05 1.11249ZM35.0813 23.8625V23.0625H29.3313V23.8625V24.6625H35.0813V23.8625ZM29.5031 15.3781H28.7031V19.6125H29.5031H30.3031V15.3781H29.5031ZM29.5031 19.6125V18.8125H19.6438V19.6125V20.4125H29.5031V19.6125ZM19.6438 19.6125H20.4438V15.3781H19.6438H18.8438V19.6125H19.6438ZM19.6438 15.3781V16.1781H29.5031V15.3781V14.5781H19.6438V15.3781ZM53.0312 19.6437H53.8313V18.8437H53.0312V19.6437ZM53.0312 23.8625V24.6625H53.8313V23.8625H53.0312ZM43.4688 23.8625H42.6688V24.6625H43.4688V23.8625ZM43.4688 19.6437V18.8437H42.6688V19.6437H43.4688ZM45.3438 1.11249H46.1438V0.312489H45.3438V1.11249ZM45.3438 23.8625V24.6625H46.1438V23.8625H45.3438ZM40 23.8625H39.2V24.6625H40V23.8625ZM40 1.11249V0.312489H39.2V1.11249H40ZM53.0312 19.6437H52.2313V23.8625H53.0312H53.8313V19.6437H53.0312ZM53.0312 23.8625V23.0625H43.4688V23.8625V24.6625H53.0312V23.8625ZM43.4688 23.8625H44.2688V19.6437H43.4688H42.6688V23.8625H43.4688ZM43.4688 19.6437V20.4437H53.0312V19.6437V18.8437H43.4688V19.6437ZM45.3438 1.11249H44.5438V23.8625H45.3438H46.1438V1.11249H45.3438ZM45.3438 23.8625V23.0625H40V23.8625V24.6625H45.3438V23.8625ZM40 23.8625H40.8V1.11249H40H39.2V23.8625H40ZM40 1.11249V1.91249H45.3438V1.11249V0.312489H40V1.11249ZM71.575 19.6437H72.375V18.8437H71.575V19.6437ZM71.575 23.8625V24.6625H72.375V23.8625H71.575ZM62.0125 23.8625H61.2125V24.6625H62.0125V23.8625ZM62.0125 19.6437V18.8437H61.2125V19.6437H62.0125ZM63.8875 1.11249H64.6875V0.312489H63.8875V1.11249ZM63.8875 23.8625V24.6625H64.6875V23.8625H63.8875ZM58.5438 23.8625H57.7438V24.6625H58.5438V23.8625ZM58.5438 1.11249V0.312489H57.7438V1.11249H58.5438ZM71.575 19.6437H70.775V23.8625H71.575H72.375V19.6437H71.575ZM71.575 23.8625V23.0625H62.0125V23.8625V24.6625H71.575V23.8625ZM62.0125 23.8625H62.8125V19.6437H62.0125H61.2125V23.8625H62.0125ZM62.0125 19.6437V20.4437H71.575V19.6437V18.8437H62.0125V19.6437ZM63.8875 1.11249H63.0875V23.8625H63.8875H64.6875V1.11249H63.8875ZM63.8875 23.8625V23.0625H58.5438V23.8625V24.6625H63.8875V23.8625ZM58.5438 23.8625H59.3438V1.11249H58.5438H57.7438V23.8625H58.5438ZM58.5438 1.11249V1.91249H63.8875V1.11249V0.312489H58.5438V1.11249ZM93.2563 1.11249H94.0563V0.312489H93.2563V1.11249ZM93.2563 23.8625V24.6625H94.0563V23.8625H93.2563ZM87.9281 23.8625H87.1281V24.6625H87.9281V23.8625ZM87.9281 1.11249V0.312489H87.1281V1.11249H87.9281ZM93.2563 1.11249H92.4563V23.8625H93.2563H94.0563V1.11249H93.2563ZM93.2563 23.8625V23.0625H87.9281V23.8625V24.6625H93.2563V23.8625ZM87.9281 23.8625H88.7281V1.11249H87.9281H87.1281V23.8625H87.9281ZM87.9281 1.11249V1.91249H93.2563V1.11249V0.312489H87.9281V1.11249ZM116.206 1.11249H117.006V0.312489H116.206V1.11249ZM116.206 23.8625V24.6625H117.006V23.8625H116.206ZM110.878 23.8625L110.136 24.1614L110.338 24.6625H110.878V23.8625ZM105.175 9.70624L105.917 9.40729L104.375 9.70624H105.175ZM105.175 23.8625V24.6625H105.975V23.8625H105.175ZM99.8313 23.8625H99.0312V24.6625H99.8313V23.8625ZM99.8313 1.11249V0.312489H99.0312V1.11249H99.8313ZM105.175 1.11249L105.917 0.81354L105.715 0.312489H105.175V1.11249ZM110.878 15.2687L110.136 15.5677L111.678 15.2687H110.878ZM110.878 1.11249V0.312489H110.078V1.11249H110.878ZM116.206 1.11249H115.406V23.8625H116.206H117.006V1.11249H116.206ZM116.206 23.8625V23.0625H110.878V23.8625V24.6625H116.206V23.8625ZM110.878 23.8625L111.62 23.5635L105.917 9.40729L105.175 9.70624L104.433 10.0052L110.136 24.1614L110.878 23.8625ZM105.175 9.70624H104.375V23.8625H105.175H105.975V9.70624H105.175ZM105.175 23.8625V23.0625H99.8313V23.8625V24.6625H105.175V23.8625ZM99.8313 23.8625H100.631V1.11249H99.8313H99.0312V23.8625H99.8313ZM99.8313 1.11249V1.91249H105.175V1.11249V0.312489H99.8313V1.11249ZM105.175 1.11249L104.433 1.41144L110.136 15.5677L110.878 15.2687L111.62 14.9698L105.917 0.81354L105.175 1.11249ZM110.878 15.2687H111.678V1.11249H110.878H110.078V15.2687H110.878ZM110.878 1.11249V1.91249H116.206V1.11249V0.312489H110.878V1.11249ZM124.719 23.8625L123.919 23.8566L123.913 24.6625H124.719V23.8625ZM124.75 19.6437V18.8437H123.956L123.95 19.6378L124.75 19.6437ZM130.797 19.1281L130.344 18.4688L130.337 18.4734L130.797 19.1281ZM131.906 17.425L132.672 17.6567L132.673 17.654L131.906 17.425ZM132.062 8.20624L131.275 8.34936L131.278 8.36084L132.062 8.20624ZM130.391 5.64374L130.067 6.37549L130.074 6.37866L130.082 6.38169L130.391 5.64374ZM124.641 5.34686H123.841V6.14686H124.641V5.34686ZM124.641 1.11249V0.312489H123.841V1.11249H124.641ZM132.422 1.76874L132.122 2.51058L132.131 2.51394L132.422 1.76874ZM135.25 3.67499L134.667 4.22239L134.67 4.22599L135.25 3.67499ZM137.078 6.70624L137.831 6.4355L137.078 6.70624ZM137.078 18.2844L137.831 18.5551L137.832 18.553L137.078 18.2844ZM135.25 21.3156L134.67 20.7646L134.666 20.7685L135.25 21.3156ZM132.453 23.2219L132.749 23.9652L132.753 23.9637L132.453 23.2219ZM127.844 1.11249H128.644V0.312489H127.844V1.11249ZM127.844 23.8625V24.6625H128.644V23.8625H127.844ZM122.5 23.8625H121.7V24.6625H122.5V23.8625ZM122.5 1.11249V0.312489H121.7V1.11249H122.5ZM128.891 23.8625V23.0625H124.719V23.8625V24.6625H128.891V23.8625ZM124.719 23.8625L125.519 23.8684L125.55 19.6497L124.75 19.6437L123.95 19.6378L123.919 23.8566L124.719 23.8625ZM124.75 19.6437V20.4437H128.891V19.6437V18.8437H124.75V19.6437ZM128.891 19.6437V20.4437C129.786 20.4437 130.597 20.2463 131.257 19.7828L130.797 19.1281L130.337 18.4734C130.018 18.6974 129.557 18.8437 128.891 18.8437V19.6437ZM130.797 19.1281L131.25 19.7873C131.946 19.3089 132.399 18.5595 132.672 17.6567L131.906 17.425L131.141 17.1933C130.935 17.8738 130.648 18.2598 130.344 18.4689L130.797 19.1281ZM131.906 17.425L132.673 17.654C132.944 16.747 133.066 15.5926 133.066 14.2219H132.266H131.466C131.466 15.5178 131.348 16.4988 131.14 17.196L131.906 17.425ZM132.266 14.2219H133.066V10.7375H132.266H131.466V14.2219H132.266ZM132.266 10.7375H133.066C133.066 9.7056 132.996 8.80652 132.847 8.05163L132.062 8.20624L131.278 8.36084C131.4 8.98096 131.466 9.76938 131.466 10.7375H132.266ZM132.062 8.20624L132.85 8.06313C132.713 7.31059 132.487 6.64792 132.14 6.114L131.469 6.54999L130.798 6.98598C130.993 7.28539 131.162 7.72688 131.275 8.34935L132.062 8.20624ZM131.469 6.54999L132.14 6.114C131.783 5.56598 131.299 5.15685 130.7 4.90578L130.391 5.64374L130.082 6.38169C130.378 6.50562 130.613 6.70066 130.798 6.98598L131.469 6.54999ZM130.391 5.64374L130.714 4.91199C130.142 4.65915 129.495 4.54686 128.797 4.54686V5.34686V6.14686C129.328 6.14686 129.744 6.2325 130.067 6.37549L130.391 5.64374ZM128.797 5.34686V4.54686H124.641V5.34686V6.14686H128.797V5.34686ZM124.641 5.34686H125.441V1.11249H124.641H123.841V5.34686H124.641ZM124.641 1.11249V1.91249H128.797V1.11249V0.312489H124.641V1.11249ZM128.797 1.11249V1.91249C130.042 1.91249 131.147 2.11652 132.122 2.51053L132.422 1.76874L132.721 1.02695C131.53 0.545958 130.218 0.312489 128.797 0.312489V1.11249ZM132.422 1.76874L132.131 2.51394C133.115 2.89835 133.958 3.46684 134.667 4.22238L135.25 3.67499L135.833 3.1276C134.959 2.19563 133.916 1.49329 132.713 1.02353L132.422 1.76874ZM135.25 3.67499L134.67 4.22599C135.378 4.97132 135.932 5.88357 136.325 6.97698L137.078 6.70624L137.831 6.4355C137.37 5.15391 136.705 4.04532 135.83 3.12399L135.25 3.67499ZM137.078 6.70624L136.325 6.97698C136.716 8.06188 136.919 9.32182 136.919 10.7687H137.719H138.519C138.519 9.17399 138.295 7.7256 137.831 6.4355L137.078 6.70624ZM137.719 10.7687H136.919V14.2219H137.719H138.519V10.7687H137.719ZM137.719 14.2219H136.919C136.919 15.6575 136.716 16.9185 136.325 18.0157L137.078 18.2844L137.832 18.553C138.295 17.2544 138.519 15.8071 138.519 14.2219H137.719ZM137.078 18.2844L136.325 18.0136C135.932 19.107 135.378 20.0193 134.67 20.7646L135.25 21.3156L135.83 21.8666C136.705 20.9453 137.37 19.8367 137.831 18.5551L137.078 18.2844ZM135.25 21.3156L134.666 20.7685C133.966 21.5151 133.132 22.085 132.154 22.4801L132.453 23.2219L132.753 23.9637C133.941 23.4837 134.971 22.7828 135.834 21.8628L135.25 21.3156ZM132.453 23.2219L132.157 22.4786C131.19 22.8637 130.104 23.0625 128.891 23.0625V23.8625V24.6625C130.281 24.6625 131.571 24.4342 132.749 23.9651L132.453 23.2219ZM127.844 1.11249H127.044V23.8625H127.844H128.644V1.11249H127.844ZM127.844 23.8625V23.0625H122.5V23.8625V24.6625H127.844V23.8625ZM122.5 23.8625H123.3V1.11249H122.5H121.7V23.8625H122.5ZM122.5 1.11249V1.91249H127.844V1.11249V0.312489H122.5V1.11249ZM149.263 1.11249H150.063V0.312489H149.263V1.11249ZM149.263 23.8625V24.6625H150.063V23.8625H149.263ZM143.934 23.8625H143.134V24.6625H143.934V23.8625ZM143.934 1.11249V0.312489H143.134V1.11249H143.934ZM149.263 1.11249H148.463V23.8625H149.263H150.063V1.11249H149.263ZM149.263 23.8625V23.0625H143.934V23.8625V24.6625H149.263V23.8625ZM143.934 23.8625H144.734V1.11249H143.934H143.134V23.8625H143.934ZM143.934 1.11249V1.91249H149.263V1.11249V0.312489H143.934V1.11249ZM164.713 5.89374L165.491 6.07723L165.5 6.0377L165.506 5.99743L164.713 5.89374ZM160.478 23.8625V24.6625H161.112L161.257 24.046L160.478 23.8625ZM154.728 23.8625L153.964 23.6267L153.644 24.6625H154.728V23.8625ZM161.744 1.11249V0.312489H161.153L160.979 0.87674L161.744 1.11249ZM165.338 1.11249L166.131 1.21618L166.249 0.312489H165.338V1.11249ZM168.025 23.8625L167.246 24.046L167.392 24.6625H168.025V23.8625ZM163.791 5.89374L162.999 6.01013L163.004 6.04396L163.012 6.07723L163.791 5.89374ZM163.088 1.11249V0.312489H162.161L162.296 1.22888L163.088 1.11249ZM166.744 1.11249L167.508 0.876261L167.334 0.312489H166.744V1.11249ZM173.775 23.8625V24.6625H174.86L174.539 23.6263L173.775 23.8625ZM168.197 15.3781H168.997V14.5781H168.197V15.3781ZM168.197 19.6125V20.4125H168.997V19.6125H168.197ZM158.338 19.6125H157.538V20.4125H158.338V19.6125ZM158.338 15.3781V14.5781H157.538V15.3781H158.338ZM164.713 5.89374L163.934 5.71024L159.699 23.679L160.478 23.8625L161.257 24.046L165.491 6.07723L164.713 5.89374ZM160.478 23.8625V23.0625H154.728V23.8625V24.6625H160.478V23.8625ZM154.728 23.8625L155.493 24.0982L162.508 1.34824L161.744 1.11249L160.979 0.87674L153.964 23.6267L154.728 23.8625ZM161.744 1.11249V1.91249H165.338V1.11249V0.312489H161.744V1.11249ZM165.338 1.11249L164.544 1.00879L163.919 5.79004L164.713 5.89374L165.506 5.99743L166.131 1.21618L165.338 1.11249ZM168.025 23.8625L168.804 23.679L164.569 5.71024L163.791 5.89374L163.012 6.07723L167.246 24.046L168.025 23.8625ZM163.791 5.89374L164.582 5.77734L163.879 0.996092L163.088 1.11249L162.296 1.22888L162.999 6.01013L163.791 5.89374ZM163.088 1.11249V1.91249H166.744V1.11249V0.312489H163.088V1.11249ZM166.744 1.11249L165.979 1.34871L173.011 24.0987L173.775 23.8625L174.539 23.6263L167.508 0.876261L166.744 1.11249ZM173.775 23.8625V23.0625H168.025V23.8625V24.6625H173.775V23.8625ZM168.197 15.3781H167.397V19.6125H168.197H168.997V15.3781H168.197ZM168.197 19.6125V18.8125H158.338V19.6125V20.4125H168.197V19.6125ZM158.338 19.6125H159.138V15.3781H158.338H157.538V19.6125H158.338ZM158.338 15.3781V16.1781H168.197V15.3781V14.5781H158.338V15.3781ZM191.941 1.11249V0.312489H190.896L191.168 1.32096L191.941 1.11249ZM196.269 1.11249L197.049 0.93609L196.908 0.312489H196.269V1.11249ZM199.847 16.9406L199.067 17.117H200.627L199.847 16.9406ZM203.425 1.11249V0.312489H202.786L202.645 0.93609L203.425 1.11249ZM207.738 1.11249L208.51 1.32047L208.781 0.312489H207.738V1.11249ZM201.613 23.8625V24.6625H202.226L202.385 24.0705L201.613 23.8625ZM198.081 23.8625L197.309 24.071L197.469 24.6625H198.081V23.8625ZM189.269 1.11249V0.312489H188.469V1.11249H189.269ZM193.753 1.11249L194.552 1.07311L194.515 0.312489H193.753V1.11249ZM194.613 18.55H195.413V18.5303L195.412 18.5106L194.613 18.55ZM194.613 23.8625V24.6625H195.413V23.8625H194.613ZM189.269 23.8625H188.469V24.6625H189.269V23.8625ZM205.925 1.11249V0.312489H205.163L205.126 1.07311L205.925 1.11249ZM210.425 1.11249H211.225V0.312489H210.425V1.11249ZM210.425 23.8625V24.6625H211.225V23.8625H210.425ZM205.066 23.8625H204.266V24.6625H205.066V23.8625ZM205.066 18.55L204.267 18.5106L204.266 18.5303V18.55H205.066ZM191.941 1.11249V1.91249H196.269V1.11249V0.312489H191.941V1.11249ZM196.269 1.11249L195.488 1.28889L199.067 17.117L199.847 16.9406L200.627 16.7642L197.049 0.93609L196.269 1.11249ZM199.847 16.9406L200.627 17.117L204.205 1.28889L203.425 1.11249L202.645 0.93609L199.067 16.7642L199.847 16.9406ZM203.425 1.11249V1.91249H207.738V1.11249V0.312489H203.425V1.11249ZM207.738 1.11249L206.965 0.904509L200.84 23.6545L201.613 23.8625L202.385 24.0705L208.51 1.32047L207.738 1.11249ZM201.613 23.8625V23.0625H198.081V23.8625V24.6625H201.613V23.8625ZM198.081 23.8625L198.854 23.654L192.713 0.904015L191.941 1.11249L191.168 1.32096L197.309 24.071L198.081 23.8625ZM189.269 1.11249V1.91249H193.753V1.11249V0.312489H189.269V1.11249ZM193.753 1.11249L192.954 1.15187L193.813 18.5894L194.613 18.55L195.412 18.5106L194.552 1.07311L193.753 1.11249ZM194.613 18.55H193.812V23.8625H194.613H195.413V18.55H194.613ZM194.613 23.8625V23.0625H189.269V23.8625V24.6625H194.613V23.8625ZM189.269 23.8625H190.069V1.11249H189.269H188.469V23.8625H189.269ZM205.925 1.11249V1.91249H210.425V1.11249V0.312489H205.925V1.11249ZM210.425 1.11249H209.625V23.8625H210.425H211.225V1.11249H210.425ZM210.425 23.8625V23.0625H205.066V23.8625V24.6625H210.425V23.8625ZM205.066 23.8625H205.866V18.55H205.066H204.266V23.8625H205.066ZM205.066 18.55L205.865 18.5894L206.724 1.15187L205.925 1.11249L205.126 1.07311L204.267 18.5106L205.066 18.55ZM225.625 5.89374L226.404 6.07723L226.413 6.0377L226.418 5.99743L225.625 5.89374ZM221.391 23.8625V24.6625H222.024L222.169 24.046L221.391 23.8625ZM215.641 23.8625L214.876 23.6267L214.557 24.6625H215.641V23.8625ZM222.656 1.11249V0.312489H222.066L221.892 0.87674L222.656 1.11249ZM226.25 1.11249L227.043 1.21618L227.161 0.312489H226.25V1.11249ZM228.938 23.8625L228.159 24.046L228.304 24.6625H228.938V23.8625ZM224.703 5.89374L223.912 6.01013L223.917 6.04396L223.924 6.07723L224.703 5.89374ZM224 1.11249V0.312489H223.074L223.209 1.22888L224 1.11249ZM227.656 1.11249L228.421 0.876261L228.246 0.312489H227.656V1.11249ZM234.688 23.8625V24.6625H235.772L235.452 23.6263L234.688 23.8625ZM229.109 15.3781H229.909V14.5781H229.109V15.3781ZM229.109 19.6125V20.4125H229.909V19.6125H229.109ZM219.25 19.6125H218.45V20.4125H219.25V19.6125ZM219.25 15.3781V14.5781H218.45V15.3781H219.25ZM225.625 5.89374L224.846 5.71024L220.612 23.679L221.391 23.8625L222.169 24.046L226.404 6.07723L225.625 5.89374ZM221.391 23.8625V23.0625H215.641V23.8625V24.6625H221.391V23.8625ZM215.641 23.8625L216.405 24.0982L223.421 1.34824L222.656 1.11249L221.892 0.87674L214.876 23.6267L215.641 23.8625ZM222.656 1.11249V1.91249H226.25V1.11249V0.312489H222.656V1.11249ZM226.25 1.11249L225.457 1.00879L224.832 5.79004L225.625 5.89374L226.418 5.99743L227.043 1.21618L226.25 1.11249ZM228.938 23.8625L229.716 23.679L225.482 5.71024L224.703 5.89374L223.924 6.07723L228.159 24.046L228.938 23.8625ZM224.703 5.89374L225.495 5.77734L224.791 0.996092L224 1.11249L223.209 1.22888L223.912 6.01013L224.703 5.89374ZM224 1.11249V1.91249H227.656V1.11249V0.312489H224V1.11249ZM227.656 1.11249L226.892 1.34871L233.923 24.0987L234.688 23.8625L235.452 23.6263L228.421 0.876261L227.656 1.11249ZM234.688 23.8625V23.0625H228.938V23.8625V24.6625H234.688V23.8625ZM229.109 15.3781H228.309V19.6125H229.109H229.909V15.3781H229.109ZM229.109 19.6125V18.8125H219.25V19.6125V20.4125H229.109V19.6125ZM219.25 19.6125H220.05V15.3781H219.25H218.45V19.6125H219.25ZM219.25 15.3781V16.1781H229.109V15.3781V14.5781H219.25V15.3781ZM246.966 1.11249V0.312489H246.166V1.11249H246.966ZM252.294 1.11249H253.094V0.312489H252.294V1.11249ZM251.387 20.675L250.684 20.2937L250.681 20.2989L251.387 20.675ZM248.95 23.2687L249.357 23.9572L249.36 23.956L248.95 23.2687ZM242.012 23.4094L241.655 24.1249L241.658 24.1263L242.012 23.4094ZM238.731 16.9875V16.1875H237.931V16.9875H238.731ZM244.091 16.9875H244.891V16.1875H244.091V16.9875ZM244.247 18.8L243.469 18.9853L243.471 18.9963L243.474 19.0073L244.247 18.8ZM244.731 19.7062L244.213 20.3158L244.222 20.3235L244.231 20.3309L244.731 19.7062ZM246.325 19.5812L246.94 20.0934L246.945 20.0872L246.95 20.081L246.325 19.5812ZM246.794 18.4719L246.015 18.2895L246.012 18.3019L246.794 18.4719ZM246.966 16.7219H247.766V1.11249H246.966H246.166V16.7219H246.966ZM246.966 1.11249V1.91249H252.294V1.11249V0.312489H246.966V1.11249ZM252.294 1.11249H251.494V16.7219H252.294H253.094V1.11249H252.294ZM252.294 16.7219H251.494C251.494 18.136 251.213 19.3175 250.684 20.2937L251.387 20.675L252.091 21.0562C252.77 19.8033 253.094 18.3494 253.094 16.7219H252.294ZM251.387 20.675L250.681 20.2989C250.153 21.2916 249.44 22.0456 248.54 22.5815L248.95 23.2687L249.36 23.956C250.523 23.2627 251.435 22.2875 252.094 21.0511L251.387 20.675ZM248.95 23.2687L248.543 22.5803C247.654 23.1062 246.651 23.375 245.512 23.375V24.175V24.975C246.916 24.975 248.204 24.6396 249.357 23.9572L248.95 23.2687ZM245.512 24.175V23.375C244.317 23.375 243.275 23.1414 242.367 22.6924L242.012 23.4094L241.658 24.1263C242.813 24.6982 244.104 24.975 245.512 24.975V24.175ZM242.012 23.4094L242.37 22.6938C241.504 22.2607 240.818 21.5943 240.308 20.665L239.606 21.05L238.905 21.435C239.561 22.6307 240.479 23.5372 241.655 24.1249L242.012 23.4094ZM239.606 21.05L240.308 20.665C239.808 19.7552 239.531 18.5448 239.531 16.9875H238.731H237.931C237.931 18.7218 238.238 20.2198 238.905 21.435L239.606 21.05ZM238.731 16.9875V17.7875H244.091V16.9875V16.1875H238.731V16.9875ZM244.091 16.9875H243.291C243.291 17.7832 243.343 18.4591 243.469 18.9853L244.247 18.8L245.025 18.6147C244.942 18.2659 244.891 17.7334 244.891 16.9875H244.091ZM244.247 18.8L243.474 19.0073C243.607 19.5028 243.826 19.9868 244.213 20.3158L244.731 19.7062L245.249 19.0967C245.22 19.0715 245.116 18.9514 245.02 18.5927L244.247 18.8ZM244.731 19.7062L244.231 20.3309C244.605 20.6298 245.051 20.7562 245.512 20.7562V19.9562V19.1562C245.349 19.1562 245.274 19.116 245.231 19.0815L244.731 19.7062ZM245.512 19.9562V20.7562C246.077 20.7562 246.575 20.5308 246.94 20.0934L246.325 19.5812L245.71 19.0691C245.658 19.1316 245.615 19.1562 245.512 19.1562V19.9562ZM246.325 19.5812L246.95 20.081C247.263 19.6897 247.456 19.1893 247.576 18.6418L246.794 18.4719L246.012 18.3019C245.923 18.7128 245.804 18.952 245.7 19.0815L246.325 19.5812ZM246.794 18.4719L247.573 18.6542C247.705 18.0883 247.766 17.4407 247.766 16.7219H246.966H246.166C246.166 17.3572 246.112 17.8762 246.015 18.2896L246.794 18.4719ZM271.65 19.6437H272.45V18.8437H271.65V19.6437ZM271.65 23.8625V24.6625H272.45V23.8625H271.65ZM262.087 23.8625H261.288V24.6625H262.087V23.8625ZM262.087 19.6437V18.8437H261.288V19.6437H262.087ZM263.962 1.11249H264.762V0.312489H263.962V1.11249ZM263.962 23.8625V24.6625H264.762V23.8625H263.962ZM258.619 23.8625H257.819V24.6625H258.619V23.8625ZM258.619 1.11249V0.312489H257.819V1.11249H258.619ZM271.65 19.6437H270.85V23.8625H271.65H272.45V19.6437H271.65ZM271.65 23.8625V23.0625H262.087V23.8625V24.6625H271.65V23.8625ZM262.087 23.8625H262.887V19.6437H262.087H261.288V23.8625H262.087ZM262.087 19.6437V20.4437H271.65V19.6437V18.8437H262.087V19.6437ZM263.962 1.11249H263.163V23.8625H263.962H264.762V1.11249H263.962ZM263.962 23.8625V23.0625H258.619V23.8625V24.6625H263.962V23.8625ZM258.619 23.8625H259.419V1.11249H258.619H257.819V23.8625H258.619ZM258.619 1.11249V1.91249H263.962V1.11249V0.312489H258.619V1.11249ZM282.756 1.11249H283.556V0.312489H282.756V1.11249ZM282.756 23.8625V24.6625H283.556V23.8625H282.756ZM277.428 23.8625H276.628V24.6625H277.428V23.8625ZM277.428 1.11249V0.312489H276.628V1.11249H277.428ZM282.756 1.11249H281.956V23.8625H282.756H283.556V1.11249H282.756ZM282.756 23.8625V23.0625H277.428V23.8625V24.6625H282.756V23.8625ZM277.428 23.8625H278.228V1.11249H277.428H276.628V23.8625H277.428ZM277.428 1.11249V1.91249H282.756V1.11249V0.312489H277.428V1.11249ZM298.769 16.8625L297.987 17.0301L297.99 17.0468L297.994 17.0633L298.769 16.8625ZM298.378 16.05L297.738 16.53L297.744 16.5384L297.751 16.5466L298.378 16.05ZM297.519 15.3L297.071 15.9629L297.077 15.9671L297.083 15.9712L297.519 15.3ZM295.972 14.4875L296.291 13.754L296.283 13.7506L296.276 13.7474L295.972 14.4875ZM293.581 13.3625L293.198 14.0645L293.205 14.0684L293.581 13.3625ZM291.472 11.8781L290.926 12.4634L290.937 12.4727L291.472 11.8781ZM289.988 9.87811L289.268 10.2281L289.27 10.2319L289.988 9.87811ZM289.988 4.54999L289.268 4.1998L289.266 4.2038L289.988 4.54999ZM291.566 2.53436L292.076 3.15052L292.077 3.14972L291.566 2.53436ZM293.956 1.25311L294.199 2.01549L294.207 2.01292L293.956 1.25311ZM300.753 1.67499L300.377 2.38091L300.385 2.38509L300.753 1.67499ZM303.331 4.12811L302.639 4.5287L302.643 4.5367L303.331 4.12811ZM304.269 7.86249V8.66249H305.069V7.86249H304.269ZM298.941 7.86249H298.141V8.66249H298.941V7.86249ZM298.034 5.31561L297.524 5.93201L297.535 5.94031L298.034 5.31561ZM295.691 5.25311L295.247 4.58739L295.236 4.59454L295.691 5.25311ZM295.003 6.09686L295.731 6.42793L295.735 6.41978L295.003 6.09686ZM295.003 8.17499L294.304 8.56355L294.31 8.57477L295.003 8.17499ZM295.644 8.94061L295.114 9.53981L295.119 9.54476L295.125 9.54961L295.644 8.94061ZM296.613 9.62811L296.201 10.3142L296.209 10.3191L296.613 9.62811ZM297.816 10.2687L297.465 10.9878L297.5 11.0046L297.536 11.0181L297.816 10.2687ZM300.55 11.5656L300.136 12.2501L300.146 12.2563L300.55 11.5656ZM302.566 13.175L301.97 13.709L301.975 13.7142L302.566 13.175ZM303.784 15.2062L303.031 15.4747L303.034 15.4838L303.784 15.2062ZM303.706 20.5031L302.969 20.1926L302.966 20.201L303.706 20.5031ZM302.284 22.5187L302.808 23.1233L302.814 23.1183L302.284 22.5187ZM300.019 23.7531L299.777 22.9907L299.774 22.9915L300.019 23.7531ZM294.066 23.7375L293.827 24.5013L293.837 24.5042L294.066 23.7375ZM291.425 22.3625L290.925 22.9872L290.934 22.9944L291.425 22.3625ZM289.55 19.9719L288.828 20.3173L288.83 20.3203L289.55 19.9719ZM288.847 16.4875V15.6875H288.047V16.4875H288.847ZM294.222 16.4875H295.022V15.6875H294.222V16.4875ZM294.863 19.2844L294.231 19.7755L294.241 19.7885L294.252 19.8011L294.863 19.2844ZM295.738 19.8781L295.471 20.6325L295.481 20.636L295.491 20.6393L295.738 19.8781ZM298.159 19.7531L298.643 20.3901L298.647 20.3872L298.159 19.7531ZM298.722 18.9406L299.486 19.1792L299.488 19.1726L298.722 18.9406ZM298.878 17.8156H299.678C299.678 17.4079 299.636 17.021 299.543 16.6617L298.769 16.8625L297.994 17.0633C298.047 17.2665 298.078 17.515 298.078 17.8156H298.878ZM298.769 16.8625L299.551 16.6949C299.461 16.2749 299.274 15.8929 299.005 15.5534L298.378 16.05L297.751 16.5466C297.878 16.707 297.952 16.8667 297.987 17.0301L298.769 16.8625ZM298.378 16.05L299.018 15.57C298.754 15.2182 298.385 14.9082 297.954 14.6288L297.519 15.3L297.083 15.9712C297.424 16.1918 297.627 16.3818 297.738 16.53L298.378 16.05ZM297.519 15.3L297.967 14.6371C297.526 14.3392 296.962 14.0459 296.291 13.754L295.972 14.4875L295.652 15.221C296.274 15.4915 296.741 15.74 297.071 15.9629L297.519 15.3ZM295.972 14.4875L296.276 13.7474C295.488 13.4243 294.715 13.0607 293.958 12.6566L293.581 13.3625L293.205 14.0684C294.01 14.4976 294.831 14.884 295.668 15.2276L295.972 14.4875ZM293.581 13.3625L293.965 12.6605C293.235 12.2615 292.583 11.8021 292.007 11.2835L291.472 11.8781L290.937 12.4727C291.611 13.0791 292.365 13.6093 293.198 14.0644L293.581 13.3625ZM291.472 11.8781L292.017 11.2929C291.474 10.7867 291.038 10.1986 290.705 9.52428L289.988 9.87811L289.27 10.2319C289.687 11.0784 290.24 11.8237 290.926 12.4633L291.472 11.8781ZM289.988 9.87811L290.707 9.52814C290.394 8.88523 290.225 8.11311 290.225 7.19061H289.425H288.625C288.625 8.30979 288.831 9.32932 289.268 10.2281L289.988 9.87811ZM289.425 7.19061H290.225C290.225 6.31564 290.392 5.55611 290.709 4.89617L289.988 4.54999L289.266 4.2038C288.833 5.10636 288.625 6.10725 288.625 7.19061H289.425ZM289.988 4.54999L290.707 4.90017C291.043 4.20922 291.499 3.62857 292.076 3.15051L291.566 2.53436L291.055 1.91821C290.299 2.54432 289.703 3.30742 289.268 4.19981L289.988 4.54999ZM291.566 2.53436L292.077 3.14972C292.668 2.65893 293.371 2.27879 294.199 2.01545L293.956 1.25311L293.714 0.490772C292.708 0.810766 291.818 1.2848 291.054 1.91901L291.566 2.53436ZM293.956 1.25311L294.207 2.01292C295.033 1.7405 295.948 1.59999 296.956 1.59999V0.799988V-1.14441e-05C295.798 -1.14441e-05 294.713 0.161558 293.706 0.493307L293.956 1.25311ZM296.956 0.799988V1.59999C298.284 1.59999 299.416 1.86854 300.377 2.38087L300.753 1.67499L301.13 0.969105C299.903 0.31477 298.504 -1.14441e-05 296.956 -1.14441e-05V0.799988ZM300.753 1.67499L300.385 2.38509C301.355 2.88881 302.102 3.59999 302.639 4.52868L303.331 4.12811L304.024 3.72755C303.332 2.53124 302.359 1.607 301.122 0.964886L300.753 1.67499ZM303.331 4.12811L302.643 4.5367C303.183 5.44502 303.469 6.54342 303.469 7.86249H304.269H305.069C305.069 6.30656 304.729 4.91537 304.019 3.71952L303.331 4.12811ZM304.269 7.86249V7.06249H298.941V7.86249V8.66249H304.269V7.86249ZM298.941 7.86249H299.741C299.741 7.22356 299.66 6.62996 299.481 6.09388L298.722 6.34686L297.963 6.59985C298.076 6.93877 298.141 7.35559 298.141 7.86249H298.941ZM298.722 6.34686L299.481 6.09388C299.294 5.53292 298.985 5.05126 298.534 4.69092L298.034 5.31561L297.535 5.94031C297.709 6.07997 297.858 6.28581 297.963 6.59985L298.722 6.34686ZM298.034 5.31561L298.544 4.6993C298.063 4.30102 297.465 4.14061 296.831 4.14061V4.94061V5.74061C297.197 5.74061 297.401 5.8302 297.524 5.93193L298.034 5.31561ZM296.831 4.94061V4.14061C296.256 4.14061 295.714 4.27582 295.247 4.58747L295.691 5.25311L296.134 5.91875C296.292 5.81374 296.51 5.74061 296.831 5.74061V4.94061ZM295.691 5.25311L295.236 4.59454C294.806 4.89161 294.484 5.29213 294.271 5.77395L295.003 6.09686L295.735 6.41978C295.835 6.19326 295.971 6.03129 296.145 5.91168L295.691 5.25311ZM295.003 6.09686L294.275 5.76582C294.067 6.22386 293.969 6.71853 293.969 7.23749H294.769H295.569C295.569 6.92311 295.627 6.65736 295.731 6.42791L295.003 6.09686ZM294.769 7.23749H293.969C293.969 7.70759 294.077 8.15529 294.304 8.5635L295.003 8.17499L295.702 7.78647C295.617 7.63219 295.569 7.45488 295.569 7.23749H294.769ZM295.003 8.17499L294.31 8.57477C294.516 8.9311 294.788 9.25176 295.114 9.53981L295.644 8.94061L296.174 8.34142C295.958 8.1503 295.803 7.96054 295.696 7.77521L295.003 8.17499ZM295.644 8.94061L295.125 9.54961C295.444 9.82165 295.804 10.076 296.201 10.3141L296.613 9.62811L297.024 8.94212C296.692 8.74273 296.406 8.53874 296.163 8.33162L295.644 8.94061ZM296.613 9.62811L296.209 10.3191C296.603 10.5487 297.022 10.7715 297.465 10.9878L297.816 10.2687L298.166 9.54972C297.755 9.34927 297.372 9.14498 297.016 8.93709L296.613 9.62811ZM297.816 10.2687L297.536 11.0181C298.529 11.3893 299.394 11.8009 300.136 12.25L300.55 11.5656L300.964 10.8812C300.123 10.372 299.165 9.91904 298.096 9.51936L297.816 10.2687ZM300.55 11.5656L300.146 12.2563C300.887 12.6891 301.491 13.175 301.97 13.709L302.566 13.175L303.161 12.641C302.557 11.9667 301.817 11.3796 300.954 10.8749L300.55 11.5656ZM302.566 13.175L301.975 13.7142C302.444 14.229 302.795 14.8139 303.031 15.4747L303.784 15.2062L304.538 14.9378C304.232 14.0777 303.77 13.3085 303.157 12.6358L302.566 13.175ZM303.784 15.2062L303.034 15.4838C303.277 16.1408 303.406 16.9039 303.406 17.7844H304.206H305.006C305.006 16.7482 304.854 15.7925 304.535 14.9287L303.784 15.2062ZM304.206 17.7844H303.406C303.406 18.7183 303.254 19.516 302.969 20.1927L303.706 20.5031L304.444 20.8136C304.825 19.9069 305.006 18.8921 305.006 17.7844H304.206ZM303.706 20.5031L302.966 20.201C302.688 20.8815 302.285 21.4507 301.755 21.9192L302.284 22.5187L302.814 23.1183C303.534 22.4826 304.079 21.708 304.447 20.8053L303.706 20.5031ZM302.284 22.5187L301.76 21.9142C301.227 22.3763 300.571 22.7383 299.777 22.9907L300.019 23.7531L300.261 24.5156C301.237 24.2054 302.092 23.7445 302.808 23.1233L302.284 22.5187ZM300.019 23.7531L299.774 22.9915C298.992 23.2428 298.087 23.375 297.05 23.375V24.175V24.975C298.221 24.975 299.295 24.8259 300.264 24.5147L300.019 23.7531ZM297.05 24.175V23.375C296.118 23.375 295.2 23.2406 294.294 22.9708L294.066 23.7375L293.837 24.5042C294.89 24.8177 295.961 24.975 297.05 24.975V24.175ZM294.066 23.7375L294.304 22.9738C293.425 22.6998 292.631 22.2857 291.916 21.7306L291.425 22.3625L290.934 22.9944C291.803 23.6684 292.769 24.171 293.827 24.5012L294.066 23.7375ZM291.425 22.3625L291.925 21.7378C291.244 21.1928 290.691 20.4931 290.27 19.6234L289.55 19.9719L288.83 20.3203C289.347 21.3881 290.044 22.2821 290.925 22.9872L291.425 22.3625ZM289.55 19.9719L290.272 19.6264C289.865 18.7776 289.647 17.7395 289.647 16.4875H288.847H288.047C288.047 17.923 288.297 19.2078 288.828 20.3173L289.55 19.9719ZM288.847 16.4875V17.2875H294.222V16.4875V15.6875H288.847V16.4875ZM294.222 16.4875H293.422C293.422 17.1912 293.476 17.8172 293.598 18.3523L294.378 18.175L295.158 17.9977C295.072 17.6161 295.022 17.1171 295.022 16.4875H294.222ZM294.378 18.175L293.598 18.3523C293.72 18.89 293.921 19.3772 294.231 19.7755L294.863 19.2844L295.494 18.7932C295.366 18.629 295.244 18.3766 295.158 17.9977L294.378 18.175ZM294.863 19.2844L294.252 19.8011C294.578 20.1867 294.991 20.4631 295.471 20.6325L295.738 19.8781L296.004 19.1237C295.775 19.0431 295.605 18.9237 295.473 18.7676L294.863 19.2844ZM295.738 19.8781L295.491 20.6393C295.95 20.7876 296.476 20.85 297.05 20.85V20.05V19.25C296.582 19.25 296.234 19.1978 295.984 19.117L295.738 19.8781ZM297.05 20.05V20.85C297.626 20.85 298.192 20.7329 298.643 20.39L298.159 19.7531L297.675 19.1162C297.606 19.1692 297.432 19.25 297.05 19.25V20.05ZM298.159 19.7531L298.647 20.3872C299.051 20.0762 299.333 19.6659 299.485 19.1792L298.722 18.9406L297.958 18.702C297.902 18.882 297.809 19.0133 297.672 19.119L298.159 19.7531ZM298.722 18.9406L299.488 19.1726C299.617 18.7445 299.678 18.2903 299.678 17.8156H298.878H298.078C298.078 18.1534 298.035 18.4492 297.956 18.7086L298.722 18.9406ZM319.359 12.0187H320.159V11.2187H319.359V12.0187ZM319.359 16.0969V16.8969H320.159V16.0969H319.359ZM311.141 16.0969H310.341V16.8969H311.141V16.0969ZM311.141 12.0187V11.2187H310.341V12.0187H311.141ZM319.359 12.0187H318.559V16.0969H319.359H320.159V12.0187H319.359ZM319.359 16.0969V15.2969H311.141V16.0969V16.8969H319.359V16.0969ZM311.141 16.0969H311.941V12.0187H311.141H310.341V16.0969H311.141ZM311.141 12.0187V12.8187H319.359V12.0187V11.2187H311.141V12.0187ZM340.294 19.6437H341.094V18.8437H340.294V19.6437ZM340.294 23.8625V24.6625H341.094V23.8625H340.294ZM330.341 23.8625H329.541V24.6625H330.341V23.8625ZM330.341 19.6437V18.8437H329.541V19.6437H330.341ZM332.2 1.11249H333V0.312489H332.2V1.11249ZM332.2 23.8625V24.6625H333V23.8625H332.2ZM326.856 23.8625H326.056V24.6625H326.856V23.8625ZM326.856 1.11249V0.312489H326.056V1.11249H326.856ZM338.997 10.1437H339.797V9.34374H338.997V10.1437ZM338.997 14.2219V15.0219H339.797V14.2219H338.997ZM330.341 14.2219H329.541V15.0219H330.341V14.2219ZM330.341 10.1437V9.34374H329.541V10.1437H330.341ZM340.341 1.11249H341.141V0.312489H340.341V1.11249ZM340.341 5.34686V6.14686H341.141V5.34686H340.341ZM330.341 5.34686H329.541V6.14686H330.341V5.34686ZM330.341 1.11249V0.312489H329.541V1.11249H330.341ZM340.294 19.6437H339.494V23.8625H340.294H341.094V19.6437H340.294ZM340.294 23.8625V23.0625H330.341V23.8625V24.6625H340.294V23.8625ZM330.341 23.8625H331.141V19.6437H330.341H329.541V23.8625H330.341ZM330.341 19.6437V20.4437H340.294V19.6437V18.8437H330.341V19.6437ZM332.2 1.11249H331.4V23.8625H332.2H333V1.11249H332.2ZM332.2 23.8625V23.0625H326.856V23.8625V24.6625H332.2V23.8625ZM326.856 23.8625H327.656V1.11249H326.856H326.056V23.8625H326.856ZM326.856 1.11249V1.91249H332.2V1.11249V0.312489H326.856V1.11249ZM338.997 10.1437H338.197V14.2219H338.997H339.797V10.1437H338.997ZM338.997 14.2219V13.4219H330.341V14.2219V15.0219H338.997V14.2219ZM330.341 14.2219H331.141V10.1437H330.341H329.541V14.2219H330.341ZM330.341 10.1437V10.9437H338.997V10.1437V9.34374H330.341V10.1437ZM340.341 1.11249H339.541V5.34686H340.341H341.141V1.11249H340.341ZM340.341 5.34686V4.54686H330.341V5.34686V6.14686H340.341V5.34686ZM330.341 5.34686H331.141V1.11249H330.341H329.541V5.34686H330.341ZM330.341 1.11249V1.91249H340.341V1.11249V0.312489H330.341V1.11249ZM354.884 12.0187H355.684V11.2187H354.884V12.0187ZM354.884 16.0969V16.8969H355.684V16.0969H354.884ZM346.666 16.0969H345.866V16.8969H346.666V16.0969ZM346.666 12.0187V11.2187H345.866V12.0187H346.666ZM354.884 12.0187H354.084V16.0969H354.884H355.684V12.0187H354.884ZM354.884 16.0969V15.2969H346.666V16.0969V16.8969H354.884V16.0969ZM346.666 16.0969H347.466V12.0187H346.666H345.866V16.0969H346.666ZM346.666 12.0187V12.8187H354.884V12.0187V11.2187H346.666V12.0187ZM6.12813 41.1125H6.92813V40.3125H6.12813V41.1125ZM6.12813 63.8625V64.6625H6.92813V63.8625H6.12813ZM0.800003 63.8625H2.86102e-06V64.6625H0.800003V63.8625ZM0.800003 41.1125V40.3125H2.86102e-06V41.1125H0.800003ZM6.12813 41.1125H5.32813V63.8625H6.12813H6.92813V41.1125H6.12813ZM6.12813 63.8625V63.0625H0.800003V63.8625V64.6625H6.12813V63.8625ZM0.800003 63.8625H1.6V41.1125H0.800003H2.86102e-06V63.8625H0.800003ZM0.800003 41.1125V41.9125H6.12813V41.1125V40.3125H0.800003V41.1125ZM22.1563 41.1125H22.9563V40.3125H22.1563V41.1125ZM22.1563 63.8625V64.6625H22.9563V63.8625H22.1563ZM16.7969 63.8625H15.9969V64.6625H16.7969V63.8625ZM16.7969 41.1125V40.3125H15.9969V41.1125H16.7969ZM27.6719 41.1125H28.4719V40.3125H27.6719V41.1125ZM27.6719 45.3469V46.1469H28.4719V45.3469H27.6719ZM11.4375 45.3469H10.6375V46.1469H11.4375V45.3469ZM11.4375 41.1125V40.3125H10.6375V41.1125H11.4375ZM22.1563 41.1125H21.3563V63.8625H22.1563H22.9563V41.1125H22.1563ZM22.1563 63.8625V63.0625H16.7969V63.8625V64.6625H22.1563V63.8625ZM16.7969 63.8625H17.5969V41.1125H16.7969H15.9969V63.8625H16.7969ZM16.7969 41.1125V41.9125H22.1563V41.1125V40.3125H16.7969V41.1125ZM27.6719 41.1125H26.8719V45.3469H27.6719H28.4719V41.1125H27.6719ZM27.6719 45.3469V44.5469H11.4375V45.3469V46.1469H27.6719V45.3469ZM11.4375 45.3469H12.2375V41.1125H11.4375H10.6375V45.3469H11.4375ZM11.4375 41.1125V41.9125H27.6719V41.1125V40.3125H11.4375V41.1125ZM43.3563 41.1125H44.1563V40.3125H43.3563V41.1125ZM43.3563 63.8625V64.6625H44.1563V63.8625H43.3563ZM37.9969 63.8625H37.1969V64.6625H37.9969V63.8625ZM37.9969 41.1125V40.3125H37.1969V41.1125H37.9969ZM48.8719 41.1125H49.6719V40.3125H48.8719V41.1125ZM48.8719 45.3469V46.1469H49.6719V45.3469H48.8719ZM32.6375 45.3469H31.8375V46.1469H32.6375V45.3469ZM32.6375 41.1125V40.3125H31.8375V41.1125H32.6375ZM43.3563 41.1125H42.5563V63.8625H43.3563H44.1563V41.1125H43.3563ZM43.3563 63.8625V63.0625H37.9969V63.8625V64.6625H43.3563V63.8625ZM37.9969 63.8625H38.7969V41.1125H37.9969H37.1969V63.8625H37.9969ZM37.9969 41.1125V41.9125H43.3563V41.1125V40.3125H37.9969V41.1125ZM48.8719 41.1125H48.0719V45.3469H48.8719H49.6719V41.1125H48.8719ZM48.8719 45.3469V44.5469H32.6375V45.3469V46.1469H48.8719V45.3469ZM32.6375 45.3469H33.4375V41.1125H32.6375H31.8375V45.3469H32.6375ZM32.6375 41.1125V41.9125H48.8719V41.1125V40.3125H32.6375V41.1125ZM67.8219 59.6437H68.6219V58.8437H67.8219V59.6437ZM67.8219 63.8625V64.6625H68.6219V63.8625H67.8219ZM57.8688 63.8625H57.0687V64.6625H57.8688V63.8625ZM57.8688 59.6437V58.8437H57.0687V59.6437H57.8688ZM59.7281 41.1125H60.5281V40.3125H59.7281V41.1125ZM59.7281 63.8625V64.6625H60.5281V63.8625H59.7281ZM54.3844 63.8625H53.5844V64.6625H54.3844V63.8625ZM54.3844 41.1125V40.3125H53.5844V41.1125H54.3844ZM66.525 50.1437H67.325V49.3437H66.525V50.1437ZM66.525 54.2219V55.0219H67.325V54.2219H66.525ZM57.8688 54.2219H57.0687V55.0219H57.8688V54.2219ZM57.8688 50.1437V49.3437H57.0687V50.1437H57.8688ZM67.8688 41.1125H68.6688V40.3125H67.8688V41.1125ZM67.8688 45.3469V46.1469H68.6688V45.3469H67.8688ZM57.8688 45.3469H57.0687V46.1469H57.8688V45.3469ZM57.8688 41.1125V40.3125H57.0687V41.1125H57.8688ZM67.8219 59.6437H67.0219V63.8625H67.8219H68.6219V59.6437H67.8219ZM67.8219 63.8625V63.0625H57.8688V63.8625V64.6625H67.8219V63.8625ZM57.8688 63.8625H58.6688V59.6437H57.8688H57.0687V63.8625H57.8688ZM57.8688 59.6437V60.4437H67.8219V59.6437V58.8437H57.8688V59.6437ZM59.7281 41.1125H58.9281V63.8625H59.7281H60.5281V41.1125H59.7281ZM59.7281 63.8625V63.0625H54.3844V63.8625V64.6625H59.7281V63.8625ZM54.3844 63.8625H55.1844V41.1125H54.3844H53.5844V63.8625H54.3844ZM54.3844 41.1125V41.9125H59.7281V41.1125V40.3125H54.3844V41.1125ZM66.525 50.1437H65.725V54.2219H66.525H67.325V50.1437H66.525ZM66.525 54.2219V53.4219H57.8688V54.2219V55.0219H66.525V54.2219ZM57.8688 54.2219H58.6688V50.1437H57.8688H57.0687V54.2219H57.8688ZM57.8688 50.1437V50.9437H66.525V50.1437V49.3437H57.8688V50.1437ZM67.8688 41.1125H67.0687V45.3469H67.8688H68.6688V41.1125H67.8688ZM67.8688 45.3469V44.5469H57.8688V45.3469V46.1469H67.8688V45.3469ZM57.8688 45.3469H58.6688V41.1125H57.8688H57.0687V45.3469H57.8688ZM57.8688 41.1125V41.9125H67.8688V41.1125V40.3125H57.8688V41.1125ZM86.0219 50.1437H86.8219V49.3437H86.0219V50.1437ZM86.0219 54.3625V55.1625H86.8219V54.3625H86.0219ZM76.8031 54.3625H76.0031V55.1625H76.8031V54.3625ZM76.8031 50.1437V49.3437H76.0031V50.1437H76.8031ZM78.5531 41.1125H79.3531V40.3125H78.5531V41.1125ZM78.5531 63.8625V64.6625H79.3531V63.8625H78.5531ZM73.2094 63.8625H72.4094V64.6625H73.2094V63.8625ZM73.2094 41.1125V40.3125H72.4094V41.1125H73.2094ZM89.6313 41.1125H90.4313V40.3125H89.6313V41.1125ZM89.6313 63.8625V64.6625H90.4313V63.8625H89.6313ZM84.2875 63.8625H83.4875V64.6625H84.2875V63.8625ZM84.2875 41.1125V40.3125H83.4875V41.1125H84.2875ZM86.0219 50.1437H85.2219V54.3625H86.0219H86.8219V50.1437H86.0219ZM86.0219 54.3625V53.5625H76.8031V54.3625V55.1625H86.0219V54.3625ZM76.8031 54.3625H77.6031V50.1437H76.8031H76.0031V54.3625H76.8031ZM76.8031 50.1437V50.9437H86.0219V50.1437V49.3437H76.8031V50.1437ZM78.5531 41.1125H77.7531V63.8625H78.5531H79.3531V41.1125H78.5531ZM78.5531 63.8625V63.0625H73.2094V63.8625V64.6625H78.5531V63.8625ZM73.2094 63.8625H74.0094V41.1125H73.2094H72.4094V63.8625H73.2094ZM73.2094 41.1125V41.9125H78.5531V41.1125V40.3125H73.2094V41.1125ZM89.6313 41.1125H88.8313V63.8625H89.6313H90.4313V41.1125H89.6313ZM89.6313 63.8625V63.0625H84.2875V63.8625V64.6625H89.6313V63.8625ZM84.2875 63.8625H85.0875V41.1125H84.2875H83.4875V63.8625H84.2875ZM84.2875 41.1125V41.9125H89.6313V41.1125V40.3125H84.2875V41.1125ZM104.784 45.8937L105.563 46.0772L105.572 46.0377L105.578 45.9974L104.784 45.8937ZM100.55 63.8625V64.6625H101.183L101.329 64.046L100.55 63.8625ZM94.8 63.8625L94.0355 63.6267L93.7161 64.6625H94.8V63.8625ZM101.816 41.1125V40.3125H101.225L101.051 40.8767L101.816 41.1125ZM105.409 41.1125L106.203 41.2162L106.321 40.3125H105.409V41.1125ZM108.097 63.8625L107.318 64.046L107.463 64.6625H108.097V63.8625ZM103.863 45.8937L103.071 46.0101L103.076 46.044L103.084 46.0772L103.863 45.8937ZM103.159 41.1125V40.3125H102.233L102.368 41.2289L103.159 41.1125ZM106.816 41.1125L107.58 40.8763L107.406 40.3125H106.816V41.1125ZM113.847 63.8625V64.6625H114.931L114.611 63.6263L113.847 63.8625ZM108.269 55.3781H109.069V54.5781H108.269V55.3781ZM108.269 59.6125V60.4125H109.069V59.6125H108.269ZM98.4094 59.6125H97.6094V60.4125H98.4094V59.6125ZM98.4094 55.3781V54.5781H97.6094V55.3781H98.4094ZM104.784 45.8937L104.006 45.7102L99.7713 63.679L100.55 63.8625L101.329 64.046L105.563 46.0772L104.784 45.8937ZM100.55 63.8625V63.0625H94.8V63.8625V64.6625H100.55V63.8625ZM94.8 63.8625L95.5645 64.0982L102.58 41.3482L101.816 41.1125L101.051 40.8767L94.0355 63.6267L94.8 63.8625ZM101.816 41.1125V41.9125H105.409V41.1125V40.3125H101.816V41.1125ZM105.409 41.1125L104.616 41.0088L103.991 45.79L104.784 45.8937L105.578 45.9974L106.203 41.2162L105.409 41.1125ZM108.097 63.8625L108.876 63.679L104.641 45.7102L103.863 45.8937L103.084 46.0772L107.318 64.046L108.097 63.8625ZM103.863 45.8937L104.654 45.7773L103.951 40.9961L103.159 41.1125L102.368 41.2289L103.071 46.0101L103.863 45.8937ZM103.159 41.1125V41.9125H106.816V41.1125V40.3125H103.159V41.1125ZM106.816 41.1125L106.051 41.3487L113.083 64.0987L113.847 63.8625L114.611 63.6263L107.58 40.8763L106.816 41.1125ZM113.847 63.8625V63.0625H108.097V63.8625V64.6625H113.847V63.8625ZM108.269 55.3781H107.469V59.6125H108.269H109.069V55.3781H108.269ZM108.269 59.6125V58.8125H98.4094V59.6125V60.4125H108.269V59.6125ZM98.4094 59.6125H99.2094V55.3781H98.4094H97.6094V59.6125H98.4094ZM98.4094 55.3781V56.1781H108.269V55.3781V54.5781H98.4094V55.3781ZM120.984 63.8625L120.184 63.8566L120.178 64.6625H120.984V63.8625ZM121.016 59.6437V58.8437H120.222L120.216 59.6378L121.016 59.6437ZM127.062 59.1281L126.609 58.4688L126.603 58.4734L127.062 59.1281ZM128.172 57.425L128.938 57.6567L128.938 57.654L128.172 57.425ZM128.328 48.2062L127.541 48.3494L127.543 48.3608L128.328 48.2062ZM126.656 45.6437L126.333 46.3755L126.34 46.3787L126.347 46.3817L126.656 45.6437ZM120.906 45.3469H120.106V46.1469H120.906V45.3469ZM120.906 41.1125V40.3125H120.106V41.1125H120.906ZM128.688 41.7687L128.388 42.5106L128.397 42.5139L128.688 41.7687ZM131.516 43.675L130.932 44.2224L130.936 44.226L131.516 43.675ZM133.344 46.7062L134.097 46.4355L133.344 46.7062ZM133.344 58.2844L134.097 58.5551L134.097 58.553L133.344 58.2844ZM131.516 61.3156L130.936 60.7646L130.932 60.7685L131.516 61.3156ZM128.719 63.2219L129.015 63.9651L129.018 63.9637L128.719 63.2219ZM124.109 41.1125H124.909V40.3125H124.109V41.1125ZM124.109 63.8625V64.6625H124.909V63.8625H124.109ZM118.766 63.8625H117.966V64.6625H118.766V63.8625ZM118.766 41.1125V40.3125H117.966V41.1125H118.766ZM125.156 63.8625V63.0625H120.984V63.8625V64.6625H125.156V63.8625ZM120.984 63.8625L121.784 63.8684L121.816 59.6497L121.016 59.6437L120.216 59.6378L120.184 63.8566L120.984 63.8625ZM121.016 59.6437V60.4437H125.156V59.6437V58.8437H121.016V59.6437ZM125.156 59.6437V60.4437C126.052 60.4437 126.862 60.2463 127.522 59.7828L127.062 59.1281L126.603 58.4734C126.284 58.6974 125.823 58.8437 125.156 58.8437V59.6437ZM127.062 59.1281L127.516 59.7873C128.212 59.3089 128.664 58.5595 128.938 57.6567L128.172 57.425L127.406 57.1933C127.2 57.8738 126.913 58.2598 126.609 58.4689L127.062 59.1281ZM128.172 57.425L128.938 57.654C129.209 56.747 129.331 55.5926 129.331 54.2219H128.531H127.731C127.731 55.5178 127.614 56.4988 127.405 57.196L128.172 57.425ZM128.531 54.2219H129.331V50.7375H128.531H127.731V54.2219H128.531ZM128.531 50.7375H129.331C129.331 49.7056 129.262 48.8065 129.113 48.0516L128.328 48.2062L127.543 48.3608C127.665 48.981 127.731 49.7694 127.731 50.7375H128.531ZM128.328 48.2062L129.115 48.0631C128.978 47.3106 128.752 46.6479 128.405 46.114L127.734 46.55L127.064 46.986C127.258 47.2854 127.428 47.7269 127.541 48.3493L128.328 48.2062ZM127.734 46.55L128.405 46.114C128.049 45.566 127.565 45.1569 126.965 44.9058L126.656 45.6437L126.347 46.3817C126.643 46.5056 126.878 46.7007 127.064 46.986L127.734 46.55ZM126.656 45.6437L126.98 44.912C126.407 44.6591 125.761 44.5469 125.062 44.5469V45.3469V46.1469C125.593 46.1469 126.009 46.2325 126.333 46.3755L126.656 45.6437ZM125.062 45.3469V44.5469H120.906V45.3469V46.1469H125.062V45.3469ZM120.906 45.3469H121.706V41.1125H120.906H120.106V45.3469H120.906ZM120.906 41.1125V41.9125H125.062V41.1125V40.3125H120.906V41.1125ZM125.062 41.1125V41.9125C126.308 41.9125 127.412 42.1165 128.388 42.5105L128.688 41.7687L128.987 41.0269C127.796 40.546 126.484 40.3125 125.062 40.3125V41.1125ZM128.688 41.7687L128.397 42.5139C129.381 42.8984 130.223 43.4668 130.932 44.2224L131.516 43.675L132.099 43.1276C131.225 42.1956 130.182 41.4933 128.978 41.0235L128.688 41.7687ZM131.516 43.675L130.936 44.226C131.644 44.9713 132.198 45.8836 132.591 46.977L133.344 46.7062L134.097 46.4355C133.636 45.1539 132.971 44.0453 132.096 43.124L131.516 43.675ZM133.344 46.7062L132.591 46.977C132.981 48.0619 133.184 49.3218 133.184 50.7687H133.984H134.784C134.784 49.174 134.561 47.7256 134.097 46.4355L133.344 46.7062ZM133.984 50.7687H133.184V54.2219H133.984H134.784V50.7687H133.984ZM133.984 54.2219H133.184C133.184 55.6575 132.981 56.9185 132.59 58.0157L133.344 58.2844L134.097 58.553C134.56 57.2544 134.784 55.8071 134.784 54.2219H133.984ZM133.344 58.2844L132.591 58.0136C132.198 59.107 131.644 60.0193 130.936 60.7646L131.516 61.3156L132.096 61.8666C132.971 60.9453 133.636 59.8367 134.097 58.5551L133.344 58.2844ZM131.516 61.3156L130.932 60.7685C130.232 61.5151 129.397 62.085 128.419 62.4801L128.719 63.2219L129.018 63.9637C130.207 63.4837 131.237 62.7828 132.099 61.8628L131.516 61.3156ZM128.719 63.2219L128.423 62.4786C127.455 62.8637 126.37 63.0625 125.156 63.0625V63.8625V64.6625C126.547 64.6625 127.836 64.4342 129.015 63.9651L128.719 63.2219ZM124.109 41.1125H123.309V63.8625H124.109H124.909V41.1125H124.109ZM124.109 63.8625V63.0625H118.766V63.8625V64.6625H124.109V63.8625ZM118.766 63.8625H119.566V41.1125H118.766H117.966V63.8625H118.766ZM118.766 41.1125V41.9125H124.109V41.1125V40.3125H118.766V41.1125ZM149.966 41.1125V40.3125H149.166V41.1125H149.966ZM155.325 41.1125H156.125V40.3125H155.325V41.1125ZM154.372 60.9406L155.067 61.3368L155.068 61.334L154.372 60.9406ZM140.856 60.9406L140.162 61.3389L140.167 61.3465L140.856 60.9406ZM139.887 41.1125V40.3125H139.087V41.1125H139.887ZM145.262 41.1125H146.062V40.3125H145.262V41.1125ZM145.512 58.7375L144.755 58.9953L144.759 59.0051L144.762 59.0148L145.512 58.7375ZM148.966 59.7062L149.315 60.4261L148.966 59.7062ZM149.716 58.7375L148.958 58.4797L148.955 58.4895L149.716 58.7375ZM149.966 41.1125V41.9125H155.325V41.1125V40.3125H149.966V41.1125ZM155.325 41.1125H154.525V56.5969H155.325H156.125V41.1125H155.325ZM155.325 56.5969H154.525C154.525 58.2787 154.222 59.5786 153.675 60.5472L154.372 60.9406L155.068 61.334C155.792 60.0527 156.125 58.4567 156.125 56.5969H155.325ZM154.372 60.9406L153.677 60.5444C153.123 61.5158 152.358 62.2157 151.369 62.6654L151.7 63.3937L152.031 64.122C153.333 63.5301 154.35 62.5946 155.067 61.3368L154.372 60.9406ZM151.7 63.3937L151.369 62.6654C150.349 63.1291 149.113 63.375 147.637 63.375V64.175V64.975C149.287 64.975 150.759 64.7001 152.031 64.122L151.7 63.3937ZM147.637 64.175V63.375C146.174 63.375 144.936 63.1294 143.904 62.6643L143.575 63.3937L143.246 64.1232C144.526 64.6997 145.997 64.975 147.637 64.975V64.175ZM143.575 63.3937L143.904 62.6643C142.901 62.2129 142.12 61.5098 141.546 60.5347L140.856 60.9406L140.167 61.3465C140.905 62.6006 141.936 63.5329 143.246 64.1232L143.575 63.3937ZM140.856 60.9406L141.55 60.5423C140.995 59.5749 140.688 58.2768 140.688 56.5969H139.887H139.087C139.087 58.4586 139.426 60.0564 140.162 61.3389L140.856 60.9406ZM139.887 56.5969H140.688V41.1125H139.887H139.087V56.5969H139.887ZM139.887 41.1125V41.9125H145.262V41.1125V40.3125H139.887V41.1125ZM145.262 41.1125H144.462V56.5969H145.262H146.062V41.1125H145.262ZM145.262 56.5969H144.462C144.462 57.5629 144.546 58.3809 144.755 58.9953L145.512 58.7375L146.27 58.4797C146.146 58.115 146.062 57.5058 146.062 56.5969H145.262ZM145.512 58.7375L144.762 59.0148C144.989 59.6285 145.372 60.1493 145.969 60.4301L146.309 59.7062L146.65 58.9824C146.538 58.9299 146.39 58.8049 146.263 58.4602L145.512 58.7375ZM146.309 59.7062L145.969 60.4301C146.46 60.6615 147.028 60.7562 147.637 60.7562V59.9562V59.1562C147.184 59.1562 146.867 59.0843 146.65 58.9824L146.309 59.7062ZM147.637 59.9562V60.7562C148.253 60.7562 148.826 60.6628 149.315 60.4261L148.966 59.7062L148.617 58.9864C148.417 59.083 148.105 59.1562 147.637 59.1562V59.9562ZM148.966 59.7062L149.315 60.4261C149.911 60.1371 150.275 59.6025 150.476 58.9855L149.716 58.7375L148.955 58.4895C148.844 58.8308 148.708 58.9421 148.617 58.9864L148.966 59.7062ZM149.716 58.7375L150.473 58.9953C150.682 58.3809 150.766 57.5629 150.766 56.5969H149.966H149.166C149.166 57.5058 149.082 58.115 148.958 58.4797L149.716 58.7375ZM149.966 56.5969H150.766V41.1125H149.966H149.166V56.5969H149.966ZM174.666 59.6437H175.466V58.8437H174.666V59.6437ZM174.666 63.8625V64.6625H175.466V63.8625H174.666ZM165.103 63.8625H164.303V64.6625H165.103V63.8625ZM165.103 59.6437V58.8437H164.303V59.6437H165.103ZM166.978 41.1125H167.778V40.3125H166.978V41.1125ZM166.978 63.8625V64.6625H167.778V63.8625H166.978ZM161.634 63.8625H160.834V64.6625H161.634V63.8625ZM161.634 41.1125V40.3125H160.834V41.1125H161.634ZM174.666 59.6437H173.866V63.8625H174.666H175.466V59.6437H174.666ZM174.666 63.8625V63.0625H165.103V63.8625V64.6625H174.666V63.8625ZM165.103 63.8625H165.903V59.6437H165.103H164.303V63.8625H165.103ZM165.103 59.6437V60.4437H174.666V59.6437V58.8437H165.103V59.6437ZM166.978 41.1125H166.178V63.8625H166.978H167.778V41.1125H166.978ZM166.978 63.8625V63.0625H161.634V63.8625V64.6625H166.978V63.8625ZM161.634 63.8625H162.434V41.1125H161.634H160.834V63.8625H161.634ZM161.634 41.1125V41.9125H166.978V41.1125V40.3125H161.634V41.1125ZM193.425 41.1125V40.3125H192.38L192.653 41.321L193.425 41.1125ZM197.753 41.1125L198.533 40.9361L198.392 40.3125H197.753V41.1125ZM201.331 56.9406L200.551 57.117H202.112L201.331 56.9406ZM204.909 41.1125V40.3125H204.27L204.129 40.9361L204.909 41.1125ZM209.222 41.1125L209.994 41.3205L210.266 40.3125H209.222V41.1125ZM203.097 63.8625V64.6625H203.71L203.869 64.0705L203.097 63.8625ZM199.566 63.8625L198.793 64.071L198.953 64.6625H199.566V63.8625ZM190.753 41.1125V40.3125H189.953V41.1125H190.753ZM195.238 41.1125L196.037 41.0731L195.999 40.3125H195.238V41.1125ZM196.097 58.55H196.897V58.5303L196.896 58.5106L196.097 58.55ZM196.097 63.8625V64.6625H196.897V63.8625H196.097ZM190.753 63.8625H189.953V64.6625H190.753V63.8625ZM207.409 41.1125V40.3125H206.648L206.61 41.0731L207.409 41.1125ZM211.909 41.1125H212.709V40.3125H211.909V41.1125ZM211.909 63.8625V64.6625H212.709V63.8625H211.909ZM206.55 63.8625H205.75V64.6625H206.55V63.8625ZM206.55 58.55L205.751 58.5106L205.75 58.5303V58.55H206.55ZM193.425 41.1125V41.9125H197.753V41.1125V40.3125H193.425V41.1125ZM197.753 41.1125L196.973 41.2889L200.551 57.117L201.331 56.9406L202.112 56.7642L198.533 40.9361L197.753 41.1125ZM201.331 56.9406L202.112 57.117L205.69 41.2889L204.909 41.1125L204.129 40.9361L200.551 56.7642L201.331 56.9406ZM204.909 41.1125V41.9125H209.222V41.1125V40.3125H204.909V41.1125ZM209.222 41.1125L208.449 40.9045L202.324 63.6545L203.097 63.8625L203.869 64.0705L209.994 41.3205L209.222 41.1125ZM203.097 63.8625V63.0625H199.566V63.8625V64.6625H203.097V63.8625ZM199.566 63.8625L200.338 63.654L194.197 40.904L193.425 41.1125L192.653 41.321L198.793 64.071L199.566 63.8625ZM190.753 41.1125V41.9125H195.238V41.1125V40.3125H190.753V41.1125ZM195.238 41.1125L194.438 41.1519L195.298 58.5894L196.097 58.55L196.896 58.5106L196.037 41.0731L195.238 41.1125ZM196.097 58.55H195.297V63.8625H196.097H196.897V58.55H196.097ZM196.097 63.8625V63.0625H190.753V63.8625V64.6625H196.097V63.8625ZM190.753 63.8625H191.553V41.1125H190.753H189.953V63.8625H190.753ZM207.409 41.1125V41.9125H211.909V41.1125V40.3125H207.409V41.1125ZM211.909 41.1125H211.109V63.8625H211.909H212.709V41.1125H211.909ZM211.909 63.8625V63.0625H206.55V63.8625V64.6625H211.909V63.8625ZM206.55 63.8625H207.35V58.55H206.55H205.75V63.8625H206.55ZM206.55 58.55L207.349 58.5894L208.208 41.1519L207.409 41.1125L206.61 41.0731L205.751 58.5106L206.55 58.55ZM228.266 41.1125V40.3125H227.466V41.1125H228.266ZM233.625 41.1125H234.425V40.3125H233.625V41.1125ZM232.672 60.9406L233.367 61.3368L233.368 61.334L232.672 60.9406ZM219.156 60.9406L218.462 61.3389L218.467 61.3465L219.156 60.9406ZM218.188 41.1125V40.3125H217.387V41.1125H218.188ZM223.562 41.1125H224.363V40.3125H223.562V41.1125ZM223.812 58.7375L223.055 58.9953L223.059 59.0051L223.062 59.0148L223.812 58.7375ZM227.266 59.7062L227.615 60.4261L227.266 59.7062ZM228.016 58.7375L227.258 58.4797L227.255 58.4895L228.016 58.7375ZM228.266 41.1125V41.9125H233.625V41.1125V40.3125H228.266V41.1125ZM233.625 41.1125H232.825V56.5969H233.625H234.425V41.1125H233.625ZM233.625 56.5969H232.825C232.825 58.2787 232.522 59.5786 231.975 60.5472L232.672 60.9406L233.368 61.334C234.092 60.0527 234.425 58.4567 234.425 56.5969H233.625ZM232.672 60.9406L231.977 60.5444C231.423 61.5158 230.658 62.2157 229.669 62.6654L230 63.3937L230.331 64.122C231.633 63.5301 232.65 62.5946 233.367 61.3368L232.672 60.9406ZM230 63.3937L229.669 62.6654C228.649 63.1291 227.413 63.375 225.938 63.375V64.175V64.975C227.587 64.975 229.059 64.7001 230.331 64.122L230 63.3937ZM225.938 64.175V63.375C224.474 63.375 223.236 63.1294 222.204 62.6643L221.875 63.3937L221.546 64.1232C222.826 64.6997 224.297 64.975 225.938 64.975V64.175ZM221.875 63.3937L222.204 62.6643C221.201 62.2129 220.42 61.5098 219.846 60.5347L219.156 60.9406L218.467 61.3465C219.205 62.6006 220.236 63.5329 221.546 64.1232L221.875 63.3937ZM219.156 60.9406L219.85 60.5423C219.295 59.5749 218.988 58.2768 218.988 56.5969H218.188H217.387C217.387 58.4586 217.726 60.0564 218.462 61.3389L219.156 60.9406ZM218.188 56.5969H218.988V41.1125H218.188H217.387V56.5969H218.188ZM218.188 41.1125V41.9125H223.562V41.1125V40.3125H218.188V41.1125ZM223.562 41.1125H222.762V56.5969H223.562H224.363V41.1125H223.562ZM223.562 56.5969H222.762C222.762 57.5629 222.846 58.3809 223.055 58.9953L223.812 58.7375L224.57 58.4797C224.446 58.115 224.363 57.5058 224.363 56.5969H223.562ZM223.812 58.7375L223.062 59.0148C223.289 59.6285 223.672 60.1493 224.269 60.4301L224.609 59.7062L224.95 58.9824C224.838 58.9299 224.69 58.8049 224.563 58.4602L223.812 58.7375ZM224.609 59.7062L224.269 60.4301C224.76 60.6615 225.328 60.7562 225.938 60.7562V59.9562V59.1562C225.484 59.1562 225.167 59.0843 224.95 58.9824L224.609 59.7062ZM225.938 59.9562V60.7562C226.553 60.7562 227.126 60.6628 227.615 60.4261L227.266 59.7062L226.917 58.9864C226.717 59.083 226.405 59.1562 225.938 59.1562V59.9562ZM227.266 59.7062L227.615 60.4261C228.211 60.1371 228.575 59.6025 228.776 58.9855L228.016 58.7375L227.255 58.4895C227.144 58.8308 227.008 58.9421 226.917 58.9864L227.266 59.7062ZM228.016 58.7375L228.773 58.9953C228.982 58.3809 229.066 57.5629 229.066 56.5969H228.266H227.466C227.466 57.5058 227.382 58.115 227.258 58.4797L228.016 58.7375ZM228.266 56.5969H229.066V41.1125H228.266H227.466V56.5969H228.266ZM249.372 56.8625L248.59 57.0301L248.593 57.0468L248.597 57.0633L249.372 56.8625ZM248.981 56.05L248.341 56.53L248.348 56.5384L248.354 56.5466L248.981 56.05ZM248.122 55.3L247.674 55.9629L247.68 55.9671L247.687 55.9712L248.122 55.3ZM246.575 54.4875L246.894 53.754L246.887 53.7506L246.879 53.7474L246.575 54.4875ZM244.184 53.3625L243.801 54.0645L243.808 54.0684L244.184 53.3625ZM242.075 51.8781L241.529 52.4634L241.54 52.4727L242.075 51.8781ZM240.591 49.8781L239.871 50.2281L239.873 50.2319L240.591 49.8781ZM240.591 44.55L239.871 44.1998L239.869 44.2038L240.591 44.55ZM242.169 42.5344L242.679 43.1505L242.68 43.1497L242.169 42.5344ZM244.559 41.2531L244.802 42.0155L244.81 42.0129L244.559 41.2531ZM251.356 41.675L250.98 42.3809L250.988 42.3851L251.356 41.675ZM253.934 44.1281L253.242 44.5287L253.247 44.5367L253.934 44.1281ZM254.872 47.8625V48.6625H255.672V47.8625H254.872ZM249.544 47.8625H248.744V48.6625H249.544V47.8625ZM248.637 45.3156L248.127 45.932L248.138 45.9403L248.637 45.3156ZM246.294 45.2531L245.85 44.5874L245.84 44.5945L246.294 45.2531ZM245.606 46.0969L246.335 46.4279L246.338 46.4198L245.606 46.0969ZM245.606 48.175L244.907 48.5636L244.913 48.5748L245.606 48.175ZM246.247 48.9406L245.717 49.5398L245.722 49.5448L245.728 49.5496L246.247 48.9406ZM247.216 49.6281L246.804 50.3142L246.813 50.3191L247.216 49.6281ZM248.419 50.2687L248.068 50.9878L248.103 51.0046L248.139 51.0181L248.419 50.2687ZM251.153 51.5656L250.739 52.2501L250.749 52.2563L251.153 51.5656ZM253.169 53.175L252.573 53.709L252.578 53.7142L253.169 53.175ZM254.387 55.2062L253.634 55.4747L253.637 55.4838L254.387 55.2062ZM254.309 60.5031L253.572 60.1926L253.569 60.201L254.309 60.5031ZM252.887 62.5187L253.411 63.1233L253.417 63.1183L252.887 62.5187ZM250.622 63.7531L250.38 62.9906L250.377 62.9915L250.622 63.7531ZM244.669 63.7375L244.431 64.5013L244.44 64.5042L244.669 63.7375ZM242.028 62.3625L241.528 62.9873L241.538 62.9944L242.028 62.3625ZM240.153 59.9719L239.432 60.3173L239.433 60.3203L240.153 59.9719ZM239.45 56.4875V55.6875H238.65V56.4875H239.45ZM244.825 56.4875H245.625V55.6875H244.825V56.4875ZM245.466 59.2844L244.834 59.7755L244.844 59.7885L244.855 59.8011L245.466 59.2844ZM246.341 59.8781L246.074 60.6325L246.084 60.636L246.094 60.6393L246.341 59.8781ZM248.762 59.7531L249.247 60.3901L249.25 60.3872L248.762 59.7531ZM249.325 58.9406L250.089 59.1792L250.091 59.1726L249.325 58.9406ZM249.481 57.8156H250.281C250.281 57.4079 250.239 57.021 250.146 56.6617L249.372 56.8625L248.597 57.0633C248.65 57.2665 248.681 57.515 248.681 57.8156H249.481ZM249.372 56.8625L250.154 56.6949C250.064 56.2749 249.877 55.8929 249.608 55.5534L248.981 56.05L248.354 56.5466C248.481 56.707 248.555 56.8667 248.59 57.0301L249.372 56.8625ZM248.981 56.05L249.621 55.57C249.357 55.2182 248.988 54.9082 248.557 54.6288L248.122 55.3L247.687 55.9712C248.027 56.1918 248.23 56.3818 248.341 56.53L248.981 56.05ZM248.122 55.3L248.57 54.6371C248.129 54.3392 247.565 54.0459 246.894 53.754L246.575 54.4875L246.256 55.221C246.877 55.4915 247.344 55.74 247.674 55.9629L248.122 55.3ZM246.575 54.4875L246.879 53.7474C246.091 53.4243 245.319 53.0607 244.561 52.6566L244.184 53.3625L243.808 54.0684C244.613 54.4976 245.434 54.884 246.271 55.2276L246.575 54.4875ZM244.184 53.3625L244.568 52.6605C243.838 52.2615 243.186 51.8021 242.61 51.2835L242.075 51.8781L241.54 52.4727C242.214 53.0791 242.968 53.6093 243.801 54.0644L244.184 53.3625ZM242.075 51.8781L242.62 51.2929C242.077 50.7867 241.641 50.1986 241.308 49.5243L240.591 49.8781L239.873 50.2319C240.291 51.0784 240.843 51.8237 241.529 52.4633L242.075 51.8781ZM240.591 49.8781L241.31 49.5281C240.997 48.8852 240.828 48.1131 240.828 47.1906H240.028H239.228C239.228 48.3098 239.434 49.3293 239.871 50.2281L240.591 49.8781ZM240.028 47.1906H240.828C240.828 46.3156 240.995 45.5561 241.312 44.8962L240.591 44.55L239.869 44.2038C239.436 45.1064 239.228 46.1073 239.228 47.1906H240.028ZM240.591 44.55L241.31 44.9002C241.646 44.2092 242.102 43.6286 242.679 43.1505L242.169 42.5344L241.658 41.9182C240.902 42.5443 240.306 43.3074 239.871 44.1998L240.591 44.55ZM242.169 42.5344L242.68 43.1497C243.271 42.6589 243.974 42.2788 244.802 42.0155L244.559 41.2531L244.317 40.4908C243.311 40.8108 242.421 41.2848 241.658 41.919L242.169 42.5344ZM244.559 41.2531L244.81 42.0129C245.636 41.7405 246.551 41.6 247.559 41.6V40.8V40C246.401 40 245.316 40.1616 244.309 40.4933L244.559 41.2531ZM247.559 40.8V41.6C248.887 41.6 250.019 41.8685 250.98 42.3809L251.356 41.675L251.733 40.9691C250.506 40.3148 249.107 40 247.559 40V40.8ZM251.356 41.675L250.988 42.3851C251.959 42.8888 252.705 43.6 253.242 44.5287L253.934 44.1281L254.627 43.7276C253.935 42.5312 252.962 41.607 251.725 40.9649L251.356 41.675ZM253.934 44.1281L253.247 44.5367C253.786 45.445 254.072 46.5434 254.072 47.8625H254.872H255.672C255.672 46.3066 255.333 44.9154 254.622 43.7195L253.934 44.1281ZM254.872 47.8625V47.0625H249.544V47.8625V48.6625H254.872V47.8625ZM249.544 47.8625H250.344C250.344 47.2236 250.263 46.63 250.084 46.0939L249.325 46.3469L248.566 46.5998C248.679 46.9388 248.744 47.3556 248.744 47.8625H249.544ZM249.325 46.3469L250.084 46.0939C249.897 45.5329 249.588 45.0513 249.137 44.6909L248.637 45.3156L248.138 45.9403C248.312 46.08 248.461 46.2858 248.566 46.5998L249.325 46.3469ZM248.637 45.3156L249.148 44.6993C248.666 44.301 248.068 44.1406 247.434 44.1406V44.9406V45.7406C247.8 45.7406 248.005 45.8302 248.127 45.9319L248.637 45.3156ZM247.434 44.9406V44.1406C246.859 44.1406 246.317 44.2758 245.85 44.5875L246.294 45.2531L246.738 45.9188C246.895 45.8137 247.113 45.7406 247.434 45.7406V44.9406ZM246.294 45.2531L245.84 44.5945C245.409 44.8916 245.087 45.2921 244.874 45.7739L245.606 46.0969L246.338 46.4198C246.438 46.1933 246.575 46.0313 246.748 45.9117L246.294 45.2531ZM245.606 46.0969L244.878 45.7658C244.67 46.2239 244.572 46.7185 244.572 47.2375H245.372H246.172C246.172 46.9231 246.23 46.6574 246.335 46.4279L245.606 46.0969ZM245.372 47.2375H244.572C244.572 47.7076 244.68 48.1553 244.907 48.5635L245.606 48.175L246.306 47.7865C246.22 47.6322 246.172 47.4549 246.172 47.2375H245.372ZM245.606 48.175L244.913 48.5748C245.119 48.9311 245.391 49.2518 245.717 49.5398L246.247 48.9406L246.777 48.3414C246.561 48.1503 246.406 47.9605 246.299 47.7752L245.606 48.175ZM246.247 48.9406L245.728 49.5496C246.047 49.8217 246.407 50.076 246.804 50.3141L247.216 49.6281L247.627 48.9421C247.295 48.7427 247.009 48.5387 246.766 48.3316L246.247 48.9406ZM247.216 49.6281L246.813 50.3191C247.206 50.5487 247.625 50.7715 248.068 50.9878L248.419 50.2687L248.77 49.5497C248.359 49.3493 247.975 49.145 247.619 48.9371L247.216 49.6281ZM248.419 50.2687L248.139 51.0181C249.132 51.3893 249.997 51.8009 250.739 52.25L251.153 51.5656L251.567 50.8812C250.726 50.372 249.768 49.919 248.699 49.5194L248.419 50.2687ZM251.153 51.5656L250.749 52.2563C251.49 52.6891 252.094 53.175 252.573 53.709L253.169 53.175L253.764 52.641C253.16 51.9667 252.42 51.3796 251.557 50.8749L251.153 51.5656ZM253.169 53.175L252.578 53.7142C253.047 54.229 253.399 54.8139 253.634 55.4747L254.387 55.2062L255.141 54.9378C254.835 54.0777 254.373 53.3085 253.76 52.6358L253.169 53.175ZM254.387 55.2062L253.637 55.4838C253.88 56.1408 254.009 56.9039 254.009 57.7844H254.809H255.609C255.609 56.7482 255.457 55.7925 255.138 54.9287L254.387 55.2062ZM254.809 57.7844H254.009C254.009 58.7183 253.857 59.516 253.572 60.1927L254.309 60.5031L255.047 60.8136C255.428 59.9069 255.609 58.8921 255.609 57.7844H254.809ZM254.309 60.5031L253.569 60.201C253.291 60.8815 252.888 61.4507 252.358 61.9192L252.887 62.5187L253.417 63.1183C254.137 62.4826 254.682 61.708 255.05 60.8053L254.309 60.5031ZM252.887 62.5187L252.364 61.9142C251.83 62.3763 251.174 62.7383 250.38 62.9907L250.622 63.7531L250.864 64.5156C251.84 64.2055 252.695 63.7445 253.411 63.1233L252.887 62.5187ZM250.622 63.7531L250.377 62.9915C249.595 63.2428 248.69 63.375 247.653 63.375V64.175V64.975C248.824 64.975 249.898 64.8259 250.867 64.5147L250.622 63.7531ZM247.653 64.175V63.375C246.721 63.375 245.803 63.2406 244.897 62.9708L244.669 63.7375L244.44 64.5042C245.493 64.8177 246.565 64.975 247.653 64.975V64.175ZM244.669 63.7375L244.907 62.9738C244.028 62.6998 243.234 62.2857 242.519 61.7306L242.028 62.3625L241.538 62.9944C242.406 63.6684 243.372 64.171 244.431 64.5012L244.669 63.7375ZM242.028 62.3625L242.528 61.7378C241.847 61.1928 241.294 60.4931 240.873 59.6234L240.153 59.9719L239.433 60.3203C239.95 61.3881 240.647 62.2821 241.528 62.9872L242.028 62.3625ZM240.153 59.9719L240.875 59.6264C240.468 58.7776 240.25 57.7395 240.25 56.4875H239.45H238.65C238.65 57.923 238.9 59.2078 239.432 60.3173L240.153 59.9719ZM239.45 56.4875V57.2875H244.825V56.4875V55.6875H239.45V56.4875ZM244.825 56.4875H244.025C244.025 57.1912 244.08 57.8172 244.201 58.3523L244.981 58.175L245.761 57.9977C245.675 57.6161 245.625 57.1171 245.625 56.4875H244.825ZM244.981 58.175L244.201 58.3523C244.323 58.89 244.524 59.3772 244.834 59.7755L245.466 59.2844L246.097 58.7932C245.969 58.629 245.847 58.3766 245.761 57.9977L244.981 58.175ZM245.466 59.2844L244.855 59.8011C245.181 60.1867 245.594 60.4631 246.074 60.6325L246.341 59.8781L246.607 59.1237C246.378 59.0431 246.208 58.9237 246.076 58.7676L245.466 59.2844ZM246.341 59.8781L246.094 60.6393C246.553 60.7876 247.079 60.85 247.653 60.85V60.05V59.25C247.185 59.25 246.837 59.1978 246.587 59.117L246.341 59.8781ZM247.653 60.05V60.85C248.229 60.85 248.795 60.7329 249.247 60.39L248.762 59.7531L248.278 59.1162C248.209 59.1692 248.036 59.25 247.653 59.25V60.05ZM248.762 59.7531L249.25 60.3872C249.655 60.0762 249.936 59.6659 250.089 59.1792L249.325 58.9406L248.561 58.702C248.505 58.882 248.412 59.0133 248.275 59.119L248.762 59.7531ZM249.325 58.9406L250.091 59.1726C250.22 58.7445 250.281 58.2903 250.281 57.8156H249.481H248.681C248.681 58.1534 248.638 58.4492 248.559 58.7086L249.325 58.9406ZM273.791 59.6437H274.591V58.8437H273.791V59.6437ZM273.791 63.8625V64.6625H274.591V63.8625H273.791ZM264.228 63.8625H263.428V64.6625H264.228V63.8625ZM264.228 59.6437V58.8437H263.428V59.6437H264.228ZM266.103 41.1125H266.903V40.3125H266.103V41.1125ZM266.103 63.8625V64.6625H266.903V63.8625H266.103ZM260.759 63.8625H259.959V64.6625H260.759V63.8625ZM260.759 41.1125V40.3125H259.959V41.1125H260.759ZM273.791 59.6437H272.991V63.8625H273.791H274.591V59.6437H273.791ZM273.791 63.8625V63.0625H264.228V63.8625V64.6625H273.791V63.8625ZM264.228 63.8625H265.028V59.6437H264.228H263.428V63.8625H264.228ZM264.228 59.6437V60.4437H273.791V59.6437V58.8437H264.228V59.6437ZM266.103 41.1125H265.303V63.8625H266.103H266.903V41.1125H266.103ZM266.103 63.8625V63.0625H260.759V63.8625V64.6625H266.103V63.8625ZM260.759 63.8625H261.559V41.1125H260.759H259.959V63.8625H260.759ZM260.759 41.1125V41.9125H266.103V41.1125V40.3125H260.759V41.1125ZM284.897 41.1125H285.697V40.3125H284.897V41.1125ZM284.897 63.8625V64.6625H285.697V63.8625H284.897ZM279.569 63.8625H278.769V64.6625H279.569V63.8625ZM279.569 41.1125V40.3125H278.769V41.1125H279.569ZM284.897 41.1125H284.097V63.8625H284.897H285.697V41.1125H284.897ZM284.897 63.8625V63.0625H279.569V63.8625V64.6625H284.897V63.8625ZM279.569 63.8625H280.369V41.1125H279.569H278.769V63.8625H279.569ZM279.569 41.1125V41.9125H284.897V41.1125V40.3125H279.569V41.1125ZM294.144 41.1125V40.3125H293.099L293.371 41.321L294.144 41.1125ZM298.472 41.1125L299.252 40.9361L299.111 40.3125H298.472V41.1125ZM302.05 56.9406L301.27 57.117H302.83L302.05 56.9406ZM305.628 41.1125V40.3125H304.989L304.848 40.9361L305.628 41.1125ZM309.941 41.1125L310.713 41.3205L310.985 40.3125H309.941V41.1125ZM303.816 63.8625V64.6625H304.429L304.588 64.0705L303.816 63.8625ZM300.284 63.8625L299.512 64.071L299.672 64.6625H300.284V63.8625ZM291.472 41.1125V40.3125H290.672V41.1125H291.472ZM295.956 41.1125L296.755 41.0731L296.718 40.3125H295.956V41.1125ZM296.816 58.55H297.616V58.5303L297.615 58.5106L296.816 58.55ZM296.816 63.8625V64.6625H297.616V63.8625H296.816ZM291.472 63.8625H290.672V64.6625H291.472V63.8625ZM308.128 41.1125V40.3125H307.367L307.329 41.0731L308.128 41.1125ZM312.628 41.1125H313.428V40.3125H312.628V41.1125ZM312.628 63.8625V64.6625H313.428V63.8625H312.628ZM307.269 63.8625H306.469V64.6625H307.269V63.8625ZM307.269 58.55L306.47 58.5106L306.469 58.5303V58.55H307.269ZM294.144 41.1125V41.9125H298.472V41.1125V40.3125H294.144V41.1125ZM298.472 41.1125L297.692 41.2889L301.27 57.117L302.05 56.9406L302.83 56.7642L299.252 40.9361L298.472 41.1125ZM302.05 56.9406L302.83 57.117L306.408 41.2889L305.628 41.1125L304.848 40.9361L301.27 56.7642L302.05 56.9406ZM305.628 41.1125V41.9125H309.941V41.1125V40.3125H305.628V41.1125ZM309.941 41.1125L309.168 40.9045L303.043 63.6545L303.816 63.8625L304.588 64.0705L310.713 41.3205L309.941 41.1125ZM303.816 63.8625V63.0625H300.284V63.8625V64.6625H303.816V63.8625ZM300.284 63.8625L301.057 63.654L294.916 40.904L294.144 41.1125L293.371 41.321L299.512 64.071L300.284 63.8625ZM291.472 41.1125V41.9125H295.956V41.1125V40.3125H291.472V41.1125ZM295.956 41.1125L295.157 41.1519L296.017 58.5894L296.816 58.55L297.615 58.5106L296.755 41.0731L295.956 41.1125ZM296.816 58.55H296.016V63.8625H296.816H297.616V58.55H296.816ZM296.816 63.8625V63.0625H291.472V63.8625V64.6625H296.816V63.8625ZM291.472 63.8625H292.272V41.1125H291.472H290.672V63.8625H291.472ZM308.128 41.1125V41.9125H312.628V41.1125V40.3125H308.128V41.1125ZM312.628 41.1125H311.828V63.8625H312.628H313.428V41.1125H312.628ZM312.628 63.8625V63.0625H307.269V63.8625V64.6625H312.628V63.8625ZM307.269 63.8625H308.069V58.55H307.269H306.469V63.8625H307.269ZM307.269 58.55L308.068 58.5894L308.927 41.1519L308.128 41.1125L307.329 41.0731L306.47 58.5106L307.269 58.55ZM332.391 59.6437H333.191V58.8437H332.391V59.6437ZM332.391 63.8625V64.6625H333.191V63.8625H332.391ZM322.438 63.8625H321.638V64.6625H322.438V63.8625ZM322.438 59.6437V58.8437H321.638V59.6437H322.438ZM324.297 41.1125H325.097V40.3125H324.297V41.1125ZM324.297 63.8625V64.6625H325.097V63.8625H324.297ZM318.953 63.8625H318.153V64.6625H318.953V63.8625ZM318.953 41.1125V40.3125H318.153V41.1125H318.953ZM331.094 50.1437H331.894V49.3437H331.094V50.1437ZM331.094 54.2219V55.0219H331.894V54.2219H331.094ZM322.438 54.2219H321.638V55.0219H322.438V54.2219ZM322.438 50.1437V49.3437H321.638V50.1437H322.438ZM332.438 41.1125H333.238V40.3125H332.438V41.1125ZM332.438 45.3469V46.1469H333.238V45.3469H332.438ZM322.438 45.3469H321.638V46.1469H322.438V45.3469ZM322.438 41.1125V40.3125H321.638V41.1125H322.438ZM332.391 59.6437H331.591V63.8625H332.391H333.191V59.6437H332.391ZM332.391 63.8625V63.0625H322.438V63.8625V64.6625H332.391V63.8625ZM322.438 63.8625H323.238V59.6437H322.438H321.638V63.8625H322.438ZM322.438 59.6437V60.4437H332.391V59.6437V58.8437H322.438V59.6437ZM324.297 41.1125H323.497V63.8625H324.297H325.097V41.1125H324.297ZM324.297 63.8625V63.0625H318.953V63.8625V64.6625H324.297V63.8625ZM318.953 63.8625H319.753V41.1125H318.953H318.153V63.8625H318.953ZM318.953 41.1125V41.9125H324.297V41.1125V40.3125H318.953V41.1125ZM331.094 50.1437H330.294V54.2219H331.094H331.894V50.1437H331.094ZM331.094 54.2219V53.4219H322.438V54.2219V55.0219H331.094V54.2219ZM322.438 54.2219H323.238V50.1437H322.438H321.638V54.2219H322.438ZM322.438 50.1437V50.9437H331.094V50.1437V49.3437H322.438V50.1437ZM332.438 41.1125H331.638V45.3469H332.438H333.238V41.1125H332.438ZM332.438 45.3469V44.5469H322.438V45.3469V46.1469H332.438V45.3469ZM322.438 45.3469H323.238V41.1125H322.438H321.638V45.3469H322.438ZM322.438 41.1125V41.9125H332.438V41.1125V40.3125H322.438V41.1125ZM351.216 59.6437H352.016V58.8437H351.216V59.6437ZM351.216 63.8625V64.6625H352.016V63.8625H351.216ZM341.262 63.8625H340.462V64.6625H341.262V63.8625ZM341.262 59.6437V58.8437H340.462V59.6437H341.262ZM343.122 41.1125H343.922V40.3125H343.122V41.1125ZM343.122 63.8625V64.6625H343.922V63.8625H343.122ZM337.778 63.8625H336.978V64.6625H337.778V63.8625ZM337.778 41.1125V40.3125H336.978V41.1125H337.778ZM349.919 50.1437H350.719V49.3437H349.919V50.1437ZM349.919 54.2219V55.0219H350.719V54.2219H349.919ZM341.262 54.2219H340.462V55.0219H341.262V54.2219ZM341.262 50.1437V49.3437H340.462V50.1437H341.262ZM351.262 41.1125H352.062V40.3125H351.262V41.1125ZM351.262 45.3469V46.1469H352.062V45.3469H351.262ZM341.262 45.3469H340.462V46.1469H341.262V45.3469ZM341.262 41.1125V40.3125H340.462V41.1125H341.262ZM351.216 59.6437H350.416V63.8625H351.216H352.016V59.6437H351.216ZM351.216 63.8625V63.0625H341.262V63.8625V64.6625H351.216V63.8625ZM341.262 63.8625H342.062V59.6437H341.262H340.462V63.8625H341.262ZM341.262 59.6437V60.4437H351.216V59.6437V58.8437H341.262V59.6437ZM343.122 41.1125H342.322V63.8625H343.122H343.922V41.1125H343.122ZM343.122 63.8625V63.0625H337.778V63.8625V64.6625H343.122V63.8625ZM337.778 63.8625H338.578V41.1125H337.778H336.978V63.8625H337.778ZM337.778 41.1125V41.9125H343.122V41.1125V40.3125H337.778V41.1125ZM349.919 50.1437H349.119V54.2219H349.919H350.719V50.1437H349.919ZM349.919 54.2219V53.4219H341.262V54.2219V55.0219H349.919V54.2219ZM341.262 54.2219H342.062V50.1437H341.262H340.462V54.2219H341.262ZM341.262 50.1437V50.9437H349.919V50.1437V49.3437H341.262V50.1437ZM351.262 41.1125H350.462V45.3469H351.262H352.062V41.1125H351.262ZM351.262 45.3469V44.5469H341.262V45.3469V46.1469H351.262V45.3469ZM341.262 45.3469H342.062V41.1125H341.262H340.462V45.3469H341.262ZM341.262 41.1125V41.9125H351.262V41.1125V40.3125H341.262V41.1125ZM372.978 41.1125H373.778V40.3125H372.978V41.1125ZM372.978 63.8625V64.6625H373.778V63.8625H372.978ZM367.65 63.8625L366.908 64.1614L367.11 64.6625H367.65V63.8625ZM361.947 49.7062L362.689 49.4073L361.147 49.7062H361.947ZM361.947 63.8625V64.6625H362.747V63.8625H361.947ZM356.603 63.8625H355.803V64.6625H356.603V63.8625ZM356.603 41.1125V40.3125H355.803V41.1125H356.603ZM361.947 41.1125L362.689 40.8135L362.487 40.3125H361.947V41.1125ZM367.65 55.2687L366.908 55.5677L368.45 55.2687H367.65ZM367.65 41.1125V40.3125H366.85V41.1125H367.65ZM372.978 41.1125H372.178V63.8625H372.978H373.778V41.1125H372.978ZM372.978 63.8625V63.0625H367.65V63.8625V64.6625H372.978V63.8625ZM367.65 63.8625L368.392 63.5635L362.689 49.4073L361.947 49.7062L361.205 50.0052L366.908 64.1614L367.65 63.8625ZM361.947 49.7062H361.147V63.8625H361.947H362.747V49.7062H361.947ZM361.947 63.8625V63.0625H356.603V63.8625V64.6625H361.947V63.8625ZM356.603 63.8625H357.403V41.1125H356.603H355.803V63.8625H356.603ZM356.603 41.1125V41.9125H361.947V41.1125V40.3125H356.603V41.1125ZM361.947 41.1125L361.205 41.4114L366.908 55.5677L367.65 55.2687L368.392 54.9698L362.689 40.8135L361.947 41.1125ZM367.65 55.2687H368.45V41.1125H367.65H366.85V55.2687H367.65ZM367.65 41.1125V41.9125H372.978V41.1125V40.3125H367.65V41.1125Z" fill="white" mask="url(#path-1-outside-1_11402_32045)"/>
</svg>
