<svg width="317" height="317" viewBox="0 0 317 317" fill="none" xmlns="http://www.w3.org/2000/svg">
<circle cx="157.341" cy="156.768" r="120" fill="#114F2C"/>
<circle cx="157.841" cy="156.275" r="117" stroke="white"/>
<circle cx="158.339" cy="157.798" r="84.5" stroke="white"/>
<path d="M224.809 191.218C192.859 229.295 136.091 234.261 98.0138 202.311C59.9371 170.361 54.9706 113.593 86.9207 75.5163C118.871 37.4395 175.639 32.473 213.716 64.4231C251.792 96.3733 256.759 153.141 224.809 191.218Z" fill="white"/>
<path fill-rule="evenodd" clip-rule="evenodd" d="M199.386 101.849C198.926 102.031 189.239 103.165 181.345 103.96C178.427 104.254 175.732 104.529 175.357 104.572C172.763 104.865 162.835 105.78 157.391 106.228C150.988 106.753 149.061 106.909 141.473 107.512C139.388 107.678 135.977 107.949 133.892 108.115C131.808 108.28 129.147 108.49 127.98 108.581C125.546 108.769 124.037 108.981 123.649 109.188C123.5 109.267 123.237 109.512 123.064 109.732L122.749 110.132V139.174V168.217L122.408 168.294C122.051 168.374 119.626 168.766 116.72 169.213C115.094 169.463 114.99 169.501 114.543 170.009C113.99 170.638 113.983 170.527 114.798 174.051C115.95 179.036 118.188 184.941 120.564 189.265C121.768 191.457 121.95 192.514 121.193 192.921C120.956 193.048 120.006 193.092 118.031 193.066C114.727 193.023 113.34 193.268 111.303 194.254C107.495 196.098 104.6 199.73 105.508 201.523C106.162 202.812 108.41 202.975 110.171 201.859C110.701 201.524 110.993 201.161 111.515 200.194C112.612 198.159 114.233 196.85 116.335 196.303C116.813 196.179 117.242 196.078 117.289 196.078C117.336 196.078 116.79 196.674 116.074 197.402C115.359 198.131 114.337 199.306 113.802 200.014C113.268 200.721 112.328 201.905 111.714 202.645C110.272 204.381 109.909 205.105 110.1 205.87C110.376 206.975 111.775 207.453 113.024 206.87C114.248 206.298 115.098 205.165 116.551 202.171C117.952 199.286 118.573 198.279 118.848 198.449C118.936 198.504 118.961 198.474 118.904 198.382C118.848 198.292 118.872 198.175 118.957 198.123C119.17 197.991 119.146 198.404 118.876 199.559C118.355 201.782 117.502 203.567 115.9 205.782C115.004 207.021 114.26 208.566 114.259 209.188C114.259 209.888 114.843 210.649 115.578 210.904C116.434 211.202 117.253 210.924 118.126 210.039C119.718 208.428 120.698 205.347 121.551 199.27C121.726 198.024 121.735 198.006 121.951 198.418C122.398 199.269 122.761 200.571 122.842 201.603C122.949 202.983 122.587 204.369 121.517 206.675C120.781 208.262 120.71 208.511 120.706 209.504C120.703 210.538 120.728 210.619 121.215 211.122C121.866 211.793 122.59 211.933 123.715 211.607C125.505 211.087 126.619 209.038 126.6 206.296C126.59 204.818 126.377 203.635 125.466 199.986C125.14 198.68 124.918 197.497 124.972 197.356C125.051 197.149 125.203 197.117 125.767 197.184C126.729 197.3 133.18 199.18 140.563 201.497C146.952 203.502 146.587 203.413 147.217 203.115C147.524 202.969 147.846 202.717 147.933 202.555C148.037 202.362 148.086 200.262 148.075 196.537L148.058 190.814L148.404 190.73C149.532 190.457 171.146 186.225 179.45 184.651C184.75 183.647 184.959 183.608 190.517 182.546C192.894 182.092 197.703 181.197 201.205 180.557C204.707 179.917 207.725 179.298 207.911 179.181C208.098 179.063 208.289 178.815 208.335 178.628C208.382 178.442 208.112 174.918 207.736 170.796C207.36 166.675 206.949 162.042 206.822 160.502C206.696 158.962 206.453 156.067 206.283 154.068C206.113 152.07 205.837 148.732 205.671 146.65C205.505 144.569 205.269 141.64 205.148 140.141C205.027 138.642 204.791 135.611 204.624 133.404C204.456 131.198 204.214 128.03 204.086 126.365C203.957 124.7 203.548 119.011 203.176 113.724C202.356 102.059 202.41 102.575 201.957 102.123C201.647 101.813 201.458 101.766 200.568 101.777C200.001 101.783 199.469 101.816 199.386 101.849ZM196.657 105.113C195.68 105.279 187.517 106.218 183.695 106.604C180.713 106.905 175.021 107.42 165.275 108.271C162.356 108.526 159.218 108.809 158.301 108.901C157.384 108.993 156.19 109.111 155.648 109.163L154.662 109.259L155.877 109.45C156.544 109.555 158.25 109.913 159.667 110.246C167.372 112.056 175.783 115.403 181.997 119.13C182.939 119.695 183.883 120.26 184.093 120.385C184.464 120.605 184.497 120.59 185.093 119.931C186.285 118.613 191.846 112.099 194.527 108.88C196.018 107.09 197.375 105.472 197.542 105.284C197.881 104.906 197.875 104.905 196.657 105.113ZM194.658 113.234C191.807 116.793 188.959 120.338 188.328 121.113C187.698 121.888 187.186 122.57 187.191 122.627C187.195 122.684 187.645 123.072 188.189 123.488C189.54 124.522 193.249 128.184 194.628 129.847C197.611 133.444 200.342 137.81 202.154 141.882L202.659 143.017L202.573 142.033C202.526 141.492 202.348 139.108 202.178 136.735C202.008 134.362 201.671 129.763 201.43 126.516C201.189 123.269 200.768 117.496 200.495 113.686C200.222 109.877 199.963 106.761 199.92 106.763C199.876 106.764 197.508 109.676 194.658 113.234ZM136.849 110.707C134.444 110.834 125.767 111.569 125.682 111.654C125.653 111.683 125.646 124.341 125.667 139.783L125.706 167.859L129.344 167.284C133.308 166.658 140.68 165.525 144.05 165.025C145.832 164.761 146.221 164.655 146.476 164.368C147.234 163.513 151.755 158.299 154.356 155.279C155.934 153.448 158.05 150.995 159.057 149.829C160.065 148.664 161.534 146.961 162.321 146.045C163.109 145.129 164.71 143.286 165.879 141.949C167.047 140.612 170.426 136.734 173.386 133.332C176.346 129.93 179.666 126.119 180.764 124.863C182.299 123.109 182.72 122.538 182.584 122.399C182.26 122.07 178.955 120.208 176.569 119.01C163.936 112.669 151.001 109.966 136.849 110.707ZM146.667 119.482C144.996 119.763 143.238 120.539 141.775 121.643C140.179 122.847 139.003 124.532 138.269 126.668C137.892 127.763 137.851 128.088 137.843 130.074C137.835 131.968 137.883 132.424 138.189 133.404C139.506 137.613 142.626 140.669 146.938 141.973C148.054 142.311 148.604 142.386 150.038 142.398C151.572 142.41 151.942 142.359 153.113 141.976C153.845 141.736 154.852 141.293 155.351 140.992C157.34 139.789 159.01 137.671 159.772 135.385C160.219 134.044 160.256 133.779 160.259 131.89C160.262 130.23 160.198 129.605 159.917 128.56C159.266 126.14 157.713 123.712 155.756 122.055C153.31 119.984 149.722 118.968 146.667 119.482ZM182.693 127.526C181.284 129.205 179.514 131.3 178.76 132.181C175.67 135.787 172.851 139.095 170.429 141.957C169.02 143.623 166.705 146.348 165.285 148.013C163.865 149.678 161.28 152.71 159.54 154.749C157.801 156.789 155.885 159.037 155.283 159.745C154.681 160.453 152.964 162.463 151.468 164.211C149.971 165.96 148.594 167.587 148.407 167.827L148.067 168.264V178.159C148.067 183.601 148.119 188.052 148.181 188.051C148.244 188.049 148.568 187.981 148.901 187.9C149.608 187.729 162.832 185.181 173.234 183.211C174.943 182.887 178.696 182.172 181.572 181.622C184.449 181.073 188.781 180.249 191.199 179.792C193.617 179.334 196.653 178.757 197.946 178.508C199.238 178.26 201.455 177.834 202.873 177.563L205.45 177.071L205.439 176.318C205.424 175.373 205.165 172.057 204.695 166.785C204.494 164.536 204.187 160.892 204.011 158.685C203.594 153.447 203.391 152.137 202.635 149.802C199.632 140.534 194.323 132.302 187.208 125.884C186.347 125.108 185.555 124.472 185.448 124.472C185.341 124.472 184.101 125.846 182.693 127.526ZM180.232 144.155C176.057 144.734 172.557 147.801 171.424 151.876C170.242 156.125 171.488 160.619 174.74 163.837C176.23 165.312 177.935 166.301 179.991 166.885C181.556 167.329 184.472 167.371 185.969 166.971C190.758 165.691 193.852 161.518 193.852 156.339C193.852 151.414 190.966 147.066 186.339 145.022C184.578 144.243 182.116 143.894 180.232 144.155ZM144.429 167.64C143.887 167.715 143.318 167.789 143.164 167.806C142.855 167.838 142.906 167.888 144.618 169.225L145.49 169.906V168.686C145.49 168.015 145.473 167.474 145.452 167.485C145.431 167.496 144.971 167.565 144.429 167.64ZM138.592 168.473C138.425 168.509 138.134 168.57 137.944 168.611C137.648 168.674 137.847 168.889 139.385 170.168C140.366 170.984 142.124 172.416 143.292 173.35L145.414 175.048L145.459 174.237C145.483 173.79 145.436 173.248 145.354 173.032C145.265 172.798 144.123 171.779 142.524 170.507C139.756 168.305 139.65 168.25 138.592 168.473ZM134.271 169.221C134.146 169.245 133.652 169.307 133.172 169.36C132.693 169.412 132.3 169.505 132.3 169.566C132.3 169.627 134.051 171.069 136.192 172.772C138.332 174.475 141.241 176.804 142.658 177.949C144.074 179.094 145.297 180.031 145.375 180.031C145.454 180.031 145.492 179.583 145.46 179.009L145.404 177.987L143.514 176.425C142.475 175.566 140.771 174.174 139.729 173.33C138.687 172.487 137.254 171.311 136.545 170.717C135.061 169.472 134.589 169.162 134.271 169.221ZM128.087 170.105C127.562 170.194 127.119 170.329 127.101 170.406C127.07 170.546 129.218 172.301 136.564 178.136C138.763 179.884 141.45 182.034 142.534 182.914C143.618 183.795 144.737 184.677 145.022 184.874L145.539 185.233L145.439 184.503C145.384 184.102 145.339 183.591 145.339 183.37C145.339 182.955 145.303 182.924 138.684 177.565C137.883 176.917 136.921 176.129 136.545 175.814C134.995 174.513 129.526 170.178 129.293 170.065C129.154 169.998 128.612 170.016 128.087 170.105ZM122.629 170.98C121.79 171.109 121.698 171.156 121.87 171.363C121.978 171.493 125.409 174.275 129.495 177.546C137.461 183.923 140.758 186.585 142.685 188.195C143.352 188.752 144.222 189.467 144.618 189.785L145.339 190.361L145.338 189.17L145.338 187.978L141.683 185.026C137.991 182.045 131.542 176.888 126.634 172.991C125.166 171.826 123.879 170.863 123.774 170.852C123.669 170.841 123.154 170.898 122.629 170.98ZM117.644 171.813C117.379 171.846 117.086 171.966 116.992 172.078C116.652 172.487 117.247 172.997 128.131 181.62C132.572 185.139 142.066 192.939 144.29 194.896C144.84 195.379 145.317 195.775 145.352 195.775C145.386 195.775 145.392 195.198 145.365 194.493L145.317 193.211L144.607 192.629C144.217 192.309 142.704 191.059 141.245 189.851C138.278 187.395 133.864 183.827 130.8 181.407C129.683 180.525 127.969 179.157 126.992 178.366C126.014 177.575 124.472 176.341 123.565 175.624C122.658 174.908 121.19 173.733 120.303 173.013C119.416 172.293 118.563 171.715 118.408 171.729C118.252 171.742 117.909 171.78 117.644 171.813ZM118.405 176.952C118.45 177.105 118.563 177.537 118.657 177.911C119.006 179.302 119.164 179.567 120.088 180.302C121.634 181.531 124.465 183.778 128.434 186.928C130.519 188.582 133.248 190.786 134.499 191.826C137.107 193.995 141.588 197.768 141.7 197.891C142.162 198.396 143.52 199.343 144.089 199.556C145.573 200.111 145.49 200.127 145.49 199.284C145.49 198.536 145.488 198.532 144.391 197.646C143.787 197.158 142.789 196.334 142.173 195.816C141.558 195.297 140.994 194.91 140.919 194.957C140.844 195.003 140.802 194.971 140.824 194.886C140.847 194.801 140.007 194.03 138.958 193.172C137.909 192.314 136.139 190.862 135.026 189.946C131.873 187.352 118.916 177.003 118.604 176.83C118.37 176.7 118.337 176.72 118.405 176.952ZM120.82 184.129C121.354 185.391 121.72 186.044 122.149 186.5C122.534 186.911 126.303 190.073 127.969 191.385C128.233 191.593 129.694 192.819 131.214 194.11C132.735 195.4 134.199 196.571 134.467 196.712C134.981 196.982 138.551 198.062 138.639 197.974C138.744 197.868 134.993 194.871 134.858 194.954C134.781 195.002 134.737 194.97 134.76 194.883C134.801 194.73 129.906 190.728 126.316 187.978C125.338 187.229 124.459 186.546 124.363 186.46C124.171 186.287 121.391 184.169 120.906 183.826C120.606 183.613 120.604 183.619 120.82 184.129ZM124.334 191.158C124.498 192.312 124.97 193.97 125.198 194.194C125.31 194.304 126.323 194.597 127.449 194.844C128.575 195.092 129.629 195.347 129.793 195.412C129.957 195.476 128.933 194.517 127.519 193.28C126.105 192.043 124.785 190.889 124.587 190.716L124.226 190.401L124.334 191.158Z" fill="white" stroke="white"/>
<path d="M254.549 112.792L255.781 115.276C255.949 115.622 256.396 115.954 256.774 116.017L259.007 116.391C260.435 116.631 260.771 117.676 259.742 118.706L258.006 120.456C257.712 120.753 257.551 121.324 257.642 121.733L258.139 123.9C258.531 125.615 257.628 126.278 256.124 125.382L254.031 124.133C253.653 123.907 253.03 123.907 252.645 124.133L250.552 125.382C249.054 126.278 248.144 125.608 248.536 123.9L249.033 121.733C249.124 121.324 248.963 120.753 248.669 120.456L246.934 118.706C245.912 117.676 246.241 116.631 247.668 116.391L249.901 116.017C250.272 115.954 250.72 115.622 250.888 115.276L252.12 112.792C252.792 111.444 253.884 111.444 254.549 112.792Z" fill="white"/>
<path d="M63.5487 112.792L64.7806 115.276C64.9485 115.622 65.3965 115.954 65.7745 116.017L68.0072 116.391C69.4351 116.631 69.771 117.676 68.7421 118.706L67.0063 120.456C66.7124 120.753 66.5514 121.324 66.6424 121.733L67.1393 123.9C67.5313 125.615 66.6284 126.278 65.1235 125.382L63.0308 124.133C62.6528 123.907 62.0299 123.907 61.6449 124.133L59.5521 125.382C58.0543 126.278 57.1444 125.608 57.5364 123.9L58.0333 121.733C58.1243 121.324 57.9633 120.753 57.6694 120.456L55.9335 118.706C54.9117 117.676 55.2406 116.631 56.6685 116.391L58.9012 116.017C59.2722 115.954 59.7201 115.622 59.8881 115.276L61.12 112.792C61.7919 111.444 62.8838 111.444 63.5487 112.792Z" fill="white"/>
<path d="M78.6527 87.7128L85.799 97.4435L83.8983 99.7873L75.6533 87.3802L76.8405 85.9163L78.6527 87.7128ZM89.2436 93.196L78.2344 88.2285L76.0839 86.8492L77.2895 85.3626L91.1566 90.8371L89.2436 93.196ZM85.1926 89.7725L87.0358 91.2672L82.9945 96.2505L81.1514 94.7558L85.1926 89.7725ZM83.9858 77.8026L94.1592 87.7362L92.1738 89.7694L82.0005 79.8359L83.9858 77.8026ZM87.7998 74.3979L89.7508 72.8192L98.1239 78.5559L94.2526 69.1764L95.9759 67.7819L101.777 81.3784L100.115 82.7237L87.7998 74.3979ZM87.0103 75.0368L88.8702 73.5318L95.056 80.5862L98.1029 84.3516L95.9545 86.09L87.0103 75.0368ZM95.1256 68.4699L96.9931 66.9588L105.937 78.012L103.797 79.7443L100.75 75.9789L95.1256 68.4699ZM102.724 63.0613L110.323 75.0788L107.921 76.5977L100.322 64.5801L102.724 63.0613ZM107.153 60.6526L109.411 59.5566L116.267 67.0403L114.62 57.0278L116.615 56.0598L119.187 70.6167L117.263 71.5506L107.153 60.6526ZM106.239 61.0961L108.392 60.0513L112.819 68.3232L114.934 72.6807L112.448 73.8875L106.239 61.0961ZM115.631 56.5374L117.792 55.4884L124.001 68.2798L121.523 69.4824L119.408 65.1248L115.631 56.5374ZM136.679 49.7356L140.149 63.5244L137.469 64.1988L130.97 56.6605L133.141 65.288L130.508 65.9506L127.038 52.1618L129.681 51.4968L136.241 59.1203L134.046 50.3981L136.679 49.7356ZM148.58 57.6154L151.403 57.2836C151.489 58.3486 151.38 59.2692 151.078 60.0454C150.776 60.8152 150.287 61.4298 149.614 61.8892C148.947 62.3479 148.109 62.6365 147.1 62.7551C146.318 62.8471 145.607 62.7995 144.969 62.6123C144.33 62.4187 143.767 62.0916 143.281 61.6309C142.794 61.1703 142.396 60.5779 142.088 59.8537C141.786 59.1223 141.577 58.2652 141.461 57.2824L141.18 54.8867C141.064 53.9039 141.075 53.021 141.212 52.2379C141.356 51.454 141.612 50.7815 141.978 50.2206C142.351 49.6524 142.826 49.2032 143.403 48.8731C143.986 48.5358 144.662 48.3219 145.432 48.2314C146.46 48.1105 147.343 48.2034 148.08 48.51C148.817 48.8166 149.417 49.3197 149.88 50.0191C150.348 50.7114 150.684 51.5864 150.887 52.6441L148.045 52.9783C147.953 52.3073 147.817 51.7891 147.636 51.4236C147.461 51.0508 147.222 50.8036 146.919 50.6819C146.616 50.5537 146.212 50.5192 145.708 50.5785C145.333 50.6226 145.017 50.7285 144.762 50.8962C144.505 51.0575 144.307 51.2939 144.167 51.6054C144.026 51.9168 143.942 52.3135 143.913 52.7954C143.891 53.2766 143.92 53.8566 144 54.5355L144.284 56.9505C144.362 57.6165 144.465 58.1813 144.591 58.6449C144.717 59.1021 144.875 59.4703 145.065 59.7495C145.255 60.0287 145.491 60.2206 145.772 60.3252C146.06 60.429 146.41 60.4566 146.824 60.408C147.303 60.3517 147.679 60.2354 147.953 60.0589C148.234 59.8817 148.424 59.6004 148.523 59.2152C148.621 58.8299 148.641 58.2966 148.58 57.6154ZM159.09 47.7235L159.103 61.9423L156.261 61.9449L156.248 47.7262L159.09 47.7235ZM162.625 47.7203L162.627 50.0933L152.784 50.1024L152.781 47.7294L162.625 47.7203ZM179.56 56.1893L179.143 58.5253C178.966 59.5123 178.69 60.3558 178.314 61.0557C177.945 61.7504 177.495 62.3082 176.963 62.7291C176.439 63.1448 175.844 63.4221 175.178 63.561C174.518 63.701 173.813 63.7041 173.063 63.5702C172.313 63.4363 171.65 63.1888 171.073 62.8278C170.502 62.468 170.037 62.0012 169.676 61.4276C169.323 60.8487 169.091 60.169 168.979 59.3885C168.868 58.6015 168.901 57.7146 169.077 56.7276L169.495 54.3915C169.675 53.3789 169.952 52.5156 170.324 51.8017C170.697 51.0814 171.154 50.5082 171.693 50.082C172.233 49.6494 172.834 49.3599 173.495 49.2134C174.157 49.0605 174.863 49.051 175.613 49.185C176.363 49.3189 177.022 49.5722 177.59 49.9449C178.159 50.3111 178.623 50.7907 178.98 51.3835C179.338 51.9699 179.568 52.6657 179.668 53.4707C179.777 54.2705 179.741 55.1766 179.56 56.1893ZM176.345 58.0257L176.766 55.6704C176.885 55.0038 176.938 54.4281 176.925 53.943C176.914 53.4516 176.839 53.0381 176.701 52.7025C176.562 52.367 176.368 52.1041 176.117 51.9139C175.867 51.7236 175.559 51.5959 175.194 51.5307C174.828 51.4654 174.492 51.4781 174.185 51.5687C173.884 51.6605 173.611 51.8398 173.365 52.1067C173.125 52.3747 172.915 52.7373 172.734 53.1944C172.561 53.6462 172.415 54.2054 172.295 54.872L171.875 57.2273C171.76 57.8682 171.711 58.4247 171.725 58.8969C171.74 59.3691 171.818 59.7666 171.959 60.0894C172.1 60.4121 172.295 60.6686 172.546 60.8588C172.804 61.0438 173.115 61.1689 173.48 61.2341C173.839 61.2982 174.169 61.2876 174.468 61.2022C174.775 61.1116 175.048 60.9387 175.285 60.6835C175.522 60.4282 175.73 60.0817 175.907 59.6438C176.085 59.206 176.231 58.6666 176.345 58.0257ZM187.001 52.0031L182.858 65.605L180.121 64.7713L184.264 51.1694L187.001 52.0031ZM189.5 59.0832L188.811 61.344L183.86 59.836L184.549 57.5752L189.5 59.0832ZM191.784 53.4599L191.093 55.73L185.619 54.0627L186.31 51.7926L191.784 53.4599ZM196.765 71.0817L194.522 69.9554L195.6 67.8522L197.826 68.9697C198.443 69.2794 198.978 69.4098 199.432 69.3611C199.887 69.3124 200.303 69.0846 200.683 68.6776C201.068 68.2735 201.454 67.6846 201.843 66.9108L202.838 64.9297C203.133 64.3421 203.345 63.8257 203.474 63.3804C203.605 62.9294 203.644 62.5335 203.589 62.1927C203.537 61.8461 203.391 61.5358 203.15 61.2617C202.909 60.9876 202.564 60.7381 202.116 60.5131L199.794 59.3475L200.859 57.2268L203.181 58.3924C203.914 58.7605 204.52 59.2143 205 59.7538C205.479 60.2932 205.819 60.9009 206.018 61.5767C206.221 62.2467 206.271 62.9747 206.168 63.7606C206.064 64.5466 205.798 65.3672 205.369 66.2224L204.383 68.186C203.95 69.0471 203.451 69.7509 202.885 70.2973C202.32 70.8437 201.706 71.2386 201.045 71.482C200.392 71.7226 199.703 71.8102 198.978 71.7449C198.254 71.6796 197.516 71.4585 196.765 71.0817ZM202.387 57.9937L196.006 70.7004L193.449 69.4164L199.83 56.7097L202.387 57.9937ZM211.592 77.106L210.295 79.0809L205.129 75.686L206.426 73.711L211.592 77.106ZM213.68 64.2915L205.871 76.1741L203.48 74.6027L211.289 62.7201L213.68 64.2915ZM214.245 71.5576L212.985 73.4754L208.513 70.5364L209.773 68.6185L214.245 71.5576ZM218.087 67.1877L216.784 69.1708L211.634 65.7866L212.937 63.8035L218.087 67.1877ZM219.211 83.2718L217.712 85.0986L213.145 81.3504L214.644 79.5236L219.211 83.2718ZM222.845 70.917L213.824 81.908L211.612 80.0927L220.633 69.1017L222.845 70.917ZM230.469 86.1201L228.76 87.7524L224.734 83.5365L226.443 81.9042L230.469 86.1201ZM231.169 78.5107L220.887 88.3316L218.91 86.2624L229.193 76.4415L231.169 78.5107ZM236.066 83.6376L225.784 93.4585L223.828 91.4106L234.11 81.5897L236.066 83.6376ZM240.338 88.8107L229.126 97.5541L227.378 95.3131L238.591 86.5697L240.338 88.8107Z" fill="white"/>
</svg>
