<svg width="412" height="144" viewBox="0 0 412 144" fill="none" xmlns="http://www.w3.org/2000/svg">
<foreignObject x="34" y="0" width="344" height="144"><div xmlns="http://www.w3.org/1999/xhtml" style="backdrop-filter:blur(2px);clip-path:url(#bgblur_0_11653_22100_clip_path);height:100%;width:100%"></div></foreignObject><g filter="url(#filter0_d_11653_22100)" data-figma-bg-blur-radius="4">
<rect x="66" y="32" width="280" height="80" rx="40" fill="#116B48"/>
<rect x="67" y="33" width="278" height="78" rx="39" stroke="white" stroke-width="2"/>
</g>
<path d="M144.719 90.0859H141.797L141.781 88.3828H144.195C144.622 88.3828 144.969 88.3307 145.234 88.2266C145.505 88.1224 145.703 87.9714 145.828 87.7734C145.953 87.5703 146.016 87.3203 146.016 87.0234C146.016 86.6849 145.953 86.4115 145.828 86.2031C145.703 85.9948 145.505 85.8438 145.234 85.75C144.969 85.651 144.625 85.6016 144.203 85.6016H142.719V95H140.172V83.625H144.203C144.885 83.625 145.495 83.6875 146.031 83.8125C146.568 83.9375 147.023 84.1302 147.398 84.3906C147.779 84.651 148.068 84.9766 148.266 85.3672C148.464 85.7578 148.562 86.2188 148.562 86.75C148.562 87.2135 148.458 87.6458 148.25 88.0469C148.047 88.4479 147.719 88.7734 147.266 89.0234C146.812 89.2734 146.206 89.4089 145.445 89.4297L144.719 90.0859ZM144.617 95H141.148L142.07 93.0312H144.617C145.008 93.0312 145.326 92.9688 145.57 92.8438C145.815 92.7188 145.995 92.5495 146.109 92.3359C146.224 92.1224 146.281 91.8828 146.281 91.6172C146.281 91.3047 146.227 91.0339 146.117 90.8047C146.013 90.5755 145.846 90.3984 145.617 90.2734C145.393 90.1484 145.094 90.0859 144.719 90.0859H142.438L142.453 88.3828H145.242L145.836 89.0547C146.56 89.0391 147.138 89.1562 147.57 89.4062C148.008 89.651 148.323 89.974 148.516 90.375C148.708 90.776 148.805 91.2005 148.805 91.6484C148.805 92.388 148.646 93.0078 148.328 93.5078C148.01 94.0026 147.539 94.375 146.914 94.625C146.294 94.875 145.529 95 144.617 95ZM154.312 95.1562C153.641 95.1562 153.039 95.0495 152.508 94.8359C151.977 94.6224 151.526 94.3281 151.156 93.9531C150.792 93.5729 150.513 93.1354 150.32 92.6406C150.128 92.1458 150.031 91.6172 150.031 91.0547V90.7578C150.031 90.1276 150.12 89.5469 150.297 89.0156C150.474 88.4844 150.732 88.0234 151.07 87.6328C151.414 87.237 151.836 86.9323 152.336 86.7188C152.836 86.5 153.406 86.3906 154.047 86.3906C154.646 86.3906 155.18 86.4896 155.648 86.6875C156.117 86.8802 156.513 87.1589 156.836 87.5234C157.159 87.8828 157.404 88.3177 157.57 88.8281C157.742 89.3333 157.828 89.901 157.828 90.5312V91.5312H151.016V89.9609H155.438V89.7734C155.438 89.4766 155.383 89.2161 155.273 88.9922C155.169 88.7682 155.013 88.5964 154.805 88.4766C154.602 88.3516 154.344 88.2891 154.031 88.2891C153.734 88.2891 153.487 88.3516 153.289 88.4766C153.091 88.6016 152.932 88.7786 152.812 89.0078C152.698 89.2318 152.615 89.4948 152.562 89.7969C152.51 90.0938 152.484 90.4141 152.484 90.7578V91.0547C152.484 91.3828 152.529 91.6823 152.617 91.9531C152.706 92.224 152.836 92.4557 153.008 92.6484C153.18 92.8411 153.388 92.9922 153.633 93.1016C153.878 93.2109 154.156 93.2656 154.469 93.2656C154.854 93.2656 155.221 93.1927 155.57 93.0469C155.919 92.8958 156.221 92.6615 156.477 92.3438L157.617 93.6484C157.445 93.8984 157.203 94.1406 156.891 94.375C156.583 94.6042 156.214 94.7917 155.781 94.9375C155.349 95.0833 154.859 95.1562 154.312 95.1562ZM162.547 93.2578C162.807 93.2578 163.034 93.2083 163.227 93.1094C163.419 93.0104 163.568 92.8724 163.672 92.6953C163.781 92.513 163.836 92.2943 163.836 92.0391H166.133C166.133 92.6536 165.974 93.1953 165.656 93.6641C165.344 94.1328 164.922 94.5 164.391 94.7656C163.859 95.026 163.26 95.1562 162.594 95.1562C161.938 95.1562 161.365 95.0495 160.875 94.8359C160.385 94.6172 159.977 94.3125 159.648 93.9219C159.32 93.5312 159.073 93.0781 158.906 92.5625C158.745 92.0417 158.664 91.4792 158.664 90.875V90.6719C158.664 90.0729 158.745 89.513 158.906 88.9922C159.073 88.4714 159.32 88.0156 159.648 87.625C159.977 87.2344 160.383 86.9323 160.867 86.7188C161.357 86.5 161.93 86.3906 162.586 86.3906C163.279 86.3906 163.891 86.5234 164.422 86.7891C164.958 87.0547 165.378 87.4375 165.68 87.9375C165.982 88.4323 166.133 89.0286 166.133 89.7266H163.836C163.836 89.4557 163.786 89.2135 163.688 89C163.594 88.7812 163.448 88.6094 163.25 88.4844C163.057 88.3542 162.818 88.2891 162.531 88.2891C162.234 88.2891 161.99 88.3542 161.797 88.4844C161.609 88.6094 161.466 88.7839 161.367 89.0078C161.268 89.2318 161.201 89.487 161.164 89.7734C161.128 90.0547 161.109 90.3542 161.109 90.6719V90.875C161.109 91.1979 161.128 91.5052 161.164 91.7969C161.201 92.0833 161.268 92.3359 161.367 92.5547C161.471 92.7734 161.617 92.9453 161.805 93.0703C161.992 93.1953 162.24 93.2578 162.547 93.2578ZM166.992 90.8594V90.6953C166.992 90.0755 167.081 89.5052 167.258 88.9844C167.435 88.4583 167.695 88.0026 168.039 87.6172C168.383 87.2318 168.805 86.9323 169.305 86.7188C169.805 86.5 170.378 86.3906 171.023 86.3906C171.68 86.3906 172.258 86.5 172.758 86.7188C173.263 86.9323 173.688 87.2318 174.031 87.6172C174.375 88.0026 174.635 88.4583 174.812 88.9844C174.99 89.5052 175.078 90.0755 175.078 90.6953V90.8594C175.078 91.474 174.99 92.0443 174.812 92.5703C174.635 93.0911 174.375 93.5469 174.031 93.9375C173.688 94.3229 173.266 94.6224 172.766 94.8359C172.266 95.0495 171.69 95.1562 171.039 95.1562C170.393 95.1562 169.818 95.0495 169.312 94.8359C168.807 94.6224 168.383 94.3229 168.039 93.9375C167.695 93.5469 167.435 93.0911 167.258 92.5703C167.081 92.0443 166.992 91.474 166.992 90.8594ZM169.438 90.6953V90.8594C169.438 91.1927 169.464 91.5052 169.516 91.7969C169.573 92.0885 169.664 92.3438 169.789 92.5625C169.914 92.7812 170.078 92.9531 170.281 93.0781C170.49 93.1979 170.742 93.2578 171.039 93.2578C171.336 93.2578 171.586 93.1979 171.789 93.0781C171.992 92.9531 172.156 92.7812 172.281 92.5625C172.406 92.3438 172.495 92.0885 172.547 91.7969C172.604 91.5052 172.633 91.1927 172.633 90.8594V90.6953C172.633 90.3672 172.604 90.0599 172.547 89.7734C172.495 89.4818 172.406 89.224 172.281 89C172.156 88.776 171.99 88.6016 171.781 88.4766C171.578 88.3516 171.326 88.2891 171.023 88.2891C170.732 88.2891 170.484 88.3516 170.281 88.4766C170.078 88.6016 169.914 88.776 169.789 89C169.664 89.224 169.573 89.4818 169.516 89.7734C169.464 90.0599 169.438 90.3672 169.438 90.6953ZM178.805 88.3203V95H176.367V86.5469H178.656L178.805 88.3203ZM178.492 90.4766L177.875 90.4922C177.875 89.8984 177.945 89.3542 178.086 88.8594C178.232 88.3594 178.443 87.9245 178.719 87.5547C178.995 87.1849 179.336 86.8984 179.742 86.6953C180.154 86.4922 180.628 86.3906 181.164 86.3906C181.539 86.3906 181.88 86.4479 182.188 86.5625C182.495 86.6719 182.758 86.8464 182.977 87.0859C183.201 87.3203 183.372 87.6276 183.492 88.0078C183.612 88.3828 183.672 88.8333 183.672 89.3594V95H181.234V89.6562C181.234 89.2812 181.188 88.9974 181.094 88.8047C181.005 88.6068 180.875 88.4714 180.703 88.3984C180.531 88.3255 180.326 88.2891 180.086 88.2891C179.826 88.2891 179.594 88.3464 179.391 88.4609C179.193 88.5703 179.026 88.724 178.891 88.9219C178.755 89.1198 178.654 89.3516 178.586 89.6172C178.523 89.8828 178.492 90.1693 178.492 90.4766ZM183.422 90.3516L182.648 90.4141C182.648 89.8411 182.716 89.3099 182.852 88.8203C182.987 88.3307 183.19 87.9062 183.461 87.5469C183.732 87.1823 184.068 86.8984 184.469 86.6953C184.875 86.4922 185.346 86.3906 185.883 86.3906C186.279 86.3906 186.638 86.4479 186.961 86.5625C187.289 86.6771 187.57 86.862 187.805 87.1172C188.044 87.3724 188.229 87.7083 188.359 88.125C188.49 88.5365 188.555 89.0417 188.555 89.6406V95H186.102V89.6406C186.102 89.2708 186.055 88.9896 185.961 88.7969C185.872 88.6042 185.742 88.4714 185.57 88.3984C185.404 88.3255 185.203 88.2891 184.969 88.2891C184.708 88.2891 184.482 88.3438 184.289 88.4531C184.096 88.5573 183.935 88.7031 183.805 88.8906C183.674 89.0729 183.578 89.2891 183.516 89.5391C183.453 89.7891 183.422 90.0599 183.422 90.3516ZM194.172 95.1562C193.5 95.1562 192.898 95.0495 192.367 94.8359C191.836 94.6224 191.385 94.3281 191.016 93.9531C190.651 93.5729 190.372 93.1354 190.18 92.6406C189.987 92.1458 189.891 91.6172 189.891 91.0547V90.7578C189.891 90.1276 189.979 89.5469 190.156 89.0156C190.333 88.4844 190.591 88.0234 190.93 87.6328C191.273 87.237 191.695 86.9323 192.195 86.7188C192.695 86.5 193.266 86.3906 193.906 86.3906C194.505 86.3906 195.039 86.4896 195.508 86.6875C195.977 86.8802 196.372 87.1589 196.695 87.5234C197.018 87.8828 197.263 88.3177 197.43 88.8281C197.602 89.3333 197.688 89.901 197.688 90.5312V91.5312H190.875V89.9609H195.297V89.7734C195.297 89.4766 195.242 89.2161 195.133 88.9922C195.029 88.7682 194.872 88.5964 194.664 88.4766C194.461 88.3516 194.203 88.2891 193.891 88.2891C193.594 88.2891 193.346 88.3516 193.148 88.4766C192.951 88.6016 192.792 88.7786 192.672 89.0078C192.557 89.2318 192.474 89.4948 192.422 89.7969C192.37 90.0938 192.344 90.4141 192.344 90.7578V91.0547C192.344 91.3828 192.388 91.6823 192.477 91.9531C192.565 92.224 192.695 92.4557 192.867 92.6484C193.039 92.8411 193.247 92.9922 193.492 93.1016C193.737 93.2109 194.016 93.2656 194.328 93.2656C194.714 93.2656 195.081 93.1927 195.43 93.0469C195.779 92.8958 196.081 92.6615 196.336 92.3438L197.477 93.6484C197.305 93.8984 197.062 94.1406 196.75 94.375C196.443 94.6042 196.073 94.7917 195.641 94.9375C195.208 95.0833 194.719 95.1562 194.172 95.1562ZM207.336 92.9844V89.3594C207.336 89.1042 207.297 88.8854 207.219 88.7031C207.141 88.5208 207.018 88.3776 206.852 88.2734C206.685 88.1693 206.469 88.1172 206.203 88.1172C205.979 88.1172 205.784 88.1562 205.617 88.2344C205.456 88.3125 205.331 88.4245 205.242 88.5703C205.159 88.7161 205.117 88.8958 205.117 89.1094H202.68C202.68 88.7292 202.766 88.375 202.938 88.0469C203.109 87.7188 203.354 87.4297 203.672 87.1797C203.995 86.9297 204.38 86.737 204.828 86.6016C205.276 86.4609 205.779 86.3906 206.336 86.3906C206.997 86.3906 207.586 86.5026 208.102 86.7266C208.622 86.9453 209.034 87.276 209.336 87.7188C209.638 88.1562 209.789 88.7083 209.789 89.375V92.9141C209.789 93.4245 209.818 93.8255 209.875 94.1172C209.938 94.4036 210.026 94.6536 210.141 94.8672V95H207.68C207.565 94.7552 207.479 94.4531 207.422 94.0938C207.365 93.7292 207.336 93.3594 207.336 92.9844ZM207.641 89.8438L207.656 91.1875H206.445C206.174 91.1875 205.94 91.2214 205.742 91.2891C205.549 91.3568 205.393 91.4505 205.273 91.5703C205.154 91.6849 205.065 91.8203 205.008 91.9766C204.956 92.1276 204.93 92.2943 204.93 92.4766C204.93 92.6484 204.971 92.8047 205.055 92.9453C205.138 93.0807 205.253 93.1875 205.398 93.2656C205.544 93.3438 205.714 93.3828 205.906 93.3828C206.224 93.3828 206.495 93.3203 206.719 93.1953C206.948 93.0703 207.125 92.9193 207.25 92.7422C207.375 92.5599 207.438 92.3906 207.438 92.2344L208.023 93.25C207.93 93.4583 207.815 93.6745 207.68 93.8984C207.544 94.1172 207.372 94.3229 207.164 94.5156C206.956 94.7031 206.703 94.8568 206.406 94.9766C206.115 95.0964 205.763 95.1562 205.352 95.1562C204.82 95.1562 204.339 95.0495 203.906 94.8359C203.474 94.6172 203.128 94.3177 202.867 93.9375C202.612 93.5573 202.484 93.1198 202.484 92.625C202.484 92.1823 202.565 91.7891 202.727 91.4453C202.888 91.1016 203.13 90.8099 203.453 90.5703C203.781 90.3307 204.193 90.151 204.688 90.0312C205.182 89.9062 205.76 89.8438 206.422 89.8438H207.641ZM216.719 83.625H218.828L221.562 91.7578L224.289 83.625H226.398L222.414 95H220.703L216.719 83.625ZM215.5 83.625H217.648L218.047 92.0547V95H215.5V83.625ZM225.469 83.625H227.625V95H225.07V92.0547L225.469 83.625ZM233.375 95.1562C232.703 95.1562 232.102 95.0495 231.57 94.8359C231.039 94.6224 230.589 94.3281 230.219 93.9531C229.854 93.5729 229.576 93.1354 229.383 92.6406C229.19 92.1458 229.094 91.6172 229.094 91.0547V90.7578C229.094 90.1276 229.182 89.5469 229.359 89.0156C229.536 88.4844 229.794 88.0234 230.133 87.6328C230.477 87.237 230.898 86.9323 231.398 86.7188C231.898 86.5 232.469 86.3906 233.109 86.3906C233.708 86.3906 234.242 86.4896 234.711 86.6875C235.18 86.8802 235.576 87.1589 235.898 87.5234C236.221 87.8828 236.466 88.3177 236.633 88.8281C236.805 89.3333 236.891 89.901 236.891 90.5312V91.5312H230.078V89.9609H234.5V89.7734C234.5 89.4766 234.445 89.2161 234.336 88.9922C234.232 88.7682 234.076 88.5964 233.867 88.4766C233.664 88.3516 233.406 88.2891 233.094 88.2891C232.797 88.2891 232.549 88.3516 232.352 88.4766C232.154 88.6016 231.995 88.7786 231.875 89.0078C231.76 89.2318 231.677 89.4948 231.625 89.7969C231.573 90.0938 231.547 90.4141 231.547 90.7578V91.0547C231.547 91.3828 231.591 91.6823 231.68 91.9531C231.768 92.224 231.898 92.4557 232.07 92.6484C232.242 92.8411 232.451 92.9922 232.695 93.1016C232.94 93.2109 233.219 93.2656 233.531 93.2656C233.917 93.2656 234.284 93.1927 234.633 93.0469C234.982 92.8958 235.284 92.6615 235.539 92.3438L236.68 93.6484C236.508 93.8984 236.266 94.1406 235.953 94.375C235.646 94.6042 235.276 94.7917 234.844 94.9375C234.411 95.0833 233.922 95.1562 233.375 95.1562ZM240.523 88.3203V95H238.086V86.5469H240.375L240.523 88.3203ZM240.211 90.4766L239.594 90.4922C239.594 89.8984 239.664 89.3542 239.805 88.8594C239.951 88.3594 240.161 87.9245 240.438 87.5547C240.714 87.1849 241.055 86.8984 241.461 86.6953C241.872 86.4922 242.346 86.3906 242.883 86.3906C243.258 86.3906 243.599 86.4479 243.906 86.5625C244.214 86.6719 244.477 86.8464 244.695 87.0859C244.919 87.3203 245.091 87.6276 245.211 88.0078C245.331 88.3828 245.391 88.8333 245.391 89.3594V95H242.953V89.6562C242.953 89.2812 242.906 88.9974 242.812 88.8047C242.724 88.6068 242.594 88.4714 242.422 88.3984C242.25 88.3255 242.044 88.2891 241.805 88.2891C241.544 88.2891 241.312 88.3464 241.109 88.4609C240.911 88.5703 240.745 88.724 240.609 88.9219C240.474 89.1198 240.372 89.3516 240.305 89.6172C240.242 89.8828 240.211 90.1693 240.211 90.4766ZM245.141 90.3516L244.367 90.4141C244.367 89.8411 244.435 89.3099 244.57 88.8203C244.706 88.3307 244.909 87.9062 245.18 87.5469C245.451 87.1823 245.786 86.8984 246.188 86.6953C246.594 86.4922 247.065 86.3906 247.602 86.3906C247.997 86.3906 248.357 86.4479 248.68 86.5625C249.008 86.6771 249.289 86.862 249.523 87.1172C249.763 87.3724 249.948 87.7083 250.078 88.125C250.208 88.5365 250.273 89.0417 250.273 89.6406V95H247.82V89.6406C247.82 89.2708 247.773 88.9896 247.68 88.7969C247.591 88.6042 247.461 88.4714 247.289 88.3984C247.122 88.3255 246.922 88.2891 246.688 88.2891C246.427 88.2891 246.201 88.3438 246.008 88.4531C245.815 88.5573 245.654 88.7031 245.523 88.8906C245.393 89.0729 245.297 89.2891 245.234 89.5391C245.172 89.7891 245.141 90.0599 245.141 90.3516ZM251.914 83H254.352V92.9922L254.102 95H251.914V83ZM259.625 90.6797V90.8438C259.625 91.4844 259.557 92.0677 259.422 92.5938C259.292 93.1198 259.091 93.5755 258.82 93.9609C258.549 94.3411 258.208 94.6354 257.797 94.8438C257.385 95.0521 256.901 95.1562 256.344 95.1562C255.828 95.1562 255.385 95.0495 255.016 94.8359C254.646 94.6172 254.336 94.3151 254.086 93.9297C253.836 93.5443 253.633 93.0938 253.477 92.5781C253.326 92.0625 253.208 91.5078 253.125 90.9141V90.6328C253.208 90.0391 253.326 89.4844 253.477 88.9688C253.633 88.4531 253.836 88.0026 254.086 87.6172C254.336 87.2318 254.643 86.9323 255.008 86.7188C255.378 86.5 255.818 86.3906 256.328 86.3906C256.891 86.3906 257.378 86.4974 257.789 86.7109C258.206 86.9245 258.549 87.224 258.82 87.6094C259.091 87.9896 259.292 88.4427 259.422 88.9688C259.557 89.4896 259.625 90.0599 259.625 90.6797ZM257.188 90.8438V90.6797C257.188 90.3568 257.164 90.0521 257.117 89.7656C257.076 89.4792 257 89.2266 256.891 89.0078C256.786 88.7839 256.638 88.6094 256.445 88.4844C256.258 88.3542 256.016 88.2891 255.719 88.2891C255.427 88.2891 255.18 88.3385 254.977 88.4375C254.773 88.5365 254.609 88.6771 254.484 88.8594C254.359 89.0365 254.268 89.2526 254.211 89.5078C254.154 89.763 254.122 90.0469 254.117 90.3594V91.1875C254.122 91.6042 254.177 91.9688 254.281 92.2812C254.385 92.5938 254.555 92.8359 254.789 93.0078C255.023 93.1745 255.339 93.2578 255.734 93.2578C256.036 93.2578 256.281 93.2005 256.469 93.0859C256.661 92.9661 256.807 92.7995 256.906 92.5859C257.01 92.3724 257.083 92.1172 257.125 91.8203C257.167 91.5234 257.188 91.1979 257.188 90.8438ZM264.906 95.1562C264.234 95.1562 263.633 95.0495 263.102 94.8359C262.57 94.6224 262.12 94.3281 261.75 93.9531C261.385 93.5729 261.107 93.1354 260.914 92.6406C260.721 92.1458 260.625 91.6172 260.625 91.0547V90.7578C260.625 90.1276 260.714 89.5469 260.891 89.0156C261.068 88.4844 261.326 88.0234 261.664 87.6328C262.008 87.237 262.43 86.9323 262.93 86.7188C263.43 86.5 264 86.3906 264.641 86.3906C265.24 86.3906 265.773 86.4896 266.242 86.6875C266.711 86.8802 267.107 87.1589 267.43 87.5234C267.753 87.8828 267.997 88.3177 268.164 88.8281C268.336 89.3333 268.422 89.901 268.422 90.5312V91.5312H261.609V89.9609H266.031V89.7734C266.031 89.4766 265.977 89.2161 265.867 88.9922C265.763 88.7682 265.607 88.5964 265.398 88.4766C265.195 88.3516 264.938 88.2891 264.625 88.2891C264.328 88.2891 264.081 88.3516 263.883 88.4766C263.685 88.6016 263.526 88.7786 263.406 89.0078C263.292 89.2318 263.208 89.4948 263.156 89.7969C263.104 90.0938 263.078 90.4141 263.078 90.7578V91.0547C263.078 91.3828 263.122 91.6823 263.211 91.9531C263.299 92.224 263.43 92.4557 263.602 92.6484C263.773 92.8411 263.982 92.9922 264.227 93.1016C264.471 93.2109 264.75 93.2656 265.062 93.2656C265.448 93.2656 265.815 93.1927 266.164 93.0469C266.513 92.8958 266.815 92.6615 267.07 92.3438L268.211 93.6484C268.039 93.8984 267.797 94.1406 267.484 94.375C267.177 94.6042 266.807 94.7917 266.375 94.9375C265.943 95.0833 265.453 95.1562 264.906 95.1562ZM272.055 88.5156V95H269.617V86.5469H271.906L272.055 88.5156ZM274.578 86.4844L274.539 88.7578C274.435 88.7422 274.299 88.7292 274.133 88.7188C273.966 88.7031 273.823 88.6953 273.703 88.6953C273.391 88.6953 273.12 88.7344 272.891 88.8125C272.667 88.8854 272.479 88.9948 272.328 89.1406C272.182 89.2865 272.073 89.4688 272 89.6875C271.927 89.901 271.891 90.1484 271.891 90.4297L271.43 90.2031C271.43 89.6458 271.484 89.1354 271.594 88.6719C271.703 88.2083 271.862 87.8073 272.07 87.4688C272.279 87.125 272.534 86.8594 272.836 86.6719C273.138 86.4844 273.482 86.3906 273.867 86.3906C273.992 86.3906 274.12 86.3984 274.25 86.4141C274.38 86.4297 274.49 86.4531 274.578 86.4844Z" fill="white"/>
<path d="M254.012 69.64C252.732 69.64 251.565 69.5667 250.512 69.42C249.472 69.2867 248.578 69.0733 247.832 68.78C247.085 68.5 246.505 68.1467 246.092 67.72C245.692 67.3067 245.492 66.8133 245.492 66.24C245.492 65.64 245.718 65.0867 246.172 64.58C246.625 64.0867 247.312 63.66 248.232 63.3C249.152 62.9267 250.318 62.64 251.732 62.44C253.145 62.24 254.818 62.14 256.752 62.14C257.098 62.14 257.345 62.2333 257.492 62.42C257.652 62.6067 257.732 62.8333 257.732 63.1C257.732 63.3667 257.625 63.6067 257.412 63.82C257.198 64.02 256.912 64.12 256.552 64.12C255.205 64.12 253.972 64.1667 252.852 64.26C251.745 64.3667 250.792 64.5 249.992 64.66C249.192 64.82 248.572 65.02 248.132 65.26C247.692 65.5 247.472 65.76 247.472 66.04C247.472 66.2533 247.592 66.4667 247.832 66.68C248.072 66.8933 248.445 67.08 248.952 67.24C249.472 67.4133 250.152 67.5533 250.992 67.66C251.832 67.7667 252.845 67.82 254.032 67.82C254.592 67.82 255.058 67.8133 255.432 67.8C255.805 67.7867 256.145 67.7667 256.452 67.74C256.772 67.7133 257.112 67.6867 257.472 67.66L257.232 69.42C257.018 69.46 256.792 69.4933 256.552 69.52C256.312 69.56 256.058 69.5867 255.792 69.6C255.525 69.6133 255.245 69.62 254.952 69.62C254.658 69.6333 254.345 69.64 254.012 69.64ZM256.946 64.1L257.146 62.12C257.693 62.12 258.12 62.0733 258.426 61.98C258.746 61.8733 258.993 61.68 259.166 61.4C259.34 61.1067 259.486 60.6867 259.606 60.14C259.726 59.5933 259.866 58.8667 260.026 57.96L261.906 58.3C261.853 58.54 261.793 58.8 261.726 59.08C261.673 59.36 261.626 59.6467 261.586 59.94C261.546 60.22 261.526 60.4667 261.526 60.68C261.526 60.9733 261.586 61.2267 261.706 61.44C261.84 61.6533 262.1 61.82 262.486 61.94C262.873 62.06 263.46 62.12 264.246 62.12C264.593 62.12 264.84 62.2133 264.986 62.4C265.146 62.5867 265.226 62.8067 265.226 63.06C265.226 63.34 265.12 63.5867 264.906 63.8C264.693 64 264.406 64.1 264.046 64.1C263.166 64.1 262.466 64.02 261.946 63.86C261.426 63.7 261.046 63.4533 260.806 63.12C260.566 62.7733 260.406 62.3333 260.326 61.8L261.026 61.82C260.813 62.3133 260.566 62.7133 260.286 63.02C260.02 63.3133 259.726 63.54 259.406 63.7C259.086 63.86 258.72 63.9667 258.306 64.02C257.906 64.0733 257.453 64.1 256.946 64.1ZM260.346 55.9C260.026 55.9 259.753 55.7933 259.526 55.58C259.313 55.3667 259.206 55.1 259.206 54.78C259.206 54.4733 259.313 54.2067 259.526 53.98C259.753 53.7533 260.026 53.64 260.346 53.64C260.653 53.64 260.913 53.7533 261.126 53.98C261.353 54.2067 261.466 54.4733 261.466 54.78C261.466 55.1 261.353 55.3667 261.126 55.58C260.913 55.7933 260.653 55.9 260.346 55.9ZM264.456 64.1L264.656 62.12C265.296 62.12 265.796 62.08 266.156 62C266.529 61.92 266.796 61.76 266.956 61.52C267.129 61.28 267.216 60.9267 267.216 60.46C267.216 60.1133 267.163 59.7 267.056 59.22C266.963 58.74 266.829 58.24 266.656 57.72C266.483 57.1867 266.303 56.6667 266.116 56.16L268.076 55.52C268.249 55.96 268.409 56.46 268.556 57.02C268.716 57.58 268.849 58.14 268.956 58.7C269.063 59.26 269.116 59.7733 269.116 60.24C269.116 60.8267 269.049 61.34 268.916 61.78C268.783 62.2067 268.583 62.5733 268.316 62.88C268.063 63.1733 267.743 63.4133 267.356 63.6C266.983 63.7733 266.549 63.9 266.056 63.98C265.576 64.06 265.043 64.1 264.456 64.1ZM266.696 68.08C266.376 68.08 266.109 67.9733 265.896 67.76C265.683 67.5467 265.576 67.2867 265.576 66.98C265.576 66.6867 265.683 66.4267 265.896 66.2C266.109 65.9733 266.376 65.86 266.696 65.86C266.989 65.86 267.243 65.9733 267.456 66.2C267.683 66.4267 267.796 66.6867 267.796 66.98C267.796 67.2867 267.683 67.5467 267.456 67.76C267.243 67.9733 266.989 68.08 266.696 68.08ZM281.441 68.64L280.721 66.84C281.614 66.5333 282.374 66.1867 283.001 65.8C283.641 65.4133 284.154 65 284.541 64.56C284.941 64.12 285.234 63.66 285.421 63.18C285.608 62.7 285.701 62.22 285.701 61.74C285.701 61.1133 285.561 60.4667 285.281 59.8C285.001 59.1333 284.688 58.4867 284.341 57.86L286.141 56.96C286.394 57.4133 286.614 57.8733 286.801 58.34C286.988 58.7933 287.154 59.22 287.301 59.62C287.448 60.0067 287.561 60.3333 287.641 60.6C287.828 61.2 288.074 61.6067 288.381 61.82C288.688 62.02 289.134 62.12 289.721 62.12C290.068 62.12 290.314 62.2133 290.461 62.4C290.621 62.5867 290.701 62.8067 290.701 63.06C290.701 63.34 290.594 63.5867 290.381 63.8C290.168 64 289.881 64.1 289.521 64.1C288.948 64.1 288.468 64.0067 288.081 63.82C287.694 63.62 287.401 63.36 287.201 63.04C287.001 62.7067 286.868 62.3467 286.801 61.96L287.461 62.34C287.448 63.1667 287.241 63.9267 286.841 64.62C286.454 65.3267 285.954 65.9467 285.341 66.48C284.741 67.0133 284.094 67.46 283.401 67.82C282.708 68.1933 282.054 68.4667 281.441 68.64ZM289.923 64.1L290.123 62.12C290.67 62.12 291.096 62.0733 291.403 61.98C291.723 61.8733 291.97 61.68 292.143 61.4C292.316 61.1067 292.463 60.6867 292.583 60.14C292.703 59.5933 292.843 58.8667 293.003 57.96L294.883 58.3C294.83 58.54 294.77 58.8 294.703 59.08C294.65 59.36 294.603 59.6467 294.563 59.94C294.523 60.22 294.503 60.4667 294.503 60.68C294.503 60.9733 294.563 61.2267 294.683 61.44C294.816 61.6533 295.076 61.82 295.463 61.94C295.85 62.06 296.436 62.12 297.223 62.12C297.57 62.12 297.816 62.2133 297.963 62.4C298.123 62.5867 298.203 62.8067 298.203 63.06C298.203 63.34 298.096 63.5867 297.883 63.8C297.67 64 297.383 64.1 297.023 64.1C296.143 64.1 295.443 64.02 294.923 63.86C294.403 63.7 294.023 63.4533 293.783 63.12C293.543 62.7733 293.383 62.3333 293.303 61.8L294.003 61.82C293.79 62.3133 293.543 62.7133 293.263 63.02C292.996 63.3133 292.703 63.54 292.383 63.7C292.063 63.86 291.696 63.9667 291.283 64.02C290.883 64.0733 290.43 64.1 289.923 64.1ZM293.363 68.08C293.043 68.08 292.776 67.9733 292.563 67.76C292.35 67.5467 292.243 67.2867 292.243 66.98C292.243 66.6867 292.35 66.4267 292.563 66.2C292.776 65.9733 293.043 65.86 293.363 65.86C293.656 65.86 293.91 65.9733 294.123 66.2C294.35 66.4267 294.463 66.6867 294.463 66.98C294.463 67.2867 294.35 67.5467 294.123 67.76C293.91 67.9733 293.656 68.08 293.363 68.08ZM297.432 64.1L297.632 62.12C297.992 62.12 298.272 62.0467 298.472 61.9C298.686 61.74 298.892 61.48 299.092 61.12C299.292 60.76 299.546 60.2733 299.852 59.66C300.186 59.02 300.519 58.4933 300.852 58.08C301.186 57.6667 301.512 57.34 301.832 57.1C302.166 56.86 302.486 56.6933 302.792 56.6C303.099 56.4933 303.392 56.44 303.672 56.44C304.126 56.44 304.539 56.54 304.912 56.74C305.286 56.9267 305.639 57.26 305.972 57.74C306.306 58.2067 306.639 58.8533 306.972 59.68C307.266 60.3733 307.532 60.9 307.772 61.26C308.026 61.6067 308.286 61.84 308.552 61.96C308.832 62.0667 309.139 62.12 309.472 62.12C309.819 62.12 310.066 62.2133 310.212 62.4C310.359 62.5867 310.432 62.8067 310.432 63.06C310.432 63.34 310.326 63.5867 310.112 63.8C309.899 64 309.619 64.1 309.272 64.1C308.712 64.1 308.199 64.0067 307.732 63.82C307.266 63.6333 306.886 63.3467 306.592 62.96L306.952 62.54C306.819 62.9133 306.632 63.24 306.392 63.52C306.152 63.7867 305.866 63.9933 305.532 64.14C305.212 64.3 304.852 64.38 304.452 64.38C304.052 64.38 303.619 64.2933 303.152 64.12C302.699 63.9467 302.252 63.6933 301.812 63.36C301.372 63.0267 300.979 62.62 300.632 62.14C300.312 62.7133 299.999 63.14 299.692 63.42C299.386 63.7 299.052 63.8867 298.692 63.98C298.332 64.06 297.912 64.1 297.432 64.1ZM301.512 60.38C301.712 60.7 301.932 60.9867 302.172 61.24C302.412 61.4933 302.659 61.7067 302.912 61.88C303.166 62.0533 303.419 62.1867 303.672 62.28C303.939 62.3733 304.186 62.42 304.412 62.42C304.826 62.42 305.132 62.2733 305.332 61.98C305.546 61.6733 305.539 61.2467 305.312 60.7C305.219 60.4333 305.106 60.1667 304.972 59.9C304.852 59.6333 304.719 59.3867 304.572 59.16C304.426 58.92 304.259 58.7333 304.072 58.6C303.899 58.4533 303.712 58.38 303.512 58.38C303.312 58.38 303.106 58.4467 302.892 58.58C302.692 58.7 302.472 58.9067 302.232 59.2C302.006 59.48 301.766 59.8733 301.512 60.38ZM309.668 64.1L309.868 62.12C310.228 62.12 310.528 62.04 310.768 61.88C311.008 61.72 311.248 61.4533 311.488 61.08C311.728 60.7067 311.995 60.2067 312.288 59.58C312.675 58.7533 313.068 58.12 313.468 57.68C313.868 57.2267 314.268 56.92 314.668 56.76C315.068 56.5867 315.468 56.5 315.868 56.5C316.362 56.5 316.815 56.62 317.228 56.86C317.655 57.0867 318.028 57.4067 318.348 57.82C318.668 58.22 318.915 58.6667 319.088 59.16C319.275 59.64 319.368 60.1267 319.368 60.62C319.368 61.3933 319.222 62.0333 318.928 62.54C318.648 63.0333 318.275 63.4 317.808 63.64C317.355 63.88 316.862 64 316.328 64C315.862 64 315.288 63.9133 314.608 63.74C313.928 63.5667 313.122 63.16 312.188 62.52L313.028 60.9C313.668 61.3133 314.248 61.6067 314.768 61.78C315.302 61.94 315.742 62.02 316.088 62.02C316.435 62.02 316.715 61.9733 316.928 61.88C317.142 61.7867 317.295 61.6467 317.388 61.46C317.495 61.2733 317.548 61.0533 317.548 60.8C317.548 60.4533 317.462 60.1 317.288 59.74C317.115 59.38 316.895 59.08 316.628 58.84C316.362 58.6 316.075 58.48 315.768 58.48C315.515 58.48 315.275 58.56 315.048 58.72C314.835 58.8667 314.615 59.1267 314.388 59.5C314.175 59.86 313.922 60.3533 313.628 60.98C313.322 61.6733 313.022 62.2267 312.728 62.64C312.435 63.0533 312.135 63.3667 311.828 63.58C311.535 63.7933 311.208 63.9333 310.848 64C310.502 64.0667 310.108 64.1 309.668 64.1Z" fill="white"/>
<path d="M103.275 57.48V68H100.915V63.42H96.9746V63.9C96.9746 64.92 96.4746 65.36 95.7346 65.36C94.5346 65.36 92.9546 63.68 92.9546 62.52C92.9546 61.96 93.2746 61.48 94.3746 61.48L94.6146 61.5V57.48H92.2746V55.56H105.195V57.48H103.275ZM100.915 57.48H96.9746V61.48H100.915V57.48ZM101.172 55.7C100.192 52.62 99.7718 52.04 98.5518 52.04C98.0318 52.04 97.4718 52.18 97.0118 52.36L96.4118 50.46C97.0518 50.22 97.8518 50.08 98.5918 50.08C101.012 50.08 101.852 51.24 103.232 55.7H101.172ZM102.652 51.62C102.652 50.88 103.212 50.3 103.952 50.3C104.672 50.3 105.232 50.88 105.232 51.62C105.232 52.36 104.672 52.94 103.952 52.94C103.212 52.94 102.652 52.36 102.652 51.62ZM117.592 57.48H115.672V68H113.312V65.38C112.532 65.84 111.572 66.08 110.392 66.08C107.712 66.08 106.072 64.68 106.072 62.46C106.072 60.04 107.852 58.82 110.512 58.82C111.352 58.82 112.032 58.9 112.672 59.06L112.492 60.84C111.992 60.72 111.412 60.66 110.792 60.66C110.632 60.66 110.492 60.66 110.352 60.68L112.632 63.56C112.892 63.4 113.132 63.2 113.312 63V57.48H105.292V55.56H117.592V57.48ZM108.312 62.5C108.312 63.68 109.172 64.26 110.452 64.26C110.752 64.26 111.032 64.22 111.292 64.16L108.912 61.16C108.532 61.46 108.312 61.9 108.312 62.5ZM125.464 66.84L123.824 68.36C121.704 66.5 120.144 64.94 119.144 63.52C118.504 62.64 118.224 61.98 118.224 61.34C118.224 60.58 118.744 60.08 119.564 60.08C120.204 60.08 120.764 60.4 121.324 60.96C122.124 60.48 122.484 59.8 122.484 58.92C122.484 58.4 122.384 57.88 122.224 57.48H117.504V55.56H126.384V57.48H124.564C124.724 57.98 124.824 58.54 124.824 59.24C124.824 61.28 123.544 62.48 121.524 63.3C122.644 64.46 124.004 65.66 125.464 66.84ZM143.758 57.48H141.838V68H139.478V65.38C138.698 65.84 137.738 66.08 136.558 66.08C133.878 66.08 132.238 64.68 132.238 62.46C132.238 60.04 134.018 58.82 136.678 58.82C137.518 58.82 138.198 58.9 138.838 59.06L138.658 60.84C138.158 60.72 137.578 60.66 136.958 60.66C136.798 60.66 136.658 60.66 136.518 60.68L138.798 63.56C139.058 63.4 139.298 63.2 139.478 63V57.48H131.458V55.56H143.758V57.48ZM134.478 62.5C134.478 63.68 135.338 64.26 136.618 64.26C136.918 64.26 137.198 64.22 137.458 64.16L135.078 61.16C134.698 61.46 134.478 61.9 134.478 62.5ZM143.67 55.56H155.81V57.48H153.89V68H151.53V62.5H148.33V63.18C148.33 64.2 147.87 64.68 147.07 64.68C145.87 64.68 144.33 63 144.33 61.76C144.33 61.06 144.67 60.56 145.77 60.56H151.53V57.48H143.67V55.56ZM151.786 55.7C150.806 52.62 150.386 52.04 149.166 52.04C148.646 52.04 148.086 52.18 147.626 52.36L147.026 50.46C147.666 50.22 148.466 50.08 149.206 50.08C151.626 50.08 152.466 51.24 153.846 55.7H151.786ZM153.266 51.62C153.266 50.88 153.826 50.3 154.566 50.3C155.286 50.3 155.846 50.88 155.846 51.62C155.846 52.36 155.286 52.94 154.566 52.94C153.826 52.94 153.266 52.36 153.266 51.62Z" fill="white"/>
<path d="M207.803 54.6297L213.836 56.9907C217.316 58.3525 219.056 59.0333 218.999 60.1134C218.941 61.1934 217.125 61.6886 213.493 62.6791C212.412 62.9741 211.871 63.1215 211.496 63.4963C211.122 63.8712 210.974 64.4119 210.679 65.4934C209.689 69.125 209.193 70.941 208.113 70.9986C207.033 71.0563 206.352 69.3163 204.991 65.8363L202.63 59.8028C201.204 56.1594 200.491 54.3376 201.414 53.4144C202.338 52.4912 204.159 53.204 207.803 54.6297Z" stroke="white" stroke-width="2" stroke-linejoin="round"/>
<path d="M203.4 49.4V47M198.6 50.6L196.8 48.8M197.4 55.4H195M198.6 60.2L196.8 62M210 48.8L208.2 50.6" stroke="white" stroke-width="2" stroke-linecap="round" stroke-linejoin="round"/>
<defs>
<filter id="filter0_d_11653_22100" x="34" y="0" width="344" height="144" filterUnits="userSpaceOnUse" color-interpolation-filters="sRGB">
<feFlood flood-opacity="0" result="BackgroundImageFix"/>
<feColorMatrix in="SourceAlpha" type="matrix" values="0 0 0 0 0 0 0 0 0 0 0 0 0 0 0 0 0 0 127 0" result="hardAlpha"/>
<feMorphology radius="2" operator="dilate" in="SourceAlpha" result="effect1_dropShadow_11653_22100"/>
<feOffset/>
<feGaussianBlur stdDeviation="15"/>
<feComposite in2="hardAlpha" operator="out"/>
<feColorMatrix type="matrix" values="0 0 0 0 1 0 0 0 0 1 0 0 0 0 1 0 0 0 0.5 0"/>
<feBlend mode="normal" in2="BackgroundImageFix" result="effect1_dropShadow_11653_22100"/>
<feBlend mode="normal" in="SourceGraphic" in2="effect1_dropShadow_11653_22100" result="shape"/>
</filter>
<clipPath id="bgblur_0_11653_22100_clip_path" transform="translate(-34 0)"><rect x="66" y="32" width="280" height="80" rx="40"/>
</clipPath></defs>
</svg>
