<svg width="24" height="22" viewBox="0 0 24 22" fill="none" xmlns="http://www.w3.org/2000/svg">
<path d="M23 10.4445C23.0042 11.911 22.6273 13.3577 21.9 14.6667C21.0376 16.2353 19.7119 17.5546 18.0713 18.477C16.4307 19.3993 14.5401 19.8882 12.6111 19.8889C10.9979 19.8927 9.40657 19.5501 7.96665 18.8889L1 21L3.32222 14.6667C2.59491 13.3577 2.21801 11.911 2.22222 10.4445C2.22297 8.69086 2.76074 6.97208 3.77532 5.48064C4.78989 3.98919 6.24119 2.78399 7.96665 2.00003C9.40657 1.33884 10.9979 0.996208 12.6111 1.00003H13.2222C15.7697 1.1278 18.1759 2.10532 19.98 3.74543C21.7841 5.38553 22.8594 7.57297 23 9.88891V10.4445Z" stroke="black" stroke-width="2" stroke-linecap="round" stroke-linejoin="round"/>
</svg>
