<svg width="23" height="23" viewBox="0 0 23 23" fill="none" xmlns="http://www.w3.org/2000/svg">
<path d="M4 9.5C4 5.72876 4 3.84315 5.17157 2.67157C6.34315 1.5 8.22876 1.5 12 1.5H13.5C17.2712 1.5 19.1569 1.5 20.3284 2.67157C21.5 3.84315 21.5 5.72876 21.5 9.5V13.5C21.5 17.2712 21.5 19.1569 20.3284 20.3284C19.1569 21.5 17.2712 21.5 13.5 21.5H12C8.22876 21.5 6.34315 21.5 5.17157 20.3284C4 19.1569 4 17.2712 4 13.5V9.5Z" stroke="#9C3353" stroke-width="3"/>
<path d="M4 5.5H1.5M4 11.5H1.5M4 17.5H1.5" stroke="#9C3353" stroke-width="3" stroke-linecap="round" stroke-linejoin="round"/>
<path d="M14.7758 7.99261C14.7758 9.09715 13.8804 9.99255 12.7759 9.99255C11.6714 9.99255 10.7759 9.09715 10.7759 7.99261C10.7759 6.88808 11.6714 5.99268 12.7759 5.99268C13.8804 5.99268 14.7758 6.88808 14.7758 7.99261Z" stroke="#9C3353" stroke-width="2" stroke-linecap="round" stroke-linejoin="round"/>
<path d="M8.8208 15.2161C9.87915 13.5868 11.5598 12.9762 12.7759 12.9774C13.9919 12.9787 15.6234 13.5868 16.6817 15.2161C16.7502 15.3215 16.769 15.4512 16.7073 15.5607C16.4597 15.9996 15.6913 16.8705 15.1362 16.9296C14.4984 16.9974 12.8301 17.0069 12.7772 17.0072C12.7242 17.0069 11.0044 16.9974 10.3663 16.9296C9.81127 16.8705 9.04278 15.9996 8.79526 15.5607C8.73351 15.4512 8.75237 15.3215 8.8208 15.2161Z" stroke="#9C3353" stroke-width="2" stroke-linecap="round" stroke-linejoin="round"/>
</svg>
