<svg width="22" height="22" viewBox="0 0 22 22" fill="none" xmlns="http://www.w3.org/2000/svg">
<path d="M9.08352 14.3613V16.5834C9.08352 18.4098 9.08352 19.3229 8.5791 19.9376C8.48675 20.0501 8.38358 20.1533 8.27106 20.2456C7.65641 20.75 6.74322 20.75 4.91682 20.75C3.09043 20.75 2.17723 20.75 1.56259 20.2456C1.45007 20.1533 1.34689 20.0501 1.25455 19.9376C0.750122 19.3229 0.750122 18.4098 0.750122 16.5834V14.3613C0.750122 12.5349 0.750122 11.6218 1.25455 11.0072C1.34689 10.8946 1.45007 10.7915 1.56259 10.6991C2.17723 10.1947 3.09043 10.1947 4.91682 10.1947C6.74322 10.1947 7.65641 10.1947 8.27106 10.6991C8.38358 10.7915 8.48675 10.8946 8.5791 11.0072C9.08352 11.6218 9.08352 12.5349 9.08352 14.3613Z" stroke="white" stroke-width="1.5" stroke-linejoin="round"/>
<path d="M6.02794 6.86206H3.8057C3.03038 6.86206 2.64272 6.86206 2.32728 6.76637C1.61705 6.55094 1.06126 5.99516 0.845811 5.28496C0.750122 4.96952 0.750122 4.58188 0.750122 3.80658C0.750122 3.03129 0.750122 2.64364 0.845811 2.32821C1.06126 1.618 1.61705 1.06223 2.32728 0.846792C2.64272 0.751107 3.03038 0.751107 3.8057 0.751107H6.02794C6.80326 0.751107 7.19092 0.751107 7.50637 0.846792C8.2166 1.06223 8.77239 1.618 8.98783 2.32821C9.08352 2.64364 9.08352 3.03129 9.08352 3.80658C9.08352 4.58188 9.08352 4.96952 8.98783 5.28496C8.77239 5.99516 8.2166 6.55094 7.50637 6.76637C7.19092 6.86206 6.80326 6.86206 6.02794 6.86206Z" stroke="white" stroke-width="1.5" stroke-linejoin="round"/>
<path d="M20.7505 4.91657V7.13874C20.7505 8.96507 20.7505 9.87824 20.2461 10.4929C20.1537 10.6054 20.0506 10.7085 19.938 10.8009C19.3234 11.3053 18.4102 11.3053 16.5838 11.3053C14.7574 11.3053 13.8442 11.3053 13.2296 10.8009C13.1171 10.7085 13.0139 10.6054 12.9215 10.4929C12.4171 9.87824 12.4171 8.96507 12.4171 7.13874V4.91657C12.4171 3.09024 12.4171 2.17708 12.9215 1.56245C13.0139 1.44994 13.1171 1.34676 13.2296 1.25442C13.8442 0.750015 14.7574 0.750015 16.5838 0.750015C18.4102 0.750015 19.3234 0.750015 19.938 1.25442C20.0506 1.34676 20.1537 1.44994 20.2461 1.56245C20.7505 2.17708 20.7505 3.09024 20.7505 4.91657Z" stroke="white" stroke-width="1.5" stroke-linejoin="round"/>
<path d="M17.6949 20.75H15.4727C14.6974 20.75 14.3097 20.75 13.9943 20.6543C13.284 20.4389 12.7282 19.8831 12.5128 19.1729C12.4171 18.8575 12.4171 18.4698 12.4171 17.6945C12.4171 16.9192 12.4171 16.5316 12.5128 16.2162C12.7282 15.5059 13.284 14.9502 13.9943 14.7347C14.3097 14.639 14.6974 14.639 15.4727 14.639H17.6949C18.4703 14.639 18.8579 14.639 19.1734 14.7347C19.8836 14.9502 20.4394 15.5059 20.6548 16.2162C20.7505 16.5316 20.7505 16.9192 20.7505 17.6945C20.7505 18.4698 20.7505 18.8575 20.6548 19.1729C20.4394 19.8831 19.8836 20.4389 19.1734 20.6543C18.8579 20.75 18.4703 20.75 17.6949 20.75Z" stroke="white" stroke-width="1.5" stroke-linejoin="round"/>
</svg>
