<svg width="36" height="36" viewBox="0 0 36 36" fill="none" xmlns="http://www.w3.org/2000/svg">
<g filter="url(#filter0_d_11239_90696)">
<path d="M16.0001 22.3336V25.0002C16.0001 27.1919 16.0001 28.2877 15.3948 29.0253C15.284 29.1603 15.1602 29.2841 15.0252 29.3949C14.2876 30.0002 13.1918 30.0002 11.0001 30.0002C8.80847 30.0002 7.71264 30.0002 6.97507 29.3949C6.84005 29.2841 6.71624 29.1603 6.60543 29.0253C6.00012 28.2877 6.00012 27.1919 6.00012 25.0002V22.3336C6.00012 20.1419 6.00012 19.0461 6.60543 18.3085C6.71624 18.1735 6.84005 18.0497 6.97507 17.9389C7.71264 17.3336 8.80847 17.3336 11.0001 17.3336C13.1918 17.3336 14.2876 17.3336 15.0252 17.9389C15.1602 18.0497 15.284 18.1735 15.3948 18.3085C16.0001 19.0461 16.0001 20.1419 16.0001 22.3336Z" stroke="white" stroke-width="2" stroke-linejoin="round"/>
<path d="M12.3335 13.3335H9.66679C8.73641 13.3335 8.27123 13.3335 7.8927 13.2187C7.04043 12.9601 6.37348 12.2932 6.11495 11.4409C6.00012 11.0624 6.00012 10.5972 6.00012 9.66683C6.00012 8.73645 6.00012 8.27127 6.11495 7.89274C6.37348 7.04047 7.04043 6.37352 7.8927 6.11499C8.27123 6.00016 8.73641 6.00016 9.66679 6.00016H12.3335C13.2638 6.00016 13.729 6.00016 14.1075 6.11499C14.9598 6.37352 15.6268 7.04047 15.8853 7.89274C16.0001 8.27127 16.0001 8.73645 16.0001 9.66683C16.0001 10.5972 16.0001 11.0624 15.8853 11.4409C15.6268 12.2932 14.9598 12.9601 14.1075 13.2187C13.729 13.3335 13.2638 13.3335 12.3335 13.3335Z" stroke="white" stroke-width="2" stroke-linejoin="round"/>
<path d="M29.9999 11.0003V13.667C29.9999 15.8586 29.9999 16.9545 29.3946 17.692C29.2838 17.8271 29.16 17.9509 29.025 18.0617C28.2874 18.667 27.1916 18.667 24.9999 18.667C22.8083 18.667 21.7125 18.667 20.9749 18.0617C20.8399 17.9509 20.7161 17.8271 20.6052 17.692C19.9999 16.9545 19.9999 15.8586 19.9999 13.667V11.0003C19.9999 8.80867 19.9999 7.71284 20.6052 6.97528C20.7161 6.84025 20.8399 6.71644 20.9749 6.60563C21.7125 6.00033 22.8083 6.00033 24.9999 6.00033C27.1916 6.00033 28.2874 6.00033 29.025 6.60563C29.16 6.71644 29.2838 6.84025 29.3946 6.97528C29.9999 7.71284 29.9999 8.80867 29.9999 11.0003Z" stroke="white" stroke-width="2" stroke-linejoin="round"/>
<path d="M26.3333 30.0002H23.6666C22.7362 30.0002 22.271 30.0002 21.8925 29.8854C21.0402 29.6269 20.3733 28.9599 20.1148 28.1077C19.9999 27.7291 19.9999 27.264 19.9999 26.3336C19.9999 25.4032 19.9999 24.938 20.1148 24.5595C20.3733 23.7072 21.0402 23.0403 21.8925 22.7817C22.271 22.6669 22.7362 22.6669 23.6666 22.6669H26.3333C27.2636 22.6669 27.7288 22.6669 28.1074 22.7817C28.9596 23.0403 29.6266 23.7072 29.8851 24.5595C29.9999 24.938 29.9999 25.4032 29.9999 26.3336C29.9999 27.264 29.9999 27.7291 29.8851 28.1077C29.6266 28.9599 28.9596 29.6269 28.1074 29.8854C27.7288 30.0002 27.2636 30.0002 26.3333 30.0002Z" stroke="white" stroke-width="2" stroke-linejoin="round"/>
</g>
<defs>
<filter id="filter0_d_11239_90696" x="0" y="0" width="36.0001" height="36.0005" filterUnits="userSpaceOnUse" color-interpolation-filters="sRGB">
<feFlood flood-opacity="0" result="BackgroundImageFix"/>
<feColorMatrix in="SourceAlpha" type="matrix" values="0 0 0 0 0 0 0 0 0 0 0 0 0 0 0 0 0 0 127 0" result="hardAlpha"/>
<feOffset/>
<feGaussianBlur stdDeviation="2.5"/>
<feComposite in2="hardAlpha" operator="out"/>
<feColorMatrix type="matrix" values="0 0 0 0 0 0 0 0 0 0 0 0 0 0 0 0 0 0 0.5 0"/>
<feBlend mode="normal" in2="BackgroundImageFix" result="effect1_dropShadow_11239_90696"/>
<feBlend mode="normal" in="SourceGraphic" in2="effect1_dropShadow_11239_90696" result="shape"/>
</filter>
</defs>
</svg>
