<svg width="16" height="15" viewBox="0 0 16 15" fill="none" xmlns="http://www.w3.org/2000/svg">
<path d="M13.4111 4.73333C12.7537 4.73333 12.1949 4.50324 11.7347 4.04306C11.2745 3.58287 11.0444 3.02407 11.0444 2.36667C11.0444 1.70926 11.2745 1.15046 11.7347 0.690278C12.1949 0.230093 12.7537 0 13.4111 0C14.0685 0 14.6273 0.230093 15.0875 0.690278C15.5477 1.15046 15.7778 1.70926 15.7778 2.36667C15.7778 3.02407 15.5477 3.58287 15.0875 4.04306C14.6273 4.50324 14.0685 4.73333 13.4111 4.73333ZM1.57778 14.2C1.14389 14.2 0.772454 14.0455 0.463472 13.7365C0.154491 13.4275 0 13.0561 0 12.6222V3.15556C0 2.72167 0.154491 2.35023 0.463472 2.04125C0.772454 1.73227 1.14389 1.57778 1.57778 1.57778H9.54556C9.49296 1.84074 9.46667 2.1037 9.46667 2.36667C9.46667 2.62963 9.49296 2.89259 9.54556 3.15556C9.63759 3.5763 9.7888 3.96745 9.99917 4.32903C10.2095 4.6906 10.4659 5.00944 10.7683 5.28556L7.88889 7.1L1.57778 3.15556V4.73333L7.88889 8.67778L12.0503 6.07444C12.2738 6.15333 12.4973 6.2125 12.7208 6.25195C12.9444 6.29139 13.1744 6.31111 13.4111 6.31111C13.8319 6.31111 14.246 6.24537 14.6536 6.11389C15.0612 5.98241 15.4359 5.78519 15.7778 5.52222V12.6222C15.7778 13.0561 15.6233 13.4275 15.3143 13.7365C15.0053 14.0455 14.6339 14.2 14.2 14.2H1.57778Z" fill="#0D5337"/>
</svg>
