<svg width="34" height="31" viewBox="0 0 34 31" fill="none" xmlns="http://www.w3.org/2000/svg">
<path fill-rule="evenodd" clip-rule="evenodd" d="M33.32 15.8522C33.32 14.7531 33.2118 13.6963 33.0109 12.6818H17V18.6774H26.1491C25.755 20.6149 24.5573 22.2565 22.7568 23.3556V27.2447H28.2509C31.4655 24.5463 33.32 20.5727 33.32 15.8522Z" fill="#4285F4"/>
<path fill-rule="evenodd" clip-rule="evenodd" d="M17 30.9999C21.59 30.9999 25.4382 29.612 28.2509 27.2447L22.7568 23.3556C21.2345 24.2856 19.2873 24.8352 17 24.8352C12.5723 24.8352 8.82455 22.1086 7.48773 18.4449H1.80818V22.4609C4.60545 27.5265 10.3545 30.9999 17 30.9999Z" fill="#34A853"/>
<path fill-rule="evenodd" clip-rule="evenodd" d="M7.48773 18.445C7.14773 17.515 6.95455 16.5216 6.95455 15.5C6.95455 14.4784 7.14773 13.485 7.48773 12.555V8.53906H1.80818C0.656818 10.6316 0 12.9988 0 15.5C0 18.0011 0.656818 20.3684 1.80818 22.4609L7.48773 18.445Z" fill="#FBBC05"/>
<path fill-rule="evenodd" clip-rule="evenodd" d="M17 6.16477C19.4959 6.16477 21.7368 6.94682 23.4986 8.48273L28.3745 4.03705C25.4305 1.53591 21.5823 0 17 0C10.3545 0 4.60545 3.47341 1.80818 8.53909L7.48773 12.555C8.82455 8.89136 12.5723 6.16477 17 6.16477Z" fill="#EA4335"/>
</svg>
