<svg width="27" height="24" viewBox="0 0 27 24" fill="none" xmlns="http://www.w3.org/2000/svg">
<path fill-rule="evenodd" clip-rule="evenodd" d="M14.2292 0.259056C13.8051 -0.0863568 13.1944 -0.0863513 12.7703 0.259069L0.421135 10.3162C0.0452353 10.6223 -0.0964241 11.1301 0.0672245 11.5848C0.230873 12.0394 0.664516 12.3429 1.15061 12.3429H2.93899L3.85336 22.2688C3.94369 23.2494 4.77161 24 5.76295 24H10.0485C10.4722 24 10.8156 23.6589 10.8156 23.2381V17.3831C10.8156 15.0973 12.693 15.0973 13.1166 15.0973H13.8837C14.3073 15.0973 16.1848 15.0973 16.1848 17.3831V23.2381C16.1848 23.6589 16.5282 24 16.9518 24H21.2375C22.2288 24 23.0568 23.2494 23.1471 22.2688L24.0615 12.3429H25.8494C26.3355 12.3429 26.7691 12.0394 26.9328 11.5847C27.0964 11.1301 26.9548 10.6223 26.5788 10.3162L14.2292 0.259056Z" fill="white"/>
</svg>
