<svg width="21" height="18" viewBox="0 0 21 18" fill="none" xmlns="http://www.w3.org/2000/svg">
<path d="M13.6364 16.1136V14.4621C13.6364 13.5861 13.2884 12.746 12.6689 12.1265C12.0495 11.5071 11.2094 11.1591 10.3333 11.1591H4.55303C3.67701 11.1591 2.83687 11.5071 2.21744 12.1265C1.598 12.746 1.25 13.5861 1.25 14.4621V16.1136M16.9394 5.37879V10.3333M19.4167 7.85606H14.4621M10.7462 4.55303C10.7462 6.37724 9.26739 7.85606 7.44318 7.85606C5.61897 7.85606 4.14015 6.37724 4.14015 4.55303C4.14015 2.72882 5.61897 1.25 7.44318 1.25C9.26739 1.25 10.7462 2.72882 10.7462 4.55303Z" stroke="white" stroke-width="2.5" stroke-linecap="round" stroke-linejoin="round"/>
</svg>
