<svg width="50" height="44" viewBox="0 0 50 44" fill="none" xmlns="http://www.w3.org/2000/svg">
<g filter="url(#filter0_d_11603_21550)">
<mask id="path-1-inside-1_11603_21550" fill="white">
<path fill-rule="evenodd" clip-rule="evenodd" d="M33.1743 7.0147C33.0806 7.05121 31.1056 7.27792 29.4961 7.43691C28.901 7.49568 28.3516 7.55072 28.2751 7.55923C27.7464 7.61799 25.7222 7.80102 24.6123 7.89043C23.3068 7.99558 22.9139 8.0267 21.3667 8.14733C20.9417 8.18048 20.2463 8.23471 19.8212 8.26786C19.3962 8.30101 18.8538 8.34295 18.6158 8.36102C18.1196 8.39869 17.8119 8.44104 17.7328 8.48252C17.7025 8.49836 17.6489 8.54732 17.6136 8.59131L17.5494 8.67127V14.4798V20.2883L17.4798 20.3037C17.4071 20.3198 16.9125 20.3982 16.3202 20.4875C15.9885 20.5375 15.9673 20.5451 15.8763 20.6467C15.7635 20.7725 15.7621 20.7503 15.9281 21.4551C16.163 22.4521 16.6193 23.6331 17.1038 24.498C17.3493 24.9362 17.3864 25.1478 17.2322 25.229C17.1838 25.2545 16.9901 25.2633 16.5874 25.2581C15.9137 25.2495 15.631 25.2985 15.2157 25.4958C14.4393 25.8646 13.849 26.5909 14.0343 26.9495C14.1675 27.2074 14.6259 27.2398 14.9849 27.0168C15.0929 26.9497 15.1525 26.8772 15.2588 26.6838C15.4825 26.2767 15.813 26.015 16.2417 25.9056C16.339 25.8808 16.4266 25.8604 16.4361 25.8604C16.4458 25.8604 16.3343 25.9797 16.1885 26.1254C16.0426 26.2711 15.8342 26.5061 15.7252 26.6476C15.6163 26.7892 15.4247 27.026 15.2995 27.1738C15.0054 27.5211 14.9315 27.666 14.9704 27.8189C15.0266 28.0399 15.3119 28.1356 15.5665 28.0189C15.816 27.9046 15.9895 27.678 16.2857 27.0792C16.5713 26.5021 16.6979 26.3008 16.7539 26.3347C16.7719 26.3456 16.777 26.3397 16.7654 26.3214C16.754 26.3033 16.7588 26.28 16.7761 26.2695C16.8195 26.2432 16.8148 26.3258 16.7596 26.5568C16.6535 27.0014 16.4795 27.3583 16.1529 27.8013C15.9702 28.049 15.8185 28.3582 15.8184 28.4825C15.8184 28.6226 15.9374 28.7746 16.0872 28.8257C16.2617 28.8853 16.4288 28.8297 16.6069 28.6528C16.9313 28.3305 17.1311 27.7142 17.3051 26.499C17.3408 26.2498 17.3425 26.2462 17.3866 26.3286C17.4777 26.4988 17.5518 26.7591 17.5682 26.9655C17.59 27.2415 17.5162 27.5187 17.2982 27.9798C17.1481 28.2973 17.1335 28.3472 17.1328 28.5458C17.1321 28.7526 17.1373 28.7688 17.2366 28.8692C17.3694 29.0035 17.5169 29.0316 17.7463 28.9663C18.1113 28.8623 18.3382 28.4525 18.3344 27.9041C18.3324 27.6084 18.289 27.3719 18.1033 26.6421C18.0368 26.381 17.9915 26.1443 18.0025 26.1162C18.0187 26.0748 18.0496 26.0682 18.1646 26.0818C18.3608 26.1049 19.676 26.481 21.1813 26.9443C22.484 27.3453 22.4095 27.3275 22.538 27.2678C22.6005 27.2388 22.6662 27.1884 22.684 27.1558C22.705 27.1173 22.7151 26.6974 22.7128 25.9522L22.7093 24.8078L22.7799 24.791C23.0099 24.7363 27.4166 23.8898 29.1097 23.5752C30.1903 23.3744 30.2329 23.3664 31.3661 23.154C31.8506 23.0632 32.8312 22.8842 33.5453 22.7563C34.2593 22.6284 34.8745 22.5045 34.9125 22.481C34.9505 22.4576 34.9894 22.4079 34.9989 22.3706C35.0084 22.3334 34.9535 21.6285 34.8768 20.8042C34.8001 19.9799 34.7163 19.0534 34.6905 18.7453C34.6647 18.4373 34.6152 17.8582 34.5805 17.4586C34.5459 17.0589 34.4897 16.3913 34.4557 15.975C34.4218 15.5587 34.3738 14.9728 34.3491 14.6731C34.3244 14.3733 34.2763 13.767 34.2422 13.3258C34.2081 12.8845 34.1587 12.2509 34.1325 11.9179C34.1063 11.5848 34.0229 10.4472 33.9471 9.38974C33.7798 7.05678 33.7909 7.15999 33.6985 7.0695C33.6353 7.00761 33.5968 6.99819 33.4153 7.00025C33.2998 7.00155 33.1913 7.00806 33.1743 7.0147ZM32.618 7.66744C32.4187 7.70071 30.7544 7.88855 29.9752 7.96573C29.3671 8.02592 28.2066 8.12895 26.2196 8.29914C25.6246 8.35009 24.9848 8.4068 24.7977 8.42515C24.6107 8.4435 24.3673 8.46711 24.2568 8.47759L24.0559 8.49666L24.3035 8.5349C24.4397 8.55595 24.7874 8.62761 25.0762 8.69419C26.6472 9.05621 28.3621 9.72549 29.629 10.471C29.8211 10.584 30.0135 10.697 30.0564 10.7219C30.1319 10.7659 30.1386 10.7629 30.2602 10.6311C30.5032 10.3676 31.637 9.06472 32.1836 8.42088C32.4876 8.06285 32.7642 7.73928 32.7984 7.7018C32.8674 7.62617 32.8663 7.62596 32.618 7.66744ZM32.2103 9.2918C31.6291 10.0034 31.0484 10.7125 30.9198 10.8676C30.7912 11.0226 30.6869 11.1588 30.6879 11.1703C30.6888 11.1818 30.7805 11.2593 30.8915 11.3426C31.1669 11.5493 31.923 12.2817 32.2042 12.6142C32.8125 13.3336 33.3692 14.2069 33.7387 15.0213L33.8417 15.2483L33.8241 15.0515C33.8145 14.9433 33.7782 14.4664 33.7436 13.9918C33.7089 13.5173 33.6403 12.5976 33.5911 11.9482C33.542 11.2987 33.4562 10.144 33.4005 9.38218C33.3448 8.62032 33.292 7.99721 33.2832 7.99746C33.2743 7.9977 32.7915 8.58017 32.2103 9.2918ZM20.424 8.78641C19.9337 8.81164 18.1646 8.95866 18.1473 8.97565C18.1414 8.98146 18.14 11.5131 18.1443 14.6015L18.1521 20.2168L18.8939 20.1018C19.702 19.9765 21.2052 19.75 21.8922 19.65C22.2555 19.5971 22.3349 19.576 22.3868 19.5186C22.5413 19.3476 23.4631 18.3048 23.9935 17.7008C24.3152 17.3344 24.7465 16.8439 24.952 16.6108C25.1574 16.3777 25.4569 16.0371 25.6174 15.8539C25.7781 15.6707 26.1044 15.3021 26.3427 15.0346C26.581 14.7672 27.2698 13.9918 27.8733 13.3114C28.4768 12.631 29.1538 11.8688 29.3777 11.6176C29.6905 11.2667 29.7764 11.1526 29.7486 11.1248C29.6827 11.059 29.0089 10.6865 28.5224 10.447C25.9466 9.1788 23.3093 8.63803 20.424 8.78641ZM22.4258 10.5413C22.0851 10.5975 21.7267 10.7528 21.4283 10.9736C21.103 11.2143 20.8632 11.5514 20.7135 11.9784C20.6367 12.1976 20.6284 12.2625 20.6267 12.6597C20.6252 13.0385 20.6348 13.1298 20.6973 13.3258C20.9658 14.1675 21.6019 14.7787 22.481 15.0396C22.7086 15.1071 22.8208 15.1221 23.1132 15.1245C23.4259 15.1269 23.5012 15.1168 23.74 15.0401C23.8893 14.9922 24.0946 14.9036 24.1963 14.8433C24.6018 14.6027 24.9423 14.1792 25.0977 13.7219C25.1888 13.4538 25.1964 13.4007 25.1971 13.023C25.1977 12.6909 25.1846 12.566 25.1272 12.3569C24.9944 11.8728 24.6778 11.3873 24.279 11.056C23.7803 10.6417 23.0487 10.4385 22.4258 10.5413ZM29.7709 12.1501C29.4837 12.4859 29.1229 12.9049 28.969 13.0811C28.3389 13.8023 27.7642 14.4639 27.2704 15.0364C26.9831 15.3695 26.5112 15.9144 26.2217 16.2475C25.9322 16.5805 25.4051 17.1868 25.0504 17.5948C24.6958 18.0028 24.3051 18.4524 24.1824 18.594C24.0596 18.7355 23.7097 19.1374 23.4046 19.4871C23.0995 19.8368 22.8187 20.1622 22.7806 20.2103L22.7113 20.2976V22.2767C22.7113 23.3652 22.7217 24.2554 22.7345 24.255C22.7473 24.2546 22.8133 24.2411 22.8813 24.225C23.0255 24.1908 25.7216 23.6811 27.8424 23.287C28.1909 23.2223 28.9559 23.0793 29.5424 22.9694C30.1289 22.8595 31.0122 22.6947 31.5052 22.6032C31.9982 22.5118 32.6172 22.3963 32.8807 22.3466C33.1442 22.2968 33.5963 22.2118 33.8853 22.1576L34.4107 22.0591L34.4084 21.9085C34.4054 21.7196 34.3526 21.0564 34.2568 20.0018C34.2159 19.5522 34.1531 18.8233 34.1173 18.382C34.0322 17.3343 33.9908 17.0723 33.8367 16.6054C33.2245 14.7518 32.142 13.1053 30.6915 11.8218C30.516 11.6665 30.3545 11.5394 30.3326 11.5394C30.3108 11.5394 30.058 11.8142 29.7709 12.1501ZM29.2692 15.476C28.4179 15.5917 27.7042 16.2052 27.4733 17.02C27.2324 17.8699 27.4864 18.7688 28.1494 19.4124C28.4533 19.7072 28.8009 19.9052 29.22 20.0218C29.539 20.1107 30.1336 20.1191 30.4388 20.039C31.4152 19.7831 32.0461 18.9484 32.0461 17.9127C32.0461 16.9277 31.4577 16.0582 30.5143 15.6492C30.1553 15.4936 29.6534 15.4238 29.2692 15.476ZM21.9695 20.1729C21.859 20.1879 21.7429 20.2028 21.7116 20.206C21.6487 20.2126 21.659 20.2224 22.0081 20.4899L22.1859 20.6261V20.3821C22.1859 20.2479 22.1824 20.1398 22.1781 20.1419C22.1739 20.144 22.08 20.158 21.9695 20.1729ZM20.7795 20.3396C20.7455 20.3466 20.686 20.359 20.6474 20.3671C20.5869 20.3798 20.6275 20.4228 20.9411 20.6785C21.1412 20.8417 21.4997 21.1281 21.7377 21.3149L22.1704 21.6546L22.1795 21.4923C22.1845 21.403 22.1749 21.2946 22.1581 21.2513C22.1399 21.2045 21.907 21.0007 21.5811 20.7463C21.0168 20.306 20.9951 20.2949 20.7795 20.3396ZM19.8985 20.4892C19.873 20.4938 19.7722 20.5063 19.6744 20.5168C19.5767 20.5274 19.4967 20.546 19.4967 20.5581C19.4967 20.5703 19.8537 20.8588 20.29 21.1993C20.7264 21.5398 21.3196 22.0058 21.6083 22.2348C21.8971 22.4637 22.1464 22.6511 22.1623 22.6511C22.1786 22.6511 22.1862 22.5615 22.1798 22.4467L22.1683 22.2423L21.783 21.93C21.5711 21.7582 21.2238 21.4797 21.0113 21.311C20.7988 21.1424 20.5067 20.9071 20.3622 20.7882C20.0596 20.5394 19.9634 20.4773 19.8985 20.4892ZM18.6376 20.6658C18.5306 20.6836 18.4402 20.7107 18.4367 20.7261C18.4302 20.7541 18.8682 21.1051 20.3659 22.2722C20.8144 22.6217 21.3621 23.0517 21.5831 23.2278C21.8041 23.4039 22.0324 23.5802 22.0904 23.6198L22.1958 23.6915L22.1754 23.5455C22.1641 23.4653 22.1549 23.3632 22.1549 23.3189C22.1549 23.2359 22.1476 23.2297 20.7982 22.1579C20.6349 22.0282 20.4387 21.8706 20.3622 21.8077C20.0461 21.5475 18.931 20.6805 18.8835 20.6579C18.8552 20.6445 18.7446 20.648 18.6376 20.6658ZM17.5248 20.8408C17.3537 20.8668 17.335 20.8761 17.3702 20.9175C17.3921 20.9435 18.0917 21.4999 18.9248 22.1542C20.5488 23.4295 21.2211 23.9619 21.614 24.2839C21.75 24.3953 21.9274 24.5384 22.0081 24.6019L22.1549 24.7172L22.1549 24.4789L22.1548 24.2406L21.4096 23.6502C20.657 23.054 19.342 22.0224 18.3415 21.2432C18.0421 21.0101 17.7797 20.8175 17.7583 20.8153C17.7369 20.8131 17.6318 20.8246 17.5248 20.8408ZM16.5084 21.0076C16.4545 21.0142 16.3947 21.038 16.3756 21.0606C16.3063 21.1424 16.4276 21.2443 18.6467 22.969C19.5521 23.6727 21.4878 25.2327 21.9412 25.6242C22.0532 25.7208 22.1506 25.7999 22.1576 25.7999C22.1647 25.8 22.1659 25.6846 22.1604 25.5436L22.1505 25.2871L22.0059 25.1708C21.9264 25.1068 21.6179 24.8567 21.3204 24.6151C20.7154 24.1239 19.8156 23.4103 19.1908 22.9264C18.9631 22.75 18.6137 22.4762 18.4143 22.318C18.2149 22.1598 17.9005 21.9131 17.7156 21.7698C17.5307 21.6264 17.2314 21.3914 17.0506 21.2475C16.8698 21.1036 16.6959 20.988 16.6643 20.9907C16.6325 20.9933 16.5624 21.0009 16.5084 21.0076ZM16.6637 22.0354C16.6728 22.0659 16.6959 22.1523 16.715 22.2272C16.7861 22.5054 16.8184 22.5584 17.0067 22.7052C17.3219 22.9511 17.8991 23.4006 18.7085 24.0305C19.1335 24.3613 19.6899 24.8021 19.9449 25.0101C20.4768 25.4439 21.3902 26.1986 21.4131 26.2232C21.5074 26.3242 21.7843 26.5135 21.9001 26.5561C22.2028 26.6672 22.1859 26.6704 22.1859 26.5017C22.1859 26.352 22.1854 26.3514 21.9618 26.1742C21.8386 26.0766 21.6351 25.9118 21.5096 25.8081C21.3841 25.7043 21.2691 25.627 21.2538 25.6362C21.2386 25.6454 21.2299 25.6391 21.2346 25.6221C21.2393 25.6051 21.068 25.4508 20.8541 25.2793C20.6401 25.1077 20.2794 24.8174 20.0525 24.6342C19.4095 24.1153 16.7679 22.0455 16.7041 22.0108C16.6565 21.9849 16.6499 21.9889 16.6637 22.0354ZM17.1559 23.4706C17.2648 23.7231 17.3394 23.8537 17.4269 23.945C17.5055 24.027 18.2738 24.6596 18.6135 24.9219C18.6674 24.9635 18.9652 25.2087 19.2753 25.4668C19.5854 25.7249 19.8837 25.9591 19.9383 25.9872C20.0433 26.0413 20.771 26.2572 20.7889 26.2397C20.8105 26.2186 20.0456 25.6192 20.0182 25.6357C20.0025 25.6452 19.9935 25.6388 19.9982 25.6215C20.0065 25.5909 19.0086 24.7905 18.2766 24.2406C18.0771 24.0907 17.8979 23.9541 17.8784 23.9369C17.8393 23.9023 17.2725 23.4788 17.1736 23.4101C17.1123 23.3676 17.112 23.3688 17.1559 23.4706ZM17.8724 24.8764C17.9059 25.1074 18.0021 25.4389 18.0487 25.4837C18.0716 25.5057 18.2781 25.5642 18.5076 25.6137C18.7371 25.6633 18.9521 25.7143 18.9855 25.7272C19.0188 25.7401 18.8102 25.5483 18.5218 25.3009C18.2335 25.0536 17.9645 24.8228 17.9241 24.7881L17.8506 24.725L17.8724 24.8764Z"/>
</mask>
<path fill-rule="evenodd" clip-rule="evenodd" d="M33.1743 7.0147C33.0806 7.05121 31.1056 7.27792 29.4961 7.43691C28.901 7.49568 28.3516 7.55072 28.2751 7.55923C27.7464 7.61799 25.7222 7.80102 24.6123 7.89043C23.3068 7.99558 22.9139 8.0267 21.3667 8.14733C20.9417 8.18048 20.2463 8.23471 19.8212 8.26786C19.3962 8.30101 18.8538 8.34295 18.6158 8.36102C18.1196 8.39869 17.8119 8.44104 17.7328 8.48252C17.7025 8.49836 17.6489 8.54732 17.6136 8.59131L17.5494 8.67127V14.4798V20.2883L17.4798 20.3037C17.4071 20.3198 16.9125 20.3982 16.3202 20.4875C15.9885 20.5375 15.9673 20.5451 15.8763 20.6467C15.7635 20.7725 15.7621 20.7503 15.9281 21.4551C16.163 22.4521 16.6193 23.6331 17.1038 24.498C17.3493 24.9362 17.3864 25.1478 17.2322 25.229C17.1838 25.2545 16.9901 25.2633 16.5874 25.2581C15.9137 25.2495 15.631 25.2985 15.2157 25.4958C14.4393 25.8646 13.849 26.5909 14.0343 26.9495C14.1675 27.2074 14.6259 27.2398 14.9849 27.0168C15.0929 26.9497 15.1525 26.8772 15.2588 26.6838C15.4825 26.2767 15.813 26.015 16.2417 25.9056C16.339 25.8808 16.4266 25.8604 16.4361 25.8604C16.4458 25.8604 16.3343 25.9797 16.1885 26.1254C16.0426 26.2711 15.8342 26.5061 15.7252 26.6476C15.6163 26.7892 15.4247 27.026 15.2995 27.1738C15.0054 27.5211 14.9315 27.666 14.9704 27.8189C15.0266 28.0399 15.3119 28.1356 15.5665 28.0189C15.816 27.9046 15.9895 27.678 16.2857 27.0792C16.5713 26.5021 16.6979 26.3008 16.7539 26.3347C16.7719 26.3456 16.777 26.3397 16.7654 26.3214C16.754 26.3033 16.7588 26.28 16.7761 26.2695C16.8195 26.2432 16.8148 26.3258 16.7596 26.5568C16.6535 27.0014 16.4795 27.3583 16.1529 27.8013C15.9702 28.049 15.8185 28.3582 15.8184 28.4825C15.8184 28.6226 15.9374 28.7746 16.0872 28.8257C16.2617 28.8853 16.4288 28.8297 16.6069 28.6528C16.9313 28.3305 17.1311 27.7142 17.3051 26.499C17.3408 26.2498 17.3425 26.2462 17.3866 26.3286C17.4777 26.4988 17.5518 26.7591 17.5682 26.9655C17.59 27.2415 17.5162 27.5187 17.2982 27.9798C17.1481 28.2973 17.1335 28.3472 17.1328 28.5458C17.1321 28.7526 17.1373 28.7688 17.2366 28.8692C17.3694 29.0035 17.5169 29.0316 17.7463 28.9663C18.1113 28.8623 18.3382 28.4525 18.3344 27.9041C18.3324 27.6084 18.289 27.3719 18.1033 26.6421C18.0368 26.381 17.9915 26.1443 18.0025 26.1162C18.0187 26.0748 18.0496 26.0682 18.1646 26.0818C18.3608 26.1049 19.676 26.481 21.1813 26.9443C22.484 27.3453 22.4095 27.3275 22.538 27.2678C22.6005 27.2388 22.6662 27.1884 22.684 27.1558C22.705 27.1173 22.7151 26.6974 22.7128 25.9522L22.7093 24.8078L22.7799 24.791C23.0099 24.7363 27.4166 23.8898 29.1097 23.5752C30.1903 23.3744 30.2329 23.3664 31.3661 23.154C31.8506 23.0632 32.8312 22.8842 33.5453 22.7563C34.2593 22.6284 34.8745 22.5045 34.9125 22.481C34.9505 22.4576 34.9894 22.4079 34.9989 22.3706C35.0084 22.3334 34.9535 21.6285 34.8768 20.8042C34.8001 19.9799 34.7163 19.0534 34.6905 18.7453C34.6647 18.4373 34.6152 17.8582 34.5805 17.4586C34.5459 17.0589 34.4897 16.3913 34.4557 15.975C34.4218 15.5587 34.3738 14.9728 34.3491 14.6731C34.3244 14.3733 34.2763 13.767 34.2422 13.3258C34.2081 12.8845 34.1587 12.2509 34.1325 11.9179C34.1063 11.5848 34.0229 10.4472 33.9471 9.38974C33.7798 7.05678 33.7909 7.15999 33.6985 7.0695C33.6353 7.00761 33.5968 6.99819 33.4153 7.00025C33.2998 7.00155 33.1913 7.00806 33.1743 7.0147ZM32.618 7.66744C32.4187 7.70071 30.7544 7.88855 29.9752 7.96573C29.3671 8.02592 28.2066 8.12895 26.2196 8.29914C25.6246 8.35009 24.9848 8.4068 24.7977 8.42515C24.6107 8.4435 24.3673 8.46711 24.2568 8.47759L24.0559 8.49666L24.3035 8.5349C24.4397 8.55595 24.7874 8.62761 25.0762 8.69419C26.6472 9.05621 28.3621 9.72549 29.629 10.471C29.8211 10.584 30.0135 10.697 30.0564 10.7219C30.1319 10.7659 30.1386 10.7629 30.2602 10.6311C30.5032 10.3676 31.637 9.06472 32.1836 8.42088C32.4876 8.06285 32.7642 7.73928 32.7984 7.7018C32.8674 7.62617 32.8663 7.62596 32.618 7.66744ZM32.2103 9.2918C31.6291 10.0034 31.0484 10.7125 30.9198 10.8676C30.7912 11.0226 30.6869 11.1588 30.6879 11.1703C30.6888 11.1818 30.7805 11.2593 30.8915 11.3426C31.1669 11.5493 31.923 12.2817 32.2042 12.6142C32.8125 13.3336 33.3692 14.2069 33.7387 15.0213L33.8417 15.2483L33.8241 15.0515C33.8145 14.9433 33.7782 14.4664 33.7436 13.9918C33.7089 13.5173 33.6403 12.5976 33.5911 11.9482C33.542 11.2987 33.4562 10.144 33.4005 9.38218C33.3448 8.62032 33.292 7.99721 33.2832 7.99746C33.2743 7.9977 32.7915 8.58017 32.2103 9.2918ZM20.424 8.78641C19.9337 8.81164 18.1646 8.95866 18.1473 8.97565C18.1414 8.98146 18.14 11.5131 18.1443 14.6015L18.1521 20.2168L18.8939 20.1018C19.702 19.9765 21.2052 19.75 21.8922 19.65C22.2555 19.5971 22.3349 19.576 22.3868 19.5186C22.5413 19.3476 23.4631 18.3048 23.9935 17.7008C24.3152 17.3344 24.7465 16.8439 24.952 16.6108C25.1574 16.3777 25.4569 16.0371 25.6174 15.8539C25.7781 15.6707 26.1044 15.3021 26.3427 15.0346C26.581 14.7672 27.2698 13.9918 27.8733 13.3114C28.4768 12.631 29.1538 11.8688 29.3777 11.6176C29.6905 11.2667 29.7764 11.1526 29.7486 11.1248C29.6827 11.059 29.0089 10.6865 28.5224 10.447C25.9466 9.1788 23.3093 8.63803 20.424 8.78641ZM22.4258 10.5413C22.0851 10.5975 21.7267 10.7528 21.4283 10.9736C21.103 11.2143 20.8632 11.5514 20.7135 11.9784C20.6367 12.1976 20.6284 12.2625 20.6267 12.6597C20.6252 13.0385 20.6348 13.1298 20.6973 13.3258C20.9658 14.1675 21.6019 14.7787 22.481 15.0396C22.7086 15.1071 22.8208 15.1221 23.1132 15.1245C23.4259 15.1269 23.5012 15.1168 23.74 15.0401C23.8893 14.9922 24.0946 14.9036 24.1963 14.8433C24.6018 14.6027 24.9423 14.1792 25.0977 13.7219C25.1888 13.4538 25.1964 13.4007 25.1971 13.023C25.1977 12.6909 25.1846 12.566 25.1272 12.3569C24.9944 11.8728 24.6778 11.3873 24.279 11.056C23.7803 10.6417 23.0487 10.4385 22.4258 10.5413ZM29.7709 12.1501C29.4837 12.4859 29.1229 12.9049 28.969 13.0811C28.3389 13.8023 27.7642 14.4639 27.2704 15.0364C26.9831 15.3695 26.5112 15.9144 26.2217 16.2475C25.9322 16.5805 25.4051 17.1868 25.0504 17.5948C24.6958 18.0028 24.3051 18.4524 24.1824 18.594C24.0596 18.7355 23.7097 19.1374 23.4046 19.4871C23.0995 19.8368 22.8187 20.1622 22.7806 20.2103L22.7113 20.2976V22.2767C22.7113 23.3652 22.7217 24.2554 22.7345 24.255C22.7473 24.2546 22.8133 24.2411 22.8813 24.225C23.0255 24.1908 25.7216 23.6811 27.8424 23.287C28.1909 23.2223 28.9559 23.0793 29.5424 22.9694C30.1289 22.8595 31.0122 22.6947 31.5052 22.6032C31.9982 22.5118 32.6172 22.3963 32.8807 22.3466C33.1442 22.2968 33.5963 22.2118 33.8853 22.1576L34.4107 22.0591L34.4084 21.9085C34.4054 21.7196 34.3526 21.0564 34.2568 20.0018C34.2159 19.5522 34.1531 18.8233 34.1173 18.382C34.0322 17.3343 33.9908 17.0723 33.8367 16.6054C33.2245 14.7518 32.142 13.1053 30.6915 11.8218C30.516 11.6665 30.3545 11.5394 30.3326 11.5394C30.3108 11.5394 30.058 11.8142 29.7709 12.1501ZM29.2692 15.476C28.4179 15.5917 27.7042 16.2052 27.4733 17.02C27.2324 17.8699 27.4864 18.7688 28.1494 19.4124C28.4533 19.7072 28.8009 19.9052 29.22 20.0218C29.539 20.1107 30.1336 20.1191 30.4388 20.039C31.4152 19.7831 32.0461 18.9484 32.0461 17.9127C32.0461 16.9277 31.4577 16.0582 30.5143 15.6492C30.1553 15.4936 29.6534 15.4238 29.2692 15.476ZM21.9695 20.1729C21.859 20.1879 21.7429 20.2028 21.7116 20.206C21.6487 20.2126 21.659 20.2224 22.0081 20.4899L22.1859 20.6261V20.3821C22.1859 20.2479 22.1824 20.1398 22.1781 20.1419C22.1739 20.144 22.08 20.158 21.9695 20.1729ZM20.7795 20.3396C20.7455 20.3466 20.686 20.359 20.6474 20.3671C20.5869 20.3798 20.6275 20.4228 20.9411 20.6785C21.1412 20.8417 21.4997 21.1281 21.7377 21.3149L22.1704 21.6546L22.1795 21.4923C22.1845 21.403 22.1749 21.2946 22.1581 21.2513C22.1399 21.2045 21.907 21.0007 21.5811 20.7463C21.0168 20.306 20.9951 20.2949 20.7795 20.3396ZM19.8985 20.4892C19.873 20.4938 19.7722 20.5063 19.6744 20.5168C19.5767 20.5274 19.4967 20.546 19.4967 20.5581C19.4967 20.5703 19.8537 20.8588 20.29 21.1993C20.7264 21.5398 21.3196 22.0058 21.6083 22.2348C21.8971 22.4637 22.1464 22.6511 22.1623 22.6511C22.1786 22.6511 22.1862 22.5615 22.1798 22.4467L22.1683 22.2423L21.783 21.93C21.5711 21.7582 21.2238 21.4797 21.0113 21.311C20.7988 21.1424 20.5067 20.9071 20.3622 20.7882C20.0596 20.5394 19.9634 20.4773 19.8985 20.4892ZM18.6376 20.6658C18.5306 20.6836 18.4402 20.7107 18.4367 20.7261C18.4302 20.7541 18.8682 21.1051 20.3659 22.2722C20.8144 22.6217 21.3621 23.0517 21.5831 23.2278C21.8041 23.4039 22.0324 23.5802 22.0904 23.6198L22.1958 23.6915L22.1754 23.5455C22.1641 23.4653 22.1549 23.3632 22.1549 23.3189C22.1549 23.2359 22.1476 23.2297 20.7982 22.1579C20.6349 22.0282 20.4387 21.8706 20.3622 21.8077C20.0461 21.5475 18.931 20.6805 18.8835 20.6579C18.8552 20.6445 18.7446 20.648 18.6376 20.6658ZM17.5248 20.8408C17.3537 20.8668 17.335 20.8761 17.3702 20.9175C17.3921 20.9435 18.0917 21.4999 18.9248 22.1542C20.5488 23.4295 21.2211 23.9619 21.614 24.2839C21.75 24.3953 21.9274 24.5384 22.0081 24.6019L22.1549 24.7172L22.1549 24.4789L22.1548 24.2406L21.4096 23.6502C20.657 23.054 19.342 22.0224 18.3415 21.2432C18.0421 21.0101 17.7797 20.8175 17.7583 20.8153C17.7369 20.8131 17.6318 20.8246 17.5248 20.8408ZM16.5084 21.0076C16.4545 21.0142 16.3947 21.038 16.3756 21.0606C16.3063 21.1424 16.4276 21.2443 18.6467 22.969C19.5521 23.6727 21.4878 25.2327 21.9412 25.6242C22.0532 25.7208 22.1506 25.7999 22.1576 25.7999C22.1647 25.8 22.1659 25.6846 22.1604 25.5436L22.1505 25.2871L22.0059 25.1708C21.9264 25.1068 21.6179 24.8567 21.3204 24.6151C20.7154 24.1239 19.8156 23.4103 19.1908 22.9264C18.9631 22.75 18.6137 22.4762 18.4143 22.318C18.2149 22.1598 17.9005 21.9131 17.7156 21.7698C17.5307 21.6264 17.2314 21.3914 17.0506 21.2475C16.8698 21.1036 16.6959 20.988 16.6643 20.9907C16.6325 20.9933 16.5624 21.0009 16.5084 21.0076ZM16.6637 22.0354C16.6728 22.0659 16.6959 22.1523 16.715 22.2272C16.7861 22.5054 16.8184 22.5584 17.0067 22.7052C17.3219 22.9511 17.8991 23.4006 18.7085 24.0305C19.1335 24.3613 19.6899 24.8021 19.9449 25.0101C20.4768 25.4439 21.3902 26.1986 21.4131 26.2232C21.5074 26.3242 21.7843 26.5135 21.9001 26.5561C22.2028 26.6672 22.1859 26.6704 22.1859 26.5017C22.1859 26.352 22.1854 26.3514 21.9618 26.1742C21.8386 26.0766 21.6351 25.9118 21.5096 25.8081C21.3841 25.7043 21.2691 25.627 21.2538 25.6362C21.2386 25.6454 21.2299 25.6391 21.2346 25.6221C21.2393 25.6051 21.068 25.4508 20.8541 25.2793C20.6401 25.1077 20.2794 24.8174 20.0525 24.6342C19.4095 24.1153 16.7679 22.0455 16.7041 22.0108C16.6565 21.9849 16.6499 21.9889 16.6637 22.0354ZM17.1559 23.4706C17.2648 23.7231 17.3394 23.8537 17.4269 23.945C17.5055 24.027 18.2738 24.6596 18.6135 24.9219C18.6674 24.9635 18.9652 25.2087 19.2753 25.4668C19.5854 25.7249 19.8837 25.9591 19.9383 25.9872C20.0433 26.0413 20.771 26.2572 20.7889 26.2397C20.8105 26.2186 20.0456 25.6192 20.0182 25.6357C20.0025 25.6452 19.9935 25.6388 19.9982 25.6215C20.0065 25.5909 19.0086 24.7905 18.2766 24.2406C18.0771 24.0907 17.8979 23.9541 17.8784 23.9369C17.8393 23.9023 17.2725 23.4788 17.1736 23.4101C17.1123 23.3676 17.112 23.3688 17.1559 23.4706ZM17.8724 24.8764C17.9059 25.1074 18.0021 25.4389 18.0487 25.4837C18.0716 25.5057 18.2781 25.5642 18.5076 25.6137C18.7371 25.6633 18.9521 25.7143 18.9855 25.7272C19.0188 25.7401 18.8102 25.5483 18.5218 25.3009C18.2335 25.0536 17.9645 24.8228 17.9241 24.7881L17.8506 24.725L17.8724 24.8764Z" fill="black"/>
<path fill-rule="evenodd" clip-rule="evenodd" d="M33.1743 7.0147C33.0806 7.05121 31.1056 7.27792 29.4961 7.43691C28.901 7.49568 28.3516 7.55072 28.2751 7.55923C27.7464 7.61799 25.7222 7.80102 24.6123 7.89043C23.3068 7.99558 22.9139 8.0267 21.3667 8.14733C20.9417 8.18048 20.2463 8.23471 19.8212 8.26786C19.3962 8.30101 18.8538 8.34295 18.6158 8.36102C18.1196 8.39869 17.8119 8.44104 17.7328 8.48252C17.7025 8.49836 17.6489 8.54732 17.6136 8.59131L17.5494 8.67127V14.4798V20.2883L17.4798 20.3037C17.4071 20.3198 16.9125 20.3982 16.3202 20.4875C15.9885 20.5375 15.9673 20.5451 15.8763 20.6467C15.7635 20.7725 15.7621 20.7503 15.9281 21.4551C16.163 22.4521 16.6193 23.6331 17.1038 24.498C17.3493 24.9362 17.3864 25.1478 17.2322 25.229C17.1838 25.2545 16.9901 25.2633 16.5874 25.2581C15.9137 25.2495 15.631 25.2985 15.2157 25.4958C14.4393 25.8646 13.849 26.5909 14.0343 26.9495C14.1675 27.2074 14.6259 27.2398 14.9849 27.0168C15.0929 26.9497 15.1525 26.8772 15.2588 26.6838C15.4825 26.2767 15.813 26.015 16.2417 25.9056C16.339 25.8808 16.4266 25.8604 16.4361 25.8604C16.4458 25.8604 16.3343 25.9797 16.1885 26.1254C16.0426 26.2711 15.8342 26.5061 15.7252 26.6476C15.6163 26.7892 15.4247 27.026 15.2995 27.1738C15.0054 27.5211 14.9315 27.666 14.9704 27.8189C15.0266 28.0399 15.3119 28.1356 15.5665 28.0189C15.816 27.9046 15.9895 27.678 16.2857 27.0792C16.5713 26.5021 16.6979 26.3008 16.7539 26.3347C16.7719 26.3456 16.777 26.3397 16.7654 26.3214C16.754 26.3033 16.7588 26.28 16.7761 26.2695C16.8195 26.2432 16.8148 26.3258 16.7596 26.5568C16.6535 27.0014 16.4795 27.3583 16.1529 27.8013C15.9702 28.049 15.8185 28.3582 15.8184 28.4825C15.8184 28.6226 15.9374 28.7746 16.0872 28.8257C16.2617 28.8853 16.4288 28.8297 16.6069 28.6528C16.9313 28.3305 17.1311 27.7142 17.3051 26.499C17.3408 26.2498 17.3425 26.2462 17.3866 26.3286C17.4777 26.4988 17.5518 26.7591 17.5682 26.9655C17.59 27.2415 17.5162 27.5187 17.2982 27.9798C17.1481 28.2973 17.1335 28.3472 17.1328 28.5458C17.1321 28.7526 17.1373 28.7688 17.2366 28.8692C17.3694 29.0035 17.5169 29.0316 17.7463 28.9663C18.1113 28.8623 18.3382 28.4525 18.3344 27.9041C18.3324 27.6084 18.289 27.3719 18.1033 26.6421C18.0368 26.381 17.9915 26.1443 18.0025 26.1162C18.0187 26.0748 18.0496 26.0682 18.1646 26.0818C18.3608 26.1049 19.676 26.481 21.1813 26.9443C22.484 27.3453 22.4095 27.3275 22.538 27.2678C22.6005 27.2388 22.6662 27.1884 22.684 27.1558C22.705 27.1173 22.7151 26.6974 22.7128 25.9522L22.7093 24.8078L22.7799 24.791C23.0099 24.7363 27.4166 23.8898 29.1097 23.5752C30.1903 23.3744 30.2329 23.3664 31.3661 23.154C31.8506 23.0632 32.8312 22.8842 33.5453 22.7563C34.2593 22.6284 34.8745 22.5045 34.9125 22.481C34.9505 22.4576 34.9894 22.4079 34.9989 22.3706C35.0084 22.3334 34.9535 21.6285 34.8768 20.8042C34.8001 19.9799 34.7163 19.0534 34.6905 18.7453C34.6647 18.4373 34.6152 17.8582 34.5805 17.4586C34.5459 17.0589 34.4897 16.3913 34.4557 15.975C34.4218 15.5587 34.3738 14.9728 34.3491 14.6731C34.3244 14.3733 34.2763 13.767 34.2422 13.3258C34.2081 12.8845 34.1587 12.2509 34.1325 11.9179C34.1063 11.5848 34.0229 10.4472 33.9471 9.38974C33.7798 7.05678 33.7909 7.15999 33.6985 7.0695C33.6353 7.00761 33.5968 6.99819 33.4153 7.00025C33.2998 7.00155 33.1913 7.00806 33.1743 7.0147ZM32.618 7.66744C32.4187 7.70071 30.7544 7.88855 29.9752 7.96573C29.3671 8.02592 28.2066 8.12895 26.2196 8.29914C25.6246 8.35009 24.9848 8.4068 24.7977 8.42515C24.6107 8.4435 24.3673 8.46711 24.2568 8.47759L24.0559 8.49666L24.3035 8.5349C24.4397 8.55595 24.7874 8.62761 25.0762 8.69419C26.6472 9.05621 28.3621 9.72549 29.629 10.471C29.8211 10.584 30.0135 10.697 30.0564 10.7219C30.1319 10.7659 30.1386 10.7629 30.2602 10.6311C30.5032 10.3676 31.637 9.06472 32.1836 8.42088C32.4876 8.06285 32.7642 7.73928 32.7984 7.7018C32.8674 7.62617 32.8663 7.62596 32.618 7.66744ZM32.2103 9.2918C31.6291 10.0034 31.0484 10.7125 30.9198 10.8676C30.7912 11.0226 30.6869 11.1588 30.6879 11.1703C30.6888 11.1818 30.7805 11.2593 30.8915 11.3426C31.1669 11.5493 31.923 12.2817 32.2042 12.6142C32.8125 13.3336 33.3692 14.2069 33.7387 15.0213L33.8417 15.2483L33.8241 15.0515C33.8145 14.9433 33.7782 14.4664 33.7436 13.9918C33.7089 13.5173 33.6403 12.5976 33.5911 11.9482C33.542 11.2987 33.4562 10.144 33.4005 9.38218C33.3448 8.62032 33.292 7.99721 33.2832 7.99746C33.2743 7.9977 32.7915 8.58017 32.2103 9.2918ZM20.424 8.78641C19.9337 8.81164 18.1646 8.95866 18.1473 8.97565C18.1414 8.98146 18.14 11.5131 18.1443 14.6015L18.1521 20.2168L18.8939 20.1018C19.702 19.9765 21.2052 19.75 21.8922 19.65C22.2555 19.5971 22.3349 19.576 22.3868 19.5186C22.5413 19.3476 23.4631 18.3048 23.9935 17.7008C24.3152 17.3344 24.7465 16.8439 24.952 16.6108C25.1574 16.3777 25.4569 16.0371 25.6174 15.8539C25.7781 15.6707 26.1044 15.3021 26.3427 15.0346C26.581 14.7672 27.2698 13.9918 27.8733 13.3114C28.4768 12.631 29.1538 11.8688 29.3777 11.6176C29.6905 11.2667 29.7764 11.1526 29.7486 11.1248C29.6827 11.059 29.0089 10.6865 28.5224 10.447C25.9466 9.1788 23.3093 8.63803 20.424 8.78641ZM22.4258 10.5413C22.0851 10.5975 21.7267 10.7528 21.4283 10.9736C21.103 11.2143 20.8632 11.5514 20.7135 11.9784C20.6367 12.1976 20.6284 12.2625 20.6267 12.6597C20.6252 13.0385 20.6348 13.1298 20.6973 13.3258C20.9658 14.1675 21.6019 14.7787 22.481 15.0396C22.7086 15.1071 22.8208 15.1221 23.1132 15.1245C23.4259 15.1269 23.5012 15.1168 23.74 15.0401C23.8893 14.9922 24.0946 14.9036 24.1963 14.8433C24.6018 14.6027 24.9423 14.1792 25.0977 13.7219C25.1888 13.4538 25.1964 13.4007 25.1971 13.023C25.1977 12.6909 25.1846 12.566 25.1272 12.3569C24.9944 11.8728 24.6778 11.3873 24.279 11.056C23.7803 10.6417 23.0487 10.4385 22.4258 10.5413ZM29.7709 12.1501C29.4837 12.4859 29.1229 12.9049 28.969 13.0811C28.3389 13.8023 27.7642 14.4639 27.2704 15.0364C26.9831 15.3695 26.5112 15.9144 26.2217 16.2475C25.9322 16.5805 25.4051 17.1868 25.0504 17.5948C24.6958 18.0028 24.3051 18.4524 24.1824 18.594C24.0596 18.7355 23.7097 19.1374 23.4046 19.4871C23.0995 19.8368 22.8187 20.1622 22.7806 20.2103L22.7113 20.2976V22.2767C22.7113 23.3652 22.7217 24.2554 22.7345 24.255C22.7473 24.2546 22.8133 24.2411 22.8813 24.225C23.0255 24.1908 25.7216 23.6811 27.8424 23.287C28.1909 23.2223 28.9559 23.0793 29.5424 22.9694C30.1289 22.8595 31.0122 22.6947 31.5052 22.6032C31.9982 22.5118 32.6172 22.3963 32.8807 22.3466C33.1442 22.2968 33.5963 22.2118 33.8853 22.1576L34.4107 22.0591L34.4084 21.9085C34.4054 21.7196 34.3526 21.0564 34.2568 20.0018C34.2159 19.5522 34.1531 18.8233 34.1173 18.382C34.0322 17.3343 33.9908 17.0723 33.8367 16.6054C33.2245 14.7518 32.142 13.1053 30.6915 11.8218C30.516 11.6665 30.3545 11.5394 30.3326 11.5394C30.3108 11.5394 30.058 11.8142 29.7709 12.1501ZM29.2692 15.476C28.4179 15.5917 27.7042 16.2052 27.4733 17.02C27.2324 17.8699 27.4864 18.7688 28.1494 19.4124C28.4533 19.7072 28.8009 19.9052 29.22 20.0218C29.539 20.1107 30.1336 20.1191 30.4388 20.039C31.4152 19.7831 32.0461 18.9484 32.0461 17.9127C32.0461 16.9277 31.4577 16.0582 30.5143 15.6492C30.1553 15.4936 29.6534 15.4238 29.2692 15.476ZM21.9695 20.1729C21.859 20.1879 21.7429 20.2028 21.7116 20.206C21.6487 20.2126 21.659 20.2224 22.0081 20.4899L22.1859 20.6261V20.3821C22.1859 20.2479 22.1824 20.1398 22.1781 20.1419C22.1739 20.144 22.08 20.158 21.9695 20.1729ZM20.7795 20.3396C20.7455 20.3466 20.686 20.359 20.6474 20.3671C20.5869 20.3798 20.6275 20.4228 20.9411 20.6785C21.1412 20.8417 21.4997 21.1281 21.7377 21.3149L22.1704 21.6546L22.1795 21.4923C22.1845 21.403 22.1749 21.2946 22.1581 21.2513C22.1399 21.2045 21.907 21.0007 21.5811 20.7463C21.0168 20.306 20.9951 20.2949 20.7795 20.3396ZM19.8985 20.4892C19.873 20.4938 19.7722 20.5063 19.6744 20.5168C19.5767 20.5274 19.4967 20.546 19.4967 20.5581C19.4967 20.5703 19.8537 20.8588 20.29 21.1993C20.7264 21.5398 21.3196 22.0058 21.6083 22.2348C21.8971 22.4637 22.1464 22.6511 22.1623 22.6511C22.1786 22.6511 22.1862 22.5615 22.1798 22.4467L22.1683 22.2423L21.783 21.93C21.5711 21.7582 21.2238 21.4797 21.0113 21.311C20.7988 21.1424 20.5067 20.9071 20.3622 20.7882C20.0596 20.5394 19.9634 20.4773 19.8985 20.4892ZM18.6376 20.6658C18.5306 20.6836 18.4402 20.7107 18.4367 20.7261C18.4302 20.7541 18.8682 21.1051 20.3659 22.2722C20.8144 22.6217 21.3621 23.0517 21.5831 23.2278C21.8041 23.4039 22.0324 23.5802 22.0904 23.6198L22.1958 23.6915L22.1754 23.5455C22.1641 23.4653 22.1549 23.3632 22.1549 23.3189C22.1549 23.2359 22.1476 23.2297 20.7982 22.1579C20.6349 22.0282 20.4387 21.8706 20.3622 21.8077C20.0461 21.5475 18.931 20.6805 18.8835 20.6579C18.8552 20.6445 18.7446 20.648 18.6376 20.6658ZM17.5248 20.8408C17.3537 20.8668 17.335 20.8761 17.3702 20.9175C17.3921 20.9435 18.0917 21.4999 18.9248 22.1542C20.5488 23.4295 21.2211 23.9619 21.614 24.2839C21.75 24.3953 21.9274 24.5384 22.0081 24.6019L22.1549 24.7172L22.1549 24.4789L22.1548 24.2406L21.4096 23.6502C20.657 23.054 19.342 22.0224 18.3415 21.2432C18.0421 21.0101 17.7797 20.8175 17.7583 20.8153C17.7369 20.8131 17.6318 20.8246 17.5248 20.8408ZM16.5084 21.0076C16.4545 21.0142 16.3947 21.038 16.3756 21.0606C16.3063 21.1424 16.4276 21.2443 18.6467 22.969C19.5521 23.6727 21.4878 25.2327 21.9412 25.6242C22.0532 25.7208 22.1506 25.7999 22.1576 25.7999C22.1647 25.8 22.1659 25.6846 22.1604 25.5436L22.1505 25.2871L22.0059 25.1708C21.9264 25.1068 21.6179 24.8567 21.3204 24.6151C20.7154 24.1239 19.8156 23.4103 19.1908 22.9264C18.9631 22.75 18.6137 22.4762 18.4143 22.318C18.2149 22.1598 17.9005 21.9131 17.7156 21.7698C17.5307 21.6264 17.2314 21.3914 17.0506 21.2475C16.8698 21.1036 16.6959 20.988 16.6643 20.9907C16.6325 20.9933 16.5624 21.0009 16.5084 21.0076ZM16.6637 22.0354C16.6728 22.0659 16.6959 22.1523 16.715 22.2272C16.7861 22.5054 16.8184 22.5584 17.0067 22.7052C17.3219 22.9511 17.8991 23.4006 18.7085 24.0305C19.1335 24.3613 19.6899 24.8021 19.9449 25.0101C20.4768 25.4439 21.3902 26.1986 21.4131 26.2232C21.5074 26.3242 21.7843 26.5135 21.9001 26.5561C22.2028 26.6672 22.1859 26.6704 22.1859 26.5017C22.1859 26.352 22.1854 26.3514 21.9618 26.1742C21.8386 26.0766 21.6351 25.9118 21.5096 25.8081C21.3841 25.7043 21.2691 25.627 21.2538 25.6362C21.2386 25.6454 21.2299 25.6391 21.2346 25.6221C21.2393 25.6051 21.068 25.4508 20.8541 25.2793C20.6401 25.1077 20.2794 24.8174 20.0525 24.6342C19.4095 24.1153 16.7679 22.0455 16.7041 22.0108C16.6565 21.9849 16.6499 21.9889 16.6637 22.0354ZM17.1559 23.4706C17.2648 23.7231 17.3394 23.8537 17.4269 23.945C17.5055 24.027 18.2738 24.6596 18.6135 24.9219C18.6674 24.9635 18.9652 25.2087 19.2753 25.4668C19.5854 25.7249 19.8837 25.9591 19.9383 25.9872C20.0433 26.0413 20.771 26.2572 20.7889 26.2397C20.8105 26.2186 20.0456 25.6192 20.0182 25.6357C20.0025 25.6452 19.9935 25.6388 19.9982 25.6215C20.0065 25.5909 19.0086 24.7905 18.2766 24.2406C18.0771 24.0907 17.8979 23.9541 17.8784 23.9369C17.8393 23.9023 17.2725 23.4788 17.1736 23.4101C17.1123 23.3676 17.112 23.3688 17.1559 23.4706ZM17.8724 24.8764C17.9059 25.1074 18.0021 25.4389 18.0487 25.4837C18.0716 25.5057 18.2781 25.5642 18.5076 25.6137C18.7371 25.6633 18.9521 25.7143 18.9855 25.7272C19.0188 25.7401 18.8102 25.5483 18.5218 25.3009C18.2335 25.0536 17.9645 24.8228 17.9241 24.7881L17.8506 24.725L17.8724 24.8764Z" stroke="black" stroke-width="2" mask="url(#path-1-inside-1_11603_21550)"/>
</g>
<defs>
<filter id="filter0_d_11603_21550" x="-1" y="-8" width="51" height="52" filterUnits="userSpaceOnUse" color-interpolation-filters="sRGB">
<feFlood flood-opacity="0" result="BackgroundImageFix"/>
<feColorMatrix in="SourceAlpha" type="matrix" values="0 0 0 0 0 0 0 0 0 0 0 0 0 0 0 0 0 0 127 0" result="hardAlpha"/>
<feOffset/>
<feGaussianBlur stdDeviation="7.5"/>
<feComposite in2="hardAlpha" operator="out"/>
<feColorMatrix type="matrix" values="0 0 0 0 0 0 0 0 0 0 0 0 0 0 0 0 0 0 0.8 0"/>
<feBlend mode="normal" in2="BackgroundImageFix" result="effect1_dropShadow_11603_21550"/>
<feBlend mode="normal" in="SourceGraphic" in2="effect1_dropShadow_11603_21550" result="shape"/>
</filter>
</defs>
</svg>
