<svg width="727" height="680" viewBox="0 0 727 680" fill="none" xmlns="http://www.w3.org/2000/svg">
<path fill-rule="evenodd" clip-rule="evenodd" d="M0.485358 59.0634C1.69136 62.0953 9.17937 125.991 14.4304 178.063C16.3714 197.313 18.1894 215.088 18.4704 217.563C20.4114 234.667 26.4564 300.155 29.4094 336.063C32.8824 378.297 33.9104 391.01 37.8944 441.063C38.9894 454.813 40.7804 477.313 41.8754 491.063C42.9704 504.813 44.3554 522.363 44.9524 530.063C46.1964 546.114 47.5954 556.07 48.9654 558.63C49.4884 559.608 51.1054 561.343 52.5584 562.485L55.1994 564.563H247.045H438.891L439.399 566.813C439.93 569.166 442.519 585.166 445.47 604.33C447.122 615.06 447.372 615.745 450.727 618.69C454.882 622.339 454.15 622.385 477.429 617.013C510.357 609.414 549.364 594.652 577.929 578.978C592.404 571.036 599.391 569.834 602.075 574.825C602.917 576.391 603.205 582.657 603.035 595.683C602.751 617.481 604.368 626.625 610.885 640.063C623.065 665.179 647.056 684.276 658.899 678.284C667.416 673.974 668.488 659.143 661.122 647.528C658.907 644.036 656.511 642.105 650.123 638.667C636.676 631.43 628.033 620.737 624.421 606.87C623.6 603.72 622.929 600.888 622.929 600.578C622.929 600.267 626.867 603.873 631.679 608.591C636.492 613.309 644.254 620.053 648.929 623.577C653.604 627.102 661.424 633.3 666.308 637.35C677.778 646.864 682.564 649.256 687.614 647.997C694.912 646.178 698.074 636.95 694.221 628.714C690.443 620.64 682.959 615.029 663.183 605.444C644.123 596.206 637.473 592.11 638.593 590.297C638.954 589.714 638.759 589.55 638.153 589.925C637.556 590.294 636.785 590.138 636.439 589.579C635.571 588.175 638.299 588.328 645.929 590.112C660.612 593.546 672.4 599.175 687.031 609.74C695.215 615.651 705.425 620.561 709.531 620.562C714.159 620.563 719.18 616.713 720.868 611.868C722.836 606.22 721 600.817 715.156 595.055C704.51 584.56 684.157 578.096 644.019 572.466C635.789 571.311 635.669 571.255 638.391 569.829C644.013 566.883 652.609 564.483 659.429 563.954C668.542 563.248 677.699 565.635 692.929 572.689C703.415 577.545 705.063 578.017 711.621 578.039C718.452 578.062 718.988 577.893 722.305 574.68C726.74 570.386 727.667 565.614 725.509 558.191C722.077 546.384 708.539 539.041 690.429 539.165C680.663 539.231 672.849 540.633 648.746 546.642C640.121 548.792 632.304 550.26 631.375 549.904C630.008 549.379 629.792 548.38 630.24 544.66C631.004 538.312 643.424 495.761 658.728 447.063C671.972 404.918 671.385 407.327 669.413 403.171C668.454 401.149 666.789 399.023 665.714 398.448C664.441 397.767 650.572 397.441 625.961 397.515L588.162 397.627L587.607 395.345C585.799 387.904 557.843 245.337 547.452 190.563C540.819 155.602 540.556 154.224 533.541 117.563C530.542 101.888 524.63 70.1633 520.404 47.0634C516.179 23.9634 512.088 4.05835 511.313 2.82935C510.538 1.60034 508.897 0.342346 507.666 0.0343628C506.436 -0.273621 483.154 1.50336 455.929 3.98535C428.704 6.46637 398.104 9.17834 387.929 10.0123C377.754 10.8463 358.629 12.4474 345.429 13.5704C332.229 14.6924 310.179 16.5093 296.429 17.6074C282.679 18.7054 263.329 20.2573 253.429 21.0563C243.529 21.8553 223.504 23.4124 208.929 24.5164C194.354 25.6204 173.429 27.2163 162.429 28.0643C151.429 28.9113 113.854 31.6123 78.9294 34.0643C1.87536 39.4753 5.28436 39.1174 2.29536 42.1064C0.251355 44.1504 -0.0596475 45.3964 0.00835253 51.2684C0.0513525 55.0054 0.266358 58.5134 0.485358 59.0634ZM22.0444 77.0634C23.1434 83.5114 29.3474 137.352 31.8964 162.563C33.8844 182.234 37.2874 219.779 42.9084 284.063C44.5914 303.313 46.4644 324.013 47.0704 330.063C47.6764 336.113 48.4564 343.988 48.8024 347.563L49.4324 354.063L50.6954 346.053C51.3904 341.648 53.7574 330.398 55.9564 321.053C67.9134 270.23 90.0184 214.748 114.64 173.762C118.374 167.547 122.104 161.324 122.929 159.935C124.38 157.491 124.282 157.275 119.929 153.343C111.226 145.481 68.1944 108.798 46.9294 91.1154C35.1044 81.2814 24.4174 72.3314 23.1794 71.2253C20.6814 68.9933 20.6744 69.0284 22.0444 77.0634ZM75.6944 90.2524C99.1984 109.056 122.618 127.843 127.739 132.002C132.859 136.161 137.359 139.537 137.739 139.505C138.118 139.474 140.679 136.51 143.429 132.919C150.254 124.008 174.444 99.5464 185.429 90.4484C209.189 70.7704 238.031 52.7603 264.929 40.8063L272.429 37.4733L265.929 38.0414C262.354 38.3534 246.604 39.5274 230.929 40.6484C215.254 41.7704 184.879 43.9893 163.429 45.5793C141.979 47.1703 103.842 49.9453 78.6794 51.7463C53.5164 53.5474 32.9364 55.2554 32.9444 55.5424C32.9524 55.8293 52.1904 71.4484 75.6944 90.2524ZM59.0024 471.563C59.8354 487.426 64.6914 544.659 65.2524 545.219C65.4444 545.411 149.06 545.455 251.064 545.316L436.528 545.063L432.73 521.063C428.593 494.92 421.111 446.288 417.807 424.063C416.06 412.311 415.363 409.742 413.467 408.063C407.821 403.063 373.378 373.242 353.429 356.082C341.329 345.673 325.129 331.72 317.429 325.074C309.729 318.428 298.479 308.739 292.429 303.544C286.379 298.348 274.203 287.789 265.371 280.08C256.539 272.371 230.926 250.088 208.454 230.563C185.981 211.038 160.808 189.136 152.512 181.893C140.921 171.771 137.153 168.993 136.235 169.893C134.061 172.024 121.759 193.824 113.848 209.563C71.9624 292.895 54.1014 378.216 59.0024 471.563ZM116.962 406.8C118.818 417.822 123.949 429.419 131.24 439.07C139.192 449.596 150.324 457.353 164.429 462.197C171.667 464.683 173.81 464.95 186.929 465.004C199.442 465.055 202.457 464.742 208.929 462.72C236.731 454.034 256.917 433.455 265.533 405.014C267.763 397.651 268.26 394.022 268.337 384.563C268.418 374.445 268.083 372.008 265.551 364.283C263.968 359.453 261.043 352.811 259.051 349.522C251.103 336.401 237.116 325.388 222.014 320.36C213.157 317.411 211.404 317.167 198.929 317.144C187.961 317.124 183.835 317.548 176.929 319.403C160.941 323.7 144.906 333.942 133.962 346.847C120.28 362.981 113.569 386.649 116.962 406.8ZM170.098 169.173C181.191 178.462 195.028 190.137 200.848 195.116C224.67 215.498 246.521 234.092 265.429 250.068C276.429 259.362 294.429 274.63 305.429 283.995C316.429 293.361 336.454 310.413 349.929 321.888C363.404 333.362 378.254 346 382.929 349.971C387.604 353.942 400.879 365.265 412.429 375.135C423.979 385.004 434.727 394.088 436.314 395.321L439.199 397.563H504.564C540.515 397.563 569.918 397.226 569.905 396.813C569.892 396.4 569.446 394.263 568.913 392.063C567.784 387.399 550.948 300.174 537.934 231.563C535.795 220.288 531.074 195.538 527.443 176.563C523.812 157.588 518.369 129.013 515.349 113.063C512.329 97.1133 508.514 77.0884 506.872 68.5634C505.229 60.0383 502.421 45.4133 500.631 36.0634L497.377 19.0634L492.403 19.1404C486.164 19.2364 464.258 20.9434 429.429 24.0453C414.579 25.3683 390.504 27.3994 375.929 28.5583C341.326 31.3093 332.67 32.6484 317.25 37.6364C256.028 57.4404 201.649 92.4614 159.256 139.388C154.126 145.066 149.929 150.291 149.929 150.998C149.929 151.704 159.005 159.883 170.098 169.173ZM279.948 185.402C283.769 212.945 304.033 236.032 330.945 243.504C359.015 251.298 388.704 243.079 409.96 221.629C419.699 211.8 426.236 200.554 430.09 186.995C433.023 176.674 433.301 157.438 430.658 147.563C422.206 115.976 394.637 95.5634 360.429 95.5634C327.895 95.5634 299.177 114.601 285.67 145.121C280.53 156.735 278.223 172.974 279.948 185.402ZM435.08 421.563C435.573 425.138 436.065 428.892 436.173 429.906C436.389 431.942 436.715 431.608 445.549 420.313L450.046 414.563H441.987C437.555 414.563 433.986 414.676 434.056 414.813C434.126 414.95 434.586 417.988 435.08 421.563ZM440.584 460.063C440.817 461.163 441.225 463.085 441.492 464.335C441.911 466.293 443.332 464.98 451.778 454.835C457.168 448.36 466.627 436.763 472.797 429.063L484.017 415.063L478.655 414.769C475.706 414.607 472.126 414.918 470.698 415.461C469.151 416.049 462.419 423.583 454.016 434.129C439.474 452.383 439.109 453.088 440.584 460.063ZM445.525 488.563C445.679 489.388 446.091 492.65 446.439 495.813C446.788 498.976 447.401 501.563 447.802 501.563C448.203 501.563 457.733 490.013 468.98 475.897C480.227 461.781 495.617 442.588 503.179 433.247C510.742 423.905 516.929 415.84 516.929 415.325C516.929 414.799 513.97 414.551 510.179 414.759L503.429 415.13L493.113 427.596C487.439 434.453 478.239 445.688 472.669 452.563C467.099 459.438 459.329 468.888 455.403 473.563C447.183 483.351 445.132 486.465 445.525 488.563ZM451.36 529.356C451.948 532.817 452.843 535.742 453.349 535.856C454.276 536.065 465.868 521.897 504.416 473.443C515.958 458.934 530.161 441.213 535.977 434.063C541.793 426.913 547.618 419.528 548.923 417.652L551.294 414.241L546.472 414.902C543.82 415.266 540.45 415.563 538.985 415.563C536.246 415.563 536.039 415.8 500.641 459.458C496.358 464.741 491.152 471.088 489.073 473.563C480.481 483.789 451.845 519.863 451.098 521.402C450.654 522.315 450.772 525.895 451.36 529.356ZM457.14 565.358C457.998 570.893 458.304 571.497 459.673 570.36C460.53 569.65 478.909 547.017 500.517 520.065C542.639 467.525 560.225 445.774 570.858 433.063C574.539 428.663 579.265 422.926 581.36 420.313L585.17 415.563L577.299 415.565L569.429 415.567L549.929 439.678C530.237 464.026 496.166 506.566 470.429 538.937C462.729 548.622 456.369 557.112 456.296 557.804C456.223 558.497 456.603 561.896 457.14 565.358ZM462.647 598.239C462.866 599.985 463.653 601.919 464.397 602.537C467.1 604.78 470.466 600.856 527.43 529.063C550.671 499.772 602.197 437.146 615.125 422.477C618.317 418.854 620.93 415.704 620.931 415.477C620.933 415.249 617.122 415.208 612.464 415.386L603.994 415.708L600.15 420.386C598.036 422.958 589.778 432.938 581.799 442.563C565.573 462.136 542.004 491.247 526.022 511.458C520.196 518.826 511.154 530.131 505.929 536.58C500.704 543.03 492.556 553.202 487.821 559.185C483.087 565.168 475.325 574.849 470.571 580.698C465.818 586.548 462.001 592.173 462.089 593.198C462.177 594.224 462.428 596.492 462.647 598.239ZM496.593 593.217C497.603 592.923 500.454 592.175 502.929 591.556C512.117 589.256 513.867 588.21 518.718 582.118C526.838 571.921 541.683 553.249 562.49 527.063C573.415 513.313 587.974 495.313 594.843 487.063C609.17 469.856 634.097 440.304 634.909 439.563C638.247 436.514 644.499 427.555 645.904 423.807C649.574 414.016 649.68 414.563 644.11 414.563C639.166 414.563 639.144 414.578 633.292 421.812C630.068 425.799 624.626 432.382 621.199 436.441C617.773 440.5 615.219 444.223 615.524 444.716C615.828 445.209 615.619 445.489 615.058 445.338C614.497 445.187 609.401 450.727 603.734 457.649C598.066 464.571 588.479 476.241 582.429 483.583C565.289 504.383 496.929 589.846 495.783 591.908C494.926 593.449 495.06 593.664 496.593 593.217ZM543.998 577.291C552.336 573.769 556.649 571.355 559.665 568.525C562.375 565.982 583.266 541.125 591.929 530.136C593.304 528.392 601.404 518.757 609.929 508.726C618.454 498.694 626.189 489.041 627.117 487.275C628.901 483.879 636.035 460.336 635.456 459.756C634.758 459.059 614.961 483.805 615.508 484.69C615.821 485.198 615.61 485.489 615.038 485.338C614.027 485.071 587.59 517.355 569.429 541.036C564.479 547.49 559.965 553.287 559.397 553.917C558.256 555.184 544.266 573.52 541.998 576.721C540.595 578.702 540.634 578.713 543.998 577.291ZM590.429 554.111C598.057 553.029 609.007 549.917 610.486 548.409C611.213 547.669 613.146 540.988 614.781 533.563C616.417 526.138 618.103 519.181 618.53 518.102C618.956 517.023 612.62 523.773 604.45 533.102C596.28 542.431 588.658 551.133 587.512 552.441L585.429 554.819L590.429 554.111Z" fill="black"/>
</svg>
