<svg width="680" height="727" viewBox="0 0 680 727" fill="none" xmlns="http://www.w3.org/2000/svg">
<path fill-rule="evenodd" clip-rule="evenodd" d="M620.329 0.485358C617.297 1.69136 553.401 9.17937 501.329 14.4304C482.079 16.3714 464.304 18.1894 461.829 18.4704C444.725 20.4114 379.237 26.4564 343.329 29.4094C301.095 32.8824 288.382 33.9104 238.329 37.8944C224.579 38.9894 202.079 40.7804 188.329 41.8754C174.579 42.9704 157.029 44.3554 149.329 44.9524C133.278 46.1964 123.322 47.5954 120.762 48.9654C119.784 49.4884 118.049 51.1054 116.907 52.5584L114.829 55.1994V247.045V438.891L112.579 439.399C110.226 439.93 94.2262 442.519 75.0622 445.47C64.3322 447.122 63.6472 447.372 60.7022 450.727C57.0532 454.882 57.0072 454.15 62.3792 477.429C69.9782 510.357 84.7402 549.364 100.414 577.929C108.356 592.404 109.558 599.391 104.567 602.075C103.001 602.917 96.7352 603.205 83.7092 603.035C61.9112 602.751 52.7672 604.368 39.3292 610.885C14.2132 623.065 -4.88379 647.056 1.10821 658.899C5.41821 667.416 20.2492 668.488 31.8642 661.122C35.3562 658.907 37.2872 656.511 40.7252 650.123C47.9622 636.676 58.6552 628.033 72.5222 624.421C75.6722 623.6 78.5042 622.929 78.8142 622.929C79.1252 622.929 75.5192 626.867 70.8012 631.679C66.0832 636.492 59.3392 644.254 55.8152 648.929C52.2902 653.604 46.0922 661.424 42.0422 666.308C32.5282 677.778 30.1362 682.564 31.3952 687.614C33.2142 694.912 42.4422 698.074 50.6782 694.221C58.7522 690.443 64.3632 682.959 73.9482 663.183C83.1862 644.123 87.2822 637.473 89.0952 638.593C89.6782 638.954 89.8422 638.759 89.4672 638.153C89.0982 637.556 89.2542 636.785 89.8132 636.439C91.2172 635.571 91.0642 638.299 89.2802 645.929C85.8462 660.612 80.2172 672.4 69.6522 687.031C63.7412 695.215 58.8312 705.425 58.8302 709.531C58.8292 714.159 62.6792 719.18 67.5242 720.868C73.1722 722.836 78.5752 721 84.3372 715.156C94.8322 704.51 101.296 684.157 106.926 644.019C108.081 635.789 108.137 635.669 109.563 638.391C112.509 644.013 114.909 652.609 115.438 659.429C116.144 668.542 113.757 677.699 106.703 692.929C101.847 703.415 101.375 705.063 101.353 711.621C101.33 718.452 101.499 718.988 104.712 722.305C109.006 726.74 113.778 727.667 121.201 725.509C133.008 722.077 140.351 708.539 140.227 690.429C140.161 680.663 138.759 672.849 132.75 648.746C130.6 640.121 129.132 632.304 129.488 631.375C130.013 630.008 131.012 629.792 134.732 630.24C141.08 631.004 183.631 643.424 232.329 658.728C274.474 671.972 272.065 671.385 276.221 669.413C278.243 668.454 280.369 666.789 280.944 665.714C281.625 664.441 281.951 650.572 281.877 625.961L281.765 588.162L284.047 587.607C291.488 585.799 434.055 557.843 488.829 547.452C523.79 540.819 525.168 540.556 561.829 533.541C577.504 530.542 609.229 524.63 632.329 520.404C655.429 516.179 675.334 512.088 676.563 511.313C677.792 510.538 679.05 508.897 679.358 507.666C679.666 506.436 677.889 483.154 675.407 455.929C672.926 428.704 670.214 398.104 669.38 387.929C668.546 377.754 666.945 358.629 665.822 345.429C664.7 332.229 662.883 310.179 661.785 296.429C660.687 282.679 659.135 263.329 658.336 253.429C657.537 243.529 655.98 223.504 654.876 208.929C653.772 194.354 652.176 173.429 651.328 162.429C650.481 151.429 647.78 113.854 645.328 78.9294C639.917 1.87536 640.275 5.28436 637.286 2.29536C635.242 0.251355 633.996 -0.0596475 628.124 0.00835253C624.387 0.0513525 620.879 0.266358 620.329 0.485358ZM602.329 22.0444C595.881 23.1434 542.04 29.3474 516.829 31.8964C497.158 33.8844 459.613 37.2874 395.329 42.9084C376.079 44.5914 355.379 46.4644 349.329 47.0704C343.279 47.6764 335.404 48.4564 331.829 48.8024L325.329 49.4324L333.339 50.6954C337.744 51.3904 348.994 53.7574 358.339 55.9564C409.162 67.9134 464.644 90.0184 505.63 114.64C511.845 118.374 518.068 122.104 519.457 122.929C521.901 124.38 522.117 124.282 526.049 119.929C533.911 111.226 570.594 68.1944 588.277 46.9294C598.111 35.1044 607.061 24.4174 608.167 23.1794C610.399 20.6814 610.364 20.6744 602.329 22.0444ZM589.14 75.6944C570.336 99.1984 551.549 122.618 547.39 127.739C543.231 132.859 539.855 137.359 539.887 137.739C539.918 138.118 542.882 140.679 546.473 143.429C555.384 150.254 579.846 174.444 588.944 185.429C608.622 209.189 626.632 238.031 638.586 264.929L641.919 272.429L641.351 265.929C641.039 262.354 639.865 246.604 638.744 230.929C637.622 215.254 635.403 184.879 633.813 163.429C632.222 141.979 629.447 103.842 627.646 78.6794C625.845 53.5164 624.137 32.9364 623.85 32.9444C623.563 32.9524 607.944 52.1904 589.14 75.6944ZM207.829 59.0024C191.966 59.8354 134.733 64.6914 134.173 65.2524C133.981 65.4444 133.937 149.06 134.076 251.064L134.329 436.528L158.329 432.73C184.472 428.593 233.104 421.111 255.329 417.807C267.081 416.06 269.65 415.363 271.329 413.467C276.329 407.821 306.15 373.378 323.31 353.429C333.719 341.329 347.672 325.129 354.318 317.429C360.964 309.729 370.653 298.479 375.848 292.429C381.044 286.379 391.603 274.203 399.312 265.371C407.021 256.539 429.304 230.926 448.829 208.454C468.354 185.981 490.256 160.808 497.499 152.512C507.621 140.921 510.399 137.153 509.499 136.235C507.368 134.061 485.568 121.759 469.829 113.848C386.497 71.9624 301.176 54.1014 207.829 59.0024ZM272.592 116.962C261.57 118.818 249.973 123.949 240.322 131.24C229.796 139.192 222.039 150.324 217.195 164.429C214.709 171.667 214.442 173.81 214.388 186.929C214.337 199.442 214.65 202.457 216.672 208.929C225.358 236.731 245.937 256.917 274.378 265.533C281.741 267.763 285.37 268.26 294.829 268.337C304.947 268.418 307.384 268.083 315.109 265.551C319.939 263.968 326.581 261.043 329.87 259.051C342.991 251.103 354.004 237.116 359.032 222.014C361.981 213.157 362.225 211.404 362.248 198.929C362.268 187.961 361.844 183.835 359.989 176.929C355.692 160.941 345.45 144.906 332.545 133.962C316.411 120.28 292.743 113.569 272.592 116.962ZM510.219 170.098C500.93 181.191 489.255 195.028 484.276 200.848C463.894 224.67 445.3 246.521 429.324 265.429C420.03 276.429 404.762 294.429 395.397 305.429C386.031 316.429 368.979 336.454 357.504 349.929C346.03 363.404 333.392 378.254 329.421 382.929C325.45 387.604 314.127 400.879 304.257 412.429C294.388 423.979 285.304 434.727 284.071 436.314L281.829 439.199V504.564C281.829 540.515 282.166 569.918 282.579 569.905C282.992 569.892 285.129 569.446 287.329 568.913C291.993 567.784 379.218 550.948 447.829 537.934C459.104 535.795 483.854 531.074 502.829 527.443C521.804 523.812 550.379 518.369 566.329 515.349C582.279 512.329 602.304 508.514 610.829 506.872C619.354 505.229 633.979 502.421 643.329 500.631L660.329 497.377L660.252 492.403C660.156 486.164 658.449 464.258 655.347 429.429C654.024 414.579 651.993 390.504 650.834 375.929C648.083 341.326 646.744 332.67 641.756 317.25C621.952 256.028 586.931 201.649 540.004 159.256C534.326 154.126 529.101 149.929 528.394 149.929C527.688 149.929 519.509 159.005 510.219 170.098ZM493.99 279.948C466.447 283.769 443.36 304.033 435.888 330.945C428.094 359.015 436.313 388.704 457.763 409.96C467.592 419.699 478.838 426.236 492.397 430.09C502.718 433.023 521.954 433.301 531.829 430.658C563.416 422.206 583.829 394.637 583.829 360.429C583.829 327.895 564.791 299.177 534.271 285.67C522.657 280.53 506.418 278.223 493.99 279.948ZM257.829 435.08C254.254 435.573 250.5 436.065 249.486 436.173C247.45 436.389 247.784 436.715 259.079 445.549L264.829 450.046V441.987C264.829 437.555 264.716 433.986 264.579 434.056C264.442 434.126 261.404 434.586 257.829 435.08ZM219.329 440.584C218.229 440.817 216.307 441.225 215.057 441.492C213.099 441.911 214.412 443.332 224.557 451.778C231.032 457.168 242.629 466.627 250.329 472.797L264.329 484.017L264.623 478.655C264.785 475.706 264.474 472.126 263.931 470.698C263.343 469.151 255.809 462.419 245.263 454.016C227.009 439.474 226.304 439.109 219.329 440.584ZM190.829 445.525C190.004 445.679 186.742 446.091 183.579 446.439C180.416 446.788 177.829 447.401 177.829 447.802C177.829 448.203 189.379 457.733 203.495 468.98C217.611 480.227 236.804 495.617 246.145 503.179C255.487 510.742 263.552 516.929 264.067 516.929C264.593 516.929 264.841 513.97 264.633 510.179L264.262 503.429L251.796 493.113C244.939 487.439 233.704 478.239 226.829 472.669C219.954 467.099 210.504 459.329 205.829 455.403C196.041 447.183 192.927 445.132 190.829 445.525ZM150.036 451.36C146.575 451.948 143.65 452.843 143.536 453.349C143.327 454.276 157.495 465.868 205.949 504.416C220.458 515.958 238.179 530.161 245.329 535.977C252.479 541.793 259.864 547.618 261.74 548.923L265.151 551.294L264.49 546.472C264.126 543.82 263.829 540.45 263.829 538.985C263.829 536.246 263.592 536.039 219.934 500.641C214.651 496.358 208.304 491.152 205.829 489.073C195.603 480.481 159.529 451.845 157.99 451.098C157.077 450.654 153.497 450.772 150.036 451.36ZM114.034 457.14C108.499 457.998 107.895 458.304 109.032 459.673C109.742 460.53 132.375 478.909 159.327 500.517C211.867 542.639 233.618 560.225 246.329 570.858C250.729 574.539 256.466 579.265 259.079 581.36L263.829 585.17L263.827 577.299L263.825 569.429L239.714 549.929C215.366 530.237 172.826 496.166 140.455 470.429C130.77 462.729 122.28 456.369 121.588 456.296C120.895 456.223 117.496 456.603 114.034 457.14ZM81.1532 462.647C79.4072 462.866 77.4732 463.653 76.8552 464.397C74.6122 467.1 78.5362 470.466 150.329 527.43C179.62 550.671 242.246 602.197 256.915 615.125C260.538 618.317 263.688 620.93 263.915 620.931C264.143 620.933 264.184 617.122 264.006 612.464L263.684 603.994L259.006 600.15C256.434 598.036 246.454 589.778 236.829 581.799C217.256 565.573 188.145 542.004 167.934 526.022C160.566 520.196 149.261 511.154 142.812 505.929C136.362 500.704 126.19 492.556 120.207 487.821C114.224 483.087 104.543 475.325 98.6942 470.571C92.8442 465.818 87.2192 462.001 86.1942 462.089C85.1682 462.177 82.9002 462.428 81.1532 462.647ZM86.1752 496.593C86.4692 497.603 87.2172 500.454 87.8362 502.929C90.1362 512.117 91.1822 513.867 97.2742 518.718C107.471 526.838 126.143 541.683 152.329 562.49C166.079 573.415 184.079 587.974 192.329 594.843C209.536 609.17 239.088 634.097 239.829 634.909C242.878 638.247 251.837 644.499 255.585 645.904C265.376 649.574 264.829 649.68 264.829 644.11C264.829 639.166 264.814 639.144 257.58 633.292C253.593 630.068 247.01 624.626 242.951 621.199C238.892 617.773 235.169 615.219 234.676 615.524C234.183 615.828 233.903 615.619 234.054 615.058C234.205 614.497 228.665 609.401 221.743 603.734C214.821 598.066 203.151 588.479 195.809 582.429C175.009 565.289 89.5462 496.929 87.4842 495.783C85.9432 494.926 85.7282 495.06 86.1752 496.593ZM102.101 543.998C105.623 552.336 108.037 556.649 110.867 559.665C113.41 562.375 138.267 583.266 149.256 591.929C151 593.304 160.635 601.404 170.666 609.929C180.698 618.454 190.351 626.189 192.117 627.117C195.513 628.901 219.056 636.035 219.636 635.456C220.333 634.758 195.587 614.961 194.702 615.508C194.194 615.821 193.903 615.61 194.054 615.038C194.321 614.027 162.037 587.59 138.356 569.429C131.902 564.479 126.105 559.965 125.475 559.397C124.208 558.256 105.872 544.266 102.671 541.998C100.69 540.595 100.679 540.634 102.101 543.998ZM125.281 590.429C126.363 598.057 129.475 609.007 130.983 610.486C131.723 611.213 138.404 613.146 145.829 614.781C153.254 616.417 160.211 618.103 161.29 618.53C162.369 618.956 155.619 612.62 146.29 604.45C136.961 596.28 128.259 588.658 126.951 587.512L124.573 585.429L125.281 590.429Z" fill="black"/>
</svg>
