<svg width="202" height="211" viewBox="0 0 202 211" fill="none" xmlns="http://www.w3.org/2000/svg">
<g filter="url(#filter0_d_11402_32057)">
<path fill-rule="evenodd" clip-rule="evenodd" d="M158.557 30.6003C157.931 30.8492 144.741 32.395 133.991 33.479C130.018 33.8797 126.348 34.255 125.837 34.313C122.306 34.7137 108.787 35.9616 101.375 36.5712C92.6563 37.2881 90.0319 37.5003 79.6993 38.3228C76.8608 38.5488 72.216 38.9185 69.3776 39.1446C66.5391 39.3706 62.9162 39.6566 61.3266 39.7798C58.0132 40.0366 55.9579 40.3254 55.4294 40.6082C55.2276 40.7162 54.8694 41.05 54.6336 41.3499L54.2047 41.8951V81.4987V121.102L53.7402 121.207C53.2544 121.317 49.9515 121.851 45.9954 122.46C43.7804 122.801 43.639 122.853 43.031 123.546C42.2777 124.403 42.2682 124.252 43.3772 129.058C44.9459 135.855 47.9933 143.908 51.2289 149.804C52.8684 152.793 53.1166 154.235 52.0862 154.789C51.763 154.963 50.4694 155.022 47.7804 154.987C43.2806 154.929 41.393 155.262 38.6189 156.608C33.4341 159.122 29.4918 164.075 30.7288 166.519C31.6185 168.278 34.6801 168.499 37.0779 166.978C37.7987 166.521 38.1974 166.026 38.9071 164.708C40.401 161.932 42.6084 160.148 45.4711 159.402C46.1213 159.232 46.7059 159.094 46.7699 159.094C46.8341 159.094 46.0897 159.907 45.1158 160.9C44.1418 161.894 42.7496 163.496 42.0222 164.461C41.2945 165.426 40.015 167.041 39.1789 168.049C37.2149 170.417 36.7211 171.405 36.981 172.447C37.3565 173.954 39.2615 174.606 40.9617 173.811C42.6285 173.031 43.7868 171.486 45.7654 167.404C47.6725 163.469 48.518 162.096 48.8923 162.328C49.0126 162.402 49.0465 162.362 48.9691 162.237C48.8929 162.113 48.9251 161.954 49.0405 161.883C49.3303 161.704 49.2988 162.267 48.9305 163.842C48.2216 166.873 47.0596 169.306 44.8786 172.327C43.6584 174.016 42.6448 176.124 42.6446 176.972C42.6444 177.927 43.4391 178.963 44.4393 179.312C45.6052 179.718 46.7206 179.339 47.9101 178.133C50.0766 175.935 51.411 171.734 52.5732 163.448C52.8116 161.749 52.8232 161.724 53.1176 162.286C53.7257 163.446 54.2212 165.221 54.3304 166.629C54.4761 168.51 53.9834 170.4 52.5272 173.544C51.5247 175.709 51.4273 176.049 51.4228 177.403C51.418 178.813 51.4529 178.924 52.1162 179.609C53.0026 180.524 53.9877 180.715 55.5201 180.27C57.9574 179.562 59.4733 176.767 59.4477 173.028C59.4341 171.012 59.1446 169.399 57.9042 164.423C57.4603 162.643 57.1573 161.029 57.2308 160.838C57.3392 160.555 57.5454 160.511 58.3133 160.603C59.6238 160.761 68.4077 163.325 78.4607 166.484C87.1608 169.218 86.6635 169.097 87.5215 168.69C87.9389 168.492 88.3778 168.148 88.4965 167.926C88.6371 167.663 88.7043 164.8 88.6891 159.72L88.666 151.917L89.137 151.802C90.6731 151.429 120.104 145.658 131.411 143.513C138.628 142.144 138.913 142.089 146.481 140.641C149.717 140.022 156.266 138.802 161.034 137.929C165.803 137.057 169.912 136.213 170.166 136.053C170.419 135.893 170.679 135.554 170.743 135.3C170.806 135.046 170.439 130.24 169.927 124.619C169.415 118.999 168.855 112.682 168.683 110.582C168.511 108.481 168.18 104.533 167.948 101.809C167.717 99.0836 167.342 94.5317 167.115 91.6932C166.888 88.8548 166.568 84.8603 166.403 82.8166C166.238 80.7729 165.917 76.639 165.689 73.6302C165.461 70.6215 165.131 66.3018 164.956 64.0311C164.782 61.7603 164.224 54.0035 163.718 46.7938C162.601 30.8872 162.675 31.591 162.058 30.9739C161.636 30.552 161.378 30.4878 160.166 30.5018C159.395 30.5107 158.671 30.5551 158.557 30.6003ZM154.841 35.0508C153.51 35.2777 142.396 36.5584 137.191 37.0846C133.13 37.495 125.38 38.1975 112.109 39.3578C108.136 39.7053 103.862 40.0919 102.613 40.217C101.365 40.3421 99.7389 40.5031 99.0009 40.5746L97.659 40.7046L99.3126 40.9653C100.222 41.1088 102.544 41.5974 104.473 42.0514C114.965 44.5197 126.418 49.083 134.879 54.1658C136.162 54.9366 137.447 55.7066 137.734 55.8769C138.238 56.1764 138.283 56.1562 139.095 55.2576C140.717 53.461 148.29 44.5777 151.94 40.1879C153.971 37.7468 155.818 35.5407 156.046 35.2851C156.507 34.7694 156.5 34.768 154.841 35.0508ZM152.119 46.126C148.237 50.978 144.359 55.8127 143.5 56.8699C142.641 57.9268 141.945 58.8557 141.951 58.9342C141.958 59.0124 142.569 59.5411 143.311 60.1088C145.15 61.5177 150.2 66.5114 152.078 68.779C156.14 73.6839 159.858 79.6379 162.326 85.1906L163.014 86.7388L162.897 85.397C162.832 84.659 162.59 81.4076 162.359 78.1718C162.127 74.9359 161.669 68.6655 161.341 64.2375C161.012 59.8095 160.439 51.9367 160.068 46.7422C159.696 41.5477 159.343 37.2993 159.284 37.3009C159.225 37.3026 156 41.274 152.119 46.126ZM73.403 42.6802C70.1284 42.8522 58.3135 43.8546 58.1979 43.9704C58.1583 44.01 58.1492 61.2712 58.1779 82.3283L58.2301 120.614L63.1846 119.83C68.5814 118.976 78.6207 117.432 83.2087 116.75C85.6347 116.389 86.165 116.245 86.5116 115.854C87.5438 114.688 93.6998 107.578 97.2423 103.46C99.391 100.962 102.271 97.6179 103.643 96.0283C105.015 94.4388 107.015 92.1164 108.088 90.8675C109.161 89.6186 111.34 87.105 112.932 85.2818C114.523 83.4586 119.123 78.1712 123.154 73.5322C127.184 68.893 131.706 63.6964 133.201 61.9838C135.29 59.5911 135.864 58.8132 135.678 58.6237C135.238 58.1749 130.738 55.6354 127.489 54.0023C110.286 45.3556 92.673 41.6685 73.403 42.6802ZM86.7723 54.6451C84.497 55.0283 82.103 56.0875 80.1107 57.5926C77.9378 59.2341 76.3365 61.5322 75.3365 64.4439C74.8233 65.9381 74.7682 66.3805 74.757 69.0887C74.7465 71.6718 74.8111 72.2942 75.2285 73.6302C77.0216 79.3695 81.2698 83.5366 87.141 85.3152C88.661 85.7756 89.4101 85.8782 91.3628 85.8941C93.4515 85.9108 93.9546 85.8416 95.5493 85.319C96.5464 84.9922 97.9175 84.3884 98.5965 83.9771C101.305 82.3364 103.579 79.449 104.617 76.3314C105.225 74.503 105.276 74.1412 105.28 71.5659C105.285 69.3017 105.197 68.45 104.814 67.0243C103.927 63.7239 101.813 60.4137 99.1487 58.1545C95.8181 55.3301 90.9322 53.9447 86.7723 54.6451ZM135.827 65.6142C133.909 67.9042 131.499 70.7606 130.471 71.962C126.264 76.8797 122.425 81.3905 119.127 85.2938C117.209 87.5645 114.057 91.2804 112.123 93.5511C110.19 95.8219 106.67 99.9557 104.301 102.737C101.932 105.519 99.3235 108.585 98.5038 109.55C97.684 110.515 95.3466 113.255 93.3091 115.64C91.2718 118.024 89.3965 120.243 89.142 120.57L88.6792 121.166V134.659C88.6792 142.081 88.7487 148.151 88.834 148.148C88.9192 148.145 89.3604 148.053 89.8146 147.943C90.7774 147.71 108.784 144.235 122.947 141.548C125.275 141.107 130.384 140.132 134.301 139.382C138.218 138.633 144.117 137.509 147.41 136.886C150.702 136.262 154.836 135.475 156.596 135.136C158.356 134.797 161.375 134.217 163.305 133.847L166.814 133.176L166.799 132.149C166.779 130.861 166.426 126.339 165.786 119.149C165.513 116.083 165.094 111.114 164.854 108.105C164.286 100.962 164.01 99.1746 162.98 95.9914C158.892 83.3531 151.663 72.1274 141.975 63.376C140.803 62.317 139.725 61.4506 139.579 61.4506C139.433 61.4506 137.744 63.3242 135.827 65.6142ZM132.476 88.291C126.791 89.0798 122.025 93.263 120.482 98.8185C118.873 104.613 120.57 110.742 124.998 115.13C127.027 117.14 129.349 118.49 132.148 119.285C134.278 119.891 138.249 119.948 140.288 119.403C146.808 117.658 151.022 111.967 151.022 104.905C151.022 98.1889 147.092 92.2605 140.792 89.4722C138.394 88.4111 135.042 87.9349 132.476 88.291ZM83.7247 120.316C82.9867 120.417 82.2118 120.519 82.0025 120.541C81.5822 120.586 81.6511 120.653 83.9828 122.477L85.1698 123.405V121.741C85.1698 120.826 85.1465 120.09 85.1182 120.104C85.0899 120.119 84.4627 120.214 83.7247 120.316ZM75.777 121.452C75.55 121.5 75.1532 121.584 74.8951 121.639C74.4909 121.726 74.762 122.019 76.8563 123.763C78.1929 124.875 80.5869 126.828 82.1765 128.102L85.0666 130.418L85.1273 129.311C85.1607 128.702 85.0965 127.963 84.9844 127.668C84.863 127.349 83.3078 125.959 81.1307 124.225C77.3624 121.223 77.2169 121.147 75.777 121.452ZM69.8937 122.472C69.7234 122.504 69.05 122.589 68.397 122.66C67.7441 122.732 67.21 122.859 67.21 122.942C67.21 123.025 69.5943 124.992 72.5084 127.314C75.4224 129.635 79.3845 132.812 81.3128 134.373C83.2413 135.935 84.9062 137.212 85.0125 137.212C85.1211 137.212 85.1723 136.601 85.1293 135.819L85.0527 134.425L82.4793 132.296C81.0638 131.124 78.7445 129.225 77.3253 128.075C75.9061 126.925 73.9553 125.321 72.9902 124.511C70.9696 122.814 70.3268 122.391 69.8937 122.472ZM61.4726 123.676C60.7581 123.798 60.1543 123.982 60.1308 124.087C60.0876 124.278 63.0124 126.671 73.0149 134.629C76.0101 137.012 79.6683 139.943 81.1443 141.144C82.6203 142.345 84.1448 143.547 84.5321 143.817L85.2363 144.306L85.0998 143.311C85.0247 142.763 84.9633 142.068 84.9633 141.765C84.9633 141.2 84.9144 141.157 75.9019 133.85C74.8113 132.965 73.5011 131.891 72.9902 131.462C70.8792 129.688 63.4323 123.776 63.1146 123.622C62.9261 123.531 62.1871 123.555 61.4726 123.676ZM54.0405 124.869C52.8979 125.047 52.7733 125.11 53.008 125.392C53.1545 125.569 57.8268 129.363 63.3906 133.824C74.2366 142.519 78.7268 146.15 81.3508 148.345C82.2591 149.105 83.4434 150.08 83.9828 150.513L84.9633 151.299L84.9629 149.674L84.9625 148.05L79.9852 144.024C74.9589 139.959 66.1772 132.926 59.4948 127.613C57.4954 126.023 55.7428 124.71 55.6 124.695C55.4569 124.68 54.7552 124.759 54.0405 124.869ZM47.2528 126.006C46.8924 126.052 46.4931 126.214 46.3655 126.368C45.9025 126.926 46.7126 127.62 61.5331 139.38C67.5797 144.177 80.5079 154.814 83.5361 157.483C84.284 158.142 84.9342 158.681 84.9811 158.682C85.0282 158.682 85.0366 157.895 84.9999 156.934L84.9334 155.185L83.9677 154.392C83.4368 153.955 81.3766 152.25 79.3896 150.603C75.3491 147.254 69.3396 142.388 65.1674 139.089C63.6463 137.886 61.3126 136.02 59.9813 134.941C58.6498 133.863 56.55 132.181 55.3149 131.203C54.0798 130.226 52.0813 128.623 50.8738 127.642C49.6662 126.661 48.505 125.873 48.2934 125.891C48.0816 125.909 47.6134 125.961 47.2528 126.006ZM48.2895 133.014C48.3502 133.222 48.5046 133.811 48.6324 134.322C49.1072 136.219 49.3231 136.58 50.5807 137.581C52.6857 139.258 56.5403 142.322 61.9459 146.617C64.7844 148.873 68.5002 151.878 70.2033 153.296C73.7554 156.254 79.856 161.399 80.0089 161.567C80.6384 162.256 82.4878 163.547 83.2615 163.837C85.2827 164.594 85.1698 164.616 85.1698 163.466C85.1698 162.446 85.1667 162.441 83.6733 161.233C82.8503 160.568 81.4913 159.444 80.6534 158.737C79.8155 158.03 79.0469 157.502 78.9452 157.565C78.8434 157.628 78.7856 157.585 78.8168 157.469C78.8479 157.353 77.7043 156.301 76.2754 155.131C74.8464 153.961 72.4373 151.982 70.9217 150.733C66.6279 147.195 48.9854 133.083 48.5597 132.847C48.2416 132.67 48.1972 132.697 48.2895 133.014ZM51.5772 142.8C52.3042 144.521 52.8026 145.412 53.3868 146.034C53.9117 146.594 59.0431 150.906 61.3116 152.695C61.6716 152.978 63.6606 154.65 65.7313 156.41C67.8023 158.17 69.795 159.767 70.1595 159.959C70.8606 160.327 75.7207 161.799 75.8404 161.68C75.9843 161.536 70.8759 157.449 70.6932 157.562C70.5883 157.627 70.5282 157.583 70.5594 157.465C70.6145 157.256 63.95 151.799 59.0614 148.05C57.7291 147.028 56.5324 146.096 56.4024 145.979C56.1408 145.743 52.3556 142.855 51.6948 142.387C51.2859 142.097 51.2836 142.105 51.5772 142.8ZM56.3623 152.385C56.5857 153.96 57.2281 156.22 57.5394 156.525C57.6922 156.675 59.0714 157.074 60.6041 157.412C62.1369 157.75 63.5731 158.098 63.7958 158.186C64.0185 158.274 62.6251 156.966 60.6993 155.279C58.7735 153.593 56.9771 152.019 56.7071 151.783L56.2162 151.353L56.3623 152.385Z" fill="white"/>
<path fill-rule="evenodd" clip-rule="evenodd" d="M158.557 30.6003C157.931 30.8492 144.741 32.395 133.991 33.479C130.018 33.8797 126.348 34.255 125.837 34.313C122.306 34.7137 108.787 35.9616 101.375 36.5712C92.6563 37.2881 90.0319 37.5003 79.6993 38.3228C76.8608 38.5488 72.216 38.9185 69.3776 39.1446C66.5391 39.3706 62.9162 39.6566 61.3266 39.7798C58.0132 40.0366 55.9579 40.3254 55.4294 40.6082C55.2276 40.7162 54.8694 41.05 54.6336 41.3499L54.2047 41.8951V81.4987V121.102L53.7402 121.207C53.2544 121.317 49.9515 121.851 45.9954 122.46C43.7804 122.801 43.639 122.853 43.031 123.546C42.2777 124.403 42.2682 124.252 43.3772 129.058C44.9459 135.855 47.9933 143.908 51.2289 149.804C52.8684 152.793 53.1166 154.235 52.0862 154.789C51.763 154.963 50.4694 155.022 47.7804 154.987C43.2806 154.929 41.393 155.262 38.6189 156.608C33.4341 159.122 29.4918 164.075 30.7288 166.519C31.6185 168.278 34.6801 168.499 37.0779 166.978C37.7987 166.521 38.1974 166.026 38.9071 164.708C40.401 161.932 42.6084 160.148 45.4711 159.402C46.1213 159.232 46.7059 159.094 46.7699 159.094C46.8341 159.094 46.0897 159.907 45.1158 160.9C44.1418 161.894 42.7496 163.496 42.0222 164.461C41.2945 165.426 40.015 167.041 39.1789 168.049C37.2149 170.417 36.7211 171.405 36.981 172.447C37.3565 173.954 39.2615 174.606 40.9617 173.811C42.6285 173.031 43.7868 171.486 45.7654 167.404C47.6725 163.469 48.518 162.096 48.8923 162.328C49.0126 162.402 49.0465 162.362 48.9691 162.237C48.8929 162.113 48.9251 161.954 49.0405 161.883C49.3303 161.704 49.2988 162.267 48.9305 163.842C48.2216 166.873 47.0596 169.306 44.8786 172.327C43.6584 174.016 42.6448 176.124 42.6446 176.972C42.6444 177.927 43.4391 178.963 44.4393 179.312C45.6052 179.718 46.7206 179.339 47.9101 178.133C50.0766 175.935 51.411 171.734 52.5732 163.448C52.8116 161.749 52.8232 161.724 53.1176 162.286C53.7257 163.446 54.2212 165.221 54.3304 166.629C54.4761 168.51 53.9834 170.4 52.5272 173.544C51.5247 175.709 51.4273 176.049 51.4228 177.403C51.418 178.813 51.4529 178.924 52.1162 179.609C53.0026 180.524 53.9877 180.715 55.5201 180.27C57.9574 179.562 59.4733 176.767 59.4477 173.028C59.4341 171.012 59.1446 169.399 57.9042 164.423C57.4603 162.643 57.1573 161.029 57.2308 160.838C57.3392 160.555 57.5454 160.511 58.3133 160.603C59.6238 160.761 68.4077 163.325 78.4607 166.484C87.1608 169.218 86.6635 169.097 87.5215 168.69C87.9389 168.492 88.3778 168.148 88.4965 167.926C88.6371 167.663 88.7043 164.8 88.6891 159.72L88.666 151.917L89.137 151.802C90.6731 151.429 120.104 145.658 131.411 143.513C138.628 142.144 138.913 142.089 146.481 140.641C149.717 140.022 156.266 138.802 161.034 137.929C165.803 137.057 169.912 136.213 170.166 136.053C170.419 135.893 170.679 135.554 170.743 135.3C170.806 135.046 170.439 130.24 169.927 124.619C169.415 118.999 168.855 112.682 168.683 110.582C168.511 108.481 168.18 104.533 167.948 101.809C167.717 99.0836 167.342 94.5317 167.115 91.6932C166.888 88.8548 166.568 84.8603 166.403 82.8166C166.238 80.7729 165.917 76.639 165.689 73.6302C165.461 70.6215 165.131 66.3018 164.956 64.0311C164.782 61.7603 164.224 54.0035 163.718 46.7938C162.601 30.8872 162.675 31.591 162.058 30.9739C161.636 30.552 161.378 30.4878 160.166 30.5018C159.395 30.5107 158.671 30.5551 158.557 30.6003ZM154.841 35.0508C153.51 35.2777 142.396 36.5584 137.191 37.0846C133.13 37.495 125.38 38.1975 112.109 39.3578C108.136 39.7053 103.862 40.0919 102.613 40.217C101.365 40.3421 99.7389 40.5031 99.0009 40.5746L97.659 40.7046L99.3126 40.9653C100.222 41.1088 102.544 41.5974 104.473 42.0514C114.965 44.5197 126.418 49.083 134.879 54.1658C136.162 54.9366 137.447 55.7066 137.734 55.8769C138.238 56.1764 138.283 56.1562 139.095 55.2576C140.717 53.461 148.29 44.5777 151.94 40.1879C153.971 37.7468 155.818 35.5407 156.046 35.2851C156.507 34.7694 156.5 34.768 154.841 35.0508ZM152.119 46.126C148.237 50.978 144.359 55.8127 143.5 56.8699C142.641 57.9268 141.945 58.8557 141.951 58.9342C141.958 59.0124 142.569 59.5411 143.311 60.1088C145.15 61.5177 150.2 66.5114 152.078 68.779C156.14 73.6839 159.858 79.6379 162.326 85.1906L163.014 86.7388L162.897 85.397C162.832 84.659 162.59 81.4076 162.359 78.1718C162.127 74.9359 161.669 68.6655 161.341 64.2375C161.012 59.8095 160.439 51.9367 160.068 46.7422C159.696 41.5477 159.343 37.2993 159.284 37.3009C159.225 37.3026 156 41.274 152.119 46.126ZM73.403 42.6802C70.1284 42.8522 58.3135 43.8546 58.1979 43.9704C58.1583 44.01 58.1492 61.2712 58.1779 82.3283L58.2301 120.614L63.1846 119.83C68.5814 118.976 78.6207 117.432 83.2087 116.75C85.6347 116.389 86.165 116.245 86.5116 115.854C87.5438 114.688 93.6998 107.578 97.2423 103.46C99.391 100.962 102.271 97.6179 103.643 96.0283C105.015 94.4388 107.015 92.1164 108.088 90.8675C109.161 89.6186 111.34 87.105 112.932 85.2818C114.523 83.4586 119.123 78.1712 123.154 73.5322C127.184 68.893 131.706 63.6964 133.201 61.9838C135.29 59.5911 135.864 58.8132 135.678 58.6237C135.238 58.1749 130.738 55.6354 127.489 54.0023C110.286 45.3556 92.673 41.6685 73.403 42.6802ZM86.7723 54.6451C84.497 55.0283 82.103 56.0875 80.1107 57.5926C77.9378 59.2341 76.3365 61.5322 75.3365 64.4439C74.8233 65.9381 74.7682 66.3805 74.757 69.0887C74.7465 71.6718 74.8111 72.2942 75.2285 73.6302C77.0216 79.3695 81.2698 83.5366 87.141 85.3152C88.661 85.7756 89.4101 85.8782 91.3628 85.8941C93.4515 85.9108 93.9546 85.8416 95.5493 85.319C96.5464 84.9922 97.9175 84.3884 98.5965 83.9771C101.305 82.3364 103.579 79.449 104.617 76.3314C105.225 74.503 105.276 74.1412 105.28 71.5659C105.285 69.3017 105.197 68.45 104.814 67.0243C103.927 63.7239 101.813 60.4137 99.1487 58.1545C95.8181 55.3301 90.9322 53.9447 86.7723 54.6451ZM135.827 65.6142C133.909 67.9042 131.499 70.7606 130.471 71.962C126.264 76.8797 122.425 81.3905 119.127 85.2938C117.209 87.5645 114.057 91.2804 112.123 93.5511C110.19 95.8219 106.67 99.9557 104.301 102.737C101.932 105.519 99.3235 108.585 98.5038 109.55C97.684 110.515 95.3466 113.255 93.3091 115.64C91.2718 118.024 89.3965 120.243 89.142 120.57L88.6792 121.166V134.659C88.6792 142.081 88.7487 148.151 88.834 148.148C88.9192 148.145 89.3604 148.053 89.8146 147.943C90.7774 147.71 108.784 144.235 122.947 141.548C125.275 141.107 130.384 140.132 134.301 139.382C138.218 138.633 144.117 137.509 147.41 136.886C150.702 136.262 154.836 135.475 156.596 135.136C158.356 134.797 161.375 134.217 163.305 133.847L166.814 133.176L166.799 132.149C166.779 130.861 166.426 126.339 165.786 119.149C165.513 116.083 165.094 111.114 164.854 108.105C164.286 100.962 164.01 99.1746 162.98 95.9914C158.892 83.3531 151.663 72.1274 141.975 63.376C140.803 62.317 139.725 61.4506 139.579 61.4506C139.433 61.4506 137.744 63.3242 135.827 65.6142ZM132.476 88.291C126.791 89.0798 122.025 93.263 120.482 98.8185C118.873 104.613 120.57 110.742 124.998 115.13C127.027 117.14 129.349 118.49 132.148 119.285C134.278 119.891 138.249 119.948 140.288 119.403C146.808 117.658 151.022 111.967 151.022 104.905C151.022 98.1889 147.092 92.2605 140.792 89.4722C138.394 88.4111 135.042 87.9349 132.476 88.291ZM83.7247 120.316C82.9867 120.417 82.2118 120.519 82.0025 120.541C81.5822 120.586 81.6511 120.653 83.9828 122.477L85.1698 123.405V121.741C85.1698 120.826 85.1465 120.09 85.1182 120.104C85.0899 120.119 84.4627 120.214 83.7247 120.316ZM75.777 121.452C75.55 121.5 75.1532 121.584 74.8951 121.639C74.4909 121.726 74.762 122.019 76.8563 123.763C78.1929 124.875 80.5869 126.828 82.1765 128.102L85.0666 130.418L85.1273 129.311C85.1607 128.702 85.0965 127.963 84.9844 127.668C84.863 127.349 83.3078 125.959 81.1307 124.225C77.3624 121.223 77.2169 121.147 75.777 121.452ZM69.8937 122.472C69.7234 122.504 69.05 122.589 68.397 122.66C67.7441 122.732 67.21 122.859 67.21 122.942C67.21 123.025 69.5943 124.992 72.5084 127.314C75.4224 129.635 79.3845 132.812 81.3128 134.373C83.2413 135.935 84.9062 137.212 85.0125 137.212C85.1211 137.212 85.1723 136.601 85.1293 135.819L85.0527 134.425L82.4793 132.296C81.0638 131.124 78.7445 129.225 77.3253 128.075C75.9061 126.925 73.9553 125.321 72.9902 124.511C70.9696 122.814 70.3268 122.391 69.8937 122.472ZM61.4726 123.676C60.7581 123.798 60.1543 123.982 60.1308 124.087C60.0876 124.278 63.0124 126.671 73.0149 134.629C76.0101 137.012 79.6683 139.943 81.1443 141.144C82.6203 142.345 84.1448 143.547 84.5321 143.817L85.2363 144.306L85.0998 143.311C85.0247 142.763 84.9633 142.068 84.9633 141.765C84.9633 141.2 84.9144 141.157 75.9019 133.85C74.8113 132.965 73.5011 131.891 72.9902 131.462C70.8792 129.688 63.4323 123.776 63.1146 123.622C62.9261 123.531 62.1871 123.555 61.4726 123.676ZM54.0405 124.869C52.8979 125.047 52.7733 125.11 53.008 125.392C53.1545 125.569 57.8268 129.363 63.3906 133.824C74.2366 142.519 78.7268 146.15 81.3508 148.345C82.2591 149.105 83.4434 150.08 83.9828 150.513L84.9633 151.299L84.9629 149.674L84.9625 148.05L79.9852 144.024C74.9589 139.959 66.1772 132.926 59.4948 127.613C57.4954 126.023 55.7428 124.71 55.6 124.695C55.4569 124.68 54.7552 124.759 54.0405 124.869ZM47.2528 126.006C46.8924 126.052 46.4931 126.214 46.3655 126.368C45.9025 126.926 46.7126 127.62 61.5331 139.38C67.5797 144.177 80.5079 154.814 83.5361 157.483C84.284 158.142 84.9342 158.681 84.9811 158.682C85.0282 158.682 85.0366 157.895 84.9999 156.934L84.9334 155.185L83.9677 154.392C83.4368 153.955 81.3766 152.25 79.3896 150.603C75.3491 147.254 69.3396 142.388 65.1674 139.089C63.6463 137.886 61.3126 136.02 59.9813 134.941C58.6498 133.863 56.55 132.181 55.3149 131.203C54.0798 130.226 52.0813 128.623 50.8738 127.642C49.6662 126.661 48.505 125.873 48.2934 125.891C48.0816 125.909 47.6134 125.961 47.2528 126.006ZM48.2895 133.014C48.3502 133.222 48.5046 133.811 48.6324 134.322C49.1072 136.219 49.3231 136.58 50.5807 137.581C52.6857 139.258 56.5403 142.322 61.9459 146.617C64.7844 148.873 68.5002 151.878 70.2033 153.296C73.7554 156.254 79.856 161.399 80.0089 161.567C80.6384 162.256 82.4878 163.547 83.2615 163.837C85.2827 164.594 85.1698 164.616 85.1698 163.466C85.1698 162.446 85.1667 162.441 83.6733 161.233C82.8503 160.568 81.4913 159.444 80.6534 158.737C79.8155 158.03 79.0469 157.502 78.9452 157.565C78.8434 157.628 78.7856 157.585 78.8168 157.469C78.8479 157.353 77.7043 156.301 76.2754 155.131C74.8464 153.961 72.4373 151.982 70.9217 150.733C66.6279 147.195 48.9854 133.083 48.5597 132.847C48.2416 132.67 48.1972 132.697 48.2895 133.014ZM51.5772 142.8C52.3042 144.521 52.8026 145.412 53.3868 146.034C53.9117 146.594 59.0431 150.906 61.3116 152.695C61.6716 152.978 63.6606 154.65 65.7313 156.41C67.8023 158.17 69.795 159.767 70.1595 159.959C70.8606 160.327 75.7207 161.799 75.8404 161.68C75.9843 161.536 70.8759 157.449 70.6932 157.562C70.5883 157.627 70.5282 157.583 70.5594 157.465C70.6145 157.256 63.95 151.799 59.0614 148.05C57.7291 147.028 56.5324 146.096 56.4024 145.979C56.1408 145.743 52.3556 142.855 51.6948 142.387C51.2859 142.097 51.2836 142.105 51.5772 142.8ZM56.3623 152.385C56.5857 153.96 57.2281 156.22 57.5394 156.525C57.6922 156.675 59.0714 157.074 60.6041 157.412C62.1369 157.75 63.5731 158.098 63.7958 158.186C64.0185 158.274 62.6251 156.966 60.6993 155.279C58.7735 153.593 56.9771 152.019 56.7071 151.783L56.2162 151.353L56.3623 152.385Z" stroke="white"/>
</g>
<defs>
<filter id="filter0_d_11402_32057" x="0" y="0" width="201.25" height="211" filterUnits="userSpaceOnUse" color-interpolation-filters="sRGB">
<feFlood flood-opacity="0" result="BackgroundImageFix"/>
<feColorMatrix in="SourceAlpha" type="matrix" values="0 0 0 0 0 0 0 0 0 0 0 0 0 0 0 0 0 0 127 0" result="hardAlpha"/>
<feOffset/>
<feGaussianBlur stdDeviation="15"/>
<feComposite in2="hardAlpha" operator="out"/>
<feColorMatrix type="matrix" values="0 0 0 0 1 0 0 0 0 1 0 0 0 0 1 0 0 0 0.5 0"/>
<feBlend mode="normal" in2="BackgroundImageFix" result="effect1_dropShadow_11402_32057"/>
<feBlend mode="normal" in="SourceGraphic" in2="effect1_dropShadow_11402_32057" result="shape"/>
</filter>
</defs>
</svg>
