<svg width="166" height="170" viewBox="0 0 166 170" fill="none" xmlns="http://www.w3.org/2000/svg">
<g filter="url(#filter0_d_11653_21394)">
<mask id="path-1-inside-1_11653_21394" fill="white">
<path fill-rule="evenodd" clip-rule="evenodd" d="M55.67 50.0466C55.9611 50.1624 62.0954 50.8813 67.0946 51.3854C68.9427 51.5717 70.6492 51.7463 70.8868 51.7732C72.5289 51.9596 78.816 52.5399 82.2634 52.8234C86.318 53.1569 87.5385 53.2556 92.3439 53.638C93.6639 53.7432 95.824 53.9151 97.1441 54.0202C98.4642 54.1254 100.149 54.2583 100.888 54.3156C102.429 54.4351 103.385 54.5694 103.631 54.7009C103.725 54.7511 103.891 54.9064 104.001 55.0459L104.2 55.2994V73.7175V92.1357L104.416 92.1844C104.642 92.2354 106.178 92.484 108.018 92.7673C109.048 92.9259 109.114 92.9499 109.397 93.272C109.747 93.6709 109.752 93.6006 109.236 95.8355C108.506 98.9967 107.089 102.742 105.584 105.484C104.822 106.874 104.706 107.544 105.186 107.802C105.336 107.883 105.938 107.911 107.188 107.894C109.281 107.867 110.159 108.022 111.449 108.648C113.86 109.817 115.693 112.121 115.118 113.257C114.704 114.075 113.281 114.178 112.165 113.471C111.83 113.258 111.645 113.028 111.315 112.415C110.62 111.124 109.593 110.294 108.262 109.947C107.96 109.869 107.688 109.804 107.658 109.804C107.628 109.804 107.974 110.182 108.427 110.644C108.88 111.106 109.528 111.852 109.866 112.3C110.204 112.749 110.8 113.5 111.188 113.969C112.102 115.07 112.331 115.529 112.211 116.014C112.036 116.715 111.15 117.018 110.359 116.649C109.584 116.286 109.045 115.567 108.125 113.669C107.238 111.839 106.845 111.2 106.671 111.308C106.615 111.343 106.599 111.324 106.635 111.266C106.671 111.208 106.656 111.134 106.602 111.101C106.467 111.018 106.482 111.28 106.653 112.012C106.983 113.422 107.523 114.554 108.538 115.958C109.105 116.744 109.577 117.724 109.577 118.118C109.577 118.563 109.207 119.045 108.742 119.207C108.2 119.396 107.681 119.219 107.128 118.658C106.12 117.636 105.5 115.682 104.959 111.829C104.848 111.039 104.843 111.027 104.706 111.289C104.423 111.828 104.193 112.654 104.142 113.308C104.074 114.183 104.303 115.062 104.981 116.525C105.447 117.531 105.492 117.689 105.494 118.319C105.496 118.975 105.48 119.026 105.172 119.345C104.759 119.771 104.301 119.86 103.589 119.652C102.455 119.323 101.75 118.023 101.762 116.285C101.768 115.347 101.903 114.597 102.48 112.283C102.686 111.455 102.827 110.704 102.793 110.615C102.743 110.484 102.647 110.463 102.29 110.506C101.68 110.579 97.5951 111.772 92.9199 113.241C88.8738 114.513 89.105 114.456 88.706 114.267C88.5119 114.175 88.3078 114.015 88.2526 113.912C88.1872 113.79 88.1559 112.458 88.163 110.095L88.1738 106.466L87.9547 106.413C87.2403 106.24 73.5532 103.556 68.2947 102.558C64.9382 101.921 64.8059 101.896 61.2863 101.223C59.7814 100.935 56.7357 100.367 54.518 99.9613C52.3003 99.5557 50.3893 99.1629 50.2713 99.0885C50.1533 99.0141 50.0325 98.8566 50.003 98.7384C49.9734 98.6203 50.144 96.3851 50.3823 93.7714C50.6205 91.1577 50.8808 88.2199 50.9609 87.2431C51.041 86.2662 51.1947 84.4301 51.3025 83.1629C51.4102 81.8956 51.5846 79.7787 51.6901 78.4586C51.7955 77.1386 51.9445 75.2809 52.0212 74.3304C52.0979 73.38 52.2474 71.4575 52.3533 70.0582C52.4593 68.6589 52.6126 66.65 52.694 65.594C52.7753 64.5379 53.0346 60.9306 53.27 57.5776C53.7895 50.18 53.7551 50.5073 54.0421 50.2204C54.2383 50.0241 54.3579 49.9943 54.9217 50.0008C55.2804 50.0049 55.6172 50.0256 55.67 50.0466ZM57.3981 52.1164C58.0172 52.2219 63.1861 52.8175 65.6065 53.0622C67.495 53.2531 71.0995 53.5798 77.2711 54.1194C79.1192 54.281 81.1065 54.4608 81.6873 54.519C82.2682 54.5772 83.0242 54.652 83.3674 54.6853L83.9914 54.7457L83.2224 54.867C82.7995 54.9337 81.7195 55.161 80.8223 55.3721C75.9431 56.52 70.6165 58.6422 66.6817 61.006C66.085 61.3645 65.4876 61.7226 65.3542 61.8018C65.1196 61.9411 65.0989 61.9317 64.7214 61.5138C63.9666 60.6783 60.4448 56.547 58.7472 54.5054C57.8031 53.3702 56.9438 52.3442 56.8376 52.2253C56.6234 51.9855 56.6267 51.9848 57.3981 52.1164ZM58.6643 57.267C60.4696 59.5235 62.2732 61.7719 62.6725 62.2636C63.0718 62.7551 63.3959 63.1872 63.3928 63.2236C63.3899 63.26 63.1053 63.5059 62.7606 63.7699C61.9051 64.4251 59.5566 66.7475 58.6831 67.8021C56.794 70.0832 55.0649 72.8521 53.9173 75.4345L53.5973 76.1545L53.6518 75.5305C53.6818 75.1873 53.7945 73.6752 53.9021 72.1703C54.0098 70.6654 54.2229 67.7493 54.3755 65.69C54.5282 63.6307 54.7947 59.9694 54.9676 57.5536C55.1405 55.1378 55.3044 53.162 55.332 53.1628C55.3595 53.1636 56.859 55.0105 58.6643 57.267ZM95.272 55.6645C96.7949 55.7445 102.29 56.2107 102.343 56.2645C102.362 56.283 102.366 64.3105 102.353 74.1034L102.328 91.9088L100.024 91.5442C97.5144 91.147 92.8455 90.4287 90.7118 90.1115C89.5835 89.9438 89.3369 89.8769 89.1757 89.6948C88.6957 89.1528 85.8327 85.8461 84.1853 83.9309C83.186 82.7692 81.8464 81.214 81.2084 80.4747C80.5703 79.7355 79.6401 78.6554 79.1414 78.0746C78.6425 77.4938 77.6288 76.3248 76.8887 75.4769C76.1486 74.629 74.0093 72.17 72.1349 70.0126C70.2604 67.8551 68.1577 65.4384 67.4623 64.6419C66.4905 63.5291 66.2238 63.1674 66.3102 63.0792C66.5148 62.8705 68.6077 61.6895 70.1188 60.93C78.119 56.9087 86.3102 55.194 95.272 55.6645ZM89.0545 61.2289C90.1126 61.4071 91.226 61.8997 92.1525 62.5997C93.1631 63.3631 93.9078 64.4319 94.3728 65.786C94.6115 66.4809 94.6371 66.6866 94.6423 67.9461C94.6472 69.1474 94.6172 69.4369 94.423 70.0582C93.5891 72.7273 91.6135 74.6653 88.883 75.4925C88.1761 75.7066 87.8277 75.7543 86.9196 75.7617C85.9482 75.7694 85.7143 75.7373 84.9726 75.4942C84.5089 75.3422 83.8712 75.0614 83.5555 74.8702C82.2958 74.1071 81.2385 72.7643 80.7558 71.3144C80.4727 70.4641 80.4493 70.2958 80.447 69.0982C80.4451 68.0452 80.4858 67.6491 80.6639 66.9861C81.0765 65.4511 82.0597 63.9117 83.2987 62.861C84.8476 61.5475 87.1199 60.9032 89.0545 61.2289ZM66.2411 66.3303C67.1329 67.3952 68.2538 68.7237 68.7318 69.2824C70.6885 71.5694 72.4737 73.6672 74.0074 75.4825C74.8997 76.5385 76.3655 78.2666 77.2646 79.3227C78.1638 80.3787 79.8008 82.3012 80.9025 83.5949C82.0041 84.8886 83.2174 86.3142 83.5986 86.7631C83.9798 87.2119 85.0669 88.4863 86.0145 89.5952C86.9619 90.704 87.834 91.7359 87.9524 91.8883L88.1677 92.1652V98.4406C88.1677 101.892 88.1353 104.715 88.0957 104.714C88.056 104.712 87.8508 104.67 87.6396 104.618C87.1919 104.51 78.8178 102.894 72.2309 101.644C71.1484 101.439 68.7723 100.986 66.9506 100.637C65.1289 100.288 62.3856 99.7659 60.8543 99.476C59.323 99.1861 57.4005 98.8198 56.5821 98.6622C55.7636 98.5044 54.3596 98.2349 53.4619 98.063L51.8298 97.7506L51.8372 97.2731C51.8464 96.6741 52.0103 94.571 52.3081 91.2273C52.4351 89.8016 52.6301 87.4903 52.7414 86.091C53.0055 82.769 53.1341 81.9379 53.6129 80.4576C55.5142 74.5799 58.8764 69.3593 63.3816 65.2894C63.9267 64.7969 64.4284 64.3939 64.4962 64.3939C64.564 64.3939 65.3492 65.2653 66.2411 66.3303ZM67.7992 76.8764C70.4434 77.2432 72.6599 79.1887 73.3773 81.7723C74.1255 84.4672 73.3364 87.3175 71.2771 89.3582C70.3335 90.2931 69.2538 90.9207 67.9521 91.2907C66.9613 91.5723 65.1145 91.599 64.1665 91.3453C61.1339 90.5338 59.1742 87.8871 59.1742 84.6029C59.1742 81.4795 61.0019 78.7225 63.932 77.4257C65.047 76.9323 66.606 76.7108 67.7992 76.8764ZM90.4718 91.7698C90.815 91.8171 91.1754 91.8644 91.2727 91.8747C91.4682 91.8955 91.4361 91.9268 90.3518 92.7749L89.7997 93.2066V92.4329C89.7997 92.0074 89.8106 91.6648 89.8237 91.6715C89.8369 91.6782 90.1286 91.7224 90.4718 91.7698ZM94.168 92.2982C94.2736 92.3206 94.4581 92.3597 94.5781 92.3854C94.7661 92.4256 94.64 92.562 93.666 93.3729C93.0444 93.8904 91.931 94.7985 91.1918 95.3908L89.8477 96.468L89.8195 95.9532C89.804 95.6701 89.8338 95.3264 89.886 95.1893C89.9424 95.0408 90.6657 94.3945 91.6782 93.5877C93.4306 92.1916 93.4983 92.1566 94.168 92.2982ZM96.9041 92.7726C96.9833 92.7873 97.2965 92.8269 97.6001 92.8603C97.9038 92.8938 98.1522 92.9527 98.1522 92.9912C98.1522 93.0297 97.0433 93.9446 95.6881 95.0244C94.3329 96.1041 92.4903 97.5816 91.5935 98.3076C90.6966 99.0337 89.9223 99.6277 89.8729 99.6277C89.8224 99.6277 89.7986 99.3436 89.8186 98.9797L89.8542 98.3316L91.051 97.3412C91.7093 96.7965 92.7879 95.9133 93.4479 95.3785C94.108 94.8438 95.0152 94.0978 95.464 93.7209C96.4037 92.9317 96.7027 92.7348 96.9041 92.7726ZM100.82 93.3328C101.153 93.3892 101.434 93.4751 101.444 93.5237C101.465 93.6127 100.104 94.7256 95.4525 98.4264C94.0596 99.5345 92.3583 100.898 91.6718 101.456C90.9854 102.015 90.2764 102.574 90.0963 102.699L89.7688 102.927L89.8323 102.464C89.8672 102.209 89.8957 101.886 89.8957 101.745C89.8957 101.482 89.9185 101.462 94.1099 98.064C94.6171 97.6528 95.2264 97.153 95.464 96.9534C96.4458 96.1285 99.909 93.3793 100.057 93.3076C100.144 93.265 100.488 93.2763 100.82 93.3328ZM104.277 93.8877C104.808 93.97 104.866 93.9994 104.757 94.1308C104.689 94.2131 102.516 95.9776 99.9284 98.0521C94.8843 102.096 92.7961 103.784 91.5758 104.805C91.1534 105.159 90.6026 105.612 90.3518 105.813L89.8957 106.179L89.8959 105.424L89.8961 104.668L92.2109 102.796C94.5484 100.905 98.6325 97.6343 101.74 95.1635C102.67 94.4242 103.485 93.8136 103.552 93.8066C103.618 93.7996 103.944 93.8361 104.277 93.8877ZM107.434 94.4164C107.601 94.4374 107.787 94.5129 107.846 94.5844C108.061 94.8439 107.685 95.167 100.792 100.636C97.9802 102.867 91.9678 107.814 90.5595 109.055C90.2117 109.361 89.9093 109.612 89.8875 109.612C89.8656 109.613 89.8617 109.247 89.8787 108.8L89.9097 107.986L90.3588 107.617C90.6057 107.414 91.5638 106.622 92.4879 105.856C94.367 104.298 97.1618 102.035 99.1021 100.501C99.8095 99.9413 100.895 99.0733 101.514 98.5716C102.133 98.07 103.11 97.2878 103.684 96.8332C104.259 96.3787 105.188 95.6335 105.749 95.1771C106.311 94.7208 106.851 94.3543 106.95 94.3628C107.048 94.3712 107.266 94.3953 107.434 94.4164ZM106.951 97.6753C106.923 97.7723 106.851 98.046 106.792 98.2836C106.571 99.1657 106.471 99.3337 105.886 99.7994C104.907 100.579 103.114 102.004 100.6 104.002C99.2802 105.051 97.5521 106.448 96.7601 107.108C95.1081 108.483 92.271 110.876 92.1999 110.954C91.9071 111.275 91.047 111.875 90.6872 112.01C89.7472 112.362 89.7997 112.372 89.7997 111.838C89.7997 111.363 89.8012 111.361 90.4957 110.799C90.8784 110.49 91.5104 109.967 91.9001 109.638C92.2898 109.309 92.6472 109.064 92.6946 109.093C92.7419 109.122 92.7688 109.102 92.7543 109.049C92.7398 108.995 93.2717 108.505 93.9362 107.961C94.6007 107.417 95.7211 106.497 96.426 105.916C98.4229 104.27 106.628 97.7076 106.826 97.5976C106.974 97.5153 106.994 97.5282 106.951 97.6753ZM105.422 102.226C105.084 103.027 104.853 103.441 104.581 103.731C104.337 103.991 101.95 105.996 100.895 106.828C100.728 106.96 99.8029 107.738 98.8398 108.556C97.8767 109.375 96.95 110.117 96.7804 110.206C96.4544 110.378 94.1942 111.062 94.1385 111.007C94.0716 110.94 96.4473 109.039 96.5323 109.092C96.581 109.122 96.609 109.102 96.5945 109.047C96.5688 108.95 99.6683 106.411 101.942 104.668C102.561 104.193 103.118 103.759 103.178 103.705C103.3 103.595 105.06 102.252 105.368 102.034C105.558 101.9 105.559 101.903 105.422 102.226ZM103.197 106.684C103.093 107.416 102.794 108.468 102.65 108.61C102.579 108.679 101.937 108.865 101.224 109.022C100.511 109.179 99.8436 109.341 99.74 109.382C99.6364 109.423 100.284 108.814 101.18 108.03C102.076 107.246 102.911 106.514 103.037 106.404L103.265 106.204L103.197 106.684Z"/>
</mask>
<path fill-rule="evenodd" clip-rule="evenodd" d="M55.67 50.0466C55.9611 50.1624 62.0954 50.8813 67.0946 51.3854C68.9427 51.5717 70.6492 51.7463 70.8868 51.7732C72.5289 51.9596 78.816 52.5399 82.2634 52.8234C86.318 53.1569 87.5385 53.2556 92.3439 53.638C93.6639 53.7432 95.824 53.9151 97.1441 54.0202C98.4642 54.1254 100.149 54.2583 100.888 54.3156C102.429 54.4351 103.385 54.5694 103.631 54.7009C103.725 54.7511 103.891 54.9064 104.001 55.0459L104.2 55.2994V73.7175V92.1357L104.416 92.1844C104.642 92.2354 106.178 92.484 108.018 92.7673C109.048 92.9259 109.114 92.9499 109.397 93.272C109.747 93.6709 109.752 93.6006 109.236 95.8355C108.506 98.9967 107.089 102.742 105.584 105.484C104.822 106.874 104.706 107.544 105.186 107.802C105.336 107.883 105.938 107.911 107.188 107.894C109.281 107.867 110.159 108.022 111.449 108.648C113.86 109.817 115.693 112.121 115.118 113.257C114.704 114.075 113.281 114.178 112.165 113.471C111.83 113.258 111.645 113.028 111.315 112.415C110.62 111.124 109.593 110.294 108.262 109.947C107.96 109.869 107.688 109.804 107.658 109.804C107.628 109.804 107.974 110.182 108.427 110.644C108.88 111.106 109.528 111.852 109.866 112.3C110.204 112.749 110.8 113.5 111.188 113.969C112.102 115.07 112.331 115.529 112.211 116.014C112.036 116.715 111.15 117.018 110.359 116.649C109.584 116.286 109.045 115.567 108.125 113.669C107.238 111.839 106.845 111.2 106.671 111.308C106.615 111.343 106.599 111.324 106.635 111.266C106.671 111.208 106.656 111.134 106.602 111.101C106.467 111.018 106.482 111.28 106.653 112.012C106.983 113.422 107.523 114.554 108.538 115.958C109.105 116.744 109.577 117.724 109.577 118.118C109.577 118.563 109.207 119.045 108.742 119.207C108.2 119.396 107.681 119.219 107.128 118.658C106.12 117.636 105.5 115.682 104.959 111.829C104.848 111.039 104.843 111.027 104.706 111.289C104.423 111.828 104.193 112.654 104.142 113.308C104.074 114.183 104.303 115.062 104.981 116.525C105.447 117.531 105.492 117.689 105.494 118.319C105.496 118.975 105.48 119.026 105.172 119.345C104.759 119.771 104.301 119.86 103.589 119.652C102.455 119.323 101.75 118.023 101.762 116.285C101.768 115.347 101.903 114.597 102.48 112.283C102.686 111.455 102.827 110.704 102.793 110.615C102.743 110.484 102.647 110.463 102.29 110.506C101.68 110.579 97.5951 111.772 92.9199 113.241C88.8738 114.513 89.105 114.456 88.706 114.267C88.5119 114.175 88.3078 114.015 88.2526 113.912C88.1872 113.79 88.1559 112.458 88.163 110.095L88.1738 106.466L87.9547 106.413C87.2403 106.24 73.5532 103.556 68.2947 102.558C64.9382 101.921 64.8059 101.896 61.2863 101.223C59.7814 100.935 56.7357 100.367 54.518 99.9613C52.3003 99.5557 50.3893 99.1629 50.2713 99.0885C50.1533 99.0141 50.0325 98.8566 50.003 98.7384C49.9734 98.6203 50.144 96.3851 50.3823 93.7714C50.6205 91.1577 50.8808 88.2199 50.9609 87.2431C51.041 86.2662 51.1947 84.4301 51.3025 83.1629C51.4102 81.8956 51.5846 79.7787 51.6901 78.4586C51.7955 77.1386 51.9445 75.2809 52.0212 74.3304C52.0979 73.38 52.2474 71.4575 52.3533 70.0582C52.4593 68.6589 52.6126 66.65 52.694 65.594C52.7753 64.5379 53.0346 60.9306 53.27 57.5776C53.7895 50.18 53.7551 50.5073 54.0421 50.2204C54.2383 50.0241 54.3579 49.9943 54.9217 50.0008C55.2804 50.0049 55.6172 50.0256 55.67 50.0466ZM57.3981 52.1164C58.0172 52.2219 63.1861 52.8175 65.6065 53.0622C67.495 53.2531 71.0995 53.5798 77.2711 54.1194C79.1192 54.281 81.1065 54.4608 81.6873 54.519C82.2682 54.5772 83.0242 54.652 83.3674 54.6853L83.9914 54.7457L83.2224 54.867C82.7995 54.9337 81.7195 55.161 80.8223 55.3721C75.9431 56.52 70.6165 58.6422 66.6817 61.006C66.085 61.3645 65.4876 61.7226 65.3542 61.8018C65.1196 61.9411 65.0989 61.9317 64.7214 61.5138C63.9666 60.6783 60.4448 56.547 58.7472 54.5054C57.8031 53.3702 56.9438 52.3442 56.8376 52.2253C56.6234 51.9855 56.6267 51.9848 57.3981 52.1164ZM58.6643 57.267C60.4696 59.5235 62.2732 61.7719 62.6725 62.2636C63.0718 62.7551 63.3959 63.1872 63.3928 63.2236C63.3899 63.26 63.1053 63.5059 62.7606 63.7699C61.9051 64.4251 59.5566 66.7475 58.6831 67.8021C56.794 70.0832 55.0649 72.8521 53.9173 75.4345L53.5973 76.1545L53.6518 75.5305C53.6818 75.1873 53.7945 73.6752 53.9021 72.1703C54.0098 70.6654 54.2229 67.7493 54.3755 65.69C54.5282 63.6307 54.7947 59.9694 54.9676 57.5536C55.1405 55.1378 55.3044 53.162 55.332 53.1628C55.3595 53.1636 56.859 55.0105 58.6643 57.267ZM95.272 55.6645C96.7949 55.7445 102.29 56.2107 102.343 56.2645C102.362 56.283 102.366 64.3105 102.353 74.1034L102.328 91.9088L100.024 91.5442C97.5144 91.147 92.8455 90.4287 90.7118 90.1115C89.5835 89.9438 89.3369 89.8769 89.1757 89.6948C88.6957 89.1528 85.8327 85.8461 84.1853 83.9309C83.186 82.7692 81.8464 81.214 81.2084 80.4747C80.5703 79.7355 79.6401 78.6554 79.1414 78.0746C78.6425 77.4938 77.6288 76.3248 76.8887 75.4769C76.1486 74.629 74.0093 72.17 72.1349 70.0126C70.2604 67.8551 68.1577 65.4384 67.4623 64.6419C66.4905 63.5291 66.2238 63.1674 66.3102 63.0792C66.5148 62.8705 68.6077 61.6895 70.1188 60.93C78.119 56.9087 86.3102 55.194 95.272 55.6645ZM89.0545 61.2289C90.1126 61.4071 91.226 61.8997 92.1525 62.5997C93.1631 63.3631 93.9078 64.4319 94.3728 65.786C94.6115 66.4809 94.6371 66.6866 94.6423 67.9461C94.6472 69.1474 94.6172 69.4369 94.423 70.0582C93.5891 72.7273 91.6135 74.6653 88.883 75.4925C88.1761 75.7066 87.8277 75.7543 86.9196 75.7617C85.9482 75.7694 85.7143 75.7373 84.9726 75.4942C84.5089 75.3422 83.8712 75.0614 83.5555 74.8702C82.2958 74.1071 81.2385 72.7643 80.7558 71.3144C80.4727 70.4641 80.4493 70.2958 80.447 69.0982C80.4451 68.0452 80.4858 67.6491 80.6639 66.9861C81.0765 65.4511 82.0597 63.9117 83.2987 62.861C84.8476 61.5475 87.1199 60.9032 89.0545 61.2289ZM66.2411 66.3303C67.1329 67.3952 68.2538 68.7237 68.7318 69.2824C70.6885 71.5694 72.4737 73.6672 74.0074 75.4825C74.8997 76.5385 76.3655 78.2666 77.2646 79.3227C78.1638 80.3787 79.8008 82.3012 80.9025 83.5949C82.0041 84.8886 83.2174 86.3142 83.5986 86.7631C83.9798 87.2119 85.0669 88.4863 86.0145 89.5952C86.9619 90.704 87.834 91.7359 87.9524 91.8883L88.1677 92.1652V98.4406C88.1677 101.892 88.1353 104.715 88.0957 104.714C88.056 104.712 87.8508 104.67 87.6396 104.618C87.1919 104.51 78.8178 102.894 72.2309 101.644C71.1484 101.439 68.7723 100.986 66.9506 100.637C65.1289 100.288 62.3856 99.7659 60.8543 99.476C59.323 99.1861 57.4005 98.8198 56.5821 98.6622C55.7636 98.5044 54.3596 98.2349 53.4619 98.063L51.8298 97.7506L51.8372 97.2731C51.8464 96.6741 52.0103 94.571 52.3081 91.2273C52.4351 89.8016 52.6301 87.4903 52.7414 86.091C53.0055 82.769 53.1341 81.9379 53.6129 80.4576C55.5142 74.5799 58.8764 69.3593 63.3816 65.2894C63.9267 64.7969 64.4284 64.3939 64.4962 64.3939C64.564 64.3939 65.3492 65.2653 66.2411 66.3303ZM67.7992 76.8764C70.4434 77.2432 72.6599 79.1887 73.3773 81.7723C74.1255 84.4672 73.3364 87.3175 71.2771 89.3582C70.3335 90.2931 69.2538 90.9207 67.9521 91.2907C66.9613 91.5723 65.1145 91.599 64.1665 91.3453C61.1339 90.5338 59.1742 87.8871 59.1742 84.6029C59.1742 81.4795 61.0019 78.7225 63.932 77.4257C65.047 76.9323 66.606 76.7108 67.7992 76.8764ZM90.4718 91.7698C90.815 91.8171 91.1754 91.8644 91.2727 91.8747C91.4682 91.8955 91.4361 91.9268 90.3518 92.7749L89.7997 93.2066V92.4329C89.7997 92.0074 89.8106 91.6648 89.8237 91.6715C89.8369 91.6782 90.1286 91.7224 90.4718 91.7698ZM94.168 92.2982C94.2736 92.3206 94.4581 92.3597 94.5781 92.3854C94.7661 92.4256 94.64 92.562 93.666 93.3729C93.0444 93.8904 91.931 94.7985 91.1918 95.3908L89.8477 96.468L89.8195 95.9532C89.804 95.6701 89.8338 95.3264 89.886 95.1893C89.9424 95.0408 90.6657 94.3945 91.6782 93.5877C93.4306 92.1916 93.4983 92.1566 94.168 92.2982ZM96.9041 92.7726C96.9833 92.7873 97.2965 92.8269 97.6001 92.8603C97.9038 92.8938 98.1522 92.9527 98.1522 92.9912C98.1522 93.0297 97.0433 93.9446 95.6881 95.0244C94.3329 96.1041 92.4903 97.5816 91.5935 98.3076C90.6966 99.0337 89.9223 99.6277 89.8729 99.6277C89.8224 99.6277 89.7986 99.3436 89.8186 98.9797L89.8542 98.3316L91.051 97.3412C91.7093 96.7965 92.7879 95.9133 93.4479 95.3785C94.108 94.8438 95.0152 94.0978 95.464 93.7209C96.4037 92.9317 96.7027 92.7348 96.9041 92.7726ZM100.82 93.3328C101.153 93.3892 101.434 93.4751 101.444 93.5237C101.465 93.6127 100.104 94.7256 95.4525 98.4264C94.0596 99.5345 92.3583 100.898 91.6718 101.456C90.9854 102.015 90.2764 102.574 90.0963 102.699L89.7688 102.927L89.8323 102.464C89.8672 102.209 89.8957 101.886 89.8957 101.745C89.8957 101.482 89.9185 101.462 94.1099 98.064C94.6171 97.6528 95.2264 97.153 95.464 96.9534C96.4458 96.1285 99.909 93.3793 100.057 93.3076C100.144 93.265 100.488 93.2763 100.82 93.3328ZM104.277 93.8877C104.808 93.97 104.866 93.9994 104.757 94.1308C104.689 94.2131 102.516 95.9776 99.9284 98.0521C94.8843 102.096 92.7961 103.784 91.5758 104.805C91.1534 105.159 90.6026 105.612 90.3518 105.813L89.8957 106.179L89.8959 105.424L89.8961 104.668L92.2109 102.796C94.5484 100.905 98.6325 97.6343 101.74 95.1635C102.67 94.4242 103.485 93.8136 103.552 93.8066C103.618 93.7996 103.944 93.8361 104.277 93.8877ZM107.434 94.4164C107.601 94.4374 107.787 94.5129 107.846 94.5844C108.061 94.8439 107.685 95.167 100.792 100.636C97.9802 102.867 91.9678 107.814 90.5595 109.055C90.2117 109.361 89.9093 109.612 89.8875 109.612C89.8656 109.613 89.8617 109.247 89.8787 108.8L89.9097 107.986L90.3588 107.617C90.6057 107.414 91.5638 106.622 92.4879 105.856C94.367 104.298 97.1618 102.035 99.1021 100.501C99.8095 99.9413 100.895 99.0733 101.514 98.5716C102.133 98.07 103.11 97.2878 103.684 96.8332C104.259 96.3787 105.188 95.6335 105.749 95.1771C106.311 94.7208 106.851 94.3543 106.95 94.3628C107.048 94.3712 107.266 94.3953 107.434 94.4164ZM106.951 97.6753C106.923 97.7723 106.851 98.046 106.792 98.2836C106.571 99.1657 106.471 99.3337 105.886 99.7994C104.907 100.579 103.114 102.004 100.6 104.002C99.2802 105.051 97.5521 106.448 96.7601 107.108C95.1081 108.483 92.271 110.876 92.1999 110.954C91.9071 111.275 91.047 111.875 90.6872 112.01C89.7472 112.362 89.7997 112.372 89.7997 111.838C89.7997 111.363 89.8012 111.361 90.4957 110.799C90.8784 110.49 91.5104 109.967 91.9001 109.638C92.2898 109.309 92.6472 109.064 92.6946 109.093C92.7419 109.122 92.7688 109.102 92.7543 109.049C92.7398 108.995 93.2717 108.505 93.9362 107.961C94.6007 107.417 95.7211 106.497 96.426 105.916C98.4229 104.27 106.628 97.7076 106.826 97.5976C106.974 97.5153 106.994 97.5282 106.951 97.6753ZM105.422 102.226C105.084 103.027 104.853 103.441 104.581 103.731C104.337 103.991 101.95 105.996 100.895 106.828C100.728 106.96 99.8029 107.738 98.8398 108.556C97.8767 109.375 96.95 110.117 96.7804 110.206C96.4544 110.378 94.1942 111.062 94.1385 111.007C94.0716 110.94 96.4473 109.039 96.5323 109.092C96.581 109.122 96.609 109.102 96.5945 109.047C96.5688 108.95 99.6683 106.411 101.942 104.668C102.561 104.193 103.118 103.759 103.178 103.705C103.3 103.595 105.06 102.252 105.368 102.034C105.558 101.9 105.559 101.903 105.422 102.226ZM103.197 106.684C103.093 107.416 102.794 108.468 102.65 108.61C102.579 108.679 101.937 108.865 101.224 109.022C100.511 109.179 99.8436 109.341 99.74 109.382C99.6364 109.423 100.284 108.814 101.18 108.03C102.076 107.246 102.911 106.514 103.037 106.404L103.265 106.204L103.197 106.684Z" fill="white"/>
<path fill-rule="evenodd" clip-rule="evenodd" d="M55.67 50.0466C55.9611 50.1624 62.0954 50.8813 67.0946 51.3854C68.9427 51.5717 70.6492 51.7463 70.8868 51.7732C72.5289 51.9596 78.816 52.5399 82.2634 52.8234C86.318 53.1569 87.5385 53.2556 92.3439 53.638C93.6639 53.7432 95.824 53.9151 97.1441 54.0202C98.4642 54.1254 100.149 54.2583 100.888 54.3156C102.429 54.4351 103.385 54.5694 103.631 54.7009C103.725 54.7511 103.891 54.9064 104.001 55.0459L104.2 55.2994V73.7175V92.1357L104.416 92.1844C104.642 92.2354 106.178 92.484 108.018 92.7673C109.048 92.9259 109.114 92.9499 109.397 93.272C109.747 93.6709 109.752 93.6006 109.236 95.8355C108.506 98.9967 107.089 102.742 105.584 105.484C104.822 106.874 104.706 107.544 105.186 107.802C105.336 107.883 105.938 107.911 107.188 107.894C109.281 107.867 110.159 108.022 111.449 108.648C113.86 109.817 115.693 112.121 115.118 113.257C114.704 114.075 113.281 114.178 112.165 113.471C111.83 113.258 111.645 113.028 111.315 112.415C110.62 111.124 109.593 110.294 108.262 109.947C107.96 109.869 107.688 109.804 107.658 109.804C107.628 109.804 107.974 110.182 108.427 110.644C108.88 111.106 109.528 111.852 109.866 112.3C110.204 112.749 110.8 113.5 111.188 113.969C112.102 115.07 112.331 115.529 112.211 116.014C112.036 116.715 111.15 117.018 110.359 116.649C109.584 116.286 109.045 115.567 108.125 113.669C107.238 111.839 106.845 111.2 106.671 111.308C106.615 111.343 106.599 111.324 106.635 111.266C106.671 111.208 106.656 111.134 106.602 111.101C106.467 111.018 106.482 111.28 106.653 112.012C106.983 113.422 107.523 114.554 108.538 115.958C109.105 116.744 109.577 117.724 109.577 118.118C109.577 118.563 109.207 119.045 108.742 119.207C108.2 119.396 107.681 119.219 107.128 118.658C106.12 117.636 105.5 115.682 104.959 111.829C104.848 111.039 104.843 111.027 104.706 111.289C104.423 111.828 104.193 112.654 104.142 113.308C104.074 114.183 104.303 115.062 104.981 116.525C105.447 117.531 105.492 117.689 105.494 118.319C105.496 118.975 105.48 119.026 105.172 119.345C104.759 119.771 104.301 119.86 103.589 119.652C102.455 119.323 101.75 118.023 101.762 116.285C101.768 115.347 101.903 114.597 102.48 112.283C102.686 111.455 102.827 110.704 102.793 110.615C102.743 110.484 102.647 110.463 102.29 110.506C101.68 110.579 97.5951 111.772 92.9199 113.241C88.8738 114.513 89.105 114.456 88.706 114.267C88.5119 114.175 88.3078 114.015 88.2526 113.912C88.1872 113.79 88.1559 112.458 88.163 110.095L88.1738 106.466L87.9547 106.413C87.2403 106.24 73.5532 103.556 68.2947 102.558C64.9382 101.921 64.8059 101.896 61.2863 101.223C59.7814 100.935 56.7357 100.367 54.518 99.9613C52.3003 99.5557 50.3893 99.1629 50.2713 99.0885C50.1533 99.0141 50.0325 98.8566 50.003 98.7384C49.9734 98.6203 50.144 96.3851 50.3823 93.7714C50.6205 91.1577 50.8808 88.2199 50.9609 87.2431C51.041 86.2662 51.1947 84.4301 51.3025 83.1629C51.4102 81.8956 51.5846 79.7787 51.6901 78.4586C51.7955 77.1386 51.9445 75.2809 52.0212 74.3304C52.0979 73.38 52.2474 71.4575 52.3533 70.0582C52.4593 68.6589 52.6126 66.65 52.694 65.594C52.7753 64.5379 53.0346 60.9306 53.27 57.5776C53.7895 50.18 53.7551 50.5073 54.0421 50.2204C54.2383 50.0241 54.3579 49.9943 54.9217 50.0008C55.2804 50.0049 55.6172 50.0256 55.67 50.0466ZM57.3981 52.1164C58.0172 52.2219 63.1861 52.8175 65.6065 53.0622C67.495 53.2531 71.0995 53.5798 77.2711 54.1194C79.1192 54.281 81.1065 54.4608 81.6873 54.519C82.2682 54.5772 83.0242 54.652 83.3674 54.6853L83.9914 54.7457L83.2224 54.867C82.7995 54.9337 81.7195 55.161 80.8223 55.3721C75.9431 56.52 70.6165 58.6422 66.6817 61.006C66.085 61.3645 65.4876 61.7226 65.3542 61.8018C65.1196 61.9411 65.0989 61.9317 64.7214 61.5138C63.9666 60.6783 60.4448 56.547 58.7472 54.5054C57.8031 53.3702 56.9438 52.3442 56.8376 52.2253C56.6234 51.9855 56.6267 51.9848 57.3981 52.1164ZM58.6643 57.267C60.4696 59.5235 62.2732 61.7719 62.6725 62.2636C63.0718 62.7551 63.3959 63.1872 63.3928 63.2236C63.3899 63.26 63.1053 63.5059 62.7606 63.7699C61.9051 64.4251 59.5566 66.7475 58.6831 67.8021C56.794 70.0832 55.0649 72.8521 53.9173 75.4345L53.5973 76.1545L53.6518 75.5305C53.6818 75.1873 53.7945 73.6752 53.9021 72.1703C54.0098 70.6654 54.2229 67.7493 54.3755 65.69C54.5282 63.6307 54.7947 59.9694 54.9676 57.5536C55.1405 55.1378 55.3044 53.162 55.332 53.1628C55.3595 53.1636 56.859 55.0105 58.6643 57.267ZM95.272 55.6645C96.7949 55.7445 102.29 56.2107 102.343 56.2645C102.362 56.283 102.366 64.3105 102.353 74.1034L102.328 91.9088L100.024 91.5442C97.5144 91.147 92.8455 90.4287 90.7118 90.1115C89.5835 89.9438 89.3369 89.8769 89.1757 89.6948C88.6957 89.1528 85.8327 85.8461 84.1853 83.9309C83.186 82.7692 81.8464 81.214 81.2084 80.4747C80.5703 79.7355 79.6401 78.6554 79.1414 78.0746C78.6425 77.4938 77.6288 76.3248 76.8887 75.4769C76.1486 74.629 74.0093 72.17 72.1349 70.0126C70.2604 67.8551 68.1577 65.4384 67.4623 64.6419C66.4905 63.5291 66.2238 63.1674 66.3102 63.0792C66.5148 62.8705 68.6077 61.6895 70.1188 60.93C78.119 56.9087 86.3102 55.194 95.272 55.6645ZM89.0545 61.2289C90.1126 61.4071 91.226 61.8997 92.1525 62.5997C93.1631 63.3631 93.9078 64.4319 94.3728 65.786C94.6115 66.4809 94.6371 66.6866 94.6423 67.9461C94.6472 69.1474 94.6172 69.4369 94.423 70.0582C93.5891 72.7273 91.6135 74.6653 88.883 75.4925C88.1761 75.7066 87.8277 75.7543 86.9196 75.7617C85.9482 75.7694 85.7143 75.7373 84.9726 75.4942C84.5089 75.3422 83.8712 75.0614 83.5555 74.8702C82.2958 74.1071 81.2385 72.7643 80.7558 71.3144C80.4727 70.4641 80.4493 70.2958 80.447 69.0982C80.4451 68.0452 80.4858 67.6491 80.6639 66.9861C81.0765 65.4511 82.0597 63.9117 83.2987 62.861C84.8476 61.5475 87.1199 60.9032 89.0545 61.2289ZM66.2411 66.3303C67.1329 67.3952 68.2538 68.7237 68.7318 69.2824C70.6885 71.5694 72.4737 73.6672 74.0074 75.4825C74.8997 76.5385 76.3655 78.2666 77.2646 79.3227C78.1638 80.3787 79.8008 82.3012 80.9025 83.5949C82.0041 84.8886 83.2174 86.3142 83.5986 86.7631C83.9798 87.2119 85.0669 88.4863 86.0145 89.5952C86.9619 90.704 87.834 91.7359 87.9524 91.8883L88.1677 92.1652V98.4406C88.1677 101.892 88.1353 104.715 88.0957 104.714C88.056 104.712 87.8508 104.67 87.6396 104.618C87.1919 104.51 78.8178 102.894 72.2309 101.644C71.1484 101.439 68.7723 100.986 66.9506 100.637C65.1289 100.288 62.3856 99.7659 60.8543 99.476C59.323 99.1861 57.4005 98.8198 56.5821 98.6622C55.7636 98.5044 54.3596 98.2349 53.4619 98.063L51.8298 97.7506L51.8372 97.2731C51.8464 96.6741 52.0103 94.571 52.3081 91.2273C52.4351 89.8016 52.6301 87.4903 52.7414 86.091C53.0055 82.769 53.1341 81.9379 53.6129 80.4576C55.5142 74.5799 58.8764 69.3593 63.3816 65.2894C63.9267 64.7969 64.4284 64.3939 64.4962 64.3939C64.564 64.3939 65.3492 65.2653 66.2411 66.3303ZM67.7992 76.8764C70.4434 77.2432 72.6599 79.1887 73.3773 81.7723C74.1255 84.4672 73.3364 87.3175 71.2771 89.3582C70.3335 90.2931 69.2538 90.9207 67.9521 91.2907C66.9613 91.5723 65.1145 91.599 64.1665 91.3453C61.1339 90.5338 59.1742 87.8871 59.1742 84.6029C59.1742 81.4795 61.0019 78.7225 63.932 77.4257C65.047 76.9323 66.606 76.7108 67.7992 76.8764ZM90.4718 91.7698C90.815 91.8171 91.1754 91.8644 91.2727 91.8747C91.4682 91.8955 91.4361 91.9268 90.3518 92.7749L89.7997 93.2066V92.4329C89.7997 92.0074 89.8106 91.6648 89.8237 91.6715C89.8369 91.6782 90.1286 91.7224 90.4718 91.7698ZM94.168 92.2982C94.2736 92.3206 94.4581 92.3597 94.5781 92.3854C94.7661 92.4256 94.64 92.562 93.666 93.3729C93.0444 93.8904 91.931 94.7985 91.1918 95.3908L89.8477 96.468L89.8195 95.9532C89.804 95.6701 89.8338 95.3264 89.886 95.1893C89.9424 95.0408 90.6657 94.3945 91.6782 93.5877C93.4306 92.1916 93.4983 92.1566 94.168 92.2982ZM96.9041 92.7726C96.9833 92.7873 97.2965 92.8269 97.6001 92.8603C97.9038 92.8938 98.1522 92.9527 98.1522 92.9912C98.1522 93.0297 97.0433 93.9446 95.6881 95.0244C94.3329 96.1041 92.4903 97.5816 91.5935 98.3076C90.6966 99.0337 89.9223 99.6277 89.8729 99.6277C89.8224 99.6277 89.7986 99.3436 89.8186 98.9797L89.8542 98.3316L91.051 97.3412C91.7093 96.7965 92.7879 95.9133 93.4479 95.3785C94.108 94.8438 95.0152 94.0978 95.464 93.7209C96.4037 92.9317 96.7027 92.7348 96.9041 92.7726ZM100.82 93.3328C101.153 93.3892 101.434 93.4751 101.444 93.5237C101.465 93.6127 100.104 94.7256 95.4525 98.4264C94.0596 99.5345 92.3583 100.898 91.6718 101.456C90.9854 102.015 90.2764 102.574 90.0963 102.699L89.7688 102.927L89.8323 102.464C89.8672 102.209 89.8957 101.886 89.8957 101.745C89.8957 101.482 89.9185 101.462 94.1099 98.064C94.6171 97.6528 95.2264 97.153 95.464 96.9534C96.4458 96.1285 99.909 93.3793 100.057 93.3076C100.144 93.265 100.488 93.2763 100.82 93.3328ZM104.277 93.8877C104.808 93.97 104.866 93.9994 104.757 94.1308C104.689 94.2131 102.516 95.9776 99.9284 98.0521C94.8843 102.096 92.7961 103.784 91.5758 104.805C91.1534 105.159 90.6026 105.612 90.3518 105.813L89.8957 106.179L89.8959 105.424L89.8961 104.668L92.2109 102.796C94.5484 100.905 98.6325 97.6343 101.74 95.1635C102.67 94.4242 103.485 93.8136 103.552 93.8066C103.618 93.7996 103.944 93.8361 104.277 93.8877ZM107.434 94.4164C107.601 94.4374 107.787 94.5129 107.846 94.5844C108.061 94.8439 107.685 95.167 100.792 100.636C97.9802 102.867 91.9678 107.814 90.5595 109.055C90.2117 109.361 89.9093 109.612 89.8875 109.612C89.8656 109.613 89.8617 109.247 89.8787 108.8L89.9097 107.986L90.3588 107.617C90.6057 107.414 91.5638 106.622 92.4879 105.856C94.367 104.298 97.1618 102.035 99.1021 100.501C99.8095 99.9413 100.895 99.0733 101.514 98.5716C102.133 98.07 103.11 97.2878 103.684 96.8332C104.259 96.3787 105.188 95.6335 105.749 95.1771C106.311 94.7208 106.851 94.3543 106.95 94.3628C107.048 94.3712 107.266 94.3953 107.434 94.4164ZM106.951 97.6753C106.923 97.7723 106.851 98.046 106.792 98.2836C106.571 99.1657 106.471 99.3337 105.886 99.7994C104.907 100.579 103.114 102.004 100.6 104.002C99.2802 105.051 97.5521 106.448 96.7601 107.108C95.1081 108.483 92.271 110.876 92.1999 110.954C91.9071 111.275 91.047 111.875 90.6872 112.01C89.7472 112.362 89.7997 112.372 89.7997 111.838C89.7997 111.363 89.8012 111.361 90.4957 110.799C90.8784 110.49 91.5104 109.967 91.9001 109.638C92.2898 109.309 92.6472 109.064 92.6946 109.093C92.7419 109.122 92.7688 109.102 92.7543 109.049C92.7398 108.995 93.2717 108.505 93.9362 107.961C94.6007 107.417 95.7211 106.497 96.426 105.916C98.4229 104.27 106.628 97.7076 106.826 97.5976C106.974 97.5153 106.994 97.5282 106.951 97.6753ZM105.422 102.226C105.084 103.027 104.853 103.441 104.581 103.731C104.337 103.991 101.95 105.996 100.895 106.828C100.728 106.96 99.8029 107.738 98.8398 108.556C97.8767 109.375 96.95 110.117 96.7804 110.206C96.4544 110.378 94.1942 111.062 94.1385 111.007C94.0716 110.94 96.4473 109.039 96.5323 109.092C96.581 109.122 96.609 109.102 96.5945 109.047C96.5688 108.95 99.6683 106.411 101.942 104.668C102.561 104.193 103.118 103.759 103.178 103.705C103.3 103.595 105.06 102.252 105.368 102.034C105.558 101.9 105.559 101.903 105.422 102.226ZM103.197 106.684C103.093 107.416 102.794 108.468 102.65 108.61C102.579 108.679 101.937 108.865 101.224 109.022C100.511 109.179 99.8436 109.341 99.74 109.382C99.6364 109.423 100.284 108.814 101.18 108.03C102.076 107.246 102.911 106.514 103.037 106.404L103.265 106.204L103.197 106.684Z" stroke="white" mask="url(#path-1-inside-1_11653_21394)"/>
</g>
<defs>
<filter id="filter0_d_11653_21394" x="0" y="0" width="165.225" height="169.759" filterUnits="userSpaceOnUse" color-interpolation-filters="sRGB">
<feFlood flood-opacity="0" result="BackgroundImageFix"/>
<feColorMatrix in="SourceAlpha" type="matrix" values="0 0 0 0 0 0 0 0 0 0 0 0 0 0 0 0 0 0 127 0" result="hardAlpha"/>
<feOffset/>
<feGaussianBlur stdDeviation="25"/>
<feComposite in2="hardAlpha" operator="out"/>
<feColorMatrix type="matrix" values="0 0 0 0 1 0 0 0 0 1 0 0 0 0 1 0 0 0 1 0"/>
<feBlend mode="normal" in2="BackgroundImageFix" result="effect1_dropShadow_11653_21394"/>
<feBlend mode="normal" in="SourceGraphic" in2="effect1_dropShadow_11653_21394" result="shape"/>
</filter>
</defs>
</svg>
