<svg width="15" height="17" viewBox="0 0 15 17" fill="none" xmlns="http://www.w3.org/2000/svg">
<path d="M3.84444 7.4V4.55556C3.84444 3.61256 4.21905 2.70819 4.88584 2.0414C5.55264 1.3746 6.45701 1 7.4 1C8.34299 1 9.24736 1.3746 9.91416 2.0414C10.581 2.70819 10.9556 3.61256 10.9556 4.55556V7.4M2.42222 7.4H12.3778C13.1633 7.4 13.8 8.03675 13.8 8.82222V13.8C13.8 14.5855 13.1633 15.2222 12.3778 15.2222H2.42222C1.63675 15.2222 1 14.5855 1 13.8V8.82222C1 8.03675 1.63675 7.4 2.42222 7.4Z" stroke="#0D5337" stroke-width="2" stroke-linecap="round" stroke-linejoin="round"/>
</svg>
