<svg width="172" height="60" viewBox="0 0 172 60" fill="none" xmlns="http://www.w3.org/2000/svg">
<g filter="url(#filter0_d_11402_32059)">
<rect x="11" y="11" width="150" height="38" rx="19" fill="#0D5337"/>
<rect x="11.75" y="11.75" width="148.5" height="36.5" rx="18.25" stroke="white" stroke-width="1.5"/>
</g>
<path d="M51.66 40C51.48 40 51.32 39.94 51.18 39.82C51.06 39.68 51 39.52 51 39.34C51 39.26 51.01 39.19 51.03 39.13L57.72 19.99C57.78 19.77 57.92 19.55 58.14 19.33C58.36 19.11 58.67 19 59.07 19H65.58C65.98 19 66.29 19.11 66.51 19.33C66.73 19.55 66.87 19.77 66.93 19.99L73.62 39.13C73.64 39.19 73.65 39.26 73.65 39.34C73.65 39.52 73.58 39.68 73.44 39.82C73.32 39.94 73.17 40 72.99 40H67.44C67.06 40 66.78 39.92 66.6 39.76C66.44 39.58 66.33 39.41 66.27 39.25L65.55 37.27H59.1L58.38 39.25C58.32 39.41 58.21 39.58 58.05 39.76C57.89 39.92 57.61 40 57.21 40H51.66ZM60.75 20.92C60.63 20.9 60.53 20.9 60.45 20.92C60.39 20.92 60.33 20.97 60.27 21.07C60.19 21.29 60.23 21.48 60.39 21.64C60.51 21.74 60.61 21.81 60.69 21.85C60.77 21.89 60.88 21.87 61.02 21.79C61.16 21.73 61.23 21.66 61.23 21.58C61.23 21.48 61.22 21.35 61.2 21.19C61.18 21.07 61.13 21 61.05 20.98C60.99 20.96 60.89 20.94 60.75 20.92ZM63.93 21.73C63.83 21.51 63.72 21.38 63.6 21.34C63.48 21.3 63.31 21.29 63.09 21.31C62.83 21.33 62.62 21.36 62.46 21.4C62.32 21.42 62.22 21.56 62.16 21.82C62.08 22.12 62.07 22.35 62.13 22.51C62.19 22.65 62.35 22.8 62.61 22.96C62.87 23.12 63.08 23.2 63.24 23.2C63.42 23.18 63.63 23.07 63.87 22.87C64.07 22.69 64.15 22.52 64.11 22.36C64.09 22.2 64.03 21.99 63.93 21.73ZM58.62 21.94C58.5 21.84 58.39 21.81 58.29 21.85C58.21 21.87 58.11 21.93 57.99 22.03C57.81 22.15 57.76 22.32 57.84 22.54C57.88 22.7 57.92 22.82 57.96 22.9C58 22.98 58.1 23.02 58.26 23.02C58.44 23.02 58.57 23 58.65 22.96C58.73 22.9 58.8 22.79 58.86 22.63C58.92 22.45 58.93 22.32 58.89 22.24C58.85 22.14 58.76 22.04 58.62 21.94ZM61.59 23.41C61.49 23.41 61.43 23.44 61.41 23.5C61.41 23.56 61.39 23.64 61.35 23.74C61.31 23.82 61.28 23.89 61.26 23.95C61.24 23.99 61.26 24.04 61.32 24.1C61.44 24.22 61.58 24.23 61.74 24.13C61.9 24.05 61.96 23.93 61.92 23.77C61.86 23.55 61.75 23.43 61.59 23.41ZM66.39 24.64C66.33 24.5 66.26 24.42 66.18 24.4C66.12 24.36 66.01 24.35 65.85 24.37C65.69 24.39 65.56 24.41 65.46 24.43C65.36 24.45 65.29 24.54 65.25 24.7C65.23 24.88 65.26 25 65.34 25.06C65.42 25.12 65.53 25.19 65.67 25.27C65.81 25.35 65.92 25.41 66 25.45C66.1 25.47 66.21 25.43 66.33 25.33C66.45 25.21 66.51 25.11 66.51 25.03C66.51 24.93 66.47 24.8 66.39 24.64ZM57.87 24.97C57.73 24.85 57.61 24.79 57.51 24.79C57.41 24.79 57.28 24.84 57.12 24.94C56.94 25.04 56.81 25.14 56.73 25.24C56.65 25.32 56.64 25.46 56.7 25.66C56.74 25.88 56.8 26.03 56.88 26.11C56.98 26.19 57.15 26.24 57.39 26.26C57.59 26.28 57.73 26.25 57.81 26.17C57.89 26.07 57.97 25.93 58.05 25.75C58.13 25.57 58.16 25.43 58.14 25.33C58.12 25.23 58.03 25.11 57.87 24.97ZM60.63 31.42H64.02L62.31 25.84L60.63 31.42ZM66.72 27.01C66.56 26.95 66.43 26.92 66.33 26.92C66.23 26.92 66.13 26.99 66.03 27.13C65.93 27.27 65.89 27.39 65.91 27.49C65.93 27.57 65.99 27.68 66.09 27.82C66.21 28 66.3 28.14 66.36 28.24C66.44 28.32 66.58 28.33 66.78 28.27C66.98 28.21 67.09 28.13 67.11 28.03C67.15 27.91 67.17 27.74 67.17 27.52C67.17 27.36 67.13 27.25 67.05 27.19C66.99 27.13 66.88 27.07 66.72 27.01ZM59.04 28.42C58.92 28.22 58.8 28.1 58.68 28.06C58.56 28.02 58.39 28.03 58.17 28.09C57.95 28.13 57.81 28.2 57.75 28.3C57.71 28.4 57.68 28.56 57.66 28.78C57.64 28.96 57.67 29.08 57.75 29.14C57.83 29.2 57.95 29.26 58.11 29.32C58.33 29.42 58.5 29.52 58.62 29.62C58.74 29.72 58.89 29.68 59.07 29.5C59.25 29.3 59.32 29.13 59.28 28.99C59.26 28.85 59.18 28.66 59.04 28.42ZM66.18 29.2C66.04 29.14 65.94 29.15 65.88 29.23C65.82 29.31 65.74 29.4 65.64 29.5C65.54 29.6 65.47 29.68 65.43 29.74C65.41 29.78 65.43 29.86 65.49 29.98C65.59 30.18 65.74 30.27 65.94 30.25C66.08 30.23 66.16 30.19 66.18 30.13C66.22 30.07 66.25 29.97 66.27 29.83C66.29 29.67 66.31 29.55 66.33 29.47C66.37 29.37 66.32 29.28 66.18 29.2ZM68.25 29.77L67.95 29.89L67.8 30.13L68.07 30.31L68.28 30.1L68.25 29.77ZM68.04 31.48C67.98 31.32 67.93 31.19 67.89 31.09C67.87 30.99 67.78 30.93 67.62 30.91C67.44 30.89 67.33 30.93 67.29 31.03C67.25 31.13 67.2 31.26 67.14 31.42C67.06 31.62 67.1 31.79 67.26 31.93C67.42 32.07 67.54 32.2 67.62 32.32C67.7 32.42 67.83 32.42 68.01 32.32C68.19 32.2 68.25 32.08 68.19 31.96C68.13 31.84 68.08 31.68 68.04 31.48ZM66.12 30.94L65.85 31.15L65.88 31.42L66.18 31.51L66.27 31.24L66.12 30.94ZM69.42 31.81C69.26 31.69 69.13 31.68 69.03 31.78C68.93 31.84 68.85 31.9 68.79 31.96C68.75 32.02 68.75 32.1 68.79 32.2C68.83 32.32 68.88 32.38 68.94 32.38C69.02 32.38 69.12 32.38 69.24 32.38C69.38 32.38 69.49 32.38 69.57 32.38C69.65 32.38 69.7 32.32 69.72 32.2C69.76 32.08 69.74 32 69.66 31.96C69.6 31.92 69.52 31.87 69.42 31.81ZM59.52 32.89C59.46 32.71 59.4 32.59 59.34 32.53C59.28 32.47 59.16 32.44 58.98 32.44C58.74 32.46 58.55 32.48 58.41 32.5C58.29 32.5 58.2 32.61 58.14 32.83C58.06 33.09 58.04 33.29 58.08 33.43C58.12 33.57 58.26 33.72 58.5 33.88C58.7 34 58.85 34.01 58.95 33.91C59.05 33.79 59.19 33.66 59.37 33.52C59.49 33.42 59.56 33.33 59.58 33.25C59.6 33.15 59.58 33.03 59.52 32.89ZM63.96 32.83C63.78 32.73 63.62 32.74 63.48 32.86C63.36 32.98 63.34 33.13 63.42 33.31C63.46 33.39 63.5 33.43 63.54 33.43C63.6 33.43 63.68 33.43 63.78 33.43C63.96 33.41 64.06 33.34 64.08 33.22C64.12 33.02 64.08 32.89 63.96 32.83ZM66.03 33.1C65.93 33.04 65.85 32.99 65.79 32.95C65.75 32.89 65.69 32.89 65.61 32.95C65.51 33.03 65.47 33.1 65.49 33.16C65.51 33.22 65.54 33.31 65.58 33.43C65.64 33.61 65.74 33.7 65.88 33.7C65.98 33.7 66.04 33.68 66.06 33.64C66.1 33.58 66.14 33.5 66.18 33.4C66.2 33.3 66.15 33.2 66.03 33.1ZM61.59 33.55L61.44 33.28L61.08 33.4L61.14 33.82L61.53 33.94L61.59 33.55ZM56.91 33.91C56.77 33.77 56.66 33.66 56.58 33.58C56.52 33.48 56.4 33.47 56.22 33.55C56.04 33.65 55.93 33.75 55.89 33.85C55.85 33.95 55.84 34.11 55.86 34.33C55.9 34.55 55.94 34.71 55.98 34.81C56.04 34.91 56.18 34.99 56.4 35.05C56.64 35.09 56.83 35.1 56.97 35.08C57.11 35.04 57.24 34.91 57.36 34.69C57.48 34.49 57.47 34.35 57.33 34.27C57.19 34.19 57.05 34.07 56.91 33.91ZM68.04 34.33C67.98 34.19 67.93 34.09 67.89 34.03C67.85 33.95 67.76 33.91 67.62 33.91C67.46 33.93 67.36 33.98 67.32 34.06C67.28 34.12 67.24 34.22 67.2 34.36C67.18 34.48 67.19 34.57 67.23 34.63C67.27 34.69 67.34 34.75 67.44 34.81C67.56 34.89 67.65 34.95 67.71 34.99C67.79 35.01 67.89 34.98 68.01 34.9C68.11 34.8 68.15 34.71 68.13 34.63C68.13 34.55 68.1 34.45 68.04 34.33ZM63.6 34.45L63.45 34.18L63.24 34.39V34.6L63.51 34.72L63.6 34.45ZM58.65 34.99C58.51 34.87 58.39 34.83 58.29 34.87C58.21 34.89 58.09 34.95 57.93 35.05C57.81 35.13 57.74 35.21 57.72 35.29C57.72 35.37 57.74 35.48 57.78 35.62C57.82 35.82 57.96 35.93 58.2 35.95C58.36 35.95 58.48 35.95 58.56 35.95C58.64 35.93 58.71 35.85 58.77 35.71C58.83 35.53 58.86 35.4 58.86 35.32C58.86 35.22 58.79 35.11 58.65 34.99ZM69.78 36.04C69.58 35.98 69.42 35.96 69.3 35.98C69.2 36 69.1 36.1 69 36.28C68.86 36.5 68.75 36.68 68.67 36.82C68.59 36.94 68.64 37.1 68.82 37.3C68.98 37.52 69.13 37.61 69.27 37.57C69.43 37.53 69.63 37.46 69.87 37.36C70.13 37.26 70.33 37.18 70.47 37.12C70.61 37.06 70.67 36.89 70.65 36.61C70.63 36.35 70.54 36.21 70.38 36.19C70.22 36.15 70.02 36.1 69.78 36.04ZM56.55 37.18C56.43 36.9 56.28 36.77 56.1 36.79C55.94 36.79 55.71 36.8 55.41 36.82C55.09 36.84 54.83 36.86 54.63 36.88C54.45 36.88 54.32 37.04 54.24 37.36C54.16 37.68 54.18 37.92 54.3 38.08C54.42 38.22 54.62 38.38 54.9 38.56C55.24 38.76 55.5 38.9 55.68 38.98C55.88 39.06 56.12 38.97 56.4 38.71C56.7 38.47 56.83 38.25 56.79 38.05C56.77 37.83 56.69 37.54 56.55 37.18ZM76.1065 40C75.8865 40 75.6965 39.92 75.5365 39.76C75.3765 39.6 75.2965 39.41 75.2965 39.19V19.81C75.2965 19.59 75.3765 19.4 75.5365 19.24C75.6965 19.08 75.8865 19 76.1065 19H82.2265C82.4465 19 82.6365 19.08 82.7965 19.24C82.9565 19.4 83.0365 19.59 83.0365 19.81V39.19C83.0365 39.41 82.9565 39.6 82.7965 39.76C82.6365 39.92 82.4465 40 82.2265 40H76.1065ZM79.1965 19.81C78.9965 19.79 78.8465 19.81 78.7465 19.87C78.6665 19.93 78.5865 20.05 78.5065 20.23C78.4265 20.41 78.4065 20.54 78.4465 20.62C78.5065 20.7 78.6165 20.8 78.7765 20.92C78.9365 21.06 79.0565 21.18 79.1365 21.28C79.2365 21.36 79.3765 21.34 79.5565 21.22C79.7565 21.1 79.8465 20.98 79.8265 20.86C79.8065 20.74 79.7665 20.58 79.7065 20.38C79.6665 20.18 79.6165 20.04 79.5565 19.96C79.4965 19.88 79.3765 19.83 79.1965 19.81ZM77.0965 20.26L76.8265 20.29L76.8865 20.59H77.1565L77.0965 20.26ZM78.0565 21.73L77.7265 21.64L77.6665 22.06L78.0265 22.27L78.2965 21.97L78.0565 21.73ZM79.9465 22.15C79.9065 22.07 79.8765 22.01 79.8565 21.97C79.8365 21.91 79.7765 21.88 79.6765 21.88C79.4965 21.9 79.3865 22.01 79.3465 22.21C79.3265 22.29 79.3365 22.35 79.3765 22.39C79.4365 22.41 79.5065 22.44 79.5865 22.48C79.6665 22.52 79.7265 22.56 79.7665 22.6C79.8265 22.62 79.8865 22.6 79.9465 22.54C80.0265 22.48 80.0565 22.43 80.0365 22.39C80.0165 22.33 79.9865 22.25 79.9465 22.15ZM77.0365 22.54L76.8865 22.36L76.5865 22.42L76.7365 22.66L76.9765 22.84L77.0365 22.54ZM82.0765 23.14L81.7765 23.2L81.8665 23.53L82.1965 23.62L82.3165 23.32L82.0765 23.14ZM77.0965 23.92L76.9165 23.8L76.6465 23.89L76.7365 24.22H77.0965V23.92ZM79.7065 24.46C79.5665 24.34 79.4065 24.34 79.2265 24.46C79.1265 24.52 79.0465 24.58 78.9865 24.64C78.9465 24.7 78.9365 24.79 78.9565 24.91C79.0365 25.15 79.1865 25.28 79.4065 25.3C79.5465 25.3 79.6365 25.28 79.6765 25.24C79.7165 25.18 79.7665 25.08 79.8265 24.94C79.9065 24.76 79.8665 24.6 79.7065 24.46ZM77.6965 24.67L77.4565 24.46L77.3065 24.73V24.97H77.6065L77.6965 24.67ZM81.9265 25.6L81.5665 25.72L81.7165 26.02L81.9565 26.08L82.1665 25.87L81.9265 25.6ZM76.8265 26.41L76.4665 26.17L76.1665 26.41L76.3165 26.74L76.6465 26.77L76.8265 26.41ZM81.0265 26.74C81.0065 26.56 80.9465 26.45 80.8465 26.41C80.7665 26.37 80.6365 26.33 80.4565 26.29C80.3165 26.27 80.2165 26.29 80.1565 26.35C80.1165 26.41 80.0665 26.5 80.0065 26.62C79.9465 26.74 79.9065 26.84 79.8865 26.92C79.8865 26.98 79.9265 27.06 80.0065 27.16C80.1265 27.28 80.2165 27.36 80.2765 27.4C80.3565 27.44 80.4665 27.42 80.6065 27.34C80.7665 27.26 80.8765 27.19 80.9365 27.13C81.0165 27.05 81.0465 26.92 81.0265 26.74ZM78.6265 27.28C78.3265 27.2 78.0965 27.2 77.9365 27.28C77.7965 27.36 77.6365 27.53 77.4565 27.79C77.3165 28.03 77.2765 28.22 77.3365 28.36C77.4165 28.5 77.5465 28.67 77.7265 28.87C77.9065 29.09 78.0565 29.24 78.1765 29.32C78.2965 29.4 78.4765 29.39 78.7165 29.29C79.0365 29.15 79.2765 29.03 79.4365 28.93C79.6165 28.83 79.6965 28.61 79.6765 28.27C79.6565 27.91 79.5565 27.68 79.3765 27.58C79.2165 27.46 78.9665 27.36 78.6265 27.28ZM81.3265 28L81.1165 28.03L80.9665 28.27L81.2665 28.39L81.5365 28.21L81.3265 28ZM77.2765 30.7C77.0965 30.68 76.9965 30.73 76.9765 30.85C76.9565 30.95 76.9165 31.08 76.8565 31.24C76.7965 31.4 76.7365 31.53 76.6765 31.63C76.6365 31.71 76.6765 31.8 76.7965 31.9C76.9165 32 77.0165 32.02 77.0965 31.96C77.1765 31.88 77.2865 31.8 77.4265 31.72C77.5665 31.64 77.6865 31.58 77.7865 31.54C77.8865 31.5 77.9165 31.39 77.8765 31.21C77.8365 31.03 77.7765 30.91 77.6965 30.85C77.6165 30.77 77.4765 30.72 77.2765 30.7ZM79.2865 30.94L78.9865 31L79.1365 31.3L79.4665 31.39L79.5565 31.06L79.2865 30.94ZM82.0765 32.47L81.8665 32.32L81.7765 32.56L81.8965 32.83L82.1065 32.65L82.0765 32.47ZM79.4065 32.8C79.2665 32.66 79.0965 32.64 78.8965 32.74C78.6965 32.84 78.6165 33 78.6565 33.22C78.6965 33.44 78.8265 33.57 79.0465 33.61C79.2065 33.63 79.3265 33.64 79.4065 33.64C79.4865 33.62 79.5665 33.54 79.6465 33.4C79.7065 33.26 79.7065 33.16 79.6465 33.1C79.6065 33.02 79.5265 32.92 79.4065 32.8ZM81.6265 33.85C81.3665 33.67 81.1165 33.67 80.8765 33.85C80.7365 33.95 80.6565 34.05 80.6365 34.15C80.6365 34.23 80.6665 34.35 80.7265 34.51C80.7865 34.71 80.8365 34.87 80.8765 34.99C80.9165 35.09 81.0365 35.14 81.2365 35.14C81.4565 35.14 81.6165 35.11 81.7165 35.05C81.8365 34.99 81.9365 34.85 82.0165 34.63C82.0765 34.43 82.0665 34.29 81.9865 34.21C81.9065 34.11 81.7865 33.99 81.6265 33.85ZM77.4865 33.91C77.3265 33.85 77.1965 33.84 77.0965 33.88C77.0165 33.9 76.9265 33.98 76.8265 34.12C76.7465 34.26 76.7265 34.37 76.7665 34.45C76.8065 34.51 76.8765 34.6 76.9765 34.72C77.0965 34.86 77.1865 34.98 77.2465 35.08C77.3065 35.16 77.4165 35.16 77.5765 35.08C77.7765 35.02 77.8965 34.95 77.9365 34.87C77.9965 34.77 78.0265 34.62 78.0265 34.42C78.0065 34.22 77.9565 34.1 77.8765 34.06C77.7965 34 77.6665 33.95 77.4865 33.91ZM79.5265 35.44L79.3165 35.35L79.1665 35.59L79.3465 35.83L79.6465 35.68L79.5265 35.44ZM78.5065 36.01L78.2665 35.83L77.9965 36.01L78.0865 36.37L78.3865 36.28L78.5065 36.01ZM77.2465 36.64C77.2465 36.46 77.2265 36.33 77.1865 36.25C77.1465 36.15 77.0365 36.07 76.8565 36.01C76.7165 35.97 76.6265 36 76.5865 36.1C76.5465 36.18 76.4765 36.29 76.3765 36.43C76.2765 36.57 76.2765 36.71 76.3765 36.85C76.4765 36.97 76.5465 37.06 76.5865 37.12C76.6265 37.18 76.7165 37.19 76.8565 37.15C77.0165 37.09 77.1165 37.03 77.1565 36.97C77.2165 36.91 77.2465 36.8 77.2465 36.64ZM81.3265 36.1C81.2065 36.08 81.1165 36.15 81.0565 36.31C80.9965 36.45 81.0065 36.56 81.0865 36.64C81.1665 36.72 81.2765 36.72 81.4165 36.64C81.4965 36.6 81.5565 36.57 81.5965 36.55C81.6565 36.51 81.6765 36.45 81.6565 36.37C81.6165 36.21 81.5065 36.12 81.3265 36.1ZM79.3165 37.09L79.1365 36.85L78.8365 37.03L78.9265 37.36L79.2265 37.33L79.3165 37.09ZM79.5565 38.53C79.5365 38.39 79.5065 38.29 79.4665 38.23C79.4465 38.15 79.3665 38.09 79.2265 38.05C79.0665 38.03 78.9465 38.03 78.8665 38.05C78.7865 38.07 78.7065 38.15 78.6265 38.29C78.5465 38.43 78.5465 38.53 78.6265 38.59C78.7065 38.63 78.7965 38.7 78.8965 38.8C78.9565 38.88 79.0065 38.94 79.0465 38.98C79.1065 39.02 79.1865 39.02 79.2865 38.98C79.4865 38.88 79.5765 38.73 79.5565 38.53ZM82.1065 38.35C82.0465 38.21 81.9665 38.15 81.8665 38.17C81.7665 38.19 81.6365 38.21 81.4765 38.23C81.3365 38.25 81.2265 38.27 81.1465 38.29C81.0865 38.31 81.0365 38.39 80.9965 38.53C80.9765 38.71 80.9665 38.85 80.9665 38.95C80.9665 39.05 81.0465 39.14 81.2065 39.22C81.3465 39.3 81.4465 39.3 81.5065 39.22C81.5665 39.12 81.6565 39.01 81.7765 38.89C81.8965 38.77 81.9965 38.69 82.0765 38.65C82.1565 38.59 82.1665 38.49 82.1065 38.35ZM87.1514 40C86.9314 40 86.7414 39.92 86.5814 39.76C86.4214 39.6 86.3414 39.41 86.3414 39.19V19.81C86.3414 19.59 86.4214 19.4 86.5814 19.24C86.7414 19.08 86.9314 19 87.1514 19H91.8914C92.2914 19 92.5914 19.11 92.7914 19.33C92.9914 19.55 93.1214 19.71 93.1814 19.81L97.5314 27.01L101.881 19.81C101.941 19.71 102.071 19.55 102.271 19.33C102.471 19.11 102.771 19 103.171 19H107.911C108.131 19 108.321 19.08 108.481 19.24C108.641 19.4 108.721 19.59 108.721 19.81V39.19C108.721 39.41 108.641 39.6 108.481 39.76C108.321 39.92 108.131 40 107.911 40H102.481C102.261 40 102.071 39.92 101.911 39.76C101.751 39.6 101.671 39.41 101.671 39.19V30.97L99.6914 34.21C99.5914 34.37 99.4514 34.54 99.2714 34.72C99.1114 34.88 98.8814 34.96 98.5814 34.96H96.4814C96.1814 34.96 95.9414 34.88 95.7614 34.72C95.6014 34.54 95.4714 34.37 95.3714 34.21L93.3914 30.97V39.19C93.3914 39.41 93.3114 39.6 93.1514 39.76C92.9914 39.92 92.8014 40 92.5814 40H87.1514ZM107.461 19.84C107.261 19.72 107.061 19.76 106.861 19.96C106.781 20.04 106.751 20.12 106.771 20.2C106.811 20.26 106.861 20.35 106.921 20.47C106.981 20.57 107.021 20.65 107.041 20.71C107.081 20.77 107.161 20.79 107.281 20.77C107.421 20.75 107.521 20.72 107.581 20.68C107.661 20.64 107.711 20.55 107.731 20.41C107.771 20.15 107.681 19.96 107.461 19.84ZM103.021 20.23C102.881 20.17 102.771 20.17 102.691 20.23C102.631 20.29 102.551 20.38 102.451 20.5C102.371 20.6 102.341 20.69 102.361 20.77C102.381 20.83 102.421 20.91 102.481 21.01C102.581 21.17 102.721 21.23 102.901 21.19C103.081 21.13 103.181 21.01 103.201 20.83C103.201 20.67 103.201 20.55 103.201 20.47C103.221 20.37 103.161 20.29 103.021 20.23ZM87.7214 20.47L87.3314 20.59L87.0314 20.89L87.4214 21.13L87.8114 20.95L87.7214 20.47ZM105.391 22.36C105.151 22.3 105.001 22.34 104.941 22.48C104.901 22.62 104.821 22.78 104.701 22.96C104.581 23.16 104.481 23.31 104.401 23.41C104.321 23.51 104.351 23.65 104.491 23.83C104.651 24.01 104.791 24.11 104.911 24.13C105.031 24.13 105.211 24.08 105.451 23.98C105.651 23.9 105.771 23.81 105.811 23.71C105.871 23.59 105.891 23.42 105.871 23.2C105.851 22.96 105.821 22.78 105.781 22.66C105.741 22.52 105.611 22.42 105.391 22.36ZM88.8314 23.2C88.7914 23.02 88.7514 22.89 88.7114 22.81C88.6714 22.73 88.5614 22.69 88.3814 22.69C88.2014 22.69 88.0714 22.72 87.9914 22.78C87.9314 22.82 87.8614 22.93 87.7814 23.11C87.7214 23.25 87.7214 23.36 87.7814 23.44C87.8414 23.5 87.9314 23.58 88.0514 23.68C88.2314 23.84 88.4214 23.85 88.6214 23.71C88.8214 23.59 88.8914 23.42 88.8314 23.2ZM92.0114 23.11C91.9714 22.97 91.8514 22.91 91.6514 22.93C91.5514 22.93 91.4614 22.94 91.3814 22.96C91.3214 22.96 91.2714 23.01 91.2314 23.11C91.2114 23.23 91.2314 23.3 91.2914 23.32C91.3714 23.34 91.4614 23.38 91.5614 23.44C91.6414 23.5 91.7014 23.56 91.7414 23.62C91.8014 23.66 91.8814 23.64 91.9814 23.56C92.0614 23.5 92.0914 23.44 92.0714 23.38C92.0714 23.3 92.0514 23.21 92.0114 23.11ZM103.111 23.8C102.951 23.8 102.821 23.8 102.721 23.8C102.641 23.78 102.571 23.85 102.511 24.01C102.451 24.19 102.431 24.33 102.451 24.43C102.471 24.51 102.551 24.61 102.691 24.73C102.831 24.85 102.941 24.88 103.021 24.82C103.101 24.76 103.211 24.68 103.351 24.58C103.491 24.5 103.591 24.43 103.651 24.37C103.711 24.31 103.721 24.2 103.681 24.04C103.641 23.9 103.571 23.83 103.471 23.83C103.391 23.81 103.271 23.8 103.111 23.8ZM94.0214 25.06C93.8614 24.9 93.7214 24.8 93.6014 24.76C93.5014 24.7 93.3614 24.72 93.1814 24.82C92.9614 24.94 92.8114 25.06 92.7314 25.18C92.6714 25.28 92.6714 25.46 92.7314 25.72C92.7714 25.94 92.8414 26.08 92.9414 26.14C93.0614 26.18 93.2414 26.22 93.4814 26.26C93.6614 26.28 93.7814 26.25 93.8414 26.17C93.9014 26.07 93.9714 25.94 94.0514 25.78C94.1314 25.62 94.1814 25.49 94.2014 25.39C94.2214 25.29 94.1614 25.18 94.0214 25.06ZM90.9014 25.12C90.3614 24.92 89.9514 24.88 89.6714 25C89.3914 25.1 89.0714 25.37 88.7114 25.81C88.5314 26.07 88.4614 26.28 88.5014 26.44C88.5414 26.6 88.6414 26.77 88.8014 26.95C88.9614 27.13 89.1214 27.35 89.2814 27.61C89.5214 27.95 89.7114 28.23 89.8514 28.45C89.9914 28.65 90.2614 28.69 90.6614 28.57C91.0814 28.45 91.3014 28.27 91.3214 28.03C91.3614 27.79 91.3914 27.45 91.4114 27.01C91.4314 26.69 91.4614 26.41 91.5014 26.17C91.5414 25.93 91.5214 25.73 91.4414 25.57C91.3814 25.39 91.2014 25.24 90.9014 25.12ZM106.411 25.18C106.271 25.16 106.161 25.15 106.081 25.15C106.001 25.15 105.931 25.22 105.871 25.36C105.811 25.48 105.821 25.56 105.901 25.6C105.981 25.64 106.071 25.7 106.171 25.78C106.251 25.88 106.311 25.97 106.351 26.05C106.391 26.13 106.471 26.14 106.591 26.08C106.811 25.98 106.901 25.79 106.861 25.51C106.841 25.39 106.791 25.31 106.711 25.27C106.651 25.23 106.551 25.2 106.411 25.18ZM105.421 27.13C105.321 27.01 105.221 26.96 105.121 26.98C105.021 26.98 104.891 27.01 104.731 27.07C104.611 27.11 104.551 27.17 104.551 27.25C104.551 27.33 104.551 27.43 104.551 27.55C104.551 27.75 104.631 27.87 104.791 27.91C104.971 27.97 105.111 28.03 105.211 28.09C105.311 28.15 105.411 28.1 105.511 27.94C105.631 27.78 105.681 27.65 105.661 27.55C105.641 27.43 105.561 27.29 105.421 27.13ZM100.231 27.49C99.9714 27.33 99.7614 27.27 99.6014 27.31C99.4414 27.33 99.2414 27.44 99.0014 27.64C98.6814 27.9 98.4014 28.1 98.1614 28.24C97.9414 28.36 97.9014 28.61 98.0414 28.99C98.2014 29.41 98.3914 29.65 98.6114 29.71C98.8514 29.77 99.2014 29.79 99.6614 29.77C100.021 29.75 100.251 29.66 100.351 29.5C100.471 29.34 100.591 29.08 100.711 28.72C100.791 28.42 100.791 28.19 100.711 28.03C100.651 27.87 100.491 27.69 100.231 27.49ZM103.201 28C103.061 27.86 102.931 27.82 102.811 27.88C102.671 27.96 102.611 28.09 102.631 28.27C102.651 28.39 102.671 28.49 102.691 28.57C102.731 28.63 102.811 28.67 102.931 28.69C103.051 28.71 103.121 28.69 103.141 28.63C103.181 28.55 103.231 28.46 103.291 28.36C103.351 28.24 103.321 28.12 103.201 28ZM94.4114 28C94.3514 27.92 94.2514 27.92 94.1114 28C94.0114 28.04 93.9314 28.07 93.8714 28.09C93.8314 28.11 93.8114 28.16 93.8114 28.24C93.8314 28.4 93.9414 28.5 94.1414 28.54C94.3414 28.58 94.4714 28.53 94.5314 28.39C94.5914 28.31 94.6014 28.25 94.5614 28.21C94.5414 28.15 94.4914 28.08 94.4114 28ZM105.361 29.2C105.361 29.06 105.371 28.95 105.391 28.87C105.431 28.79 105.391 28.73 105.271 28.69C105.131 28.65 105.031 28.66 104.971 28.72C104.931 28.78 104.861 28.86 104.761 28.96C104.681 29.1 104.691 29.25 104.791 29.41C104.871 29.51 104.931 29.58 104.971 29.62C105.031 29.66 105.121 29.66 105.241 29.62C105.341 29.6 105.381 29.56 105.361 29.5C105.361 29.42 105.361 29.32 105.361 29.2ZM96.7514 29.11C96.5114 29.01 96.3314 29.01 96.2114 29.11C96.0914 29.21 95.9514 29.37 95.7914 29.59C95.6114 29.81 95.4714 29.99 95.3714 30.13C95.2714 30.25 95.3014 30.43 95.4614 30.67C95.6414 30.95 95.8114 31.12 95.9714 31.18C96.1314 31.22 96.3614 31.2 96.6614 31.12C96.9414 31.04 97.0814 30.92 97.0814 30.76C97.1014 30.6 97.1214 30.38 97.1414 30.1C97.1614 29.84 97.1614 29.64 97.1414 29.5C97.1414 29.34 97.0114 29.21 96.7514 29.11ZM87.8414 29.41L87.6314 29.23L87.5414 29.5L87.6314 29.68L87.8714 29.65L87.8414 29.41ZM107.581 30.79C107.461 30.41 107.311 30.17 107.131 30.07C106.951 29.95 106.661 29.89 106.261 29.89C105.881 29.89 105.611 29.96 105.451 30.1C105.311 30.22 105.181 30.46 105.061 30.82C104.961 31.16 104.951 31.41 105.031 31.57C105.111 31.73 105.301 31.92 105.601 32.14C105.841 32.32 106.041 32.38 106.201 32.32C106.361 32.26 106.561 32.14 106.801 31.96C107.081 31.76 107.301 31.6 107.461 31.48C107.641 31.34 107.681 31.11 107.581 30.79ZM92.5814 29.89L92.4314 30.01L92.4014 30.22L92.6414 30.25L92.7014 30.04L92.5814 29.89ZM89.1314 31C88.8914 30.84 88.7014 30.72 88.5614 30.64C88.4214 30.54 88.2414 30.57 88.0214 30.73C87.7814 30.91 87.6714 31.08 87.6914 31.24C87.7114 31.4 87.7714 31.62 87.8714 31.9C87.9514 32.18 88.0414 32.38 88.1414 32.5C88.2414 32.6 88.4314 32.65 88.7114 32.65C89.0714 32.65 89.3514 32.64 89.5514 32.62C89.7714 32.58 89.9314 32.39 90.0314 32.05C90.1314 31.71 90.0714 31.5 89.8514 31.42C89.6514 31.34 89.4114 31.2 89.1314 31ZM92.3114 31.06L91.9814 30.85L91.8314 31.18L91.9214 31.42L92.3114 31.45V31.06ZM98.2214 31.45C98.0614 31.37 97.9414 31.36 97.8614 31.42C97.7814 31.48 97.6814 31.57 97.5614 31.69C97.4014 31.85 97.3814 32.04 97.5014 32.26C97.5614 32.38 97.6114 32.47 97.6514 32.53C97.7114 32.59 97.8214 32.61 97.9814 32.59C98.1414 32.57 98.2614 32.54 98.3414 32.5C98.4214 32.44 98.4814 32.33 98.5214 32.17C98.5414 31.97 98.5314 31.82 98.4914 31.72C98.4714 31.62 98.3814 31.53 98.2214 31.45ZM105.061 33.4C104.821 33.2 104.631 33.16 104.491 33.28C104.351 33.38 104.151 33.51 103.891 33.67C103.611 33.85 103.361 33.98 103.141 34.06C102.941 34.14 102.891 34.35 102.991 34.69C103.071 35.05 103.201 35.27 103.381 35.35C103.581 35.41 103.871 35.45 104.251 35.47C104.551 35.49 104.741 35.43 104.821 35.29C104.921 35.13 105.021 34.91 105.121 34.63C105.241 34.35 105.321 34.13 105.361 33.97C105.401 33.79 105.301 33.6 105.061 33.4ZM106.861 33.52L106.471 33.61L106.351 34.03L106.741 34.09L107.041 33.91L106.861 33.52ZM90.2114 34.72C90.2114 34.56 90.2114 34.44 90.2114 34.36C90.2114 34.28 90.1414 34.22 90.0014 34.18C89.8614 34.14 89.7614 34.16 89.7014 34.24C89.6614 34.3 89.6014 34.39 89.5214 34.51C89.4414 34.65 89.4614 34.79 89.5814 34.93C89.7014 35.11 89.8414 35.17 90.0014 35.11C90.1414 35.05 90.2114 34.92 90.2114 34.72ZM106.861 37.27C106.721 37.03 106.601 36.85 106.501 36.73C106.421 36.61 106.241 36.58 105.961 36.64C105.681 36.7 105.491 36.79 105.391 36.91C105.291 37.03 105.221 37.24 105.181 37.54C105.161 37.82 105.191 38.02 105.271 38.14C105.351 38.26 105.521 38.38 105.781 38.5C106.081 38.64 106.321 38.75 106.501 38.83C106.681 38.89 106.881 38.79 107.101 38.53C107.321 38.31 107.371 38.12 107.251 37.96C107.151 37.78 107.021 37.55 106.861 37.27ZM90.6614 36.85L90.3614 36.67L89.9414 36.64L89.9714 37.15H90.4214L90.6614 36.85ZM103.051 37.3L102.751 37.45V37.81L103.111 37.93L103.321 37.57L103.051 37.3ZM112.845 40C112.625 40 112.435 39.92 112.275 39.76C112.115 39.6 112.035 39.41 112.035 39.19V19.81C112.035 19.59 112.115 19.4 112.275 19.24C112.435 19.08 112.625 19 112.845 19H118.965C119.185 19 119.375 19.08 119.535 19.24C119.695 19.4 119.775 19.59 119.775 19.81V39.19C119.775 39.41 119.695 39.6 119.535 39.76C119.375 39.92 119.185 40 118.965 40H112.845ZM115.935 19.81C115.735 19.79 115.585 19.81 115.485 19.87C115.405 19.93 115.325 20.05 115.245 20.23C115.165 20.41 115.145 20.54 115.185 20.62C115.245 20.7 115.355 20.8 115.515 20.92C115.675 21.06 115.795 21.18 115.875 21.28C115.975 21.36 116.115 21.34 116.295 21.22C116.495 21.1 116.585 20.98 116.565 20.86C116.545 20.74 116.505 20.58 116.445 20.38C116.405 20.18 116.355 20.04 116.295 19.96C116.235 19.88 116.115 19.83 115.935 19.81ZM113.835 20.26L113.565 20.29L113.625 20.59H113.895L113.835 20.26ZM114.795 21.73L114.465 21.64L114.405 22.06L114.765 22.27L115.035 21.97L114.795 21.73ZM116.685 22.15C116.645 22.07 116.615 22.01 116.595 21.97C116.575 21.91 116.515 21.88 116.415 21.88C116.235 21.9 116.125 22.01 116.085 22.21C116.065 22.29 116.075 22.35 116.115 22.39C116.175 22.41 116.245 22.44 116.325 22.48C116.405 22.52 116.465 22.56 116.505 22.6C116.565 22.62 116.625 22.6 116.685 22.54C116.765 22.48 116.795 22.43 116.775 22.39C116.755 22.33 116.725 22.25 116.685 22.15ZM113.775 22.54L113.625 22.36L113.325 22.42L113.475 22.66L113.715 22.84L113.775 22.54ZM118.815 23.14L118.515 23.2L118.605 23.53L118.935 23.62L119.055 23.32L118.815 23.14ZM113.835 23.92L113.655 23.8L113.385 23.89L113.475 24.22H113.835V23.92ZM116.445 24.46C116.305 24.34 116.145 24.34 115.965 24.46C115.865 24.52 115.785 24.58 115.725 24.64C115.685 24.7 115.675 24.79 115.695 24.91C115.775 25.15 115.925 25.28 116.145 25.3C116.285 25.3 116.375 25.28 116.415 25.24C116.455 25.18 116.505 25.08 116.565 24.94C116.645 24.76 116.605 24.6 116.445 24.46ZM114.435 24.67L114.195 24.46L114.045 24.73V24.97H114.345L114.435 24.67ZM118.665 25.6L118.305 25.72L118.455 26.02L118.695 26.08L118.905 25.87L118.665 25.6ZM113.565 26.41L113.205 26.17L112.905 26.41L113.055 26.74L113.385 26.77L113.565 26.41ZM117.765 26.74C117.745 26.56 117.685 26.45 117.585 26.41C117.505 26.37 117.375 26.33 117.195 26.29C117.055 26.27 116.955 26.29 116.895 26.35C116.855 26.41 116.805 26.5 116.745 26.62C116.685 26.74 116.645 26.84 116.625 26.92C116.625 26.98 116.665 27.06 116.745 27.16C116.865 27.28 116.955 27.36 117.015 27.4C117.095 27.44 117.205 27.42 117.345 27.34C117.505 27.26 117.615 27.19 117.675 27.13C117.755 27.05 117.785 26.92 117.765 26.74ZM115.365 27.28C115.065 27.2 114.835 27.2 114.675 27.28C114.535 27.36 114.375 27.53 114.195 27.79C114.055 28.03 114.015 28.22 114.075 28.36C114.155 28.5 114.285 28.67 114.465 28.87C114.645 29.09 114.795 29.24 114.915 29.32C115.035 29.4 115.215 29.39 115.455 29.29C115.775 29.15 116.015 29.03 116.175 28.93C116.355 28.83 116.435 28.61 116.415 28.27C116.395 27.91 116.295 27.68 116.115 27.58C115.955 27.46 115.705 27.36 115.365 27.28ZM118.065 28L117.855 28.03L117.705 28.27L118.005 28.39L118.275 28.21L118.065 28ZM114.015 30.7C113.835 30.68 113.735 30.73 113.715 30.85C113.695 30.95 113.655 31.08 113.595 31.24C113.535 31.4 113.475 31.53 113.415 31.63C113.375 31.71 113.415 31.8 113.535 31.9C113.655 32 113.755 32.02 113.835 31.96C113.915 31.88 114.025 31.8 114.165 31.72C114.305 31.64 114.425 31.58 114.525 31.54C114.625 31.5 114.655 31.39 114.615 31.21C114.575 31.03 114.515 30.91 114.435 30.85C114.355 30.77 114.215 30.72 114.015 30.7ZM116.025 30.94L115.725 31L115.875 31.3L116.205 31.39L116.295 31.06L116.025 30.94ZM118.815 32.47L118.605 32.32L118.515 32.56L118.635 32.83L118.845 32.65L118.815 32.47ZM116.145 32.8C116.005 32.66 115.835 32.64 115.635 32.74C115.435 32.84 115.355 33 115.395 33.22C115.435 33.44 115.565 33.57 115.785 33.61C115.945 33.63 116.065 33.64 116.145 33.64C116.225 33.62 116.305 33.54 116.385 33.4C116.445 33.26 116.445 33.16 116.385 33.1C116.345 33.02 116.265 32.92 116.145 32.8ZM118.365 33.85C118.105 33.67 117.855 33.67 117.615 33.85C117.475 33.95 117.395 34.05 117.375 34.15C117.375 34.23 117.405 34.35 117.465 34.51C117.525 34.71 117.575 34.87 117.615 34.99C117.655 35.09 117.775 35.14 117.975 35.14C118.195 35.14 118.355 35.11 118.455 35.05C118.575 34.99 118.675 34.85 118.755 34.63C118.815 34.43 118.805 34.29 118.725 34.21C118.645 34.11 118.525 33.99 118.365 33.85ZM114.225 33.91C114.065 33.85 113.935 33.84 113.835 33.88C113.755 33.9 113.665 33.98 113.565 34.12C113.485 34.26 113.465 34.37 113.505 34.45C113.545 34.51 113.615 34.6 113.715 34.72C113.835 34.86 113.925 34.98 113.985 35.08C114.045 35.16 114.155 35.16 114.315 35.08C114.515 35.02 114.635 34.95 114.675 34.87C114.735 34.77 114.765 34.62 114.765 34.42C114.745 34.22 114.695 34.1 114.615 34.06C114.535 34 114.405 33.95 114.225 33.91ZM116.265 35.44L116.055 35.35L115.905 35.59L116.085 35.83L116.385 35.68L116.265 35.44ZM115.245 36.01L115.005 35.83L114.735 36.01L114.825 36.37L115.125 36.28L115.245 36.01ZM113.985 36.64C113.985 36.46 113.965 36.33 113.925 36.25C113.885 36.15 113.775 36.07 113.595 36.01C113.455 35.97 113.365 36 113.325 36.1C113.285 36.18 113.215 36.29 113.115 36.43C113.015 36.57 113.015 36.71 113.115 36.85C113.215 36.97 113.285 37.06 113.325 37.12C113.365 37.18 113.455 37.19 113.595 37.15C113.755 37.09 113.855 37.03 113.895 36.97C113.955 36.91 113.985 36.8 113.985 36.64ZM118.065 36.1C117.945 36.08 117.855 36.15 117.795 36.31C117.735 36.45 117.745 36.56 117.825 36.64C117.905 36.72 118.015 36.72 118.155 36.64C118.235 36.6 118.295 36.57 118.335 36.55C118.395 36.51 118.415 36.45 118.395 36.37C118.355 36.21 118.245 36.12 118.065 36.1ZM116.055 37.09L115.875 36.85L115.575 37.03L115.665 37.36L115.965 37.33L116.055 37.09ZM116.295 38.53C116.275 38.39 116.245 38.29 116.205 38.23C116.185 38.15 116.105 38.09 115.965 38.05C115.805 38.03 115.685 38.03 115.605 38.05C115.525 38.07 115.445 38.15 115.365 38.29C115.285 38.43 115.285 38.53 115.365 38.59C115.445 38.63 115.535 38.7 115.635 38.8C115.695 38.88 115.745 38.94 115.785 38.98C115.845 39.02 115.925 39.02 116.025 38.98C116.225 38.88 116.315 38.73 116.295 38.53ZM118.845 38.35C118.785 38.21 118.705 38.15 118.605 38.17C118.505 38.19 118.375 38.21 118.215 38.23C118.075 38.25 117.965 38.27 117.885 38.29C117.825 38.31 117.775 38.39 117.735 38.53C117.715 38.71 117.705 38.85 117.705 38.95C117.705 39.05 117.785 39.14 117.945 39.22C118.085 39.3 118.185 39.3 118.245 39.22C118.305 39.12 118.395 39.01 118.515 38.89C118.635 38.77 118.735 38.69 118.815 38.65C118.895 38.59 118.905 38.49 118.845 38.35ZM123.89 40C123.67 40 123.48 39.92 123.32 39.76C123.16 39.6 123.08 39.41 123.08 39.19V19.81C123.08 19.59 123.16 19.4 123.32 19.24C123.48 19.08 123.67 19 123.89 19H128.63C129.03 19 129.33 19.11 129.53 19.33C129.73 19.55 129.86 19.71 129.92 19.81L134.27 27.01L138.62 19.81C138.68 19.71 138.81 19.55 139.01 19.33C139.21 19.11 139.51 19 139.91 19H144.65C144.87 19 145.06 19.08 145.22 19.24C145.38 19.4 145.46 19.59 145.46 19.81V39.19C145.46 39.41 145.38 39.6 145.22 39.76C145.06 39.92 144.87 40 144.65 40H139.22C139 40 138.81 39.92 138.65 39.76C138.49 39.6 138.41 39.41 138.41 39.19V30.97L136.43 34.21C136.33 34.37 136.19 34.54 136.01 34.72C135.85 34.88 135.62 34.96 135.32 34.96H133.22C132.92 34.96 132.68 34.88 132.5 34.72C132.34 34.54 132.21 34.37 132.11 34.21L130.13 30.97V39.19C130.13 39.41 130.05 39.6 129.89 39.76C129.73 39.92 129.54 40 129.32 40H123.89ZM144.2 19.84C144 19.72 143.8 19.76 143.6 19.96C143.52 20.04 143.49 20.12 143.51 20.2C143.55 20.26 143.6 20.35 143.66 20.47C143.72 20.57 143.76 20.65 143.78 20.71C143.82 20.77 143.9 20.79 144.02 20.77C144.16 20.75 144.26 20.72 144.32 20.68C144.4 20.64 144.45 20.55 144.47 20.41C144.51 20.15 144.42 19.96 144.2 19.84ZM139.76 20.23C139.62 20.17 139.51 20.17 139.43 20.23C139.37 20.29 139.29 20.38 139.19 20.5C139.11 20.6 139.08 20.69 139.1 20.77C139.12 20.83 139.16 20.91 139.22 21.01C139.32 21.17 139.46 21.23 139.64 21.19C139.82 21.13 139.92 21.01 139.94 20.83C139.94 20.67 139.94 20.55 139.94 20.47C139.96 20.37 139.9 20.29 139.76 20.23ZM124.46 20.47L124.07 20.59L123.77 20.89L124.16 21.13L124.55 20.95L124.46 20.47ZM142.13 22.36C141.89 22.3 141.74 22.34 141.68 22.48C141.64 22.62 141.56 22.78 141.44 22.96C141.32 23.16 141.22 23.31 141.14 23.41C141.06 23.51 141.09 23.65 141.23 23.83C141.39 24.01 141.53 24.11 141.65 24.13C141.77 24.13 141.95 24.08 142.19 23.98C142.39 23.9 142.51 23.81 142.55 23.71C142.61 23.59 142.63 23.42 142.61 23.2C142.59 22.96 142.56 22.78 142.52 22.66C142.48 22.52 142.35 22.42 142.13 22.36ZM125.57 23.2C125.53 23.02 125.49 22.89 125.45 22.81C125.41 22.73 125.3 22.69 125.12 22.69C124.94 22.69 124.81 22.72 124.73 22.78C124.67 22.82 124.6 22.93 124.52 23.11C124.46 23.25 124.46 23.36 124.52 23.44C124.58 23.5 124.67 23.58 124.79 23.68C124.97 23.84 125.16 23.85 125.36 23.71C125.56 23.59 125.63 23.42 125.57 23.2ZM128.75 23.11C128.71 22.97 128.59 22.91 128.39 22.93C128.29 22.93 128.2 22.94 128.12 22.96C128.06 22.96 128.01 23.01 127.97 23.11C127.95 23.23 127.97 23.3 128.03 23.32C128.11 23.34 128.2 23.38 128.3 23.44C128.38 23.5 128.44 23.56 128.48 23.62C128.54 23.66 128.62 23.64 128.72 23.56C128.8 23.5 128.83 23.44 128.81 23.38C128.81 23.3 128.79 23.21 128.75 23.11ZM139.85 23.8C139.69 23.8 139.56 23.8 139.46 23.8C139.38 23.78 139.31 23.85 139.25 24.01C139.19 24.19 139.17 24.33 139.19 24.43C139.21 24.51 139.29 24.61 139.43 24.73C139.57 24.85 139.68 24.88 139.76 24.82C139.84 24.76 139.95 24.68 140.09 24.58C140.23 24.5 140.33 24.43 140.39 24.37C140.45 24.31 140.46 24.2 140.42 24.04C140.38 23.9 140.31 23.83 140.21 23.83C140.13 23.81 140.01 23.8 139.85 23.8ZM130.76 25.06C130.6 24.9 130.46 24.8 130.34 24.76C130.24 24.7 130.1 24.72 129.92 24.82C129.7 24.94 129.55 25.06 129.47 25.18C129.41 25.28 129.41 25.46 129.47 25.72C129.51 25.94 129.58 26.08 129.68 26.14C129.8 26.18 129.98 26.22 130.22 26.26C130.4 26.28 130.52 26.25 130.58 26.17C130.64 26.07 130.71 25.94 130.79 25.78C130.87 25.62 130.92 25.49 130.94 25.39C130.96 25.29 130.9 25.18 130.76 25.06ZM127.64 25.12C127.1 24.92 126.69 24.88 126.41 25C126.13 25.1 125.81 25.37 125.45 25.81C125.27 26.07 125.2 26.28 125.24 26.44C125.28 26.6 125.38 26.77 125.54 26.95C125.7 27.13 125.86 27.35 126.02 27.61C126.26 27.95 126.45 28.23 126.59 28.45C126.73 28.65 127 28.69 127.4 28.57C127.82 28.45 128.04 28.27 128.06 28.03C128.1 27.79 128.13 27.45 128.15 27.01C128.17 26.69 128.2 26.41 128.24 26.17C128.28 25.93 128.26 25.73 128.18 25.57C128.12 25.39 127.94 25.24 127.64 25.12ZM143.15 25.18C143.01 25.16 142.9 25.15 142.82 25.15C142.74 25.15 142.67 25.22 142.61 25.36C142.55 25.48 142.56 25.56 142.64 25.6C142.72 25.64 142.81 25.7 142.91 25.78C142.99 25.88 143.05 25.97 143.09 26.05C143.13 26.13 143.21 26.14 143.33 26.08C143.55 25.98 143.64 25.79 143.6 25.51C143.58 25.39 143.53 25.31 143.45 25.27C143.39 25.23 143.29 25.2 143.15 25.18ZM142.16 27.13C142.06 27.01 141.96 26.96 141.86 26.98C141.76 26.98 141.63 27.01 141.47 27.07C141.35 27.11 141.29 27.17 141.29 27.25C141.29 27.33 141.29 27.43 141.29 27.55C141.29 27.75 141.37 27.87 141.53 27.91C141.71 27.97 141.85 28.03 141.95 28.09C142.05 28.15 142.15 28.1 142.25 27.94C142.37 27.78 142.42 27.65 142.4 27.55C142.38 27.43 142.3 27.29 142.16 27.13ZM136.97 27.49C136.71 27.33 136.5 27.27 136.34 27.31C136.18 27.33 135.98 27.44 135.74 27.64C135.42 27.9 135.14 28.1 134.9 28.24C134.68 28.36 134.64 28.61 134.78 28.99C134.94 29.41 135.13 29.65 135.35 29.71C135.59 29.77 135.94 29.79 136.4 29.77C136.76 29.75 136.99 29.66 137.09 29.5C137.21 29.34 137.33 29.08 137.45 28.72C137.53 28.42 137.53 28.19 137.45 28.03C137.39 27.87 137.23 27.69 136.97 27.49ZM139.94 28C139.8 27.86 139.67 27.82 139.55 27.88C139.41 27.96 139.35 28.09 139.37 28.27C139.39 28.39 139.41 28.49 139.43 28.57C139.47 28.63 139.55 28.67 139.67 28.69C139.79 28.71 139.86 28.69 139.88 28.63C139.92 28.55 139.97 28.46 140.03 28.36C140.09 28.24 140.06 28.12 139.94 28ZM131.15 28C131.09 27.92 130.99 27.92 130.85 28C130.75 28.04 130.67 28.07 130.61 28.09C130.57 28.11 130.55 28.16 130.55 28.24C130.57 28.4 130.68 28.5 130.88 28.54C131.08 28.58 131.21 28.53 131.27 28.39C131.33 28.31 131.34 28.25 131.3 28.21C131.28 28.15 131.23 28.08 131.15 28ZM142.1 29.2C142.1 29.06 142.11 28.95 142.13 28.87C142.17 28.79 142.13 28.73 142.01 28.69C141.87 28.65 141.77 28.66 141.71 28.72C141.67 28.78 141.6 28.86 141.5 28.96C141.42 29.1 141.43 29.25 141.53 29.41C141.61 29.51 141.67 29.58 141.71 29.62C141.77 29.66 141.86 29.66 141.98 29.62C142.08 29.6 142.12 29.56 142.1 29.5C142.1 29.42 142.1 29.32 142.1 29.2ZM133.49 29.11C133.25 29.01 133.07 29.01 132.95 29.11C132.83 29.21 132.69 29.37 132.53 29.59C132.35 29.81 132.21 29.99 132.11 30.13C132.01 30.25 132.04 30.43 132.2 30.67C132.38 30.95 132.55 31.12 132.71 31.18C132.87 31.22 133.1 31.2 133.4 31.12C133.68 31.04 133.82 30.92 133.82 30.76C133.84 30.6 133.86 30.38 133.88 30.1C133.9 29.84 133.9 29.64 133.88 29.5C133.88 29.34 133.75 29.21 133.49 29.11ZM124.58 29.41L124.37 29.23L124.28 29.5L124.37 29.68L124.61 29.65L124.58 29.41ZM144.32 30.79C144.2 30.41 144.05 30.17 143.87 30.07C143.69 29.95 143.4 29.89 143 29.89C142.62 29.89 142.35 29.96 142.19 30.1C142.05 30.22 141.92 30.46 141.8 30.82C141.7 31.16 141.69 31.41 141.77 31.57C141.85 31.73 142.04 31.92 142.34 32.14C142.58 32.32 142.78 32.38 142.94 32.32C143.1 32.26 143.3 32.14 143.54 31.96C143.82 31.76 144.04 31.6 144.2 31.48C144.38 31.34 144.42 31.11 144.32 30.79ZM129.32 29.89L129.17 30.01L129.14 30.22L129.38 30.25L129.44 30.04L129.32 29.89ZM125.87 31C125.63 30.84 125.44 30.72 125.3 30.64C125.16 30.54 124.98 30.57 124.76 30.73C124.52 30.91 124.41 31.08 124.43 31.24C124.45 31.4 124.51 31.62 124.61 31.9C124.69 32.18 124.78 32.38 124.88 32.5C124.98 32.6 125.17 32.65 125.45 32.65C125.81 32.65 126.09 32.64 126.29 32.62C126.51 32.58 126.67 32.39 126.77 32.05C126.87 31.71 126.81 31.5 126.59 31.42C126.39 31.34 126.15 31.2 125.87 31ZM129.05 31.06L128.72 30.85L128.57 31.18L128.66 31.42L129.05 31.45V31.06ZM134.96 31.45C134.8 31.37 134.68 31.36 134.6 31.42C134.52 31.48 134.42 31.57 134.3 31.69C134.14 31.85 134.12 32.04 134.24 32.26C134.3 32.38 134.35 32.47 134.39 32.53C134.45 32.59 134.56 32.61 134.72 32.59C134.88 32.57 135 32.54 135.08 32.5C135.16 32.44 135.22 32.33 135.26 32.17C135.28 31.97 135.27 31.82 135.23 31.72C135.21 31.62 135.12 31.53 134.96 31.45ZM141.8 33.4C141.56 33.2 141.37 33.16 141.23 33.28C141.09 33.38 140.89 33.51 140.63 33.67C140.35 33.85 140.1 33.98 139.88 34.06C139.68 34.14 139.63 34.35 139.73 34.69C139.81 35.05 139.94 35.27 140.12 35.35C140.32 35.41 140.61 35.45 140.99 35.47C141.29 35.49 141.48 35.43 141.56 35.29C141.66 35.13 141.76 34.91 141.86 34.63C141.98 34.35 142.06 34.13 142.1 33.97C142.14 33.79 142.04 33.6 141.8 33.4ZM143.6 33.52L143.21 33.61L143.09 34.03L143.48 34.09L143.78 33.91L143.6 33.52ZM126.95 34.72C126.95 34.56 126.95 34.44 126.95 34.36C126.95 34.28 126.88 34.22 126.74 34.18C126.6 34.14 126.5 34.16 126.44 34.24C126.4 34.3 126.34 34.39 126.26 34.51C126.18 34.65 126.2 34.79 126.32 34.93C126.44 35.11 126.58 35.17 126.74 35.11C126.88 35.05 126.95 34.92 126.95 34.72ZM143.6 37.27C143.46 37.03 143.34 36.85 143.24 36.73C143.16 36.61 142.98 36.58 142.7 36.64C142.42 36.7 142.23 36.79 142.13 36.91C142.03 37.03 141.96 37.24 141.92 37.54C141.9 37.82 141.93 38.02 142.01 38.14C142.09 38.26 142.26 38.38 142.52 38.5C142.82 38.64 143.06 38.75 143.24 38.83C143.42 38.89 143.62 38.79 143.84 38.53C144.06 38.31 144.11 38.12 143.99 37.96C143.89 37.78 143.76 37.55 143.6 37.27ZM127.4 36.85L127.1 36.67L126.68 36.64L126.71 37.15H127.16L127.4 36.85ZM139.79 37.3L139.49 37.45V37.81L139.85 37.93L140.06 37.57L139.79 37.3Z" fill="white"/>
<g filter="url(#filter1_d_11402_32059)">
<path fill-rule="evenodd" clip-rule="evenodd" d="M44.2883 18.0159C44.1891 18.0553 42.0993 18.3002 40.3963 18.472C39.7667 18.5354 39.1854 18.5949 39.1044 18.6041C38.545 18.6676 36.4032 18.8653 35.2288 18.9619C33.8475 19.0754 33.4317 19.1091 31.7947 19.2394C31.345 19.2752 30.6091 19.3337 30.1594 19.3696C29.7097 19.4054 29.1357 19.4507 28.8839 19.4702C28.359 19.5109 28.0333 19.5566 27.9496 19.6014C27.9176 19.6185 27.8609 19.6714 27.8235 19.719L27.7556 19.8053V26.0798V32.3542L27.682 32.3708C27.605 32.3882 27.0817 32.4729 26.455 32.5694C26.104 32.6234 26.0816 32.6316 25.9853 32.7413C25.866 32.8772 25.8645 32.8533 26.0402 33.6146C26.2887 34.6916 26.7715 35.9673 27.2841 36.9016C27.5439 37.375 27.5832 37.6035 27.4199 37.6913C27.3687 37.7188 27.1638 37.7282 26.7378 37.7227C26.0248 37.7134 25.7258 37.7663 25.2863 37.9794C24.4649 38.3778 23.8403 39.1624 24.0362 39.5497C24.1772 39.8283 24.6623 39.8634 25.0421 39.6224C25.1563 39.55 25.2195 39.4716 25.3319 39.2627C25.5686 38.8229 25.9184 38.5402 26.3719 38.4221C26.4749 38.3953 26.5675 38.3733 26.5777 38.3733C26.5878 38.3733 26.4699 38.5021 26.3156 38.6595C26.1613 38.8169 25.9407 39.0708 25.8255 39.2237C25.7102 39.3766 25.5075 39.6323 25.375 39.7921C25.0639 40.1672 24.9856 40.3237 25.0268 40.4889C25.0863 40.7276 25.3881 40.831 25.6575 40.705C25.9215 40.5814 26.105 40.3366 26.4185 39.6898C26.7207 39.0665 26.8546 38.849 26.9139 38.8856C26.933 38.8974 26.9383 38.891 26.9261 38.8712C26.914 38.8517 26.9191 38.8265 26.9374 38.8152C26.9833 38.7868 26.9783 38.876 26.92 39.1255C26.8077 39.6058 26.6236 39.9913 26.278 40.4698C26.0847 40.7375 25.9241 41.0714 25.9241 41.2057C25.924 41.3571 26.05 41.5213 26.2084 41.5765C26.3931 41.6408 26.5699 41.5808 26.7583 41.3897C27.1015 41.0415 27.313 40.3758 27.4971 39.0631C27.5349 38.7939 27.5367 38.79 27.5833 38.879C27.6797 39.0629 27.7582 39.344 27.7755 39.5671C27.7986 39.8651 27.7205 40.1646 27.4898 40.6627C27.331 41.0057 27.3155 41.0596 27.3148 41.274C27.3141 41.4975 27.3196 41.515 27.4247 41.6235C27.5651 41.7685 27.7212 41.7988 27.964 41.7283C28.3501 41.616 28.5903 41.1732 28.5862 40.5809C28.5841 40.2615 28.5382 40.006 28.3417 39.2177C28.2714 38.9356 28.2234 38.6799 28.235 38.6495C28.2522 38.6048 28.2848 38.5978 28.4065 38.6124C28.6141 38.6374 30.0058 39.0436 31.5985 39.5441C32.9769 39.9773 32.8981 39.9581 33.034 39.8936C33.1001 39.8622 33.1697 39.8078 33.1885 39.7726C33.2107 39.731 33.2214 39.2774 33.219 38.4725L33.2153 37.2362L33.2899 37.2181C33.5333 37.159 38.1961 36.2446 39.9875 35.9048C41.1309 35.6879 41.176 35.6793 42.375 35.4498C42.8877 35.3517 43.9252 35.1584 44.6807 35.0202C45.4362 34.882 46.0872 34.7482 46.1274 34.7228C46.1676 34.6975 46.2088 34.6438 46.2189 34.6036C46.2289 34.5633 46.1708 33.8019 46.0896 32.9115C46.0085 32.0211 45.9198 31.0203 45.8925 30.6875C45.8652 30.3547 45.8129 29.7292 45.7762 29.2975C45.7395 28.8658 45.68 28.1446 45.6441 27.6949C45.6082 27.2452 45.5575 26.6124 45.5313 26.2886C45.5052 25.9648 45.4543 25.3099 45.4182 24.8332C45.382 24.3565 45.3299 23.6721 45.3021 23.3124C45.2744 22.9526 45.1861 21.7237 45.1059 20.5814C44.9289 18.0613 44.9406 18.1728 44.8429 18.0751C44.776 18.0082 44.7353 17.998 44.5432 18.0003C44.421 18.0017 44.3063 18.0087 44.2883 18.0159ZM43.6996 18.721C43.4887 18.7569 41.7278 18.9598 40.9032 19.0432C40.2599 19.1082 39.032 19.2195 36.9295 19.4033C36.2999 19.4584 35.6229 19.5196 35.425 19.5395C35.2272 19.5593 34.9696 19.5848 34.8527 19.5961L34.6401 19.6167L34.9021 19.658C35.0461 19.6808 35.4141 19.7582 35.7197 19.8301C37.3819 20.2212 39.1965 20.9441 40.537 21.7494C40.7402 21.8715 40.9438 21.9935 40.9892 22.0205C41.0691 22.0679 41.0762 22.0647 41.2048 21.9224C41.4619 21.6377 42.6617 20.2303 43.24 19.5349C43.5616 19.1481 43.8543 18.7986 43.8905 18.7581C43.9635 18.6764 43.9624 18.6762 43.6996 18.721ZM43.2682 20.4756C42.6532 21.2443 42.0388 22.0103 41.9028 22.1778C41.7667 22.3453 41.6563 22.4924 41.6574 22.5049C41.6584 22.5173 41.7553 22.601 41.8728 22.691C42.1642 22.9142 42.9643 23.7053 43.2618 24.0646C43.9054 24.8417 44.4944 25.785 44.8854 26.6647L44.9944 26.91L44.9758 26.6974C44.9656 26.5805 44.9272 26.0654 44.8905 25.5527C44.8539 25.04 44.7813 24.0466 44.7293 23.3451C44.6772 22.6435 44.5865 21.3962 44.5276 20.5733C44.4687 19.7503 44.4128 19.0772 44.4034 19.0775C44.394 19.0777 43.8832 19.7069 43.2682 20.4756ZM30.7972 19.9297C30.2784 19.957 28.4065 20.1158 28.3882 20.1341C28.3819 20.1404 28.3805 22.8751 28.3851 26.2112L28.3933 32.2769L29.1783 32.1527C30.0333 32.0174 31.6238 31.7727 32.3507 31.6647C32.7351 31.6075 32.8191 31.5847 32.874 31.5227C33.0375 31.3381 34.0128 30.2116 34.5741 29.5591C34.9145 29.1634 35.3708 28.6336 35.5882 28.3817C35.8056 28.1299 36.1225 27.762 36.2924 27.5641C36.4623 27.3662 36.8076 26.968 37.0598 26.6791C37.3119 26.3903 38.0407 25.5526 38.6793 24.8176C39.3178 24.0826 40.0342 23.2593 40.271 22.988C40.6021 22.6089 40.6929 22.4857 40.6635 22.4557C40.5938 22.3846 39.8808 21.9822 39.3661 21.7235C36.6406 20.3536 33.8502 19.7694 30.7972 19.9297ZM32.9153 21.8253C32.5548 21.886 32.1755 22.0538 31.8599 22.2923C31.5156 22.5524 31.2619 22.9165 31.1035 23.3778C31.0222 23.6145 31.0135 23.6846 31.0117 24.1136C31.01 24.5229 31.0203 24.6215 31.0864 24.8332C31.3705 25.7425 32.0435 26.4027 32.9737 26.6844C33.2145 26.7574 33.3332 26.7736 33.6426 26.7761C33.9735 26.7788 34.0532 26.7678 34.3059 26.685C34.4638 26.6333 34.6811 26.5376 34.7886 26.4724C35.2178 26.2125 35.5779 25.755 35.7424 25.2611C35.8388 24.9715 35.8468 24.9141 35.8476 24.5061C35.8482 24.1474 35.8344 24.0125 35.7737 23.7866C35.6331 23.2637 35.2982 22.7393 34.8761 22.3813C34.3484 21.9338 33.5744 21.7144 32.9153 21.8253ZM40.6871 23.5632C40.3833 23.926 40.0014 24.3785 39.8386 24.5689C39.172 25.348 38.5638 26.0626 38.0413 26.681C37.7374 27.0408 37.238 27.6295 36.9317 27.9893C36.6254 28.349 36.0677 29.004 35.6924 29.4447C35.3171 29.8854 34.9038 30.3711 34.7739 30.524C34.6441 30.6769 34.2737 31.111 33.9509 31.4888C33.6282 31.8665 33.3311 32.218 33.2907 32.2699L33.2174 32.3643V34.5021C33.2174 35.6779 33.2284 36.6396 33.2419 36.6391C33.2554 36.6387 33.3253 36.6241 33.3973 36.6067C33.5498 36.5698 36.4026 36.0191 38.6465 35.5935C39.0153 35.5235 39.8248 35.3691 40.4454 35.2504C41.0659 35.1316 42.0005 34.9536 42.5222 34.8548C43.0438 34.7561 43.6988 34.6313 43.9776 34.5776C44.2564 34.5239 44.7347 34.432 45.0405 34.3735L45.5965 34.2671L45.594 34.1044C45.5908 33.9003 45.535 33.1839 45.4336 32.0448C45.3903 31.5591 45.3239 30.7717 45.286 30.295C45.196 29.1633 45.1522 28.8802 44.9891 28.3759C44.3414 26.3736 43.196 24.5951 41.6612 23.2086C41.4755 23.0408 41.3046 22.9035 41.2815 22.9035C41.2584 22.9035 40.9909 23.2004 40.6871 23.5632ZM40.1563 27.1559C39.2555 27.2809 38.5004 27.9436 38.256 28.8238C38.0011 29.7418 38.2699 30.7128 38.9714 31.408C39.2929 31.7265 39.6607 31.9403 40.1042 32.0664C40.4417 32.1623 41.0709 32.1714 41.3938 32.085C42.4269 31.8085 43.0945 30.9069 43.0945 29.7881C43.0945 28.724 42.4719 27.7848 41.4737 27.343C41.0938 27.1749 40.5627 27.0995 40.1563 27.1559ZM32.4325 32.2296C32.3156 32.2457 32.1928 32.2618 32.1596 32.2653C32.093 32.2724 32.1039 32.2831 32.4734 32.572L32.6614 32.7191V32.4555C32.6614 32.3105 32.6577 32.1938 32.6532 32.1961C32.6488 32.1984 32.5494 32.2134 32.4325 32.2296ZM31.1733 32.4096C31.1373 32.4172 31.0745 32.4306 31.0336 32.4393C30.9695 32.453 31.0125 32.4995 31.3443 32.7757C31.5561 32.952 31.9353 33.2614 32.1872 33.4631L32.6451 33.8301L32.6547 33.6547C32.66 33.5583 32.6498 33.4412 32.632 33.3945C32.6128 33.3439 32.3664 33.1237 32.0215 32.8489C31.4245 32.3733 31.4014 32.3614 31.1733 32.4096ZM30.2412 32.5712C30.2142 32.5762 30.1075 32.5897 30.0041 32.6011C29.9006 32.6125 29.816 32.6326 29.816 32.6457C29.816 32.6588 30.1938 32.9705 30.6554 33.3383C31.1171 33.7062 31.7448 34.2095 32.0503 34.4568C32.3559 34.7042 32.6196 34.9065 32.6365 34.9065C32.6537 34.9065 32.6618 34.8097 32.655 34.6858L32.6429 34.465L32.2352 34.1276C32.0109 33.942 31.6434 33.6411 31.4186 33.459C31.1937 33.2768 30.8847 33.0227 30.7318 32.8943C30.4117 32.6254 30.3098 32.5583 30.2412 32.5712ZM28.907 32.762C28.7938 32.7813 28.6982 32.8105 28.6944 32.8271C28.6876 32.8574 29.151 33.2365 30.7357 34.4973C31.2102 34.8748 31.7898 35.3393 32.0237 35.5295C32.2575 35.7197 32.499 35.9102 32.5604 35.9529L32.6719 36.0304L32.6503 35.8727C32.6384 35.786 32.6287 35.6758 32.6287 35.6279C32.6287 35.5383 32.621 35.5315 31.1931 34.3738C31.0203 34.2337 30.8127 34.0635 30.7318 33.9955C30.3973 33.7145 29.2175 32.7779 29.1672 32.7535C29.1373 32.7389 29.0202 32.7428 28.907 32.762ZM27.7296 32.9511C27.5485 32.9791 27.5288 32.9891 27.566 33.0339C27.5892 33.0619 28.3294 33.663 29.2109 34.3697C30.9293 35.7474 31.6406 36.3225 32.0564 36.6703C32.2003 36.7907 32.3879 36.9453 32.4734 37.0138L32.6287 37.1384L32.6286 36.881L32.6286 36.6236L31.84 35.9858C31.0437 35.3418 29.6524 34.2274 28.5937 33.3857C28.2769 33.1339 27.9993 32.9259 27.9766 32.9235C27.954 32.9211 27.8428 32.9335 27.7296 32.9511ZM26.6542 33.1312C26.5971 33.1383 26.5338 33.1641 26.5136 33.1884C26.4402 33.2768 26.5686 33.3869 28.9166 35.25C29.8746 36.0101 31.9228 37.6953 32.4026 38.1181C32.5211 38.2225 32.6241 38.3079 32.6315 38.308C32.639 38.308 32.6403 38.1834 32.6345 38.031L32.624 37.754L32.471 37.6283C32.3868 37.5592 32.0604 37.2891 31.7457 37.0281C31.1055 36.4974 30.1534 35.7266 29.4924 35.2039C29.2514 35.0134 28.8817 34.7176 28.6708 34.5468C28.4598 34.3759 28.1271 34.1094 27.9315 33.9545C27.7358 33.7997 27.4192 33.5458 27.2279 33.3903C27.0365 33.2349 26.8526 33.1101 26.819 33.1129C26.7855 33.1158 26.7113 33.124 26.6542 33.1312ZM26.8184 34.2414C26.828 34.2744 26.8525 34.3677 26.8727 34.4486C26.948 34.7491 26.9822 34.8064 27.1814 34.965C27.5149 35.2306 28.1256 35.7161 28.982 36.3966C29.4317 36.7539 30.0204 37.2301 30.2903 37.4547C30.853 37.9233 31.8195 38.7386 31.8438 38.7651C31.9435 38.8743 32.2365 39.0788 32.3591 39.1247C32.6793 39.2448 32.6614 39.2482 32.6614 39.0661C32.6614 38.9044 32.6609 38.9036 32.4243 38.7122C32.2939 38.6068 32.0786 38.4288 31.9459 38.3167C31.8131 38.2047 31.6914 38.1212 31.6752 38.1311C31.6591 38.1411 31.65 38.1342 31.6549 38.1159C31.6598 38.0975 31.4786 37.9309 31.2523 37.7455C31.0259 37.5602 30.6442 37.2466 30.4041 37.0487C29.7238 36.4882 26.9287 34.2524 26.8612 34.2149C26.8108 34.1869 26.8038 34.1913 26.8184 34.2414ZM27.3393 35.7918C27.4545 36.0645 27.5334 36.2056 27.626 36.3042C27.7092 36.3929 28.5221 37.0761 28.8815 37.3594C28.9386 37.4044 29.2537 37.6693 29.5818 37.9481C29.9099 38.227 30.2256 38.4799 30.2833 38.5103C30.3944 38.5686 31.1644 38.802 31.1833 38.783C31.2061 38.7602 30.3968 38.1127 30.3679 38.1306C30.3512 38.1408 30.3417 38.1339 30.3467 38.1152C30.3554 38.0822 29.2995 37.2175 28.525 36.6236C28.3139 36.4617 28.1244 36.314 28.1037 36.2955C28.0623 36.2581 27.4626 35.8006 27.3579 35.7264C27.2931 35.6805 27.2928 35.6818 27.3393 35.7918ZM28.0974 37.3104C28.1328 37.5599 28.2346 37.918 28.2839 37.9664C28.3081 37.9901 28.5266 38.0534 28.7694 38.1068C29.0123 38.1603 29.2398 38.2155 29.2751 38.2294C29.3104 38.2434 29.0896 38.0362 28.7845 37.7689C28.4794 37.5017 28.1948 37.2525 28.152 37.215L28.0742 37.1469L28.0974 37.3104Z" fill="white"/>
</g>
<defs>
<filter id="filter0_d_11402_32059" x="0" y="0" width="172" height="60" filterUnits="userSpaceOnUse" color-interpolation-filters="sRGB">
<feFlood flood-opacity="0" result="BackgroundImageFix"/>
<feColorMatrix in="SourceAlpha" type="matrix" values="0 0 0 0 0 0 0 0 0 0 0 0 0 0 0 0 0 0 127 0" result="hardAlpha"/>
<feMorphology radius="1" operator="dilate" in="SourceAlpha" result="effect1_dropShadow_11402_32059"/>
<feOffset/>
<feGaussianBlur stdDeviation="5"/>
<feComposite in2="hardAlpha" operator="out"/>
<feColorMatrix type="matrix" values="0 0 0 0 1 0 0 0 0 1 0 0 0 0 1 0 0 0 0.5 0"/>
<feBlend mode="normal" in2="BackgroundImageFix" result="effect1_dropShadow_11402_32059"/>
<feBlend mode="normal" in="SourceGraphic" in2="effect1_dropShadow_11402_32059" result="shape"/>
</filter>
<filter id="filter1_d_11402_32059" x="9" y="3" width="52.22" height="53.7647" filterUnits="userSpaceOnUse" color-interpolation-filters="sRGB">
<feFlood flood-opacity="0" result="BackgroundImageFix"/>
<feColorMatrix in="SourceAlpha" type="matrix" values="0 0 0 0 0 0 0 0 0 0 0 0 0 0 0 0 0 0 127 0" result="hardAlpha"/>
<feOffset/>
<feGaussianBlur stdDeviation="7.5"/>
<feComposite in2="hardAlpha" operator="out"/>
<feColorMatrix type="matrix" values="0 0 0 0 1 0 0 0 0 1 0 0 0 0 1 0 0 0 0.7 0"/>
<feBlend mode="normal" in2="BackgroundImageFix" result="effect1_dropShadow_11402_32059"/>
<feBlend mode="normal" in="SourceGraphic" in2="effect1_dropShadow_11402_32059" result="shape"/>
</filter>
</defs>
</svg>
