<svg width="44" height="45" viewBox="0 0 44 45" fill="none" xmlns="http://www.w3.org/2000/svg">
<g filter="url(#filter0_d_11402_31990)">
<path fill-rule="evenodd" clip-rule="evenodd" d="M10 11.5C10 10.6716 10.5433 10 11.2135 10H32.7865C33.4567 10 34 10.6716 34 11.5C34 12.3284 33.4567 13 32.7865 13H11.2135C10.5433 13 10 12.3284 10 11.5Z" fill="white"/>
</g>
<g filter="url(#filter1_d_11402_31990)">
<path fill-rule="evenodd" clip-rule="evenodd" d="M10 22.5C10 21.6716 10.4075 21 10.9101 21H27.0899C27.5925 21 28 21.6716 28 22.5C28 23.3284 27.5925 24 27.0899 24H10.9101C10.4075 24 10 23.3284 10 22.5Z" fill="white"/>
</g>
<g filter="url(#filter2_d_11402_31990)">
<path fill-rule="evenodd" clip-rule="evenodd" d="M10 33.5C10 32.6716 10.5433 32 11.2135 32H32.7865C33.4567 32 34 32.6716 34 33.5C34 34.3284 33.4567 35 32.7865 35H11.2135C10.5433 35 10 34.3284 10 33.5Z" fill="white"/>
</g>
<defs>
<filter id="filter0_d_11402_31990" x="0" y="0" width="44" height="23" filterUnits="userSpaceOnUse" color-interpolation-filters="sRGB">
<feFlood flood-opacity="0" result="BackgroundImageFix"/>
<feColorMatrix in="SourceAlpha" type="matrix" values="0 0 0 0 0 0 0 0 0 0 0 0 0 0 0 0 0 0 127 0" result="hardAlpha"/>
<feOffset/>
<feGaussianBlur stdDeviation="5"/>
<feComposite in2="hardAlpha" operator="out"/>
<feColorMatrix type="matrix" values="0 0 0 0 0 0 0 0 0 0 0 0 0 0 0 0 0 0 0.25 0"/>
<feBlend mode="normal" in2="BackgroundImageFix" result="effect1_dropShadow_11402_31990"/>
<feBlend mode="normal" in="SourceGraphic" in2="effect1_dropShadow_11402_31990" result="shape"/>
</filter>
<filter id="filter1_d_11402_31990" x="0" y="11" width="38" height="23" filterUnits="userSpaceOnUse" color-interpolation-filters="sRGB">
<feFlood flood-opacity="0" result="BackgroundImageFix"/>
<feColorMatrix in="SourceAlpha" type="matrix" values="0 0 0 0 0 0 0 0 0 0 0 0 0 0 0 0 0 0 127 0" result="hardAlpha"/>
<feOffset/>
<feGaussianBlur stdDeviation="5"/>
<feComposite in2="hardAlpha" operator="out"/>
<feColorMatrix type="matrix" values="0 0 0 0 0 0 0 0 0 0 0 0 0 0 0 0 0 0 0.25 0"/>
<feBlend mode="normal" in2="BackgroundImageFix" result="effect1_dropShadow_11402_31990"/>
<feBlend mode="normal" in="SourceGraphic" in2="effect1_dropShadow_11402_31990" result="shape"/>
</filter>
<filter id="filter2_d_11402_31990" x="0" y="22" width="44" height="23" filterUnits="userSpaceOnUse" color-interpolation-filters="sRGB">
<feFlood flood-opacity="0" result="BackgroundImageFix"/>
<feColorMatrix in="SourceAlpha" type="matrix" values="0 0 0 0 0 0 0 0 0 0 0 0 0 0 0 0 0 0 127 0" result="hardAlpha"/>
<feOffset/>
<feGaussianBlur stdDeviation="5"/>
<feComposite in2="hardAlpha" operator="out"/>
<feColorMatrix type="matrix" values="0 0 0 0 0 0 0 0 0 0 0 0 0 0 0 0 0 0 0.25 0"/>
<feBlend mode="normal" in2="BackgroundImageFix" result="effect1_dropShadow_11402_31990"/>
<feBlend mode="normal" in="SourceGraphic" in2="effect1_dropShadow_11402_31990" result="shape"/>
</filter>
</defs>
</svg>
