<svg width="22" height="22" viewBox="0 0 22 22" fill="none" xmlns="http://www.w3.org/2000/svg">
<path d="M5.5 8H4.5M9.5 8H8.5M5.5 5H4.5M9.5 5H8.5" stroke="#0E412E" stroke-width="2" stroke-linecap="round"/>
<path d="M17.5 14H16.5M17.5 10H16.5" stroke="#0E412E" stroke-width="2" stroke-linecap="round"/>
<path d="M13 7V21H17C18.8856 21 19.8284 21 20.4142 20.4142C21 19.8284 21 18.8856 21 17V11C21 9.1144 21 8.17157 20.4142 7.58579C19.8284 7 18.8856 7 17 7H13ZM13 7C13 4.17157 13 2.75736 12.1213 1.87868C11.2426 1 9.8284 1 7 1C4.17157 1 2.75736 1 1.87868 1.87868C1 2.75736 1 4.17157 1 7V9" stroke="#0E412E" stroke-width="2" stroke-linecap="round" stroke-linejoin="round"/>
<path d="M7.02583 12.9555C7.02583 14.0593 6.13042 14.954 5.02589 14.954C3.92135 14.954 3.02595 14.0593 3.02595 12.9555C3.02595 11.8518 3.92135 10.957 5.02589 10.957C6.13042 10.957 7.02583 11.8518 7.02583 12.9555Z" stroke="#0E412E" stroke-width="2" stroke-linecap="round"/>
<path d="M1.0708 19.2111C2.12915 17.5829 3.80983 16.9727 5.02589 16.974C6.24194 16.9753 7.87337 17.5829 8.93172 19.2111C9.00015 19.3164 9.01901 19.446 8.95726 19.5554C8.70974 19.994 7.94125 20.8643 7.38619 20.9233C6.74843 20.9911 5.08012 21.0006 5.02718 21.0009C4.97419 21.0006 3.25437 20.9911 2.61633 20.9233C2.06127 20.8643 1.29278 19.994 1.04526 19.5554C0.983512 19.446 1.00237 19.3164 1.0708 19.2111Z" stroke="#0E412E" stroke-width="2" stroke-linecap="round"/>
</svg>
