<svg width="20" height="20" viewBox="0 0 20 20" fill="none" xmlns="http://www.w3.org/2000/svg">
<path fill-rule="evenodd" clip-rule="evenodd" d="M6 8.79289C6 6.58375 7.79086 4.79289 10 4.79289C12.2091 4.79289 14 6.58375 14 8.79289C14 11.002 12.2091 12.7929 10 12.7929C7.79086 12.7929 6 11.002 6 8.79289ZM10 6.79289C8.89543 6.79289 8 7.68832 8 8.79289C8 9.89746 8.89543 10.7929 10 10.7929C11.1046 10.7929 12 9.89746 12 8.79289C12 7.68832 11.1046 6.79289 10 6.79289Z" fill="white"/>
<path fill-rule="evenodd" clip-rule="evenodd" d="M9.5477 0.0698187C9.84205 -0.0232729 10.158 -0.0232729 10.4523 0.0698187C10.6894 0.144816 10.8612 0.272037 10.9743 0.367796C11.0718 0.450358 11.174 0.552649 11.2596 0.638314L12.4142 1.79289L15.8192 1.79289C16.3552 1.79287 16.8176 1.79286 17.1983 1.82447C17.6002 1.85785 17.9997 1.93156 18.3829 2.13065C18.9309 2.41528 19.3776 2.86204 19.6622 3.40997C19.8613 3.79324 19.935 4.19271 19.9684 4.59459C20 4.97525 20 5.43764 20 5.97365V15.6121C20 16.1481 20 16.6105 19.9684 16.9912C19.935 17.3931 19.8613 17.7925 19.6622 18.1758C19.3776 18.7237 18.9309 19.1705 18.3829 19.4551C17.9997 19.6542 17.6002 19.7279 17.1983 19.7613C16.8176 19.7929 16.3553 19.7929 15.8193 19.7929H4.18083C3.64482 19.7929 3.18236 19.7929 2.8017 19.7613C2.39982 19.7279 2.00035 19.6542 1.61708 19.4551C1.06915 19.1705 0.622388 18.7237 0.337762 18.1758C0.13867 17.7925 0.0649539 17.3931 0.031579 16.9912C-3.35611e-05 16.6105 -1.75886e-05 16.1481 8.88871e-07 15.6121V5.97369C-1.75886e-05 5.43767 -3.35611e-05 4.97526 0.031579 4.59459C0.0649539 4.19271 0.13867 3.79324 0.337762 3.40997C0.622388 2.86204 1.06915 2.41528 1.61708 2.13065C2.00035 1.93156 2.39982 1.85785 2.8017 1.82447C3.18237 1.79286 3.64478 1.79287 4.1808 1.79289L7.58579 1.79289L8.74032 0.638357C8.82592 0.552683 8.92816 0.450372 9.02569 0.367796C9.13879 0.272037 9.31056 0.144816 9.5477 0.0698187ZM10 2.20711L8.41422 3.79289H4.22C3.63373 3.79289 3.25517 3.7937 2.96722 3.81761C2.69125 3.84053 2.58924 3.8794 2.53903 3.90548C2.35638 4.00036 2.20746 4.14928 2.11259 4.33192C2.08651 4.38213 2.04764 4.48414 2.02472 4.76012C2.00081 5.04806 2 5.42662 2 6.01289V15.5729C2 16.1592 2.00081 16.5377 2.02472 16.8257C2.04764 17.1016 2.08651 17.2037 2.11259 17.2539C2.20746 17.4365 2.35638 17.5854 2.53903 17.6803C2.58924 17.7064 2.69125 17.7453 2.96722 17.7682C3.00705 17.7715 3.04861 17.7744 3.09221 17.7768C3.53633 15.5061 5.53186 13.793 7.92641 13.793H12.0736C14.4681 13.793 16.4637 15.5061 16.9078 17.7768C16.9514 17.7744 16.993 17.7715 17.0328 17.7682C17.3088 17.7453 17.4108 17.7064 17.461 17.6803C17.6436 17.5854 17.7925 17.4365 17.8874 17.2539C17.9135 17.2037 17.9524 17.1016 17.9753 16.8257C17.9992 16.5377 18 16.1592 18 15.5729V6.01289C18 5.42662 17.9992 5.04806 17.9753 4.76012C17.9524 4.48414 17.9135 4.38213 17.8874 4.33192C17.7925 4.14928 17.6436 4.00036 17.461 3.90548C17.4108 3.8794 17.3088 3.84053 17.0328 3.81761C16.7448 3.7937 16.3663 3.79289 15.78 3.79289H11.5858L10 2.20711ZM14.8777 17.7929C14.4857 16.6167 13.3784 15.769 12.0736 15.769H7.92641C6.62164 15.769 5.51433 16.6167 5.12234 17.7929H14.8777Z" fill="white"/>
</svg>
