<svg width="24" height="24" viewBox="0 0 24 24" fill="none" xmlns="http://www.w3.org/2000/svg">
<path d="M15.36 14.5586C15.68 14.7548 15.68 15.2452 15.36 15.4414L10.32 18.531C10 18.7271 9.6 18.4819 9.6 18.0896L9.6 11.9104C9.6 11.5181 10 11.2729 10.32 11.469L15.36 14.5586Z" fill="white"/>
<path fill-rule="evenodd" clip-rule="evenodd" d="M7.2 0C3.22355 0 0 3.22355 0 7.2V16.8C0 20.7764 3.22355 24 7.2 24H16.8C20.7764 24 24 20.7764 24 16.8V7.2C24 3.22355 20.7764 0 16.8 0H7.2ZM16.8 2.4H15.3196L17.4796 6H21.4488C20.9159 3.92973 19.0366 2.4 16.8 2.4ZM21.6 8.4H2.4V16.8C2.4 19.451 4.54903 21.6 7.2 21.6H16.8C19.451 21.6 21.6 19.451 21.6 16.8V8.4ZM2.55122 6H7.48057L5.50523 2.70776C4.0566 3.25456 2.94194 4.48196 2.55122 6ZM10.2794 6H14.6807L12.5207 2.4H8.11943L10.2794 6Z" fill="white"/>
</svg>
