<svg width="166" height="170" viewBox="0 0 166 170" fill="none" xmlns="http://www.w3.org/2000/svg">
<g filter="url(#filter0_d_11653_21393)">
<mask id="path-1-inside-1_11653_21393" fill="white">
<path fill-rule="evenodd" clip-rule="evenodd" d="M109.555 50.0466C109.263 50.1624 103.129 50.8813 98.13 51.3854C96.2819 51.5717 94.5754 51.7463 94.3378 51.7732C92.6958 51.9596 86.4086 52.5399 82.9613 52.8234C78.9066 53.1569 77.6861 53.2556 72.8807 53.638C71.5607 53.7432 69.4006 53.9151 68.0805 54.0202C66.7604 54.1254 65.0756 54.2583 64.3363 54.3156C62.7953 54.4351 61.8395 54.5694 61.5938 54.7009C61.4999 54.7511 61.3333 54.9064 61.2237 55.0459L61.0242 55.2994V73.7175V92.1357L60.8081 92.1844C60.5822 92.2354 59.0462 92.484 57.2063 92.7673C56.1762 92.9259 56.1104 92.9499 55.8277 93.272C55.4774 93.6709 55.473 93.6006 55.9887 95.8355C56.7182 98.9967 58.1355 102.742 59.6402 105.484C60.4027 106.874 60.5181 107.544 60.039 107.802C59.8886 107.883 59.287 107.911 58.0365 107.894C55.9438 107.867 55.0659 108.022 53.7758 108.648C51.3645 109.817 49.5311 112.121 50.1064 113.257C50.5202 114.075 51.944 114.178 53.0591 113.471C53.3944 113.258 53.5798 113.028 53.9098 112.415C54.6046 111.124 55.6312 110.294 56.9625 109.947C57.2649 109.869 57.5368 109.804 57.5665 109.804C57.5964 109.804 57.2502 110.182 56.7973 110.644C56.3443 111.106 55.6968 111.852 55.3585 112.3C55.0201 112.749 54.4251 113.5 54.0363 113.969C53.1229 115.07 52.8932 115.529 53.0141 116.014C53.1887 116.715 54.0747 117.018 54.8654 116.649C55.6405 116.286 56.1792 115.567 57.0994 113.669C57.9863 111.839 58.3795 111.2 58.5536 111.308C58.6095 111.343 58.6253 111.324 58.5893 111.266C58.5539 111.208 58.5688 111.134 58.6225 111.101C58.7573 111.018 58.7426 111.28 58.5713 112.012C58.2416 113.422 57.7012 114.554 56.6869 115.958C56.1195 116.744 55.6481 117.724 55.648 118.118C55.6479 118.563 56.0175 119.045 56.4826 119.207C57.0249 119.396 57.5436 119.219 58.0968 118.658C59.1043 117.636 59.7249 115.682 60.2654 111.829C60.3763 111.039 60.3817 111.027 60.5186 111.289C60.8014 111.828 61.0318 112.654 61.0826 113.308C61.1504 114.183 60.9212 115.062 60.244 116.525C59.7778 117.531 59.7325 117.689 59.7304 118.319C59.7282 118.975 59.7444 119.026 60.0529 119.345C60.4651 119.771 60.9233 119.86 61.6359 119.652C62.7694 119.323 63.4744 118.023 63.4625 116.285C63.4562 115.347 63.3215 114.597 62.7447 112.283C62.5382 111.455 62.3973 110.704 62.4315 110.615C62.4819 110.484 62.5778 110.463 62.9349 110.506C63.5444 110.579 67.6295 111.772 72.3047 113.241C76.3508 114.513 76.1196 114.456 76.5186 114.267C76.7127 114.175 76.9168 114.015 76.972 113.912C77.0374 113.79 77.0687 112.458 77.0616 110.095L77.0508 106.466L77.2699 106.413C77.9843 106.24 91.6714 103.556 96.9299 102.558C100.286 101.921 100.419 101.896 103.938 101.223C105.443 100.935 108.489 100.367 110.707 99.9613C112.924 99.5557 114.835 99.1629 114.953 99.0885C115.071 99.0141 115.192 98.8566 115.222 98.7384C115.251 98.6203 115.081 96.3851 114.842 93.7714C114.604 91.1577 114.344 88.2199 114.264 87.2431C114.184 86.2662 114.03 84.4301 113.922 83.1629C113.814 81.8956 113.64 79.7787 113.535 78.4586C113.429 77.1386 113.28 75.2809 113.203 74.3304C113.127 73.38 112.977 71.4575 112.871 70.0582C112.765 68.6589 112.612 66.65 112.531 65.594C112.449 64.5379 112.19 60.9306 111.955 57.5776C111.435 50.18 111.469 50.5073 111.183 50.2204C110.986 50.0241 110.867 49.9943 110.303 50.0008C109.944 50.0049 109.607 50.0256 109.555 50.0466ZM107.826 52.1164C107.207 52.2219 102.038 52.8175 99.6181 53.0622C97.7296 53.2531 94.1251 53.5798 87.9535 54.1194C86.1054 54.281 84.1181 54.4608 83.5373 54.519C82.9565 54.5772 82.2004 54.652 81.8572 54.6853L81.2332 54.7457L82.0022 54.867C82.4251 54.9337 83.5051 55.161 84.4023 55.3721C89.2815 56.52 94.6081 58.6422 98.5429 61.006C99.1396 61.3645 99.737 61.7226 99.8704 61.8018C100.105 61.9411 100.126 61.9317 100.503 61.5138C101.258 60.6783 104.78 56.547 106.477 54.5054C107.422 53.3702 108.281 52.3442 108.387 52.2253C108.601 51.9855 108.598 51.9848 107.826 52.1164ZM106.56 57.267C104.755 59.5235 102.951 61.7719 102.552 62.2636C102.153 62.7551 101.829 63.1872 101.832 63.2236C101.835 63.26 102.119 63.5059 102.464 63.7699C103.32 64.4251 105.668 66.7475 106.541 67.8021C108.431 70.0832 110.16 72.8521 111.307 75.4345L111.627 76.1545L111.573 75.5305C111.543 75.1873 111.43 73.6752 111.323 72.1703C111.215 70.6654 111.002 67.7493 110.849 65.69C110.696 63.6307 110.43 59.9694 110.257 57.5536C110.084 55.1378 109.92 53.162 109.893 53.1628C109.865 53.1636 108.366 55.0105 106.56 57.267ZM69.9526 55.6645C68.4297 55.7445 62.935 56.2107 62.8813 56.2645C62.8628 56.283 62.8586 64.3105 62.872 74.1034L62.8962 91.9088L65.2004 91.5442C67.7102 91.147 72.3791 90.4287 74.5128 90.1115C75.6411 89.9438 75.8877 89.8769 76.0489 89.6948C76.5289 89.1528 79.3919 85.8461 81.0393 83.9309C82.0386 82.7692 83.3782 81.214 84.0162 80.4747C84.6543 79.7355 85.5845 78.6554 86.0832 78.0746C86.5821 77.4938 87.5958 76.3248 88.3359 75.4769C89.076 74.629 91.2153 72.17 93.0898 70.0126C94.9642 67.8551 97.0669 65.4384 97.7623 64.6419C98.7341 63.5291 99.0008 63.1674 98.9144 63.0792C98.7098 62.8705 96.6169 61.6895 95.1059 60.93C87.1056 56.9087 78.9144 55.194 69.9526 55.6645ZM76.1702 61.2289C75.112 61.4071 73.9986 61.8997 73.0721 62.5997C72.0615 63.3631 71.3168 64.4319 70.8518 65.786C70.6131 66.4809 70.5875 66.6866 70.5823 67.9461C70.5774 69.1474 70.6074 69.4369 70.8016 70.0582C71.6355 72.7273 73.6112 74.6653 76.3416 75.4925C77.0485 75.7066 77.3969 75.7543 78.305 75.7617C79.2764 75.7694 79.5104 75.7373 80.252 75.4942C80.7157 75.3422 81.3534 75.0614 81.6691 74.8702C82.9288 74.1071 83.9861 72.7643 84.4688 71.3144C84.7519 70.4641 84.7754 70.2958 84.7776 69.0982C84.7795 68.0452 84.7388 67.6491 84.5607 66.9861C84.1482 65.4511 83.1649 63.9117 81.9259 62.861C80.377 61.5475 78.1048 60.9032 76.1702 61.2289ZM98.9835 66.3303C98.0917 67.3952 96.9708 68.7237 96.4928 69.2824C94.5361 71.5694 92.751 73.6672 91.2172 75.4825C90.3249 76.5385 88.8591 78.2666 87.96 79.3227C87.0608 80.3787 85.4238 82.3012 84.3221 83.5949C83.2206 84.8886 82.0073 86.3142 81.626 86.7631C81.2448 87.2119 80.1577 88.4863 79.2102 89.5952C78.2627 90.704 77.3906 91.7359 77.2722 91.8883L77.057 92.1652V98.4406C77.057 101.892 77.0893 104.715 77.129 104.714C77.1686 104.712 77.3738 104.67 77.585 104.618C78.0327 104.51 86.4068 102.894 92.9938 101.644C94.0762 101.439 96.4523 100.986 98.274 100.637C100.096 100.288 102.839 99.7659 104.37 99.476C105.902 99.1861 107.824 98.8198 108.643 98.6622C109.461 98.5044 110.865 98.2349 111.763 98.063L113.395 97.7506L113.387 97.2731C113.378 96.6741 113.214 94.571 112.916 91.2273C112.789 89.8016 112.594 87.4903 112.483 86.091C112.219 82.769 112.091 81.9379 111.612 80.4576C109.71 74.5799 106.348 69.3593 101.843 65.2894C101.298 64.7969 100.796 64.3939 100.728 64.3939C100.661 64.3939 99.8754 65.2653 98.9835 66.3303ZM97.4254 76.8764C94.7812 77.2432 92.5647 79.1887 91.8474 81.7723C91.0991 84.4672 91.8882 87.3175 93.9475 89.3582C94.8911 90.2931 95.9708 90.9207 97.2725 91.2907C98.2634 91.5723 100.11 91.599 101.058 91.3453C104.091 90.5338 106.05 87.8871 106.05 84.6029C106.05 81.4795 104.223 78.7225 101.293 77.4257C100.178 76.9323 98.6186 76.7108 97.4254 76.8764ZM74.7528 91.7698C74.4096 91.8171 74.0492 91.8644 73.9519 91.8747C73.7564 91.8955 73.7885 91.9268 74.8728 92.7749L75.4249 93.2066V92.4329C75.4249 92.0074 75.414 91.6648 75.4009 91.6715C75.3877 91.6782 75.0961 91.7224 74.7528 91.7698ZM71.0567 92.2982C70.9511 92.3206 70.7665 92.3597 70.6465 92.3854C70.4585 92.4256 70.5846 92.562 71.5586 93.3729C72.1802 93.8904 73.2936 94.7985 74.0328 95.3908L75.3769 96.468L75.4051 95.9532C75.4207 95.6701 75.3908 95.3264 75.3387 95.1893C75.2822 95.0408 74.5589 94.3945 73.5464 93.5877C71.794 92.1916 71.7263 92.1566 71.0567 92.2982ZM68.3205 92.7726C68.2413 92.7873 67.9281 92.8269 67.6245 92.8603C67.3208 92.8938 67.0725 92.9527 67.0725 92.9912C67.0725 93.0297 68.1813 93.9446 69.5365 95.0244C70.8917 96.1041 72.7343 97.5816 73.6311 98.3076C74.528 99.0337 75.3023 99.6277 75.3517 99.6277C75.4022 99.6277 75.426 99.3436 75.4061 98.9797L75.3704 98.3316L74.1736 97.3412C73.5153 96.7965 72.4367 95.9133 71.7767 95.3785C71.1167 94.8438 70.2094 94.0978 69.7606 93.7209C68.8209 92.9317 68.5219 92.7348 68.3205 92.7726ZM64.4042 93.3328C64.0719 93.3892 63.7911 93.4751 63.7802 93.5237C63.7601 93.6127 65.1203 94.7256 69.7721 98.4264C71.165 99.5345 72.8663 100.898 73.5528 101.456C74.2392 102.015 74.9482 102.574 75.1283 102.699L75.4558 102.927L75.3923 102.464C75.3574 102.209 75.3289 101.886 75.3289 101.745C75.3289 101.482 75.3061 101.462 71.1147 98.064C70.6075 97.6528 69.9982 97.153 69.7606 96.9534C68.7788 96.1285 65.3156 93.3793 65.1678 93.3076C65.0802 93.265 64.7365 93.2763 64.4042 93.3328ZM60.9478 93.8877C60.4164 93.97 60.3585 93.9994 60.4676 94.1308C60.5358 94.2131 62.7087 95.9776 65.2962 98.0521C70.3403 102.096 72.4285 103.784 73.6488 104.805C74.0712 105.159 74.622 105.612 74.8728 105.813L75.3289 106.179L75.3287 105.424L75.3285 104.668L73.0137 102.796C70.6762 100.905 66.5921 97.6343 63.4844 95.1635C62.5546 94.4242 61.7395 93.8136 61.6731 93.8066C61.6065 93.7996 61.2802 93.8361 60.9478 93.8877ZM57.7911 94.4164C57.6235 94.4374 57.4378 94.5129 57.3785 94.5844C57.1631 94.8439 57.5399 95.167 64.4323 100.636C67.2444 102.867 73.2568 107.814 74.6651 109.055C75.0129 109.361 75.3153 109.612 75.3371 109.612C75.359 109.613 75.363 109.247 75.3459 108.8L75.3149 107.986L74.8658 107.617C74.6189 107.414 73.6608 106.622 72.7367 105.856C70.8576 104.298 68.0628 102.035 66.1225 100.501C65.4151 99.9413 64.3298 99.0733 63.7107 98.5716C63.0914 98.07 62.1149 97.2878 61.5405 96.8332C60.9661 96.3787 60.0366 95.6335 59.4751 95.1771C58.9135 94.7208 58.3735 94.3543 58.2751 94.3628C58.1766 94.3712 57.9588 94.3953 57.7911 94.4164ZM58.2732 97.6753C58.3015 97.7723 58.3733 98.046 58.4327 98.2836C58.6535 99.1657 58.7539 99.3337 59.3388 99.7994C60.3178 100.579 62.1104 102.004 64.6243 104.002C65.9444 105.051 67.6725 106.448 68.4645 107.108C70.1165 108.483 72.9536 110.876 73.0248 110.954C73.3175 111.275 74.1776 111.875 74.5374 112.01C75.4774 112.362 75.4249 112.372 75.4249 111.838C75.4249 111.363 75.4234 111.361 74.7289 110.799C74.3462 110.49 73.7142 109.967 73.3245 109.638C72.9348 109.309 72.5774 109.064 72.53 109.093C72.4827 109.122 72.4558 109.102 72.4703 109.049C72.4848 108.995 71.953 108.505 71.2884 107.961C70.6239 107.417 69.5035 106.497 68.7986 105.916C66.8017 104.27 58.5969 97.7076 58.3989 97.5976C58.251 97.5153 58.2303 97.5282 58.2732 97.6753ZM59.8022 102.226C60.1403 103.027 60.3721 103.441 60.6438 103.731C60.8879 103.991 63.2743 105.996 64.3293 106.828C64.4967 106.96 65.4218 107.738 66.3848 108.556C67.3479 109.375 68.2746 110.117 68.4442 110.206C68.7702 110.378 71.0304 111.062 71.0861 111.007C71.153 110.94 68.7773 109.039 68.6923 109.092C68.6436 109.122 68.6156 109.102 68.6301 109.047C68.6558 108.95 65.5564 106.411 63.2829 104.668C62.6632 104.193 62.1067 103.759 62.0462 103.705C61.9246 103.595 60.1642 102.252 59.8569 102.034C59.6667 101.9 59.6657 101.903 59.8022 102.226ZM62.0276 106.684C62.1315 107.416 62.4302 108.468 62.575 108.61C62.6461 108.679 63.2875 108.865 64.0003 109.022C64.7131 109.179 65.381 109.341 65.4846 109.382C65.5882 109.423 64.9402 108.814 64.0446 108.03C63.1489 107.246 62.3135 106.514 62.1879 106.404L61.9596 106.204L62.0276 106.684Z"/>
</mask>
<path fill-rule="evenodd" clip-rule="evenodd" d="M109.555 50.0466C109.263 50.1624 103.129 50.8813 98.13 51.3854C96.2819 51.5717 94.5754 51.7463 94.3378 51.7732C92.6958 51.9596 86.4086 52.5399 82.9613 52.8234C78.9066 53.1569 77.6861 53.2556 72.8807 53.638C71.5607 53.7432 69.4006 53.9151 68.0805 54.0202C66.7604 54.1254 65.0756 54.2583 64.3363 54.3156C62.7953 54.4351 61.8395 54.5694 61.5938 54.7009C61.4999 54.7511 61.3333 54.9064 61.2237 55.0459L61.0242 55.2994V73.7175V92.1357L60.8081 92.1844C60.5822 92.2354 59.0462 92.484 57.2063 92.7673C56.1762 92.9259 56.1104 92.9499 55.8277 93.272C55.4774 93.6709 55.473 93.6006 55.9887 95.8355C56.7182 98.9967 58.1355 102.742 59.6402 105.484C60.4027 106.874 60.5181 107.544 60.039 107.802C59.8886 107.883 59.287 107.911 58.0365 107.894C55.9438 107.867 55.0659 108.022 53.7758 108.648C51.3645 109.817 49.5311 112.121 50.1064 113.257C50.5202 114.075 51.944 114.178 53.0591 113.471C53.3944 113.258 53.5798 113.028 53.9098 112.415C54.6046 111.124 55.6312 110.294 56.9625 109.947C57.2649 109.869 57.5368 109.804 57.5665 109.804C57.5964 109.804 57.2502 110.182 56.7973 110.644C56.3443 111.106 55.6968 111.852 55.3585 112.3C55.0201 112.749 54.4251 113.5 54.0363 113.969C53.1229 115.07 52.8932 115.529 53.0141 116.014C53.1887 116.715 54.0747 117.018 54.8654 116.649C55.6405 116.286 56.1792 115.567 57.0994 113.669C57.9863 111.839 58.3795 111.2 58.5536 111.308C58.6095 111.343 58.6253 111.324 58.5893 111.266C58.5539 111.208 58.5688 111.134 58.6225 111.101C58.7573 111.018 58.7426 111.28 58.5713 112.012C58.2416 113.422 57.7012 114.554 56.6869 115.958C56.1195 116.744 55.6481 117.724 55.648 118.118C55.6479 118.563 56.0175 119.045 56.4826 119.207C57.0249 119.396 57.5436 119.219 58.0968 118.658C59.1043 117.636 59.7249 115.682 60.2654 111.829C60.3763 111.039 60.3817 111.027 60.5186 111.289C60.8014 111.828 61.0318 112.654 61.0826 113.308C61.1504 114.183 60.9212 115.062 60.244 116.525C59.7778 117.531 59.7325 117.689 59.7304 118.319C59.7282 118.975 59.7444 119.026 60.0529 119.345C60.4651 119.771 60.9233 119.86 61.6359 119.652C62.7694 119.323 63.4744 118.023 63.4625 116.285C63.4562 115.347 63.3215 114.597 62.7447 112.283C62.5382 111.455 62.3973 110.704 62.4315 110.615C62.4819 110.484 62.5778 110.463 62.9349 110.506C63.5444 110.579 67.6295 111.772 72.3047 113.241C76.3508 114.513 76.1196 114.456 76.5186 114.267C76.7127 114.175 76.9168 114.015 76.972 113.912C77.0374 113.79 77.0687 112.458 77.0616 110.095L77.0508 106.466L77.2699 106.413C77.9843 106.24 91.6714 103.556 96.9299 102.558C100.286 101.921 100.419 101.896 103.938 101.223C105.443 100.935 108.489 100.367 110.707 99.9613C112.924 99.5557 114.835 99.1629 114.953 99.0885C115.071 99.0141 115.192 98.8566 115.222 98.7384C115.251 98.6203 115.081 96.3851 114.842 93.7714C114.604 91.1577 114.344 88.2199 114.264 87.2431C114.184 86.2662 114.03 84.4301 113.922 83.1629C113.814 81.8956 113.64 79.7787 113.535 78.4586C113.429 77.1386 113.28 75.2809 113.203 74.3304C113.127 73.38 112.977 71.4575 112.871 70.0582C112.765 68.6589 112.612 66.65 112.531 65.594C112.449 64.5379 112.19 60.9306 111.955 57.5776C111.435 50.18 111.469 50.5073 111.183 50.2204C110.986 50.0241 110.867 49.9943 110.303 50.0008C109.944 50.0049 109.607 50.0256 109.555 50.0466ZM107.826 52.1164C107.207 52.2219 102.038 52.8175 99.6181 53.0622C97.7296 53.2531 94.1251 53.5798 87.9535 54.1194C86.1054 54.281 84.1181 54.4608 83.5373 54.519C82.9565 54.5772 82.2004 54.652 81.8572 54.6853L81.2332 54.7457L82.0022 54.867C82.4251 54.9337 83.5051 55.161 84.4023 55.3721C89.2815 56.52 94.6081 58.6422 98.5429 61.006C99.1396 61.3645 99.737 61.7226 99.8704 61.8018C100.105 61.9411 100.126 61.9317 100.503 61.5138C101.258 60.6783 104.78 56.547 106.477 54.5054C107.422 53.3702 108.281 52.3442 108.387 52.2253C108.601 51.9855 108.598 51.9848 107.826 52.1164ZM106.56 57.267C104.755 59.5235 102.951 61.7719 102.552 62.2636C102.153 62.7551 101.829 63.1872 101.832 63.2236C101.835 63.26 102.119 63.5059 102.464 63.7699C103.32 64.4251 105.668 66.7475 106.541 67.8021C108.431 70.0832 110.16 72.8521 111.307 75.4345L111.627 76.1545L111.573 75.5305C111.543 75.1873 111.43 73.6752 111.323 72.1703C111.215 70.6654 111.002 67.7493 110.849 65.69C110.696 63.6307 110.43 59.9694 110.257 57.5536C110.084 55.1378 109.92 53.162 109.893 53.1628C109.865 53.1636 108.366 55.0105 106.56 57.267ZM69.9526 55.6645C68.4297 55.7445 62.935 56.2107 62.8813 56.2645C62.8628 56.283 62.8586 64.3105 62.872 74.1034L62.8962 91.9088L65.2004 91.5442C67.7102 91.147 72.3791 90.4287 74.5128 90.1115C75.6411 89.9438 75.8877 89.8769 76.0489 89.6948C76.5289 89.1528 79.3919 85.8461 81.0393 83.9309C82.0386 82.7692 83.3782 81.214 84.0162 80.4747C84.6543 79.7355 85.5845 78.6554 86.0832 78.0746C86.5821 77.4938 87.5958 76.3248 88.3359 75.4769C89.076 74.629 91.2153 72.17 93.0898 70.0126C94.9642 67.8551 97.0669 65.4384 97.7623 64.6419C98.7341 63.5291 99.0008 63.1674 98.9144 63.0792C98.7098 62.8705 96.6169 61.6895 95.1059 60.93C87.1056 56.9087 78.9144 55.194 69.9526 55.6645ZM76.1702 61.2289C75.112 61.4071 73.9986 61.8997 73.0721 62.5997C72.0615 63.3631 71.3168 64.4319 70.8518 65.786C70.6131 66.4809 70.5875 66.6866 70.5823 67.9461C70.5774 69.1474 70.6074 69.4369 70.8016 70.0582C71.6355 72.7273 73.6112 74.6653 76.3416 75.4925C77.0485 75.7066 77.3969 75.7543 78.305 75.7617C79.2764 75.7694 79.5104 75.7373 80.252 75.4942C80.7157 75.3422 81.3534 75.0614 81.6691 74.8702C82.9288 74.1071 83.9861 72.7643 84.4688 71.3144C84.7519 70.4641 84.7754 70.2958 84.7776 69.0982C84.7795 68.0452 84.7388 67.6491 84.5607 66.9861C84.1482 65.4511 83.1649 63.9117 81.9259 62.861C80.377 61.5475 78.1048 60.9032 76.1702 61.2289ZM98.9835 66.3303C98.0917 67.3952 96.9708 68.7237 96.4928 69.2824C94.5361 71.5694 92.751 73.6672 91.2172 75.4825C90.3249 76.5385 88.8591 78.2666 87.96 79.3227C87.0608 80.3787 85.4238 82.3012 84.3221 83.5949C83.2206 84.8886 82.0073 86.3142 81.626 86.7631C81.2448 87.2119 80.1577 88.4863 79.2102 89.5952C78.2627 90.704 77.3906 91.7359 77.2722 91.8883L77.057 92.1652V98.4406C77.057 101.892 77.0893 104.715 77.129 104.714C77.1686 104.712 77.3738 104.67 77.585 104.618C78.0327 104.51 86.4068 102.894 92.9938 101.644C94.0762 101.439 96.4523 100.986 98.274 100.637C100.096 100.288 102.839 99.7659 104.37 99.476C105.902 99.1861 107.824 98.8198 108.643 98.6622C109.461 98.5044 110.865 98.2349 111.763 98.063L113.395 97.7506L113.387 97.2731C113.378 96.6741 113.214 94.571 112.916 91.2273C112.789 89.8016 112.594 87.4903 112.483 86.091C112.219 82.769 112.091 81.9379 111.612 80.4576C109.71 74.5799 106.348 69.3593 101.843 65.2894C101.298 64.7969 100.796 64.3939 100.728 64.3939C100.661 64.3939 99.8754 65.2653 98.9835 66.3303ZM97.4254 76.8764C94.7812 77.2432 92.5647 79.1887 91.8474 81.7723C91.0991 84.4672 91.8882 87.3175 93.9475 89.3582C94.8911 90.2931 95.9708 90.9207 97.2725 91.2907C98.2634 91.5723 100.11 91.599 101.058 91.3453C104.091 90.5338 106.05 87.8871 106.05 84.6029C106.05 81.4795 104.223 78.7225 101.293 77.4257C100.178 76.9323 98.6186 76.7108 97.4254 76.8764ZM74.7528 91.7698C74.4096 91.8171 74.0492 91.8644 73.9519 91.8747C73.7564 91.8955 73.7885 91.9268 74.8728 92.7749L75.4249 93.2066V92.4329C75.4249 92.0074 75.414 91.6648 75.4009 91.6715C75.3877 91.6782 75.0961 91.7224 74.7528 91.7698ZM71.0567 92.2982C70.9511 92.3206 70.7665 92.3597 70.6465 92.3854C70.4585 92.4256 70.5846 92.562 71.5586 93.3729C72.1802 93.8904 73.2936 94.7985 74.0328 95.3908L75.3769 96.468L75.4051 95.9532C75.4207 95.6701 75.3908 95.3264 75.3387 95.1893C75.2822 95.0408 74.5589 94.3945 73.5464 93.5877C71.794 92.1916 71.7263 92.1566 71.0567 92.2982ZM68.3205 92.7726C68.2413 92.7873 67.9281 92.8269 67.6245 92.8603C67.3208 92.8938 67.0725 92.9527 67.0725 92.9912C67.0725 93.0297 68.1813 93.9446 69.5365 95.0244C70.8917 96.1041 72.7343 97.5816 73.6311 98.3076C74.528 99.0337 75.3023 99.6277 75.3517 99.6277C75.4022 99.6277 75.426 99.3436 75.4061 98.9797L75.3704 98.3316L74.1736 97.3412C73.5153 96.7965 72.4367 95.9133 71.7767 95.3785C71.1167 94.8438 70.2094 94.0978 69.7606 93.7209C68.8209 92.9317 68.5219 92.7348 68.3205 92.7726ZM64.4042 93.3328C64.0719 93.3892 63.7911 93.4751 63.7802 93.5237C63.7601 93.6127 65.1203 94.7256 69.7721 98.4264C71.165 99.5345 72.8663 100.898 73.5528 101.456C74.2392 102.015 74.9482 102.574 75.1283 102.699L75.4558 102.927L75.3923 102.464C75.3574 102.209 75.3289 101.886 75.3289 101.745C75.3289 101.482 75.3061 101.462 71.1147 98.064C70.6075 97.6528 69.9982 97.153 69.7606 96.9534C68.7788 96.1285 65.3156 93.3793 65.1678 93.3076C65.0802 93.265 64.7365 93.2763 64.4042 93.3328ZM60.9478 93.8877C60.4164 93.97 60.3585 93.9994 60.4676 94.1308C60.5358 94.2131 62.7087 95.9776 65.2962 98.0521C70.3403 102.096 72.4285 103.784 73.6488 104.805C74.0712 105.159 74.622 105.612 74.8728 105.813L75.3289 106.179L75.3287 105.424L75.3285 104.668L73.0137 102.796C70.6762 100.905 66.5921 97.6343 63.4844 95.1635C62.5546 94.4242 61.7395 93.8136 61.6731 93.8066C61.6065 93.7996 61.2802 93.8361 60.9478 93.8877ZM57.7911 94.4164C57.6235 94.4374 57.4378 94.5129 57.3785 94.5844C57.1631 94.8439 57.5399 95.167 64.4323 100.636C67.2444 102.867 73.2568 107.814 74.6651 109.055C75.0129 109.361 75.3153 109.612 75.3371 109.612C75.359 109.613 75.363 109.247 75.3459 108.8L75.3149 107.986L74.8658 107.617C74.6189 107.414 73.6608 106.622 72.7367 105.856C70.8576 104.298 68.0628 102.035 66.1225 100.501C65.4151 99.9413 64.3298 99.0733 63.7107 98.5716C63.0914 98.07 62.1149 97.2878 61.5405 96.8332C60.9661 96.3787 60.0366 95.6335 59.4751 95.1771C58.9135 94.7208 58.3735 94.3543 58.2751 94.3628C58.1766 94.3712 57.9588 94.3953 57.7911 94.4164ZM58.2732 97.6753C58.3015 97.7723 58.3733 98.046 58.4327 98.2836C58.6535 99.1657 58.7539 99.3337 59.3388 99.7994C60.3178 100.579 62.1104 102.004 64.6243 104.002C65.9444 105.051 67.6725 106.448 68.4645 107.108C70.1165 108.483 72.9536 110.876 73.0248 110.954C73.3175 111.275 74.1776 111.875 74.5374 112.01C75.4774 112.362 75.4249 112.372 75.4249 111.838C75.4249 111.363 75.4234 111.361 74.7289 110.799C74.3462 110.49 73.7142 109.967 73.3245 109.638C72.9348 109.309 72.5774 109.064 72.53 109.093C72.4827 109.122 72.4558 109.102 72.4703 109.049C72.4848 108.995 71.953 108.505 71.2884 107.961C70.6239 107.417 69.5035 106.497 68.7986 105.916C66.8017 104.27 58.5969 97.7076 58.3989 97.5976C58.251 97.5153 58.2303 97.5282 58.2732 97.6753ZM59.8022 102.226C60.1403 103.027 60.3721 103.441 60.6438 103.731C60.8879 103.991 63.2743 105.996 64.3293 106.828C64.4967 106.96 65.4218 107.738 66.3848 108.556C67.3479 109.375 68.2746 110.117 68.4442 110.206C68.7702 110.378 71.0304 111.062 71.0861 111.007C71.153 110.94 68.7773 109.039 68.6923 109.092C68.6436 109.122 68.6156 109.102 68.6301 109.047C68.6558 108.95 65.5564 106.411 63.2829 104.668C62.6632 104.193 62.1067 103.759 62.0462 103.705C61.9246 103.595 60.1642 102.252 59.8569 102.034C59.6667 101.9 59.6657 101.903 59.8022 102.226ZM62.0276 106.684C62.1315 107.416 62.4302 108.468 62.575 108.61C62.6461 108.679 63.2875 108.865 64.0003 109.022C64.7131 109.179 65.381 109.341 65.4846 109.382C65.5882 109.423 64.9402 108.814 64.0446 108.03C63.1489 107.246 62.3135 106.514 62.1879 106.404L61.9596 106.204L62.0276 106.684Z" fill="white"/>
<path fill-rule="evenodd" clip-rule="evenodd" d="M109.555 50.0466C109.263 50.1624 103.129 50.8813 98.13 51.3854C96.2819 51.5717 94.5754 51.7463 94.3378 51.7732C92.6958 51.9596 86.4086 52.5399 82.9613 52.8234C78.9066 53.1569 77.6861 53.2556 72.8807 53.638C71.5607 53.7432 69.4006 53.9151 68.0805 54.0202C66.7604 54.1254 65.0756 54.2583 64.3363 54.3156C62.7953 54.4351 61.8395 54.5694 61.5938 54.7009C61.4999 54.7511 61.3333 54.9064 61.2237 55.0459L61.0242 55.2994V73.7175V92.1357L60.8081 92.1844C60.5822 92.2354 59.0462 92.484 57.2063 92.7673C56.1762 92.9259 56.1104 92.9499 55.8277 93.272C55.4774 93.6709 55.473 93.6006 55.9887 95.8355C56.7182 98.9967 58.1355 102.742 59.6402 105.484C60.4027 106.874 60.5181 107.544 60.039 107.802C59.8886 107.883 59.287 107.911 58.0365 107.894C55.9438 107.867 55.0659 108.022 53.7758 108.648C51.3645 109.817 49.5311 112.121 50.1064 113.257C50.5202 114.075 51.944 114.178 53.0591 113.471C53.3944 113.258 53.5798 113.028 53.9098 112.415C54.6046 111.124 55.6312 110.294 56.9625 109.947C57.2649 109.869 57.5368 109.804 57.5665 109.804C57.5964 109.804 57.2502 110.182 56.7973 110.644C56.3443 111.106 55.6968 111.852 55.3585 112.3C55.0201 112.749 54.4251 113.5 54.0363 113.969C53.1229 115.07 52.8932 115.529 53.0141 116.014C53.1887 116.715 54.0747 117.018 54.8654 116.649C55.6405 116.286 56.1792 115.567 57.0994 113.669C57.9863 111.839 58.3795 111.2 58.5536 111.308C58.6095 111.343 58.6253 111.324 58.5893 111.266C58.5539 111.208 58.5688 111.134 58.6225 111.101C58.7573 111.018 58.7426 111.28 58.5713 112.012C58.2416 113.422 57.7012 114.554 56.6869 115.958C56.1195 116.744 55.6481 117.724 55.648 118.118C55.6479 118.563 56.0175 119.045 56.4826 119.207C57.0249 119.396 57.5436 119.219 58.0968 118.658C59.1043 117.636 59.7249 115.682 60.2654 111.829C60.3763 111.039 60.3817 111.027 60.5186 111.289C60.8014 111.828 61.0318 112.654 61.0826 113.308C61.1504 114.183 60.9212 115.062 60.244 116.525C59.7778 117.531 59.7325 117.689 59.7304 118.319C59.7282 118.975 59.7444 119.026 60.0529 119.345C60.4651 119.771 60.9233 119.86 61.6359 119.652C62.7694 119.323 63.4744 118.023 63.4625 116.285C63.4562 115.347 63.3215 114.597 62.7447 112.283C62.5382 111.455 62.3973 110.704 62.4315 110.615C62.4819 110.484 62.5778 110.463 62.9349 110.506C63.5444 110.579 67.6295 111.772 72.3047 113.241C76.3508 114.513 76.1196 114.456 76.5186 114.267C76.7127 114.175 76.9168 114.015 76.972 113.912C77.0374 113.79 77.0687 112.458 77.0616 110.095L77.0508 106.466L77.2699 106.413C77.9843 106.24 91.6714 103.556 96.9299 102.558C100.286 101.921 100.419 101.896 103.938 101.223C105.443 100.935 108.489 100.367 110.707 99.9613C112.924 99.5557 114.835 99.1629 114.953 99.0885C115.071 99.0141 115.192 98.8566 115.222 98.7384C115.251 98.6203 115.081 96.3851 114.842 93.7714C114.604 91.1577 114.344 88.2199 114.264 87.2431C114.184 86.2662 114.03 84.4301 113.922 83.1629C113.814 81.8956 113.64 79.7787 113.535 78.4586C113.429 77.1386 113.28 75.2809 113.203 74.3304C113.127 73.38 112.977 71.4575 112.871 70.0582C112.765 68.6589 112.612 66.65 112.531 65.594C112.449 64.5379 112.19 60.9306 111.955 57.5776C111.435 50.18 111.469 50.5073 111.183 50.2204C110.986 50.0241 110.867 49.9943 110.303 50.0008C109.944 50.0049 109.607 50.0256 109.555 50.0466ZM107.826 52.1164C107.207 52.2219 102.038 52.8175 99.6181 53.0622C97.7296 53.2531 94.1251 53.5798 87.9535 54.1194C86.1054 54.281 84.1181 54.4608 83.5373 54.519C82.9565 54.5772 82.2004 54.652 81.8572 54.6853L81.2332 54.7457L82.0022 54.867C82.4251 54.9337 83.5051 55.161 84.4023 55.3721C89.2815 56.52 94.6081 58.6422 98.5429 61.006C99.1396 61.3645 99.737 61.7226 99.8704 61.8018C100.105 61.9411 100.126 61.9317 100.503 61.5138C101.258 60.6783 104.78 56.547 106.477 54.5054C107.422 53.3702 108.281 52.3442 108.387 52.2253C108.601 51.9855 108.598 51.9848 107.826 52.1164ZM106.56 57.267C104.755 59.5235 102.951 61.7719 102.552 62.2636C102.153 62.7551 101.829 63.1872 101.832 63.2236C101.835 63.26 102.119 63.5059 102.464 63.7699C103.32 64.4251 105.668 66.7475 106.541 67.8021C108.431 70.0832 110.16 72.8521 111.307 75.4345L111.627 76.1545L111.573 75.5305C111.543 75.1873 111.43 73.6752 111.323 72.1703C111.215 70.6654 111.002 67.7493 110.849 65.69C110.696 63.6307 110.43 59.9694 110.257 57.5536C110.084 55.1378 109.92 53.162 109.893 53.1628C109.865 53.1636 108.366 55.0105 106.56 57.267ZM69.9526 55.6645C68.4297 55.7445 62.935 56.2107 62.8813 56.2645C62.8628 56.283 62.8586 64.3105 62.872 74.1034L62.8962 91.9088L65.2004 91.5442C67.7102 91.147 72.3791 90.4287 74.5128 90.1115C75.6411 89.9438 75.8877 89.8769 76.0489 89.6948C76.5289 89.1528 79.3919 85.8461 81.0393 83.9309C82.0386 82.7692 83.3782 81.214 84.0162 80.4747C84.6543 79.7355 85.5845 78.6554 86.0832 78.0746C86.5821 77.4938 87.5958 76.3248 88.3359 75.4769C89.076 74.629 91.2153 72.17 93.0898 70.0126C94.9642 67.8551 97.0669 65.4384 97.7623 64.6419C98.7341 63.5291 99.0008 63.1674 98.9144 63.0792C98.7098 62.8705 96.6169 61.6895 95.1059 60.93C87.1056 56.9087 78.9144 55.194 69.9526 55.6645ZM76.1702 61.2289C75.112 61.4071 73.9986 61.8997 73.0721 62.5997C72.0615 63.3631 71.3168 64.4319 70.8518 65.786C70.6131 66.4809 70.5875 66.6866 70.5823 67.9461C70.5774 69.1474 70.6074 69.4369 70.8016 70.0582C71.6355 72.7273 73.6112 74.6653 76.3416 75.4925C77.0485 75.7066 77.3969 75.7543 78.305 75.7617C79.2764 75.7694 79.5104 75.7373 80.252 75.4942C80.7157 75.3422 81.3534 75.0614 81.6691 74.8702C82.9288 74.1071 83.9861 72.7643 84.4688 71.3144C84.7519 70.4641 84.7754 70.2958 84.7776 69.0982C84.7795 68.0452 84.7388 67.6491 84.5607 66.9861C84.1482 65.4511 83.1649 63.9117 81.9259 62.861C80.377 61.5475 78.1048 60.9032 76.1702 61.2289ZM98.9835 66.3303C98.0917 67.3952 96.9708 68.7237 96.4928 69.2824C94.5361 71.5694 92.751 73.6672 91.2172 75.4825C90.3249 76.5385 88.8591 78.2666 87.96 79.3227C87.0608 80.3787 85.4238 82.3012 84.3221 83.5949C83.2206 84.8886 82.0073 86.3142 81.626 86.7631C81.2448 87.2119 80.1577 88.4863 79.2102 89.5952C78.2627 90.704 77.3906 91.7359 77.2722 91.8883L77.057 92.1652V98.4406C77.057 101.892 77.0893 104.715 77.129 104.714C77.1686 104.712 77.3738 104.67 77.585 104.618C78.0327 104.51 86.4068 102.894 92.9938 101.644C94.0762 101.439 96.4523 100.986 98.274 100.637C100.096 100.288 102.839 99.7659 104.37 99.476C105.902 99.1861 107.824 98.8198 108.643 98.6622C109.461 98.5044 110.865 98.2349 111.763 98.063L113.395 97.7506L113.387 97.2731C113.378 96.6741 113.214 94.571 112.916 91.2273C112.789 89.8016 112.594 87.4903 112.483 86.091C112.219 82.769 112.091 81.9379 111.612 80.4576C109.71 74.5799 106.348 69.3593 101.843 65.2894C101.298 64.7969 100.796 64.3939 100.728 64.3939C100.661 64.3939 99.8754 65.2653 98.9835 66.3303ZM97.4254 76.8764C94.7812 77.2432 92.5647 79.1887 91.8474 81.7723C91.0991 84.4672 91.8882 87.3175 93.9475 89.3582C94.8911 90.2931 95.9708 90.9207 97.2725 91.2907C98.2634 91.5723 100.11 91.599 101.058 91.3453C104.091 90.5338 106.05 87.8871 106.05 84.6029C106.05 81.4795 104.223 78.7225 101.293 77.4257C100.178 76.9323 98.6186 76.7108 97.4254 76.8764ZM74.7528 91.7698C74.4096 91.8171 74.0492 91.8644 73.9519 91.8747C73.7564 91.8955 73.7885 91.9268 74.8728 92.7749L75.4249 93.2066V92.4329C75.4249 92.0074 75.414 91.6648 75.4009 91.6715C75.3877 91.6782 75.0961 91.7224 74.7528 91.7698ZM71.0567 92.2982C70.9511 92.3206 70.7665 92.3597 70.6465 92.3854C70.4585 92.4256 70.5846 92.562 71.5586 93.3729C72.1802 93.8904 73.2936 94.7985 74.0328 95.3908L75.3769 96.468L75.4051 95.9532C75.4207 95.6701 75.3908 95.3264 75.3387 95.1893C75.2822 95.0408 74.5589 94.3945 73.5464 93.5877C71.794 92.1916 71.7263 92.1566 71.0567 92.2982ZM68.3205 92.7726C68.2413 92.7873 67.9281 92.8269 67.6245 92.8603C67.3208 92.8938 67.0725 92.9527 67.0725 92.9912C67.0725 93.0297 68.1813 93.9446 69.5365 95.0244C70.8917 96.1041 72.7343 97.5816 73.6311 98.3076C74.528 99.0337 75.3023 99.6277 75.3517 99.6277C75.4022 99.6277 75.426 99.3436 75.4061 98.9797L75.3704 98.3316L74.1736 97.3412C73.5153 96.7965 72.4367 95.9133 71.7767 95.3785C71.1167 94.8438 70.2094 94.0978 69.7606 93.7209C68.8209 92.9317 68.5219 92.7348 68.3205 92.7726ZM64.4042 93.3328C64.0719 93.3892 63.7911 93.4751 63.7802 93.5237C63.7601 93.6127 65.1203 94.7256 69.7721 98.4264C71.165 99.5345 72.8663 100.898 73.5528 101.456C74.2392 102.015 74.9482 102.574 75.1283 102.699L75.4558 102.927L75.3923 102.464C75.3574 102.209 75.3289 101.886 75.3289 101.745C75.3289 101.482 75.3061 101.462 71.1147 98.064C70.6075 97.6528 69.9982 97.153 69.7606 96.9534C68.7788 96.1285 65.3156 93.3793 65.1678 93.3076C65.0802 93.265 64.7365 93.2763 64.4042 93.3328ZM60.9478 93.8877C60.4164 93.97 60.3585 93.9994 60.4676 94.1308C60.5358 94.2131 62.7087 95.9776 65.2962 98.0521C70.3403 102.096 72.4285 103.784 73.6488 104.805C74.0712 105.159 74.622 105.612 74.8728 105.813L75.3289 106.179L75.3287 105.424L75.3285 104.668L73.0137 102.796C70.6762 100.905 66.5921 97.6343 63.4844 95.1635C62.5546 94.4242 61.7395 93.8136 61.6731 93.8066C61.6065 93.7996 61.2802 93.8361 60.9478 93.8877ZM57.7911 94.4164C57.6235 94.4374 57.4378 94.5129 57.3785 94.5844C57.1631 94.8439 57.5399 95.167 64.4323 100.636C67.2444 102.867 73.2568 107.814 74.6651 109.055C75.0129 109.361 75.3153 109.612 75.3371 109.612C75.359 109.613 75.363 109.247 75.3459 108.8L75.3149 107.986L74.8658 107.617C74.6189 107.414 73.6608 106.622 72.7367 105.856C70.8576 104.298 68.0628 102.035 66.1225 100.501C65.4151 99.9413 64.3298 99.0733 63.7107 98.5716C63.0914 98.07 62.1149 97.2878 61.5405 96.8332C60.9661 96.3787 60.0366 95.6335 59.4751 95.1771C58.9135 94.7208 58.3735 94.3543 58.2751 94.3628C58.1766 94.3712 57.9588 94.3953 57.7911 94.4164ZM58.2732 97.6753C58.3015 97.7723 58.3733 98.046 58.4327 98.2836C58.6535 99.1657 58.7539 99.3337 59.3388 99.7994C60.3178 100.579 62.1104 102.004 64.6243 104.002C65.9444 105.051 67.6725 106.448 68.4645 107.108C70.1165 108.483 72.9536 110.876 73.0248 110.954C73.3175 111.275 74.1776 111.875 74.5374 112.01C75.4774 112.362 75.4249 112.372 75.4249 111.838C75.4249 111.363 75.4234 111.361 74.7289 110.799C74.3462 110.49 73.7142 109.967 73.3245 109.638C72.9348 109.309 72.5774 109.064 72.53 109.093C72.4827 109.122 72.4558 109.102 72.4703 109.049C72.4848 108.995 71.953 108.505 71.2884 107.961C70.6239 107.417 69.5035 106.497 68.7986 105.916C66.8017 104.27 58.5969 97.7076 58.3989 97.5976C58.251 97.5153 58.2303 97.5282 58.2732 97.6753ZM59.8022 102.226C60.1403 103.027 60.3721 103.441 60.6438 103.731C60.8879 103.991 63.2743 105.996 64.3293 106.828C64.4967 106.96 65.4218 107.738 66.3848 108.556C67.3479 109.375 68.2746 110.117 68.4442 110.206C68.7702 110.378 71.0304 111.062 71.0861 111.007C71.153 110.94 68.7773 109.039 68.6923 109.092C68.6436 109.122 68.6156 109.102 68.6301 109.047C68.6558 108.95 65.5564 106.411 63.2829 104.668C62.6632 104.193 62.1067 103.759 62.0462 103.705C61.9246 103.595 60.1642 102.252 59.8569 102.034C59.6667 101.9 59.6657 101.903 59.8022 102.226ZM62.0276 106.684C62.1315 107.416 62.4302 108.468 62.575 108.61C62.6461 108.679 63.2875 108.865 64.0003 109.022C64.7131 109.179 65.381 109.341 65.4846 109.382C65.5882 109.423 64.9402 108.814 64.0446 108.03C63.1489 107.246 62.3135 106.514 62.1879 106.404L61.9596 106.204L62.0276 106.684Z" stroke="white" mask="url(#path-1-inside-1_11653_21393)"/>
</g>
<defs>
<filter id="filter0_d_11653_21393" x="0" y="0" width="165.225" height="169.759" filterUnits="userSpaceOnUse" color-interpolation-filters="sRGB">
<feFlood flood-opacity="0" result="BackgroundImageFix"/>
<feColorMatrix in="SourceAlpha" type="matrix" values="0 0 0 0 0 0 0 0 0 0 0 0 0 0 0 0 0 0 127 0" result="hardAlpha"/>
<feOffset/>
<feGaussianBlur stdDeviation="25"/>
<feComposite in2="hardAlpha" operator="out"/>
<feColorMatrix type="matrix" values="0 0 0 0 1 0 0 0 0 1 0 0 0 0 1 0 0 0 1 0"/>
<feBlend mode="normal" in2="BackgroundImageFix" result="effect1_dropShadow_11653_21393"/>
<feBlend mode="normal" in="SourceGraphic" in2="effect1_dropShadow_11653_21393" result="shape"/>
</filter>
</defs>
</svg>
