<svg width="26" height="26" viewBox="0 0 26 26" fill="none" xmlns="http://www.w3.org/2000/svg">
<path d="M12.75 16.0227C14.5575 16.0227 16.0227 14.5575 16.0227 12.75C16.0227 10.9425 14.5575 9.47727 12.75 9.47727C10.9425 9.47727 9.47727 10.9425 9.47727 12.75C9.47727 14.5575 10.9425 16.0227 12.75 16.0227Z" stroke="white" stroke-width="1.5" stroke-linecap="round" stroke-linejoin="round"/>
<path d="M20.8227 16.0227C20.6775 16.3518 20.6342 16.7168 20.6984 17.0706C20.7625 17.4245 20.9312 17.7511 21.1827 18.0082L21.2482 18.0736C21.451 18.2763 21.612 18.5169 21.7218 18.7818C21.8316 19.0466 21.8881 19.3305 21.8881 19.6173C21.8881 19.904 21.8316 20.1879 21.7218 20.4528C21.612 20.7176 21.451 20.9583 21.2482 21.1609C21.0456 21.3638 20.8049 21.5247 20.5401 21.6345C20.2752 21.7443 19.9913 21.8008 19.7045 21.8008C19.4178 21.8008 19.1339 21.7443 18.869 21.6345C18.6042 21.5247 18.3635 21.3638 18.1609 21.1609L18.0955 21.0955C17.8384 20.844 17.5118 20.6753 17.1579 20.6111C16.804 20.5469 16.439 20.5902 16.11 20.7355C15.7873 20.8737 15.5122 21.1034 15.3183 21.396C15.1245 21.6887 15.0205 22.0317 15.0191 22.3827V22.5682C15.0191 23.1468 14.7892 23.7018 14.3801 24.111C13.9709 24.5201 13.4159 24.75 12.8373 24.75C12.2586 24.75 11.7037 24.5201 11.2945 24.111C10.8853 23.7018 10.6555 23.1468 10.6555 22.5682V22.47C10.647 22.1089 10.5301 21.7587 10.32 21.4649C10.1099 21.1712 9.81626 20.9474 9.47727 20.8227C9.14824 20.6775 8.78324 20.6342 8.42936 20.6984C8.07547 20.7625 7.74892 20.9312 7.49182 21.1827L7.42636 21.2482C7.22373 21.451 6.9831 21.612 6.71823 21.7218C6.45336 21.8316 6.16945 21.8881 5.88273 21.8881C5.596 21.8881 5.31209 21.8316 5.04722 21.7218C4.78235 21.612 4.54172 21.451 4.33909 21.2482C4.13623 21.0456 3.9753 20.8049 3.86551 20.5401C3.75571 20.2752 3.69919 19.9913 3.69919 19.7045C3.69919 19.4178 3.75571 19.1339 3.86551 18.869C3.9753 18.6042 4.13623 18.3635 4.33909 18.1609L4.40455 18.0955C4.65604 17.8384 4.82475 17.5118 4.88891 17.1579C4.95308 16.804 4.90976 16.439 4.76455 16.11C4.62626 15.7873 4.39664 15.5122 4.10396 15.3183C3.81128 15.1245 3.46831 15.0205 3.11727 15.0191H2.93182C2.35316 15.0191 1.79821 14.7892 1.38904 14.3801C0.97987 13.9709 0.75 13.4159 0.75 12.8373C0.75 12.2586 0.97987 11.7037 1.38904 11.2945C1.79821 10.8853 2.35316 10.6555 2.93182 10.6555H3.03C3.39108 10.647 3.74128 10.5301 4.03505 10.32C4.32883 10.1099 4.5526 9.81626 4.67727 9.47727C4.82249 9.14824 4.86581 8.78324 4.80164 8.42936C4.73748 8.07547 4.56877 7.74892 4.31727 7.49182L4.25182 7.42636C4.04896 7.22373 3.88803 6.9831 3.77823 6.71823C3.66843 6.45336 3.61192 6.16945 3.61192 5.88273C3.61192 5.596 3.66843 5.31209 3.77823 5.04722C3.88803 4.78235 4.04896 4.54172 4.25182 4.33909C4.45445 4.13623 4.69508 3.9753 4.95995 3.86551C5.22482 3.75571 5.50873 3.69919 5.79545 3.69919C6.08218 3.69919 6.36609 3.75571 6.63096 3.86551C6.89583 3.9753 7.13646 4.13623 7.33909 4.33909L7.40455 4.40455C7.66165 4.65604 7.9882 4.82475 8.34209 4.88891C8.69597 4.95308 9.06096 4.90976 9.39 4.76455H9.47727C9.79993 4.62626 10.0751 4.39664 10.2689 4.10396C10.4628 3.81128 10.5668 3.46831 10.5682 3.11727V2.93182C10.5682 2.35316 10.7981 1.79821 11.2072 1.38904C11.6164 0.97987 12.1713 0.75 12.75 0.75C13.3287 0.75 13.8836 0.97987 14.2928 1.38904C14.7019 1.79821 14.9318 2.35316 14.9318 2.93182V3.03C14.9332 3.38104 15.0372 3.72401 15.2311 4.01669C15.4249 4.30937 15.7001 4.53899 16.0227 4.67727C16.3518 4.82249 16.7168 4.86581 17.0706 4.80164C17.4245 4.73748 17.7511 4.56877 18.0082 4.31727L18.0736 4.25182C18.2763 4.04896 18.5169 3.88803 18.7818 3.77823C19.0466 3.66843 19.3305 3.61192 19.6173 3.61192C19.904 3.61192 20.1879 3.66843 20.4528 3.77823C20.7176 3.88803 20.9583 4.04896 21.1609 4.25182C21.3638 4.45445 21.5247 4.69508 21.6345 4.95995C21.7443 5.22482 21.8008 5.50873 21.8008 5.79545C21.8008 6.08218 21.7443 6.36609 21.6345 6.63096C21.5247 6.89583 21.3638 7.13646 21.1609 7.33909L21.0955 7.40455C20.844 7.66165 20.6753 7.9882 20.6111 8.34209C20.5469 8.69597 20.5902 9.06096 20.7355 9.39V9.47727C20.8737 9.79993 21.1034 10.0751 21.396 10.2689C21.6887 10.4628 22.0317 10.5668 22.3827 10.5682H22.5682C23.1468 10.5682 23.7018 10.7981 24.111 11.2072C24.5201 11.6164 24.75 12.1713 24.75 12.75C24.75 13.3287 24.5201 13.8836 24.111 14.2928C23.7018 14.7019 23.1468 14.9318 22.5682 14.9318H22.47C22.119 14.9332 21.776 15.0372 21.4833 15.2311C21.1906 15.4249 20.961 15.7001 20.8227 16.0227Z" stroke="white" stroke-width="1.5" stroke-linecap="round" stroke-linejoin="round"/>
</svg>
