<svg width="28" height="25" viewBox="0 0 28 25" fill="none" xmlns="http://www.w3.org/2000/svg">
<path d="M27.1476 8.81819L20.3975 15.1925C19.6859 15.8644 18.5 15.3662 18.5 14.3746V11.0013C11.723 11.0468 8.86409 12.6473 10.7762 19.0335C10.9863 19.7354 10.174 20.2788 9.60402 19.8459C7.77744 18.4584 6.125 15.8044 6.125 13.1256C6.125 6.37853 11.6375 5.03964 18.5 5.00158V1.62588C18.5 0.633347 19.6867 0.136753 20.3975 0.808003L27.1476 7.18244C27.6173 7.62602 27.6177 8.37423 27.1476 8.81819ZM18.5 18.2719V21.5003H3.5V6.50031H5.88669C5.96244 6.50026 6.03739 6.48491 6.10705 6.45516C6.17672 6.42541 6.23965 6.38189 6.29206 6.3272C6.99298 5.59745 7.80317 5.01986 8.68334 4.56114C9.20506 4.28922 9.01175 3.50031 8.42342 3.50031H2.75C1.50734 3.50031 0.5 4.50766 0.5 5.75031V22.2503C0.5 23.493 1.50734 24.5003 2.75 24.5003H19.25C20.4927 24.5003 21.5 23.493 21.5 22.2503V18.0875C21.5 17.699 21.1158 17.4282 20.7495 17.5577C20.236 17.7394 19.686 17.7937 19.1469 17.716C18.8061 17.667 18.5 17.9276 18.5 18.2719Z" fill="white" stroke="#1E293B"/>
</svg>
