<svg width="23" height="21" viewBox="0 0 23 21" fill="none" xmlns="http://www.w3.org/2000/svg">
<path d="M16.5 9.30445C16.5 8.95883 16.5 8.78603 16.552 8.63197C16.7032 8.18444 17.1018 8.01076 17.5011 7.82888C17.95 7.62442 18.1744 7.52219 18.3968 7.5042C18.6493 7.48378 18.9022 7.53818 19.118 7.65929C19.4041 7.81984 19.6036 8.12493 19.8079 8.37302C20.7513 9.51885 21.2229 10.0918 21.3955 10.7236C21.5348 11.2334 21.5348 11.7666 21.3955 12.2764C21.1438 13.1979 20.3485 13.9704 19.7598 14.6854C19.4587 15.0511 19.3081 15.234 19.118 15.3407C18.9022 15.4618 18.6493 15.5162 18.3968 15.4958C18.1744 15.4778 17.95 15.3756 17.5011 15.1711C17.1018 14.9892 16.7032 14.8156 16.552 14.368C16.5 14.214 16.5 14.0412 16.5 13.6955V9.30445Z" stroke="#9C3353" stroke-width="3"/>
<path d="M6.5 9.30437C6.5 8.86912 6.48778 8.47796 6.13591 8.17196C6.00793 8.06065 5.83825 7.98337 5.49891 7.8288C5.05001 7.62434 4.82556 7.52211 4.60316 7.50412C3.93591 7.45016 3.57692 7.90556 3.19213 8.37294C2.24875 9.51877 1.77706 10.0917 1.60446 10.7235C1.46518 11.2333 1.46518 11.7665 1.60446 12.2764C1.8562 13.1979 2.65152 13.9703 3.24021 14.6853C3.61129 15.136 3.96577 15.5473 4.60316 15.4957C4.82556 15.4777 5.05001 15.3755 5.49891 15.171C5.83825 15.0165 6.00793 14.9392 6.13591 14.8279C6.48778 14.5219 6.5 14.1307 6.5 13.6955V9.30437Z" stroke="#9C3353" stroke-width="3"/>
<path d="M4.5 7.5C4.5 4.18629 7.63401 1.5 11.5 1.5C15.366 1.5 18.5 4.18629 18.5 7.5" stroke="#9C3353" stroke-width="3" stroke-linecap="square" stroke-linejoin="round"/>
<path d="M18.5 15.5V16.3C18.5 18.0673 16.7091 19.5 14.5 19.5H12.5" stroke="#9C3353" stroke-width="3" stroke-linecap="round" stroke-linejoin="round"/>
</svg>
