<svg width="23" height="23" viewBox="0 0 23 23" fill="none" xmlns="http://www.w3.org/2000/svg">
<path d="M6.29029 10.3225L10.3225 1.25C11.1246 1.25 11.8938 1.56862 12.4609 2.13576C13.0281 2.7029 13.3467 3.47211 13.3467 4.27418V8.30641H19.0523C19.3446 8.3031 19.634 8.36337 19.9007 8.48304C20.1673 8.60271 20.4047 8.77892 20.5965 8.99946C20.7883 9.22001 20.9298 9.47961 21.0113 9.76028C21.0928 10.041 21.1123 10.336 21.0684 10.6249L19.6773 19.6975C19.6044 20.1782 19.3602 20.6164 18.9897 20.9313C18.6192 21.2463 18.1474 21.4167 17.6612 21.4112H6.29029M6.29029 10.3225V21.4112M6.29029 10.3225H3.26612C2.73141 10.3225 2.2186 10.5349 1.84051 10.913C1.46241 11.2911 1.25 11.8039 1.25 12.3386V19.3951C1.25 19.9298 1.46241 20.4426 1.84051 20.8207C2.2186 21.1988 2.73141 21.4112 3.26612 21.4112H6.29029" stroke="#0E412E" stroke-width="2.5" stroke-linecap="round" stroke-linejoin="round"/>
</svg>
