<svg width="16" height="14" viewBox="0 0 16 14" fill="none" xmlns="http://www.w3.org/2000/svg">
<path d="M9.83976 3.39565L13.9683 3.39565C14.5961 3.39565 15.105 3.90364 15.105 4.53028C15.105 5.15692 14.5961 5.66491 13.9683 5.66491H11.3193L9.04946 5.66491M11.3193 5.66491L11.299 6.46153C11.2853 6.99872 10.9919 7.46457 10.5601 7.72169M9.83976 3.39565L6.39234 3.39565M9.83976 3.39565L7.75465 1.43623C6.34365 0.248189 5.31505 0.8725 4.74355 1.3109L2.90205 2.53098C1.33996 3.45636 0.75 4.52722 0.75 5.42802V9.11555C0.75 10.8276 2.54988 12.4241 4.19959 12.4241L8.12828 12.4604C8.89148 12.4674 9.54058 11.9063 9.64257 11.1513L9.78561 9.98752M9.027 7.93417H9.7856C10.0683 7.93417 10.3333 7.85671 10.5601 7.72169M10.5601 7.72169L10.5188 8.73079C10.4979 9.5501 9.82648 10.2034 9.00539 10.2034H8.24678" stroke="white" stroke-opacity="0.8" stroke-width="1.5" stroke-linecap="round" stroke-linejoin="round"/>
</svg>
