<svg width="22" height="22" viewBox="0 0 22 22" fill="none" xmlns="http://www.w3.org/2000/svg">
<path d="M2.5 19.3436H5.48459V16.4998M16.5154 5.49976V2.65592L19.5 2.49976M14 1.45822C10.5608 0.380048 6.65408 1.20354 3.92893 3.92869C0.023689 7.83393 0.0236893 14.1656 3.92893 18.0708C4.26802 18.4099 4.6254 18.7196 4.9979 18.9998M8 20.5413C11.4392 21.6195 15.3459 20.796 18.0711 18.0708C21.9763 14.1656 21.9763 7.83393 18.0711 3.92869C17.732 3.5896 17.3746 3.27996 17.0021 2.99976" stroke="#0D5337" stroke-width="2" stroke-linecap="round" stroke-linejoin="round"/>
<path d="M11 10.4998C12.3807 10.4998 13.5 9.38047 13.5 7.99976C13.5 6.61904 12.3807 5.49976 11 5.49976C9.61928 5.49976 8.49999 6.61904 8.49999 7.99976C8.49999 9.38047 9.61928 10.4998 11 10.4998ZM11 10.4998C8.79085 10.4998 6.99999 12.2906 6.99999 14.4998M11 10.4998C13.2091 10.4998 15 12.2906 15 14.4998" stroke="#0D5337" stroke-width="2" stroke-linecap="round" stroke-linejoin="round"/>
</svg>
